<?xml version="1.0" encoding="UTF-8"?><svg id="Layer_2" xmlns="http://www.w3.org/2000/svg" width="300" height="200" viewBox="0 0 300 200"><defs><style>.cls-1{fill:#7c7c7c;}.cls-1,.cls-2,.cls-3,.cls-4,.cls-5,.cls-6,.cls-7,.cls-8,.cls-9,.cls-10,.cls-11,.cls-12,.cls-13,.cls-14,.cls-15,.cls-16,.cls-17,.cls-18,.cls-19,.cls-20,.cls-21,.cls-22,.cls-23,.cls-24,.cls-25,.cls-26,.cls-27,.cls-28,.cls-29,.cls-30,.cls-31,.cls-32,.cls-33,.cls-34,.cls-35,.cls-36,.cls-37,.cls-38,.cls-39,.cls-40,.cls-41,.cls-42,.cls-43,.cls-44,.cls-45,.cls-46,.cls-47,.cls-48,.cls-49,.cls-50,.cls-51,.cls-52,.cls-53,.cls-54,.cls-55,.cls-56,.cls-57,.cls-58,.cls-59,.cls-60,.cls-61,.cls-62,.cls-63,.cls-64,.cls-65,.cls-66,.cls-67,.cls-68,.cls-69,.cls-70,.cls-71,.cls-72,.cls-73,.cls-74,.cls-75,.cls-76,.cls-77,.cls-78,.cls-79,.cls-80,.cls-81,.cls-82,.cls-83,.cls-84,.cls-85,.cls-86,.cls-87,.cls-88,.cls-89,.cls-90,.cls-91,.cls-92,.cls-93,.cls-94,.cls-95,.cls-96,.cls-97,.cls-98,.cls-99,.cls-100,.cls-101,.cls-102,.cls-103,.cls-104,.cls-105,.cls-106,.cls-107,.cls-108,.cls-109,.cls-110,.cls-111,.cls-112,.cls-113,.cls-114,.cls-115,.cls-116,.cls-117,.cls-118,.cls-119,.cls-120,.cls-121,.cls-122,.cls-123,.cls-124,.cls-125,.cls-126,.cls-127,.cls-128,.cls-129,.cls-130,.cls-131,.cls-132,.cls-133,.cls-134,.cls-135,.cls-136,.cls-137,.cls-138,.cls-139,.cls-140,.cls-141,.cls-142,.cls-143,.cls-144{stroke-width:0px;}.cls-2{fill:#999;}.cls-3{fill:#a3a3a3;}.cls-4{fill:#707070;}.cls-5{fill:#2e2e2e;}.cls-6{fill:#3f3f3f;}.cls-7{fill:#4d4d4d;}.cls-8{fill:#1b1b1b;}.cls-9{fill:#666;}.cls-10{fill:#919191;}.cls-11{fill:#7d7d7d;}.cls-12{fill:#2f2f2f;}.cls-13{fill:#0e0e0e;}.cls-14{fill:#6a6a6a;}.cls-15{fill:#626262;}.cls-16{fill:#f3f3f3;}.cls-17{fill:#262626;}.cls-18{fill:#747474;}.cls-19{fill:#c8c8c8;}.cls-20{fill:#848484;}.cls-21{fill:#535353;}.cls-22{fill:#949494;}.cls-23{fill:#898989;}.cls-24{fill:#252525;}.cls-25{fill:#5e5e5e;}.cls-26{fill:#121212;}.cls-27{fill:#030303;}.cls-28{fill:#171717;}.cls-29{fill:#e1e1e1;}.cls-30{fill:#bababa;}.cls-31{fill:#ececec;}.cls-32{fill:#797979;}.cls-33{fill:#8e8e8e;}.cls-34{fill:#8c8c8c;}.cls-35{fill:#505050;}.cls-36{fill:#e6e6e6;}.cls-37{fill:#585858;}.cls-38{fill:#e0e0e0;}.cls-39{fill:#323232;}.cls-40{fill:#1a1a1a;}.cls-41{fill:#9c9c9c;}.cls-42{fill:#c2c2c2;}.cls-43{fill:#9e9e9e;}.cls-44{fill:#cbccce;}.cls-45{fill:#393939;}.cls-46{fill:#dfdfdf;}.cls-47{fill:#141414;}.cls-48{fill:#909090;}.cls-49{fill:#686868;}.cls-50{fill:#343434;}.cls-51{fill:#9b9b9b;}.cls-52{fill:#646464;}.cls-53{fill:#777;}.cls-54{fill:#e9e9e9;}.cls-55{fill:#5a5a5a;}.cls-56{fill:#161616;}.cls-57{fill:#b3b3b3;}.cls-58{fill:#232323;}.cls-59{fill:#b9b9b9;}.cls-60{fill:#2b2b2b;}.cls-61{fill:#333;}.cls-62{fill:#bfbfbf;}.cls-63{fill:#737373;}.cls-64{fill:#3b3b3b;}.cls-65{fill:#e7e7e7;}.cls-66{fill:#545454;}.cls-67{fill:#7a7a7a;}.cls-68{fill:#7e7e7e;}.cls-69{fill:#0d0d0d;}.cls-70{fill:#494949;}.cls-71{fill:#a1a1a1;}.cls-72{fill:#373737;}.cls-73{fill:#8d8d8d;}.cls-74{fill:#787878;}.cls-75{fill:#202020;}.cls-76{fill:#969696;}.cls-77{fill:#a0a0a0;}.cls-78{fill:#9d9d9d;}.cls-79{fill:#515151;}.cls-80{fill:#888;}.cls-81{fill:#5f5f5f;}.cls-82{fill:#d5d5d5;}.cls-83{fill:#4b4b4b;}.cls-84{fill:#3d3d3d;}.cls-85{fill:#4c4c4c;}.cls-86{fill:#e2e2e2;}.cls-87{fill:#d3d3d3;}.cls-88{fill:#2c2c2c;}.cls-89{fill:#272727;}.cls-90{fill:#5c5c5c;}.cls-91{fill:#575757;}.cls-92{fill:#cbcbcb;}.cls-93{fill:#4e4e4e;}.cls-94{fill:#1f1f1f;}.cls-95{fill:#464646;}.cls-96{fill:#d9d9d9;}.cls-97{fill:#434343;}.cls-98{fill:#4f4f4f;}.cls-99{fill:#a6a6a6;}.cls-100{fill:#353535;}.cls-101{fill:#acacac;}.cls-102{fill:#696969;}.cls-103{fill:#101010;}.cls-104{fill:#9a9a9a;}.cls-105{fill:#616161;}.cls-106{fill:#0b0b0b;}.cls-107{fill:#404040;}.cls-108{fill:#838383;}.cls-109{fill:#5d5d5d;}.cls-110{fill:#ebebeb;}.cls-111{fill:#2a2a2a;}.cls-112{fill:#3c3c3c;}.cls-113{fill:#313131;}.cls-114{fill:#d7d7d7;}.cls-115{fill:#d0d0d0;}.cls-116{fill:#444;}.cls-117{fill:#979797;}.cls-118{fill:#d6d6d6;}.cls-119{fill:#3e3e3e;}.cls-120{fill:#6f6f6f;}.cls-121{fill:#e8e8e8;}.cls-122{fill:#6d6d6d;}.cls-123{fill:#1c1c1c;}.cls-124{fill:#1e1e1e;}.cls-125{fill:#1d1d1d;}.cls-126{fill:#181818;}.cls-127{fill:#292929;}.cls-128{fill:#191919;}.cls-129{fill:#0a0a0a;}.cls-130{fill:#afafaf;}.cls-131{fill:#525252;}.cls-132{fill:#eaeaea;}.cls-133{fill:#767676;}.cls-134{fill:#383838;}.cls-135{fill:#555;}.cls-136{fill:#959595;}.cls-137{fill:#242424;}.cls-138{fill:#4a4a4a;}.cls-139{fill:#303030;}.cls-140{fill:#757575;}.cls-141{fill:#a4a4a4;}.cls-142{fill:#131313;}.cls-143{fill:#111;}.cls-144{fill:#adadad;}</style></defs><g id="Layer_2-2"><rect class="cls-44" width="300" height="200"/><path class="cls-121" d="m239.37,168.74c.17,6.44,1.03,7.29,7.3,7.13.92-.02,1.8-.11,2.19.99h-8.1c-2.52-2.16-1.64-5.45-2.69-8.1.43,0,.86-.01,1.3-.02Z"/><path class="cls-132" d="m9.31,46.74c.22,0,.44-.02.66-.02.02.95.11,1.89.68,2.7-1.09,5.12.02,10.43-1.34,15.53v-18.2Z"/><path class="cls-144" d="m213.87,26.41c1.79.11,3.56.12,5.32-.41.63-.19,1.41-.37,1.98-.17,6.33,2.31,12.67.18,19,.07,1,.7,2.16.57,3.28.64-.69,1.32-2.28,2.19-2.01,3.99-2.16-.87-4.21-2.29-6.73-1.32-2.63-1.03-5.26-1.91-7.99-.31-.99.59-2.14,1.31-1.14,2.57,2.89,3.64,1.4,4.18-2.27,3.45-.89-.18-1.46.42-1.69,1.26-.12.44-.03,1.04.54.93,1.87-.36,1.33,1.72,2.34,2.19.1.46.94,1.43-.41,1.02-.98-.3-1.8-1.13-2.96-.94-.2-.04-.39-.08-.59-.12-1.75-.35-3.32-2.35-5.3-.58-3.19-.36-6.71.9-9.41-1.97-.43-.46-1.4-.66-1.87-.19-2.93,2.9-6.42,1.58-9.77,1.43.19-.27.37-.55.59-.8.63-.73,2.34-.37,2.21-1.66-.16-1.53-1.78-1.47-2.91-1.74-2.48-.6-5.3-.53-7.43-1.72-3.59-2.01-6.85-4.36-11.29-2.97-.72.23-1.08-.63-1.41-1.2,11.91,0,23.82,0,35.73-.02,1.54,0,3.23.29,4.19-1.44Z"/><path class="cls-3" d="m99.06,25.93c4.24-.02,8.45-.32,12.71.39,3.74.63,7.52-1.03,11.35-.54,1.42.18,2.93-.18,4.23.73-2.47.92-1.5,1.81.03,2.68,2.09,2.37,4.97,1.34,7.49,1.58,3.92.38,7.16,1.99,10.06,4.49-.9,0-1.8,0-2.7,0-2.91-1.06-5.73-1.13-8.82.79,1.45.59,2.67,1.05,2.74,2.53-1.66.84-3.31.06-4.93-.13-2.44-.28-4.86-.91-7.26.15-2.91-.15-5.81-.92-8.72.03-2.04,1.81-4.09.4-6.14,0-.43.21-.85.42-1.28.63-.45-.44-.9-.87-1.35-1.31.12-1,1.84-1.39,1.19-2.53-.64-1.13-2-.82-3.09-.81-1.67,0-4.25.86-4.84.1-2.19-2.79-4.63-1.21-6.97-1.07-2.99.18-5.84-.52-8.76-.98,1.19-1.08,2.54-.75,3.81-.76,5.59-.03,11.16-.23,16.67-1.31,1.22-.24,2.24-.35,1.98-1.99-.23-1.42-1.13-1.72-2.41-1.75-1.68-.04-3.3.8-5,.31,0-.42,0-.84,0-1.25Z"/><path class="cls-58" d="m246.77,158.13c-.99-1.57-.77-3.41-1.1-5.12-.47-2.42-.54-4.61-3.62-5.94-2.49-1.07-2.77-4.53-3.2-7.27.86,1.12,1.72,2.23,2.58,3.35.13.65.17,1.34.41,1.96.37.95.9,1.85,2.13,1.83.49,0,.84-.36.86-.85.04-1.15-.03-2.29-1.38-2.73-.42-.14-.88-.15-1.32-.22.85-3.67,0-7.3-.47-10.9-.29-2.21.59-4.81-1.57-6.61,1.12-3.4.5-6.84.31-10.28-.17-3.09-1.04-6.16-.31-9.29,1.11-2.37.75-4.83.34-7.25-.88-5.19-1.42-10.4-1.71-15.65.45,0,.89-.02,1.34-.03.19.84.62,1.54,1.33,2.05-.27,4.2,1.34,8.15,1.63,12.29.03.41.72.77,1.1,1.15-1.53,4.73-.98,9.25,1.39,13.59-.03.18-.02.36.02.53.43,3.38-.54,6.83.5,10.18.27,3.37.53,6.75.8,10.12.47,3.12.94,6.24,1.41,9.36-.01,1.85-.34,3.74.59,5.49,1.62,2.97.56,6.19.88,9.28-1.19-.31-2.35-.55-2.94.96Z"/><path class="cls-99" d="m173.95,27.87c.33.57.69,1.43,1.41,1.2,4.44-1.4,7.7.95,11.29,2.97,2.13,1.19,4.95,1.12,7.43,1.72,1.13.27,2.75.21,2.91,1.74.14,1.3-1.58.94-2.21,1.66-.22.25-.39.54-.59.8-.97.68-1.32,1.66-1.37,2.78-.44-.04-.88-.07-1.31-.11-1.67-2.01-9-2.32-12.33-.29,2.67.12,4.99.23,8.15.38-1.67.61-2.48.91-3.3,1.21h-11.42c-2.18-1-4.5-.45-6.75-.62.86-1.2,2.13-1.34,3.46-1.36,2.1.27,4.19.93,6.94.12-2.18-1.04-3.88-1.36-5.65-1.42-.63-.1-1.55.15-1.71-.65-.17-.82.7-1.1,1.34-1.19,1.1-.16,2.23-.13,3.34-.23,1.07-.1,2.53.17,2.83-1.19.28-1.27-.68-2.27-1.64-3.1-1.6-1.38-3.74-.62-5.44-1.29-7.66-3.04-15.79-2.32-23.72-3.17,0-.21,0-.41,0-.62.99-.61,2.08-.73,3.21-.72,7.47.03,14.94.05,22.41.07.39,1.51,1.32,1.87,2.71,1.29Z"/><path class="cls-69" d="m155.59,66.34c-1.42,0-2.84.01-4.26.02-3.08.04-6.29-.88-9.09,1.22-.4.04-.8.08-1.2.12-8.34-.42-16.77.59-25.02-1.48,3.2-1.23,6.33-2.75,9.86-.82.78.43,1.98.23,2.96.11,1.65-.2,2.04-1.14,1.23-2.59-.89-1.13-1.01-2.87-2.68-3.37-.46-.89-.91-1.77-1.37-2.66-.41-.47-.83-.93-1.24-1.4.16-.72.31-1.43.47-2.15.23-.58.46-1.17.69-1.75.25-.26.5-.52.75-.78.65.69,1.3,1.39,1.95,2.08.83,1.77,2.14,2.94,4.1,3.31.82.31,1.65.62,2.47.94,5.3,2.08,10.92,2.75,16.47,3.72,5.12,3.07-1.98,2.33-1.21,4.25,2.07.39,4.56-.87,6.76,1.03-.77.09-1.21.14-1.66.19Z"/><path class="cls-28" d="m20.63,50.19c-.34-.2-.67-.41-1.01-.61-3.57-1.93-1.57-5.29-2.05-8.01,2.48,1.71,3.25,1.14,3.9-2.88.98-.68,1.49-1.7,2-2.73.59-.08,1.07.1,1.37.64,2.05,7.67,12.73,13.09,20.28,10.29.76,1.37,2.11,1.13,3.34,1.21-.4,1.29-5.64-.37-2.05,3.35-1.82-.15-3.64-.3-5.53-.45,1.3,2.69-.24,4.29-1.89,5.84-4.42-1.46-6.75-4.74-7.81-9.07-.27-1.1-.54-2.78-1.89-1.74-2.23,1.71-5.06,2.22-7.16,4.06-.5.03-.99.06-1.49.09Z"/><path class="cls-91" d="m92.94,63.66c-.39-.15-.98-.19-1.15-.48-1.31-2.18-2.65-2.27-4.31-.33-.42.49-1,1.25-1.94.79,0-.24.02-.49.03-.73.67-.69,1.35-1.38,2.02-2.07.9-.47,2.7.92,2.75-1.32-.91-2.68-.56-5.17,1.12-7.47.49-.2.98-.39,1.47-.59,1.17.86,2.32.64,3.74.48,3.43-.39,4.72-2.95,6.43-5.2-.13-3.23-3.07-.86-4.2-2.09l-.6-1.87c.03-.26.06-.52.09-.78l2.01.03c2.09,2.18,2.28-.61,3.29-1.25.53,1.7,2.13,1.97,3.47,2.59,0,.23,0,.46,0,.69-.99.62-2.62,1.29-1.8,2.55.62.96,2.19.15,3.23-.43.26-.14.39-.51.58-.77.85-.32,1.92-.74,2.43.16.94,1.66-2,1.13-1.68,2.6.21.43.41.87.62,1.3-1.32,1.79.84,1.37,1.29,2.03-.34.65-.97,1.23-.56,2.08-.31,1.54-1.61,1.99-2.81,2.56-1.19-.96-3.41,1.28-4.06-1.32-1.01-1.98-2.93-2.02-4.59-1.62-1.63.39-2.3,1.93-2.11,3.68-2.19.96-2.22,1.87.06,2.72-.89.46-1.79.92-2.68,1.38-1.61.19-2.08,1.28-2.14,2.7Z"/><path class="cls-16" d="m253.54,141c.89,4.27,1.19,8.6,1.39,12.95-.29,1.47.03,3.57-2.66,2.55.09-.66.27-1.31.25-1.96-.3-10.42-2.21-20.66-3.35-30.99-1.41-12.88-2.83-25.76-4.46-38.62-.64-5.08-.26-10.29-2.02-15.22-.22-.91-.44-1.82-.66-2.73.25-.23.5-.46.74-.7,1.62,1.94,1.3,4.48,2.11,6.68.73,2.46-.33,5.37,1.91,7.44.24.83.48,1.65.72,2.48-.17,5.06-1.06,10.14.69,15.11-.07,2.31-.14,4.63,1.29,6.65.05,1.62-.03,3.25.72,4.77-1.43,3.03-.35,5.87.63,8.73.22.52.44,1.05.66,1.57-1.11,2.71-.83,5.31.66,7.8.05,1.44.11,2.87.73,4.21-1.45,3.21-.39,6.25.63,9.3Z"/><path class="cls-28" d="m240.09,106.06c-.73,3.12.13,6.19.31,9.29.19,3.44.81,6.88-.31,10.28-.42-.23-.85-.46-1.27-.68-.32-2.05.59-4.37-1.37-6.05-1.17-5.83-.87-11.78-1.52-17.67-1.27-11.52-1.82-23.12-2.66-34.69.25-.75.49-1.5.74-2.26.99,1.38.44,3.12,1.26,4.59.04-.64.07-1.28.11-1.91.22,0,.43.01.65.02-.04,9.22,1.77,18.29,2.42,27.46.28,3.88.52,7.84,1.65,11.63Z"/><path class="cls-99" d="m99.06,25.93c0,.42,0,.84,0,1.25-3.37.16-6.79-.4-10.09.71-.01-.25-.03-.51-.04-.76h-11.27c0,.19,0,.37,0,.56,2.19.29,4.38.58,6.57.87-.45.66-.89,1.32-1.34,1.98-4.24-.24-8.37-1.56-12.7-1.02-1.56.19-2.31,2.89-4.4,1.23-1.88-1.5-4.38-2.17-5.88-4.22-9.22.22-18.46-.62-27.65.66-2.07.3-4.59-.43-5.76,2.08-1.61,3.46-2.2,3.68-4.95,1.41,2.75-3.44,6.61-4.71,10.73-4.73,22.26-.1,44.53-.03,66.8-.02Z"/><path class="cls-26" d="m234.01,64.27c-.25.75-.49,1.5-.74,2.26-1.15-2.67.5-5.76-1.28-8.34-.56-1.43-1.7-1.91-3.14-2.08-2.09-.24-3.18-1.71-3.4-3.59-.36-3.09-.67-6.24,1.18-9.07,2-.62,2.89-2.18,3.4-4.05l-.07-.08c.22,0,.44.01.66.02.48.86.96,1.73,1.44,2.59-.03,2.61-.31,5.24.27,8.38.8-1.04,1.24-1.62,1.69-2.2.07,1.08-.29,2.84.66,3.03,3.28.67,3.9,3.55,5.4,5.71.24.23.48.46.72.7-.02.21-.05.42-.08.62-.44,0-.88.02-1.31.03-.22,0-.45,0-.67,0-.23-.86-.52-1.7-.67-2.57-.22-1.25-.76-2.15-2.18-1.94-1.36.2-2.7,1.43-2.3,2.39,1.16,2.77-.55,5.53.43,8.2Z"/><path class="cls-121" d="m42.01,74.47c2.43.22,4.87.35,7.28.67,2.33.31,4.52,4.39,3.46,6.99-1.99,4.87-1.85,9.72-1.09,14.8.68,4.58-1.17,9.05-1.49,13.64-.27,3.94-1.89,7.77-1.13,11.86.15.82.09,2.15-1.01,2.18-1.31.04-.88-1.31-.92-2.1-.31-7.28,1.03-14.39,2.36-21.5.31-1.63.22-3.34.31-5.02.23-4.55-.17-9.06,1.07-13.65,1.16-4.26.24-7.02-4.96-6.68-1.28.08-2.6-.44-3.91-.68,0-.17.01-.34.02-.52Z"/><path class="cls-107" d="m55.13,104.63c.34-3.09.5-6.21,1.06-9.25,1.15-6.15.77-12.4,1.56-18.56.26,4.07,1.42,8.1.45,12.23-.17.7.42.93,1.07.86,0,1.38.01,2.75.02,4.13-.72,7.59-1.45,15.17-2.17,22.76-.92,2.19-.43,4.52-.64,6.78-.89-1.21-.16-3.2-1.91-4,.64-4.97,1.57-9.92.57-14.95Z"/><path class="cls-141" d="m21.53,30.68c2.75,2.27,3.34,2.05,4.95-1.41,1.17-2.51,3.7-1.78,5.76-2.08,1.61,2.32,4.04.94,6.07,1.35-1.18,1.93-3.34,1.44-5.06,2.02-.62.21-1.52.21-1.48,1.02.05,1.07,1.11.85,1.82,1.01q1.08,2.7-.67,2.69c-1.53-1.31-3.15-1.61-5.67-.71,2.33,1.07,4.03.56,5.67.72-.9.45-1.8.9-2.7,1.35-1.79,0-3.59-.02-5.38-.03-.3-.54-.77-.72-1.37-.64-2.05-.48-4.09-.95-6.14-1.43,1.05-1.66,2.31-3.09,4.19-3.85Z"/><path class="cls-91" d="m289.34,40.66c-1.14,2.61-3.55,4.1-5.39,6.09-.4.03-.8.06-1.2.09-1.32-.66-2.49-1.3-3.25.84-.57,1.61-2.2,2.34-3.64,3.14l-.02-.12c.02-.39.03-.78.05-1.17,3.07-4.18,2.74-6.54-1.4-10.19,1.38-.22,2.75-.44,4.13-.66,3.36-1.14,6.45,1.56,9.81.71.18-.05.6.82.91,1.27Z"/><path class="cls-28" d="m70.74,65.71c-.69,6.94-1.38,13.87-2.08,20.81-.44.67-.88,1.34-1.32,2.01,0,0,0,0,0,0-.44-7.19,1.61-14.28.8-21.49-.05.42-.09.84-.14,1.26-.44-.22-.89-.45-1.33-.67.18-2.2-.48-3.92-2.74-4.7-.44-.45-.87-.89-1.31-1.34,1.52-1.7,3.25-3.27,5.62-3.18,2.12.08.6,2.91,2.21,3.62.1.04.17.14.26.21.57,1.96,2.17,1.92,3.77,2.03,2.64.19,5.39-.62,7.9.82,0,0-.04,0-.05,0-3.87.06-7.8-.92-11.6.63Z"/><path class="cls-142" d="m38.99,56.85c1.64-1.56,3.19-3.15,1.89-5.84,1.9.16,3.72.3,5.53.45,3.35.6,4.66,3.99,7.41,5.42.47.99,1.69,1.5,1.8,2.87-2.04,1.01-3.85.07-5.74-.53-2.06-.66-4.23-.38-6.36-.26l-.25.03-.22-.11c-.93-1.52-2.82-1.12-4.06-2.03Z"/><path class="cls-41" d="m251.54,25.9c8.42,0,16.89-1.17,25.22,1.01,1.34.35,3.04.22,3.23,2.24-.27.03-.54.06-.81.09-1.34-.23-2.67-.47-4.01-.7-3.19.19-6.8-1.07-9.47.6-3.29,2.06-6.21,1.54-9.43.74-.89-1.27-2.33-1.07-3.6-1.45-1.42-.43.1-.78.25-1.19h3.84c-.02-.27-.04-.55-.06-.82h-5.2c0-.17.02-.34.03-.51Z"/><path class="cls-48" d="m289.34,40.66c-.31-.44-.73-1.31-.91-1.27-3.36.85-6.46-1.85-9.82-.71-2.15-1.33-4.42-1.56-6.81-.73-1.13-2.82.6-3.76,2.85-3.8,2.84-.04,5.14-1,7.14-2.91.51.62,1.01,1.25,1.52,1.87.74,2.6,3.07,1.64,4.75,2.13,1.89,1.46,2.99,3.1,1.27,5.41Z"/><path class="cls-134" d="m62.62,61.59c.44.45.87.89,1.31,1.34-.21.67-.43,1.33-.64,2-2.09,1.06-.88,2.67-.69,4.11-2.32,3.96-1.22,8.45-1.94,12.66-.02.48-.05.97-.07,1.45-.26,2.23-.53,4.45-.79,6.68-.18.02-.36.04-.54.06-.65.07-1.23-.15-1.07-.86.98-4.13-.19-8.16-.45-12.23-.3-5.08,2.06-10.02.75-15.15,0,0,.12-.31.12-.31.59,1.36,1.19,2.71,1.95,4.47.83-1.71,1.44-2.97,2.05-4.23h-.01Z"/><path class="cls-137" d="m38.99,56.85c1.24.91,3.13.5,4.06,2.03-4-.47-7.63-2.25-11.46-3.32-1.52-1.22-3.51-.33-5.41-1.25,2.58-3.11.29-3.44-2.1-3.74-.66-.08-1.3-.3-1.95-.46,2.1-1.84,4.93-2.34,7.16-4.06,1.35-1.04,1.62.64,1.89,1.74,1.07,4.33,3.4,7.6,7.81,9.07Z"/><path class="cls-126" d="m217.14,55.57c-2.23.19-2.92,2.64-4.83,3.3-3.23-.8-6.09,0-8.66,2.04-.9.22-1.8.44-2.71.67.31-.82.43-1.42-.78-1.69-2.59-.57-4.98-1.95-7.76-1.79-.63.04-1.5-.19-1.44-1.03.07-.92.95-.74,1.59-.71,4.32.19,8.63.46,12.95.55,1.36.03,3.56,1.67,3.88-.44.2-1.29-2.4-.75-3.76-.97.46-.21.93-.42,1.39-.63,2.47-.37,4.95.78,7.42-.03h.34s.34,0,.34,0c.64.14,1.28.28,1.92.41,0,.12.04.22.1.32Z"/><path class="cls-56" d="m155.59,66.34c.44-.05.88-.1,1.66-.19-2.21-1.9-4.69-.64-6.76-1.03-.77-1.92,6.33-1.18,1.21-4.25,2-.62,4.52,1.35,6.14-1.21.77-1.02.71-2.78,2.55-2.85-.06,2.39,1.89,3.07,3.45,4.09-.25,1-.55,2.02-1.6,2.44-3.29,1.29-1.36,2.09.25,2.94.16,1.32-.83,1.3-1.69,1.44-1.8-.21-3.57-.54-5.2-1.38Z"/><path class="cls-69" d="m240.08,56.85c-1.5-2.16-2.12-5.04-5.4-5.71-.95-.19-.59-1.96-.66-3.03.57-1.08.15-2.56,1.34-3.4.88-.18,1.75-.36,2.63-.54-.18.41-.35.83-.53,1.24-1.68,4.45-.94,5.79,3.3,6.01,2.74.27,5.45.28,8.07-.75.84,1.16,2.14,1.64,3.37,2.21.05,1.99-.11,3.79-2.88,3.37-1.23-.23-2.45-.46-3.68-.7-.27-.01-.54-.02-.81-.03.74-1.86,0-2.64-1.89-2.69-3.01-.09-2.87,2-2.87,4.02Z"/><path class="cls-125" d="m67.42,99.65c-.97,10.68-1.93,21.36-2.9,32.04-.95.65-1.16,1.64-1.24,2.68-.8-3.65.32-7.19.66-10.77.1-2.79-.03-5.57.38-8.37,1.32-8.85,1.96-17.76,2.34-26.69.22,0,.45,0,.67,0,0,0,0,0,0,0,.03,3.71.05,7.41.08,11.12Z"/><path class="cls-111" d="m200.95,61.57c.9-.22,1.8-.44,2.71-.67.86.15,1.79.25,1.65,1.49-.16,1.46.93,1.09,1.7,1.2-1.4,1.01-3.05,1.2-4.7,1.38-4.67-1.48-9.47-.33-14.19-.69-1.02-.2-1.93-.63-2.69-1.35.39-4.55,3.07-1.21,4.74-1.37,3.59,0,7.19.01,10.78.02Z"/><path class="cls-59" d="m173.95,27.87c-1.39.58-2.32.21-2.71-1.29,4.75-.38,9.55.35,14.26-.69,1.09.74,2.34.67,3.56.67,8.25,0,16.51-.03,24.76-.05,0,0,.05-.09.05-.09-.96,1.73-2.65,1.44-4.19,1.44-11.91.02-23.82.02-35.73.02Z"/><path class="cls-117" d="m281.79,31.25c-1.99,1.91-4.3,2.87-7.14,2.91-2.25.03-3.98.98-2.85,3.8-1.79-.01-3.61.16-5.36-.1-1.4-.21-3.55-.11-3.81-1.74-.27-1.73,1.97-1.32,3.04-1.95.48-.28.93-.61,1.4-.92.45-.22.9-.45,1.35-.67,2.32.7,4.63-.29,6.95,0,2.5.31,3.79-.8,3.81-3.33.27-.03.54-.06.81-.09,2.72-1.11,1.66,1.01,1.8,2.1Z"/><path class="cls-112" d="m49.67,154.64c-.57-5.06-1.32-10.06,1.32-14.94,1.8-3.33.76-7.27,1.45-10.89.21-1.08-.06-2.25.78-3.17.42.18.83.36,1.25.54-.19,1.39-.51,2.78-.53,4.17-.01,1.45.73,1.69,1.82.7.03.93.01,1.85-.51,2.68-2.42.39-1.71,2.5-1.97,3.91-.34,1.82.05,3.75-.78,5.52-1.25.92-1.35,2.27-1.31,3.63.08,2.59-.21,5.14-.66,7.69-.28.05-.57.11-.85.16Z"/><path class="cls-121" d="m228.46,105.56c1.37,17.67,2.74,35.34,4.16,53.52-1.57-1.42-1.94-2.8-1.95-4.34-.02-1.68-.15-3.37,0-5.04.83-9.21-1.21-18.27-1.74-27.39-.32-5.51-.73-11.06-.46-16.75Z"/><path class="cls-128" d="m238.82,124.94c.42.23.85.46,1.27.68,2.16,1.8,1.28,4.4,1.57,6.61.47,3.59,1.32,7.23.47,10.9-.23,0-.47.01-.7.02-.86-1.12-1.72-2.23-2.58-3.35-.06-1.91-.12-3.82-.18-5.73.16-3.04.64-6.08.15-9.13Z"/><path class="cls-8" d="m163.84,60.9c-1.57-1.01-3.52-1.7-3.45-4.09,1.14-.58,1.77.57,2.68.79,1.5,3.39,4.09,3.02,6.87,1.98h1.32c-.17.65-.29,1.71.43,1.63,3.56-.4,6.26,2.43,9.68,2.37.05.39.1.79.16,1.18l-.15.17c-1.58-.13-3.06-.58-4.52-1.2-3.06-1.28-5.73-1.66-8.28,1.56-1.75,2.21-4.56,3.63-7.78,2.42.85-.14,1.84-.12,1.69-1.44.34,0,.67,0,1.01-.02,2.68-.15,5-1.61,4.84-4.1-.15-2.42-2.94-.8-4.49-1.26Z"/><path class="cls-137" d="m92.94,63.66c.06-1.42.53-2.51,2.14-2.7.86.77,1.94-.03,2.87.36-1.39,2.91-1.23,3.26,1.82,4.46,1.73.68,3.52.42,5.3.43,1.39,0,2.77,0,4.16,0,2.26,0,4.53,0,6.79.01,8.24,2.07,16.67,1.06,25.01,1.48-7.36.77-14.73,1.25-22.04-.29-4.13-.87-8.28-.64-12.39-.42-4.96.27-9.5-.63-13.67-3.33Z"/><path class="cls-5" d="m226.63,43.45c-1.85,2.83-1.54,5.98-1.18,9.07.22,1.88,1.31,3.35,3.4,3.59,1.44.17,2.58.65,3.14,2.08-2.24-.92-4.17-.9-6.41.58-2.99,1.97-4.65,1.11-8.44-3.2-.06-.1-.09-.21-.1-.32.26.05.52.1.78.14,1.4.16,1.94,1.33,2.71,2.26.88,1.05,2.02,1.4,3.26.65,1.26-.77,1.52-1.92.72-3.13-1.32-1.98-1.32-4.18-1.29-6.4,0-1.61-.04-3.22.68-4.73.91-.2,1.82-.39,2.73-.59Z"/><path class="cls-128" d="m252.27,156.49c2.69,1.03,2.37-1.08,2.66-2.55,2.76,2.18.33,4.23-.44,6.03-.61,1.42-1.8,3.3-4.06,2.66-2.21-.63-3.46-2.17-3.67-4.5.59-1.51,1.76-1.27,2.94-.96.4-.21.8-.41,1.21-.62.45-.02.91-.04,1.36-.06Z"/><path class="cls-143" d="m49.67,154.64c.28-.05.57-.11.85-.16.2.06.4.11.6.16,1.52,1,3.06.06,4.59.02.5-.03,1-.07,1.5-.1.5.76,1,1.52,1.49,2.29-.17,1.8-1.59,2.66-2.89,3.38-2.52,1.41-4.72.19-5.36-2.73-.21-.97-.52-1.91-.79-2.87Z"/><path class="cls-110" d="m209.08,72.38c-4.28,5.63-10.01,8.16-17.02,8.08-5.05-.06-10.09,0-15.14-.03-1.49-.01-3.08.05-4.12-1.57,6.13,1.76,12.35.9,18.5.85,6.42-.06,11.7-3.19,16.41-7.35.46.01.92.02,1.37.03Z"/><path class="cls-113" d="m58.7,156.85c-.5-.76-1-1.52-1.49-2.29.54-3.57,1.08-7.14,1.62-10.7.25.7.5,1.4.71,1.97,2.18-.95,1.43-2.99,1.68-4.68.46-.22.93-.45,1.39-.67.25.5.5,1,.75,1.5-1.55,4.96-3.1,9.93-4.66,14.89Z"/><path class="cls-17" d="m82.38,65.09c-2.51-1.44-5.26-.63-7.9-.82-1.6-.11-3.2-.07-3.77-2.03,1.21-1.91,3.3-1.64,5.09-1.9,1.77-.26,3.55-.29,5.03-1.46.45.23.91.46,1.36.69-1.03.73-2.22,1.05-3.44,1.3-.97.21-2.31.3-2.08,1.66.22,1.28,1.58,1.09,2.54,1.02,1.9-.12,3.79-.42,5.68-.64.23,0,.46,0,.68,0,0,.24-.02.49-.03.73-.91.81-1.89,1.47-3.17,1.45Z"/><path class="cls-38" d="m89.62,79.79c3.32,1.23,6.76,1.54,10.27,1.32,9.77-.61,19.37,2.17,29.16,1.44,2.08-.16,4.31-1.18,6.39.3-7.78-.08-15.57,1.1-23.32-.44-6.56-1.31-13.21-.27-19.8-.63-.9-.66-1.79-1.32-2.69-1.99Z"/><path class="cls-144" d="m145.62,27.23c0,.21,0,.41,0,.62-2.98.02-5.97-.03-8.95.08-3.13.11-6.32-.19-9.27,1.27-1.53-.87-2.51-1.76-.03-2.68,4.8,0,9.59,0,14.39-.03,1.35,0,2.69-.04,3.88.74Z"/><path class="cls-36" d="m43.06,171.46c-1.18-1.22-1.37-2.76-1.36-4.36.01-3.8,0-7.6.04-11.4,0-.64,0-1.57.82-1.61,1.07-.05,1.22,1.03,1.05,1.72-1.25,5.19-.1,10.45-.56,15.66l.02-.02Z"/><path class="cls-14" d="m54.46,126.19c-.42-.18-.83-.36-1.25-.54-.35-7.1,1.13-14.03,1.92-21.02,1,5.03.07,9.98-.57,14.95-.03,2.2-.07,4.41-.1,6.61Z"/><path class="cls-85" d="m17.34,34.53c2.05.48,4.09.95,6.14,1.43-.51,1.03-1.01,2.05-2,2.73-1.76.33-1.51-1.93-2.76-2.35-1.38,1.64-1.2,3.45-1.15,5.23.48,2.72-1.53,6.08,2.05,8.01-1.57,1.51-2.84,1.84-2.79-.96.09-4.7-.2-9.41.51-14.08Z"/><path class="cls-116" d="m275.88,49.53c-.02.39-.03.78-.05,1.17-2.37,2.15-6.31,2.38-7.42,6.07-1.11.27-2.23.54-3.34.8-.32-1.44.97-1.5,1.74-2.01.91-.62,1.75-1.26.23-2.15.64-.93,2.71-.84,1.97-2.75,2.26-.54,4.73.17,6.87-1.13Z"/><path class="cls-89" d="m207.01,63.59c-.77-.11-1.87.26-1.7-1.2.14-1.23-.79-1.33-1.65-1.49,2.57-2.03,5.42-2.84,8.66-2.04-1.44,1.94-2.39,4.43-5.31,4.72Z"/><path class="cls-125" d="m249.32,56.26c2.77.42,2.94-1.38,2.88-3.37.7.17,1.41.35,2.11.52,2.04,1.39,3.89,3.22,6.7,2.73-1.84,2.4-4.48.91-6.71,1.36-1.66-.42-3.32-.83-4.98-1.25Z"/><path class="cls-118" d="m44.62,148.98c-.65-6.67,2.14-12.99,1.32-19.62,1.61,2.52,1,10.79-1.32,19.62Z"/><path class="cls-84" d="m22.12,50.1c.65.16,1.29.38,1.95.46,2.4.3,4.68.63,2.1,3.74,1.9.92,3.9.03,5.41,1.25-4.77.49-8.95-.23-10.96-5.37.5-.03.99-.06,1.49-.09Z"/><path class="cls-125" d="m188.11,64.27c4.72.36,9.52-.79,14.19.69-6.98.92-13.95,1.06-20.93-.02,0,0,.15-.17.15-.17,2.21.11,4.46.57,6.58-.49Z"/><path class="cls-72" d="m254.3,57.5c2.24-.45,4.87,1.03,6.71-1.36,2.01-.91,4.02-1.81,6.03-2.72,1.52.89.68,1.53-.23,2.15-.76.52-2.05.57-1.74,2.01-3.6.87-7.19,1.03-10.78-.07Z"/><path class="cls-110" d="m38.84,73.92c-1.86.63-3.66.55-5.5-.15-1.86-.71-3.78-1.3-5.66-1.96-.83-.29-2.53.02-2.1-1.35.41-1.32,2.03-.77,2.9-.26,3.22,1.88,6.76,2.78,10.35,3.72Z"/><path class="cls-132" d="m225.42,73.02c.6,4.46,1.22,8.91,1.78,13.38.07.52-.02,1.24-.72,1.33-.92.11-1.07-.72-1.11-1.35-.11-1.45-.11-2.9-.13-4.35-.03-2.97.27-5.96-.77-8.87.32-.04.63-.09.95-.13Z"/><path class="cls-31" d="m158.5,82.44c-6.14,1.96-11.99-2.08-18.1-.77,6.11-2.1,12.06.77,18.1.77Z"/><path class="cls-46" d="m43.04,171.48c1.04,1.72,1.89,3.64,4.52,3.21,3.64-.6,5.33-2.93,5.69-6.5.95,4.4-.48,6.82-4.05,7.27-4.79.62-5.89-.1-6.15-3.99,0,0-.02.02-.02.02Z"/><path class="cls-80" d="m213.82,26.5c-8.25.02-16.51.04-24.76.05-1.22,0-2.47.07-3.56-.67,8.61-.03,17.22-.07,25.83-.09.88,0,1.81-.06,2.49.71Z"/><path class="cls-31" d="m89.62,79.79c.9.66,1.79,1.32,2.69,1.99-1.12,0-2.34,0-3.13-.81-2.71-2.75-5.86-3.95-9.69-3.22h0c2.36-3.39,4.81-1.72,7.36-.23,1.07.62,1.97,1.36,2.77,2.27Z"/><path class="cls-60" d="m43.51,58.96c2.13-.13,4.3-.4,6.36.26,1.9.61,3.7,1.54,5.74.53-.11-1.37-1.33-1.89-1.8-2.87.24-.24.48-.48.72-.72,2.06,1.19,3.05,3.21,4.1,5.2l-.12.31c-4.25-.73-8.5-1.45-12.74-2.19-.76-.13-1.5-.34-2.26-.52Z"/><path class="cls-31" d="m276.53,61.06c-2.27,3.31-4.22,5.6-7.68,7.41,2.71-2.61,4.87-4.69,7.68-7.41Z"/><path class="cls-14" d="m268.42,56.77c1.11-3.69,5.04-3.93,7.42-6.07,0,0,.02.12.02.12.02.48.03.95.05,1.43-2.31,1.82-4.23,4.27-7.48,4.52Z"/><path class="cls-86" d="m209.08,72.38c-.46-.01-.92-.02-1.37-.03,2.06-3.63,2.16-3.68,4.52-.66,1.26,1.61,2.94,2.12,4.88,2.27-1.91.65-3.59.42-5.01-.93-.88-.83-1.83-1.27-3.02-.66Z"/><path class="cls-110" d="m282.74,46.84c.4-.03.8-.06,1.2-.09-.07,2.58,1.49,5.15-.24,8.61-.37-3.11-.07-5.9-3.2-6.63.75-.63,1.49-1.26,2.23-1.89Z"/><path class="cls-58" d="m238.82,124.94c.49,3.05,0,6.09-.15,9.13-.41-5.06-.81-10.12-1.22-15.18,1.96,1.68,1.05,4,1.37,6.05Z"/><path class="cls-96" d="m248.21,97.97c-1.74-4.97-.86-10.05-.69-15.11,1.22,2.88.53,5.92.67,8.88.1,2.09-.26,4.23.63,6.24-.2,0-.41,0-.61-.01Z"/><path class="cls-132" d="m246.84,71.68c4.3,1.3,8.69.47,13.06.22l.03,1.14c-4.36,0-8.71,0-13.07,0,0-.46-.01-.91-.02-1.37Z"/><path class="cls-54" d="m170.19,77.93c-3.6-1.68-6.09-.41-7.86,3.01,1.16-4.92,3.18-5.65,7.86-3.01Z"/><path class="cls-97" d="m245.6,56.02c1.15,3.81.22,7.73.56,11.59.12,1.33.1,2.68.15,4.02-.08.22-.15.43-.23.65-.94-1.7-.7-3.64-1.13-5.45.95-3.56.1-7.22.65-10.81Z"/><path class="cls-19" d="m246.08,72.28c.08-.22.15-.43.23-.65.18,0,.35.02.53.05,0,.46.01.91.02,1.37-.02,2.45-.04,4.89-.05,7.34-2.24-2.07-1.19-4.98-1.91-7.44.34.18.67.36,1.01.55.06-.4.12-.81.18-1.21Z"/><path class="cls-32" d="m282.74,46.84c-.74.63-1.49,1.26-2.23,1.89-1.74.91-2.61,2.94-4.6,3.52-.02-.48-.03-.95-.05-1.43,1.44-.8,3.07-1.54,3.64-3.14.76-2.14,1.93-1.5,3.25-.84Z"/><path class="cls-88" d="m67.42,99.65c-.03-3.71-.05-7.41-.08-11.12.44-.67.88-1.34,1.32-2.01-.41,4.38-.83,8.75-1.24,13.13Z"/><path class="cls-46" d="m10.64,49.42c-.57-.81-.65-1.75-.68-2.7.47-1.64,1.43-2.64,3.71-2.75-1.49,1.87-2.61,3.49-3.03,5.44Z"/><path class="cls-62" d="m253.54,141c-1.02-3.04-2.09-6.09-.63-9.3.72,3.06.69,6.18.63,9.3Z"/><path class="cls-115" d="m250.85,118.12c-.98-2.85-2.06-5.7-.63-8.73,1.08,2.85.55,5.81.63,8.73Z"/><path class="cls-31" d="m79.49,77.75c-.16.3-.31.6-.47.89-.58,1.05-1.37,1.8-2.68,1.65-.5-.06-.88-.41-.69-.91.43-1.1,1.56-1.17,2.5-1.46.42-.13.89-.13,1.33-.18,0,0,0,0,0,0Z"/><path class="cls-119" d="m63.36,141.97c-.25-.5-.5-1-.75-1.5.9-1.96.62-4.04.68-6.1.08-1.05.28-2.04,1.24-2.68-.84,3.37-.03,6.93-1.16,10.27Z"/><path class="cls-117" d="m288.07,35.25c-1.68-.49-4.01.47-4.75-2.13,1.83.15,3.96-.34,4.75,2.13Z"/><path class="cls-73" d="m251.54,25.9c-.01.17-.02.34-.03.51-2.23.05-4.46.1-6.68.15-.46,0-.93,0-1.39-.01-1.12-.08-2.28.05-3.28-.64,3.79,0,7.59,0,11.38,0Z"/><path class="cls-17" d="m70.74,65.71c3.79-1.54,7.72-.57,11.6-.63-3.81,1.19-7.75.06-11.6.63Z"/><path class="cls-27" d="m245.6,56.02c-.54,3.58.3,7.25-.65,10.81-.07-.82-.14-1.65-.21-2.47.01-2.49.02-4.98.03-7.47.02-.45.04-.91.06-1.36.27.01.54.02.81.03-.01.16-.03.31-.05.46Z"/><path class="cls-115" d="m248.21,97.97c.2,0,.41,0,.61.01,1.01,2.13.65,4.41.67,6.64-1.43-2.02-1.35-4.34-1.29-6.65Z"/><path class="cls-130" d="m252.18,127.48c-1.49-2.49-1.78-5.09-.66-7.8.22,2.6.44,5.2.66,7.8Z"/><path class="cls-31" d="m265.08,70.26c-.16.93-.81,1.24-1.65,1.29-.45.02-1.02-.1-.97-.63.09-.93.95-1.11,1.68-1.3.48-.13.86.08.94.65Z"/><path class="cls-124" d="m142.24,67.59c2.8-2.1,6.01-1.18,9.09-1.22-3.03.41-6.06.81-9.09,1.22Z"/><path class="cls-114" d="m239.37,168.74c-.43,0-.86.01-1.3.02-.25-1.38-.98-2.72-.26-4.47,1.46,1.29.9,3.11,1.55,4.45Z"/><path class="cls-99" d="m224.5,39.32c-1.01-.47-.47-2.56-2.34-2.19-.57.11-.66-.49-.54-.93.23-.84.8-1.44,1.69-1.26,3.67.73,5.16.19,2.27-3.45-1-1.26.14-1.98,1.14-2.57,2.73-1.6,5.36-.72,7.99.31,0,.89,0,1.78-.01,2.67.02,1.73-1.2,1.2-2.14,1.18q-2.13-.06-4.38,1.51c3.08-.93,5.82,1.9,7.86-1.32,1.36.67,2.71,1.35,4.07,2.02.22.49.45.99.67,1.48-1.7-.29-2.58,1.03-3.69,1.89-2.43-.4-4.84-.52-7.12.66,0,0,.07.08.07.08-1.84-.2-3.66-1.66-5.53-.07Z"/><path class="cls-41" d="m240.1,35.28c-1.36-.67-2.71-1.35-4.07-2.02-.23-.67-.68-1.12-1.35-1.36,0-.89,0-1.78.01-2.67,2.52-.98,4.57.45,6.73,1.32.44.04.96.26,1.31.1,4.06-1.76,8.13-.72,12.19-.09.77,1.26,2.31,1.25,3.37,2.02-5.71-.05-11.47-.5-16.84,2.11,0,.18.03.37.05.55-.47.01-.95.03-1.42.04Z"/><path class="cls-105" d="m215.24,38.71c1.98-1.77,3.55.23,5.3.58-.22.07-.44.15-.66.22-2.51.15-4.8.74-6.11,3.19-1.13.66-2.26,1.32-3.39,1.97-1.79.02-3.58.05-5.37.07h-4.26c1.33-1.42,4.33-.24,3.81-1.46-1.22-2.88.98-1.67,1.76-1.92,1.11-.35,2.39-.15,3.74-1.37h-4.39c3.03-1.65,6.53.23,9.57-1.29Z"/><path class="cls-141" d="m215.24,38.71c-3.04,1.52-6.55-.36-9.57,1.29-2.35,0-4.62.58-6.92.92-1.87.28-3.87-1.37-5.92-.16.05-1.13.4-2.11,1.37-2.78,3.34.15,6.84,1.47,9.77-1.43.47-.47,1.43-.27,1.87.19,2.7,2.87,6.22,1.61,9.41,1.97Z"/><path class="cls-99" d="m254.93,30.56c-4.07-.63-8.13-1.67-12.19.09-.36.15-.87-.06-1.31-.1-.27-1.81,1.32-2.67,2.01-4,.46,0,.93.01,1.39.01-.12,1.13.63.83,1.27.81,2.27-.06,4.55-.09,6.83-.14-.15.41-1.67.76-.25,1.19,1.26.38,2.7.18,3.6,1.45-.45.23-.9.45-1.34.68Z"/><path class="cls-102" d="m224.5,39.32c1.86-1.59,3.69-.12,5.53.07-.51,1.87-1.4,3.43-3.4,4.05-.91.2-1.82.39-2.73.59-1.41-1.25-1.96-3.01-2.76-4.63,1.16-.2,1.98.64,2.96.94,1.35.41.5-.56.41-1.02Z"/><path class="cls-94" d="m221.14,39.41c.79,1.62,1.34,3.38,2.76,4.63-.71,1.51-.68,3.12-.68,4.73-2.38-2.63-1.98-6.26-3.33-9.25.22-.07.44-.15.66-.22.2.04.39.08.59.12Z"/><path class="cls-136" d="m59.9,26.53c1.5,2.05,4,2.71,5.88,4.22,2.08,1.67,2.84-1.03,4.4-1.23,4.33-.54,8.47.78,12.7,1.02,2.31-.22,4.75-.17,6.08-2.65,3.3-1.11,6.72-.55,10.09-.71,1.7.49,3.32-.35,5-.31,1.28.03,2.18.33,2.41,1.75.27,1.63-.76,1.75-1.98,1.99-5.51,1.08-11.08,1.28-16.67,1.31-1.26,0-2.62-.32-3.81.76,2.92.46,5.76,1.15,8.76.98,2.34-.14,4.78-1.72,6.97,1.07.59.76,3.17-.09,4.84-.1,1.09,0,2.45-.32,3.09.81.65,1.14-1.07,1.54-1.19,2.53-.86,1-1.57,2.15-2.79,2.8-1.01.64-1.2,3.43-3.29,1.25,0-1.16.04-2.32-.65-3.35-.87-2.94-3.3-2.56-5.49-2.47-1.22.05-2.41.43-3.61-.17-.64-.32-1.31-1.27-2.06-.56-.89.82.24,1.61.36,2.43l-2.72.07c-.52-1.29-1.75-1.55-2.87-1.96-2.04-.74-2.33.21-1.86,1.9,0,0,.01.12.01.12-.68-.04-1.36-.07-2.04-.11-1.46-2.24-9.85-2.96-11.43-.95-.16.21-.03.64-.03.97-.89-.44-1.79-.88-2.68-1.32-.45,0-.9-.02-1.36-.03-.45-.67-.91-1.33-1.36-2,.43-1.64.62-2.95-1.8-3.24-1.54-.18-4.06-.9-4.25-1.79-.4-1.85,2.39-1.74,3.34-3.05Z"/><path class="cls-78" d="m127.38,29.2c2.95-1.46,6.15-1.16,9.27-1.27,2.98-.11,5.97-.06,8.95-.08,7.93.86,16.06.13,23.72,3.17,1.7.67,3.83-.09,5.44,1.29.96.83,1.93,1.83,1.64,3.1-.31,1.36-1.76,1.08-2.83,1.19-1.11.11-2.24.07-3.34.23-.64.09-1.51.37-1.34,1.19.16.8,1.08.55,1.71.65-.43.43-.86.87-1.29,1.3-1.32.02-2.6.16-3.46,1.36-4.21-3.59-9.07-3.79-14.17-2.67-.23,0-.45,0-.68-.01-1.33-2.38-3.3-3.61-6.08-3.38-2.91-2.5-6.15-4.11-10.06-4.49-2.52-.24-5.39.79-7.49-1.58Z"/><path class="cls-122" d="m151.01,38.64c.23,0,.45,0,.68.01,1.96.04,3.95-.17,5.86.48.43.15,1.3.09.97.86-.16.36-.92.46-1.41.68-1.5.9-3.22.23-4.79.69-.92.02-1.83.04-2.75.06-1.1.16-2.21.32-3.31.48.65-1.44.46-2.43-1.28-1.45-1.81,1.03-3.75,1.37-5.49.68-4.34-1.72-9.14-.66-13.43-2.45-.7-.03-1.41-.05-2.11-.08,2.4-1.06,4.82-.43,7.26-.15,1.63.19,3.27.96,4.93.13,1.8-.67,3.58.21,5.37.08,3.17,1.57,6.32-.6,9.49-.03Z"/><path class="cls-52" d="m123.97,38.62c.7.03,1.41.05,2.11.08.35,2.04,1.71,2.67,3.61,2.64,1.89-.02,3.78,0,5.66.1.67.04,1.8.09.78,1.28-3.43,0-6.86,0-10.29-.02-1.39,0-2.83-.08-2.42,2.04-1.59-.03-3.19-.06-4.78-.09-.23-.44-.45-.87-.68-1.31.73-.33,1.46-.66,2.52-1.14-2.27-.54-3.47-2.12-5.15-2.93-.04-.21-.06-.42-.06-.63,2.9-.95,5.81-.18,8.72-.03Z"/><path class="cls-78" d="m141.52,38.67c-1.79.13-3.57-.74-5.37-.08-.07-1.48-1.29-1.95-2.74-2.53,3.09-1.92,5.91-1.85,8.82-.79.2,1.46,2.86,1.15,2.33,2.76-.37,1.13-1.99.46-3.04.63Z"/><path class="cls-2" d="m115.31,39.28c1.68.81,2.88,2.4,5.15,2.93-1.06.48-1.79.81-2.52,1.14-1.13.05-2.26.09-3.38.14-2.01-.05-4.02-.1-6.04-.15.54-1.48-2.55-2.35-.69-4.06.43-.21.85-.42,1.28-.63,1.87,3.39,4.11,3.62,6.19.63Z"/><path class="cls-22" d="m141.52,38.67c1.05-.17,2.67.5,3.04-.63.53-1.61-2.12-1.31-2.33-2.76.9,0,1.8,0,2.7,0,2.78-.23,4.75.99,6.08,3.38-3.16-.57-6.32,1.6-9.49.03Z"/><path class="cls-108" d="m107.83,39.28c-1.85,1.71,1.23,2.57.69,4.06-.45,0-.91.01-1.36.02-1.34-.62-2.94-.89-3.47-2.59,1.22-.64,1.93-1.79,2.79-2.8.45.44.9.87,1.35,1.31Z"/><path class="cls-87" d="m115.31,39.28c-2.08,2.99-4.32,2.77-6.19-.63,2.05.4,4.09,1.81,6.14,0,0,.21.02.42.06.63Z"/><path class="cls-82" d="m252.27,156.49c-.45.02-.91.04-1.36.06,1.52-4.18-.07-8.22-.57-12.31.1-2.02-.07-4.01-.74-5.93-.18-2.29.28-4.71-1.33-6.71-.05-2.22-.09-4.44-.14-6.67-.78-1.59-.3-3.31-.53-4.94-.34-2.49.58-5.41-2.07-7.25-.04-.18-.04-.35-.02-.53,1.7-4.83-.2-9.51-.62-14.25-.47-5.86-.74-11.74-2.12-17.48.04-.66.07-1.32.11-1.99-.06-2.93-.13-5.86-.19-8.79,1.76,4.93,1.38,10.15,2.02,15.22,1.63,12.85,3.05,25.74,4.46,38.62,1.13,10.33,3.04,20.58,3.35,30.99.02.65-.16,1.31-.25,1.96Z"/><path class="cls-88" d="m240.09,106.06c-1.13-3.79-1.37-7.75-1.65-11.63-.65-9.17-2.46-18.24-2.42-27.46.23,0,.45,0,.68,0l.02-.02c.33,5.44,1.15,10.83,2.01,16.21.29,5.25.83,10.46,1.71,15.65.41,2.42.77,4.88-.34,7.25Z"/><path class="cls-126" d="m238.72,83.16c-.86-5.38-1.68-10.76-2.01-16.2.85-.93,1.22-2.04,1.31-3.29.14-1.84-.31-3.75.7-5.47.22,0,.45,0,.67,0-1.51,8.36-.17,16.64.66,24.94-.45,0-.89.02-1.34.03Z"/><path class="cls-61" d="m240.06,83.13c-.82-8.3-2.16-16.58-.66-24.94.44,0,.88-.02,1.31-.03,0,.25,0,.5,0,.74-.76,3.32-1.28,6.66-.61,10.06-.3,3,.66,5.89.74,8.85.18,2.45.36,4.9.54,7.35-.71-.51-1.13-1.21-1.33-2.05Z"/><path class="cls-45" d="m244.9,97.95c.42,4.74,2.32,9.42.62,14.25-2.37-4.33-2.92-8.86-1.39-13.59-.02-.23-.03-.46-.05-.68.27,0,.55.01.82.02Z"/><path class="cls-74" d="m244.08,97.93c.02.23.03.46.05.68-.38-.38-1.08-.74-1.1-1.15-.3-4.13-1.9-8.09-1.63-12.29-.18-2.45-.36-4.9-.54-7.35.68.22,1.36.43,2.05.65-.04.66-.07,1.32-.11,1.99-.75,5.91.72,11.65,1.29,17.46Z"/><path class="cls-21" d="m245.53,112.74c2.65,1.84,1.73,4.76,2.07,7.25.22,1.63-.26,3.35.53,4.94-1.03-.33-1.39-1.35-2.1-2.01-1.04-3.35-.07-6.8-.5-10.18Z"/><path class="cls-131" d="m250.34,144.24c.51,4.09,2.09,8.13.57,12.31-.4.21-.81.41-1.21.62-.31-3.09.74-6.32-.87-9.28,1.66-.74,1.3-2.31,1.51-3.65Z"/><path class="cls-83" d="m250.34,144.24c-.21,1.34.15,2.91-1.51,3.65-.93-1.75-.61-3.64-.6-5.49.22-.22.44-.44.66-.66.69-1.05.53-2.28.7-3.43.67,1.93.84,3.91.74,5.93Z"/><path class="cls-49" d="m246.03,122.91c.71.66,1.07,1.68,2.1,2.01.05,2.22.09,4.44.14,6.67-.21.46-.41.92-.62,1.38-.27.02-.55.04-.82.07-.27-3.37-.53-6.75-.8-10.12Z"/><path class="cls-26" d="m241.43,143.14c.23,0,.47-.01.7-.02.44.07.9.08,1.32.22,1.35.44,1.42,1.59,1.38,2.73-.02.5-.36.84-.86.85-1.22.02-1.76-.88-2.13-1.83-.24-.61-.28-1.3-.41-1.96Z"/><path class="cls-140" d="m246.83,133.04c.27-.02.55-.04.82-.06,1.33,2.79,1.11,5.81,1.25,8.77-.22.22-.44.44-.66.66-.47-3.12-.94-6.24-1.41-9.36Z"/><path class="cls-21" d="m192.83,40.76c2.04-1.21,4.04.44,5.92.16,2.3-.34,4.57-.92,6.92-.92,1.32,0,2.64,0,4.39,0-1.35,1.22-2.63,1.02-3.74,1.37-.77.25-2.98-.96-1.76,1.92.52,1.22-2.48.05-3.81,1.46,1.63,0,2.95,0,4.26,0-2.82,1.67-5.9-.52-8.75.59-.24.02-.48.03-.73.05-.07-.08-.13-.19-.21-.25-.08-.05-.28-.08-.29-.07-1.22,3.49-3.84,2.96-6.73,2.71-2.13-.18-4.25-1.87-5.66-1.51-2.24.58-5.07.88-6.68,3.17-.43,1.06-.86,2.11-1.29,3.17-2.78-.51-5.27-1.59-7.77-2.96-1.51-.83-4.2-2.76-5.11,1.1.1.94.55,1.66,1.35,2.16-.84,1.5.44,2.63.69,3.93-.26.26-.52.51-.78.77-.91-.21-1.54-1.36-2.68-.79-1.84.06-1.78,1.83-2.55,2.85-1.37-2.04-2.75-4.08-4.12-6.12,1.63-1.04.98-1.77-.36-2.28-1.68-.64-3.39-1.19-5.09-1.78-1.05-.77-2.07-1.57-2.69-2.76,3.16.99,6.19,1.14,8.81-1.37,2.99-1.58,6.65-1.27,9.48-3.31l8.74-.1c3.81,0,7.61,0,11.42,0,2.61.22,5.09-.32,7.48-1.31.44.04.88.07,1.31.11Z"/><path class="cls-20" d="m172.61,41.95c-2.91.03-5.83.06-8.74.1-2.53.89-4.45-1.18-6.76-1.37.49-.22,1.25-.32,1.41-.68.33-.77-.53-.72-.97-.86-1.91-.65-3.9-.44-5.86-.48,5.1-1.11,9.96-.91,14.17,2.68,2.25.17,4.57-.38,6.75.62Z"/><path class="cls-133" d="m191.52,40.64c-2.4.99-4.87,1.53-7.48,1.31.81-.3,1.63-.6,3.3-1.21-3.16-.15-5.48-.26-8.15-.38,3.34-2.04,10.66-1.72,12.33.29Z"/><path class="cls-53" d="m169.32,39.97c.43-.43.86-.87,1.29-1.3,1.77.06,3.47.38,5.65,1.42-2.75.81-4.84.15-6.94-.12Z"/><path class="cls-131" d="m153.71,53.54c1.37,2.04,2.75,4.08,4.12,6.12-1.62,2.56-4.13.6-6.14,1.21-5.55-.98-11.17-1.65-16.47-3.72-.82-.32-1.65-.63-2.47-.94-.16-1.64-1.38-2.63-4.1-3.31-.65-.69-1.3-1.39-1.95-2.09.05-.27.1-.54.15-.8,4.3,1.93,8.78,2.26,13.38,1.44,3.15,1.89,6.49,2.42,10.05,1.39l3.45.7Z"/><path class="cls-94" d="m109.24,66.21c-1.39,0-2.77,0-4.16,0,2.04-3.66,6.56-4.95,8.58-8.63q-4.64,2.92-5.94,2.26c2.29-2.91,5.94-4.56,8.17-7.82.09-.13-.07-.42-.11-.64.76-.92,1.78-1.46,2.84-1.94.65.48,1.31.95,1.96,1.43-2.1,1.15-2.77,3.4-4.01,5.22-.57.83-.51,1.69.19,2.44.65.7,1.5,1.04,2.42.76.95-.3,1.84-.77,2.76-1.16,1.66,1.07,2.69,4.56,5.45,1.43,1.67.51,1.79,2.25,2.68,3.37-1.17.8-1.98.18-2.98-.51-1.77-1.23-4.28-1.63-5.53-.16-1.14,1.33-1.92.81-3.03.9-3.33.25-6.85.09-9.3,3.07Z"/><path class="cls-56" d="m109.24,66.21c2.45-2.98,5.97-2.82,9.3-3.07,1.11-.08,1.89.44,3.03-.9,1.25-1.46,3.76-1.07,5.53.16.99.69,1.81,1.32,2.98.51.81,1.44.42,2.39-1.23,2.59-.98.12-2.18.31-2.96-.11-3.53-1.92-6.66-.41-9.86.82-2.26,0-4.53,0-6.79-.01Z"/><path class="cls-37" d="m121.95,58.12c-.92.39-1.81.86-2.76,1.16-.92.29-1.77-.05-2.42-.76-.7-.75-.76-1.61-.19-2.44,1.24-1.81,1.91-4.06,4.01-5.22,1.48.97,4.2-.4,4.67,2.48-.16.72-.31,1.43-.47,2.15-.48.45-.96.91-1.44,1.36-.47.42-.93.84-1.4,1.27Z"/><path class="cls-137" d="m126.84,50.01c-.05.27-.1.54-.15.8-.25.26-.5.52-.75.78-1.45-3.73-4.79-3.75-7.98-4.06l-2.04-.06-.02-.75c.31-1.48,1.38-1.95,2.72-2.06,1.59.03,3.19.06,4.78.09.15,0,.3-.01.45-.04.1,1.69,1.13,2.91,2.1,4.15.29.38.59.76.88,1.14Z"/><path class="cls-43" d="m117.96,47.53c3.19.31,6.53.33,7.98,4.06-.23.58-.46,1.17-.69,1.75-.47-2.88-3.19-1.51-4.67-2.48-.65-.48-1.31-.95-1.96-1.43-.22-.24-.44-.48-.66-.72,0-.39,0-.79,0-1.18Z"/><path class="cls-39" d="m121.95,58.12c.47-.42.93-.84,1.4-1.27.53.77.65,2.12,1.9,1.98,1-.12.67-1.22.78-1.94.46.89.91,1.77,1.37,2.66-2.76,3.13-3.79-.36-5.45-1.43Z"/><path class="cls-105" d="m128.65,52.9c2.72.68,3.94,1.66,4.1,3.31-1.96-.37-3.27-1.54-4.1-3.31Z"/><path class="cls-116" d="m126.03,56.89c-.12.72.22,1.82-.78,1.94-1.25.15-1.37-1.2-1.9-1.98.48-.45.96-.91,1.44-1.36.42.47.83.93,1.24,1.4Z"/><path class="cls-98" d="m24.85,36.6c1.79,0,3.59.02,5.38.03,1.31.02,2.62.04,3.93.06.81,1.21,2.07,1.18,3.3,1.18,7.93.02,15.87.03,23.8.05.21.07.42.12.64.16.96.89,2.15,1.12,3.39,1.24,2.58-.55,5.17-1.19,8.26-.02-1.55.61-2.55,1-3.55,1.39-1.33.24-2.67.48-4.01.72-3.6-.42-6.93.51-10.17,1.97-1.25.79-.39,1.19.33,1.49,1.64.69,3.39.49,5.1.54-.44.87-.88,1.74-1.32,2.61-1.14,0-2.28,0-3.42-.01.26-.19.64-.34.75-.59.32-.8-.38-.56-.66-.48-1.35.35-2.68.77-4.02,1.16-2.39-.97-4.71-2.46-7.46-1.2-7.55,2.8-18.24-2.62-20.28-10.29Z"/><path class="cls-69" d="m45.13,46.89c2.75-1.26,5.06.22,7.46,1.2-.06,2.71,1.66,3.95,3.91,4.76,1.59,1.96,4.45.9,6.16,2.57,5.73,1.36,11.4,3.18,17.43,2.06.72.21.96.69.76,1.4-1.48,1.17-3.26,1.2-5.03,1.46-1.79.26-3.88,0-5.09,1.9-.09-.07-.16-.17-.26-.21-1.61-.71-.09-3.54-2.21-3.62-2.37-.09-4.1,1.48-5.62,3.18,0,0,.01,0,.01,0-1.72-.32-2.9-1.34-3.91-2.72-1.08-1.49-2.15-3.07-4.22-3.36-2.05-2.44-3.32-5.51-6.05-7.4-1.23-.08-2.58.16-3.34-1.21Z"/><path class="cls-100" d="m48.46,48.1c2.73,1.89,4,4.96,6.05,7.4,0,.22.02.43.03.65-.24.24-.48.48-.72.72-2.74-1.43-4.06-4.82-7.41-5.42-3.58-3.73,1.66-2.06,2.05-3.35Z"/><path class="cls-12" d="m17.58,41.57c-.05-1.78-.24-3.58,1.15-5.23,1.25.42,1,2.67,2.76,2.35-.66,4.03-1.42,4.59-3.9,2.88Z"/><path class="cls-142" d="m115.78,51.37c.04.22.19.51.11.64-2.23,3.27-5.88,4.91-8.17,7.82q1.3.67,5.94-2.26c-2.02,3.67-6.54,4.97-8.58,8.63-1.78,0-3.56.25-5.3-.43-3.05-1.19-3.22-1.55-1.82-4.46-.93-.39-2.01.41-2.87-.36.89-.46,1.79-.92,2.68-1.38,3.77-.52,7.41-1.44,10.7-3.45,1.2-.57,2.5-1.02,2.81-2.56,1.5-.73,3-1.47,4.51-2.2Z"/><path class="cls-64" d="m98.39,41.99c-.03.26-.06.52-.09.78-1.47.42-2.01,1.97-3.26,2.67-1.39-3.4-3.8-2.06-6.09-1.3-.9.44-1.79.88-2.69,1.32-.9-.23-1.8-.46-2.7-.69-.24-.02-.47-.03-.71-.05,0-.44.01-.87.02-1.31.63-.42,1.27-.85,1.9-1.27,1.08.75,1.66,0,2.24-.75,2.75-.09,5.69.33,7.33-2.73.87.26,1.75.51,2.62.77.23.99.71,1.84,1.43,2.56Z"/><path class="cls-15" d="m103.1,46.74c-1.71,2.25-3,4.82-6.43,5.2-1.42.16-2.57.38-3.73-.48-1.61-1.68.47-2.7.71-4.06,1.64.42.29,1.58.62,2.76,2.67-2.12,5.71-2.9,8.83-3.43Z"/><path class="cls-107" d="m103.1,46.74c-3.12.53-6.16,1.31-8.83,3.43-.34-1.19,1.02-2.34-.62-2.76,0,0,0,0,0,0,.19-3.6-2.27-3.42-4.7-3.27,2.28-.76,4.69-2.1,6.09,1.3,1.84,2.44,2.56-.59,3.86-.79,1.13,1.23,4.06-1.14,4.2,2.09Z"/><path class="cls-25" d="m108.47,56.13c-3.29,2.01-6.93,2.94-10.7,3.45-2.28-.85-2.25-1.76-.06-2.72,2.39-.19,4.69-.65,6.7-2.05.65,2.6,2.88.36,4.06,1.32Z"/><path class="cls-123" d="m91.46,52.05c-1.68,2.29-2.04,4.78-1.12,7.47-1.9.7-2.2-.51-2.46-1.96-.3-1.68-.23-3.52-1.68-4.8.23-.44.46-.88.69-1.32.9-.47,1.8-.93,2.71-1.4.8.51,1.47,1.12,1.87,2.01Z"/><path class="cls-127" d="m86.2,52.76c1.46,1.28,1.38,3.12,1.68,4.8.26,1.45.55,2.66,2.46,1.96-.04,2.25-1.84.86-2.75,1.32-1.06-.77-1.16-3.2-3.38-1.93l-.05-.08c-1.88-1.69,1.32-2.55.66-4.04.2-.85.65-1.54,1.37-2.03Z"/><path class="cls-94" d="m104.4,54.81c-2.01,1.4-4.32,1.86-6.7,2.05-.19-1.75.48-3.29,2.11-3.68,1.66-.39,3.58-.35,4.59,1.62Z"/><path class="cls-52" d="m107.16,43.36c.45,0,.91-.01,1.36-.02,2.01.05,4.02.1,6.04.15-1.01,1.08-.82,2.16.01,3.24-1.55.47-3.09.95-4.64,1.42-.32-1.47,2.62-.94,1.68-2.6-.51-.89-1.58-.48-2.43-.16-.26-1.07-1.27-1.01-2.01-1.35,0-.23,0-.46,0-.69Z"/><path class="cls-22" d="m117.96,47.53c0,.39,0,.79,0,1.18-2.31.33-4.26,1.45-6.12,2.78-.46-.66-2.62-.24-1.29-2.04,1.79-.66,3.58-1.32,5.38-1.99l2.04.06Z"/><path class="cls-4" d="m111.84,51.49c1.86-1.33,3.81-2.45,6.12-2.78.22.24.44.48.66.72-1.06.48-2.08,1.02-2.84,1.94-1.5.73-3.01,1.47-4.51,2.2-.4-.85.22-1.43.56-2.08Z"/><path class="cls-70" d="m84.21,58.91c2.22-1.28,2.32,1.16,3.38,1.93-.67.69-1.35,1.38-2.02,2.07-.23,0-.46,0-.68,0,.21-1.41-2.25-2.36-.68-4Z"/><path class="cls-15" d="m107.17,44.04c.74.34,1.75.28,2.01,1.35-.19.26-.32.63-.58.77-1.04.59-2.61,1.39-3.23.43-.82-1.27.81-1.93,1.8-2.55Z"/><path class="cls-107" d="m91.46,52.05c-.39-.88-1.07-1.5-1.87-2.01.23-.43.45-.86.68-1.28,1.06-.61,2.11-1.24,3.37-1.35,0,0,0,0,0,0-.24,1.35-2.32,2.38-.71,4.06-.49.2-.98.39-1.47.59Z"/><path class="cls-6" d="m115.92,47.47c-1.79.66-3.58,1.32-5.38,1.99-.21-.43-.41-.87-.62-1.3,1.55-.47,3.09-.95,4.64-1.42.44,0,.89-.01,1.33-.02,0,.25.02.5.02.75Z"/><path class="cls-94" d="m98.9,44.64c-1.3.21-2.02,3.23-3.86.79,1.25-.69,1.79-2.24,3.26-2.67.2.63.4,1.25.6,1.88Z"/><path class="cls-80" d="m98.39,41.99c-.72-.72-1.2-1.57-1.43-2.56.03-.27.06-.54.09-.81.9-.21,1.75,2.77,2.7.05.69,1.03.64,2.19.65,3.35-.67,0-1.34-.02-2.01-.03Z"/><path class="cls-45" d="m240.72,58.91c0-.25,0-.5,0-.74.03-.21.06-.42.08-.62,1.33-.22,2.65-.44,3.98-.66-.01,2.49-.02,4.98-.03,7.47-.65.64-1.31,1.27-1.96,1.91-.25.23-.5.46-.74.7-.44.47-.87.93-1.31,1.4,0-3.15-.01-6.3-.02-9.45Z"/><path class="cls-81" d="m240.73,68.37c.44-.47.87-.93,1.31-1.4.22.91.44,1.82.66,2.73.06,2.93.13,5.86.19,8.79-.68-.22-1.36-.43-2.04-.65-.07-2.96-1.04-5.85-.74-8.85.21-.2.42-.41.62-.61Z"/><path class="cls-122" d="m242.78,66.27c.65-.64,1.31-1.27,1.96-1.91.07.82.14,1.65.21,2.47.43,1.81.19,3.75,1.13,5.45-.06.4-.12.81-.18,1.21-.34-.18-.67-.36-1.01-.55-.81-2.19-.49-4.74-2.11-6.68Z"/><path class="cls-143" d="m238.73,58.19c-1.01,1.72-.56,3.64-.7,5.47-.1,1.24-.46,2.36-1.31,3.29,0,0-.02.02-.02.02-.14-2.48.38-5.06-.45-7.44-.29.03-.59.05-.88.08,0,2.45,0,4.89,0,7.34-.04.64-.07,1.28-.11,1.91-.81-1.47-.27-3.21-1.26-4.59-.97-2.66.73-5.43-.43-8.2-.4-.96.93-2.19,2.3-2.39,1.42-.21,1.95.69,2.18,1.94.15.87.44,1.71.67,2.57Z"/><path class="cls-137" d="m235.37,66.95v-7.34c.29-.03.59-.05.88-.08.82,2.38.31,4.96.45,7.44-.23,0-.45,0-.68,0-.22,0-.43,0-.65-.02Z"/><path class="cls-136" d="m61.26,37.91c-7.93-.01-15.87-.03-23.8-.05-1.24,0-2.49.02-3.3-1.18,4.98-.49,10.03.72,14.96-.73-2.32-2.51-4.35-5.72-8.61-3.49-.43.23-.98.04-1.04-.47-.05-.36.16-.9.44-1.13.76-.62,2.16-1.1,1.49-2.22-.68-1.14-2.03.18-3.08-.1-2.03-.41-4.46.97-6.07-1.35,9.19-1.28,18.44-.44,27.65-.66-.95,1.3-3.74,1.2-3.34,3.05.19.89,2.71,1.61,4.25,1.79,2.43.29,2.23,1.59,1.8,3.24-3.75.54-7.38,1.84-11.26,1.69,1.47.34,2.91.23,4.33.36,1.9.18,4.1-.8,5.58,1.26Z"/><path class="cls-117" d="m84.22,28.56c-2.19-.29-4.38-.58-6.57-.87,0-.19,0-.37,0-.56,3.76,0,7.51,0,11.27,0-1.46.83-2.97,1.48-4.7,1.43Z"/><path class="cls-57" d="m84.22,28.56c1.73.05,3.24-.6,4.7-1.43.01.25.03.51.04.76-1.33,2.48-3.77,2.43-6.08,2.65.45-.66.89-1.32,1.34-1.98Z"/><path class="cls-40" d="m244.78,56.89c-1.33.22-2.65.44-3.98.66-.24-.23-.48-.46-.72-.7,0-2.02-.14-4.11,2.87-4.02,1.9.06,2.63.84,1.89,2.69-.02.45-.04.91-.06,1.36Z"/><path class="cls-76" d="m229.96,39.32c2.28-1.19,4.69-1.06,7.13-.66.22.04.44.06.67.07-1.27.76-3.01,1.27-1.76,3.35.68.43,1.37.85,2.05,1.28-1.81.15-3.18-.64-4.24-2.02-.82-1.07-1.67-2.05-3.18-1.98-.22-.01-.44-.02-.66-.02Z"/><path class="cls-17" d="m235.36,44.71c-1.19.84-.77,2.31-1.34,3.4-.45.58-.9,1.17-1.69,2.2-.58-3.15-.29-5.77-.27-8.38.72,1.38,1.36,2.85,3.3,2.78Z"/><path class="cls-105" d="m235.36,44.71c-1.94.07-2.58-1.4-3.3-2.78-.48-.86-.96-1.73-1.44-2.59,1.52-.07,2.36.92,3.18,1.98,1.06,1.38,2.43,2.18,4.24,2.02-.02.28-.04.55-.06.83-.88.18-1.75.36-2.63.54Z"/><path class="cls-90" d="m55.24,133.74c.52-.83.54-1.75.51-2.68.24-2.49.48-4.99.72-7.48.22-2.26-.28-4.59.64-6.78.05,1-.11,2.06.19,2.97.47,1.45.79,0,1.17-.18,0,1.56.02,3.12.02,4.68-.07.18-.08.36-.04.55-.84,3.82-1.07,7.7-1.19,11.59l-.12,1.93c-.6,3.9-1.65,7.78-.75,11.78l-.73.45c-1.07-1.28-1.52-2.89-1.07-4.35,1.26-4.13.47-8.31.64-12.46Z"/><path class="cls-1" d="m58.48,119.58c-.39.19-.7,1.63-1.17.18-.3-.92-.14-1.98-.19-2.97.72-7.59,1.45-15.17,2.17-22.76,1.14,1.83.11,4.1,1.21,5.94.23.69.45,1.39.68,2.08-.74,1.2-.52,2.55-.65,3.85-.4,4.06-.93,8.11-1.41,12.16l-.64,1.51Z"/><path class="cls-100" d="m56.48,123.57c-.24,2.49-.48,4.99-.72,7.48-1.08.99-1.83.75-1.82-.7.01-1.39.34-2.78.53-4.17.03-2.2.06-4.41.1-6.61,1.76.8,1.02,2.79,1.91,4Z"/><path class="cls-105" d="m60.5,99.97c-1.09-1.84-.07-4.11-1.21-5.94,0-1.37-.01-2.75-.02-4.12.18-.03.36-.05.54-.06.49.33,1.21-1.13,1.58.2-.3,3.31-.59,6.62-.89,9.93Z"/><path class="cls-76" d="m38.32,28.54c1.05.28,2.4-1.04,3.08.1.67,1.12-.73,1.61-1.49,2.22-.28.23-.48.77-.44,1.13.07.51.61.69,1.04.47,4.26-2.22,6.29.99,8.61,3.49-1.46,0-2.91-.03-4.37,0-2.28.05-4.71.15-6.02-2.1-1.38-2.37-3.11-2.12-5.14-1.27-.72-.16-1.77.06-1.82-1.01-.04-.81.87-.81,1.48-1.02,1.72-.58,3.88-.08,5.06-2.02Z"/><path class="cls-104" d="m33.6,32.58c2.02-.85,3.76-1.1,5.14,1.27,1.31,2.25,3.73,2.15,6.02,2.1,1.46-.03,2.91,0,4.37,0-4.93,1.45-9.99.25-14.96.73-1.31-.02-2.62-.04-3.93-.06.9-.45,1.8-.9,2.7-1.35h0q1.76,0,.67-2.69Z"/><path class="cls-104" d="m32.92,35.28c-1.64-.15-3.33.36-5.67-.72,2.52-.9,4.14-.6,5.67.71,0,0,0,0,0,0Z"/><path class="cls-71" d="m241.47,34.69c5.37-2.61,11.13-2.16,16.84-2.11,2.92.22,5.85.45,8.77.67-.46.31-.92.63-1.4.92-1.08.63-3.31.22-3.04,1.95.25,1.63,2.41,1.53,3.81,1.74,1.75.26,3.57.09,5.36.1,2.38-.83,4.65-.6,6.81.73-1.38.22-2.75.44-4.13.66-1.33.02-2.66.04-3.99.06l-13.54-.13c-.89.05-1.78.1-2.67.16-1.8.13-3.59-.79-5.41-.08-.28.18-.55.35-.83.53-1.33-.38-2.66-.76-3.98-1.14,2.11-2.74.05-3.13-1.99-3.54-.2-.17-.41-.34-.61-.52Zm19.77,1.52c-.12-1.18-.9-1.41-1.9-1.34-1.77.14-3.55.29-5.32.41-1.14.08-2.07.38-1.72,1.78.36,1.43,1.45,1.26,2.37.73,1.53-.89,2.95-1.36,4.68-.4,1.01.56,1.65-.16,1.88-1.19Z"/><path class="cls-129" d="m270.49,39.4c1.33-.02,2.66-.04,3.99-.06,4.14,3.65,4.47,6,1.4,10.19-2.14,1.3-4.61.59-6.87,1.13-2,.28-4.01.56-6.01.84-1.68-1.6.01-2.4.92-3.06,1.39-1,2.75-2.02,3-3.75.35-2.4,1.72-3.97,3.57-5.3Z"/><path class="cls-125" d="m66.68,67.63c.44.22.89.45,1.33.67-.67,6.52-1.34,13.04-2.01,19.56-.78,3.34-.25,6.84-1.31,10.14-.26-1.62.55-3.53-1.27-4.74-.03-.86-.05-1.72-.08-2.59,1.61-2.38.97-4.97.73-7.53,1.38-.86,1.22-2.26,1.23-3.57.03-4.43.03-8.87.05-13.3.47.43.54,1.24,1.33,1.35Z"/><path class="cls-88" d="m66,87.87c.67-6.52,1.34-13.04,2.01-19.56.05-.42.09-.84.14-1.26.81,7.22-1.24,14.3-.8,21.49-.22,0-.45,0-.67,0-.22-.22-.45-.45-.67-.67Z"/><path class="cls-17" d="m66.68,67.63c-.79-.1-.86-.92-1.33-1.35-.19-.02-.38-.05-.57-.08l-1.48-1.28c.21-.67.43-1.33.64-2,2.26.78,2.92,2.5,2.74,4.7Z"/><path class="cls-10" d="m267.08,33.25c-2.92-.22-5.85-.45-8.77-.67-1.07-.77-2.6-.76-3.37-2.02.45-.23.9-.45,1.34-.68,3.22.8,6.14,1.32,9.43-.74,2.67-1.67,6.28-.4,9.47-.6-.84,1.76-2.66,1.66-4.14,2.23-.98.38-2.63-.06-2.61,1.8-.45.22-.9.45-1.35.67Z"/><path class="cls-23" d="m268.43,32.58c-.02-1.87,1.63-1.42,2.61-1.8,1.48-.57,3.3-.48,4.14-2.23,1.34.23,2.67.47,4.01.7-.02,2.53-1.31,3.64-3.81,3.33-2.32-.28-4.63.71-6.95,0Z"/><path class="cls-30" d="m252.93,27.24c-2.28.04-4.55.07-6.83.14-.64.02-1.39.32-1.27-.81,2.23-.05,4.46-.1,6.68-.15,1.73,0,3.47,0,5.2,0,.02.27.04.55.06.82-1.28,0-2.56,0-3.84,0Z"/><path class="cls-120" d="m60.67,81.71c.72-4.21-.38-8.7,1.94-12.66.04,1.34-.09,2.69.55,3.95-.02,1.54-.04,3.08-.06,4.61-.95,2.23-.33,4.62-.69,6.91-1.16-.58.76-3.05-1.73-2.81Z"/><path class="cls-28" d="m54.54,56.16c0-.22-.02-.43-.03-.65,2.06.29,3.14,1.88,4.22,3.36,1.01,1.39,2.19,2.41,3.91,2.72-.61,1.26-1.22,2.52-2.05,4.23-.77-1.75-1.36-3.11-1.95-4.47-1.04-1.99-2.04-4.01-4.1-5.2Z"/><path class="cls-138" d="m63.16,72.99c-.64-1.25-.51-2.61-.55-3.95-.2-1.44-1.4-3.05.69-4.11.49.43.99.85,1.48,1.28-.04,1.7-.07,3.4-.11,5.11-.94.17-1.41.75-1.51,1.67Z"/><path class="cls-90" d="m60.67,81.71c2.49-.24.57,2.23,1.73,2.81.03,1.1.05,2.2.08,3.3-1.1-.1-1.6-.65-1.38-1.78.2-1.01.14-2-.5-2.87.02-.48.05-.97.07-1.45Z"/><path class="cls-68" d="m60.6,83.16c.65.87.7,1.86.5,2.87-.22,1.14.28,1.69,1.38,1.78-.18.69-.36,1.38-.55,2.07l-.04-.04c-.17.06-.34.13-.51.19-.37-1.32-1.08.13-1.58-.2.26-2.23.53-4.45.79-6.68Z"/><path class="cls-26" d="m200.95,61.57c-3.59,0-7.19-.01-10.78-.02-.75-1.06-1.96-1.41-3-2.05-2.03-1.24-4.62-1.02-6.47-2.64,1.4-.07,2.2-.91,2.74-2.1,4.33.23,8.64.29,12.79-1.27.84.03,1.68.05,2.52.08.66,1.04,1.68,1.29,2.81,1.3,1.28.74,2.69.58,4.08.61,1.36.22,3.96-.32,3.76.97-.33,2.11-2.53.47-3.88.44-4.32-.09-8.64-.36-12.95-.55-.64-.03-1.52-.21-1.59.71-.06.84.8,1.07,1.44,1.03,2.78-.16,5.17,1.22,7.76,1.79,1.2.26,1.09.87.78,1.69Z"/><path class="cls-135" d="m205.63,55.49c-1.38-.04-2.8.13-4.08-.61.95-.37,1.78-.82,1.39-2.08.67-1.54-.53-1.88-1.51-2.36-1.08-.53-2.17-1.04-3.26-1.56,0,0,.16-.22.16-.22.42-.18.84-.36,1.26-.54,4.07.85,7.54,4.4,12.17,2.68.21,0,.42.01.63.02.67.43,1.35.86,2.02,1.29,0,.23,0,.46.01.69-2.38.99-5.4-.3-7.4,2.06-.46.21-.93.42-1.39.63Z"/><path class="cls-106" d="m217.83,55.39c-.26-.05-.52-.09-.78-.14-.64-.14-1.28-.28-1.93-.42.26-2.02.52-4.04.79-6.05,1.82-.71,3.76-1.38,4.84.93.97,2.08.35,3.86-1.82,4.95-.39.2-.73.49-1.1.73Z"/><path class="cls-50" d="m215.9,48.77c-.26,2.02-.52,4.04-.79,6.05h-.34s-.34,0-.34,0c0-.68-.01-1.36-.02-2.03,0-.23,0-.46-.01-.69,1.19-3.53,1.03-4.92-.67-6.11-1.35.26-2.42,1.85-4.03.81.23-.71.45-1.42.68-2.13,1.13-.66,2.26-1.32,3.39-1.97,2.81.82,3.67,2.45,2.18,5.11-.14.25-.04.64-.05.97Z"/><path class="cls-95" d="m214.43,52.79c0,.68.01,1.36.02,2.03-2.47.8-4.95-.35-7.42.03,2-2.36,5.02-1.07,7.4-2.06Z"/><path class="cls-13" d="m163.84,60.9c1.55.46,4.34-1.17,4.49,1.26.16,2.49-2.16,3.95-4.84,4.1-.33.02-.67.01-1.01.02-1.61-.85-3.54-1.65-.25-2.94,1.05-.41,1.35-1.44,1.6-2.44Z"/><path class="cls-66" d="m270.49,39.4c-1.84,1.32-3.22,2.89-3.57,5.3-.25,1.73-1.61,2.74-3,3.75-.9.65-2.6,1.46-.92,3.06-2.46.63-4.35,4.02-7.48,1.52-.18-.15-.79.24-1.2.38-.7-.17-1.41-.35-2.11-.52-1.23-.57-2.52-1.05-3.37-2.21,0-1.13,0-2.26,0-3.39.01-2.65.02-5.29.04-7.94,1.81-.7,3.6.21,5.41.08-.49,1.2-1.37,2.87.21,3.4,1.84.61,1.54-1.6,2.1-2.64.15-.29.24-.61.36-.92,4.51.04,9.02.09,13.54.13Z"/><path class="cls-55" d="m244.06,38.74c1.33.38,2.66.76,3.98,1.14-.64.76-1.36,1.48-1.91,2.3-1.59,2.4-2.31,4.82.13,7.16-1.44.01-2.88.03-4.32.04-1-1.29-2.01-2.59-3.01-3.88-.49-.03-.99-.06-1.48-.09.18-.42.35-.83.53-1.24.02-.28.04-.55.06-.83-.68-.43-1.37-.85-2.05-1.28,1.25-.26,2.22-.96,2.9-2.01,1.05-1.62-.43-1.17-1.14-1.34-.22,0-.45-.02-.67-.07,1.11-.86,1.99-2.18,3.69-1.89.59,1.49,1.81,1.94,3.29,1.98Z"/><path class="cls-81" d="m241.95,49.39c1.44-.01,2.88-.03,4.32-.04.86-.69,1.71-1.37,2.57-2.06,0,1.13,0,2.26,0,3.39-2.62,1.04-5.33,1.02-8.07.75.14-.49,1.68-.45.54-1.42.21-.2.43-.41.64-.61Z"/><path class="cls-63" d="m241.31,50c1.14.98-.4.94-.54,1.42-4.25-.22-4.99-1.56-3.3-6.01.49.03.99.06,1.48.09-.85,2.36-1.14,4.43,2.37,4.5Z"/><path class="cls-139" d="m66,87.87c.22.22.45.45.67.67-.38,8.93-1.02,17.84-2.34,26.69-.42,2.79-.28,5.58-.38,8.37-.44,0-.89,0-1.33,0,.44-5.64.87-11.28,1.31-16.92.26-2.89.51-5.78.77-8.66,1.05-3.3.53-6.8,1.31-10.14Z"/><path class="cls-45" d="m62.61,123.6c.44,0,.89,0,1.33,0-.34,3.58-1.46,7.12-.66,10.77-.05,2.05.22,4.14-.68,6.1-.46.22-.93.45-1.39.67-.25-5.91.78-11.71,1.39-17.55Z"/><path class="cls-75" d="m180.69,56.86c1.85,1.62,4.44,1.4,6.47,2.64,1.04.64,2.25.99,3,2.05-1.66.16-4.34-3.18-4.74,1.37-2.47-1.35-4.95-2.7-7.42-4.05-.45-.45-.9-.9-1.35-1.35,1.03-.69,2.21-.67,3.38-.67.22,0,.44,0,.66,0Z"/><path class="cls-28" d="m178,58.87c2.47,1.35,4.95,2.7,7.42,4.05.76.73,1.67,1.15,2.69,1.35-2.13,1.06-4.37.61-6.58.49-.05-.39-.1-.79-.16-1.18.26-1.17-.52-1.6-1.39-1.92-1.32-.48-1.92-1.44-1.98-2.79Z"/><path class="cls-64" d="m55.24,133.74c-.18,4.15.62,8.33-.64,12.46-.45,1.46,0,3.07,1.07,4.35.01,1.37.02,2.74.03,4.12-1.53.04-3.06.97-4.59-.02.97-3.76,1.42-7.59,1.37-11.47.84-1.77.44-3.7.78-5.52.27-1.42-.45-3.52,1.97-3.91Z"/><path class="cls-7" d="m52.49,143.17c.06,3.89-.39,7.71-1.37,11.47-.2-.04-.4-.1-.6-.16.44-2.54.74-5.1.66-7.69-.04-1.36.06-2.71,1.31-3.63Z"/><path class="cls-13" d="m178,58.87c.06,1.35.66,2.31,1.98,2.79.87.32,1.66.75,1.39,1.92-3.42.06-6.12-2.77-9.68-2.37-.72.08-.61-.98-.43-1.63,1.68-2.52-1.15-2.84-2.01-4.11-1.79-2.66-4.08-4.53-7.44-4.73.91-3.86,3.61-1.93,5.11-1.1,2.49,1.38,4.99,2.46,7.77,2.97,2.83.9,5.71,1.53,8.7,1.55,0,.2.02.4.03.6-.54,1.19-1.34,2.03-2.74,2.1-.22,0-.44,0-.66,0-.8-1.48-2.17-1.37-3.53-1.26-.57.05-1.23.23-1.27.86-.06.92.8.91,1.43,1.07.45.45.9.9,1.35,1.35Z"/><path class="cls-35" d="m163.07,57.6c.26-.26.52-.51.78-.77,2.75.19,1.73-1.92,1.99-3.24.88.89,1.76,1.77,2.65,2.66-.2,1.41-.36,2.81,1.46,3.33-2.78,1.03-5.37,1.41-6.87-1.98Z"/><path class="cls-68" d="m169.94,59.59c-1.83-.52-1.67-1.92-1.46-3.33.26-.26.51-.52.77-.78.86,1.28,3.69,1.59,2.01,4.11-.44,0-.88,0-1.32,0Z"/><path class="cls-128" d="m215.9,48.77c.01-.33-.09-.72.05-.97,1.49-2.66.63-4.29-2.18-5.11,1.31-2.45,3.6-3.04,6.11-3.19,1.35,3,.96,6.62,3.33,9.26-.03,2.23-.03,4.42,1.29,6.4.81,1.21.55,2.37-.72,3.13-1.24.75-2.38.4-3.26-.65-.77-.93-1.31-2.09-2.71-2.26.36-.25.71-.54,1.1-.74,2.17-1.08,2.79-2.87,1.82-4.95-1.08-2.31-3.02-1.64-4.84-.93Z"/><path class="cls-65" d="m55.71,154.67c-.01-1.37-.02-2.74-.03-4.12.24-.15.48-.3.73-.45.09-3.94,2.34-7.74.75-11.78.04-.64.08-1.29.12-1.93,1.76-3.72,2.62-7.54,1.19-11.59-.04-.19-.02-.37.04-.55.46,0,.91,0,1.37,0l.72.02c.15,6.6-1.74,13.01-1.77,19.59-.54,3.57-1.08,7.14-1.62,10.7-.5.03-1,.07-1.5.1Z"/><path class="cls-128" d="m58.83,143.86c.03-6.58,1.92-12.99,1.77-19.59.7-2.93.81-5.91.79-8.91-.02-3.37.39-6.71,1.36-9.96.39.43.78.85,1.18,1.28-.44,5.64-.87,11.28-1.31,16.92-.61,5.84-1.64,11.64-1.39,17.55-.25,1.7.5,3.73-1.68,4.68-.2-.57-.46-1.27-.71-1.97Z"/><path class="cls-50" d="m84.21,58.91c-1.57,1.64.89,2.59.68,4-1.89.22-3.78.51-5.68.64-.95.06-2.32.26-2.54-1.02-.23-1.36,1.11-1.45,2.08-1.66,1.22-.26,2.41-.57,3.44-1.3.66-.24,1.32-.48,1.97-.73,0,0,.05.08.05.08Z"/><path class="cls-40" d="m84.17,58.83c-.66.24-1.32.48-1.97.73-.45-.23-.91-.46-1.36-.69.2-.71-.03-1.19-.76-1.4,1.58-.89,3.17-1.79,4.75-2.68.66,1.49-2.54,2.35-.66,4.04Z"/><path class="cls-55" d="m254.32,53.41c.41-.14,1.02-.53,1.2-.38,3.13,2.5,5.03-.89,7.48-1.52,2-.28,4.01-.56,6.01-.84.74,1.91-1.33,1.82-1.97,2.75-2.01.91-4.02,1.81-6.03,2.72-2.8.49-4.66-1.35-6.7-2.73Z"/><path class="cls-144" d="m234.69,31.89c.67.24,1.12.69,1.35,1.36-2.04,3.22-4.78.39-7.86,1.32q2.24-1.57,4.38-1.51c.94.03,2.17.56,2.14-1.18Z"/><path class="cls-76" d="m244.06,38.74c-1.47-.03-2.69-.49-3.29-1.98-.22-.49-.45-.99-.67-1.48.47-.01.95-.03,1.42-.04.18,0,.37-.01.55-.03,2.04.41,4.1.8,1.99,3.54Z"/><path class="cls-38" d="m242.08,35.2c-.18.02-.37.03-.55.03-.03-.18-.05-.36-.05-.55.2.17.41.34.61.52Z"/><path class="cls-61" d="m210.39,44.67c-.23.71-.45,1.42-.68,2.13-2.21.62-4.48.65-6.75.68-.86-.06-1.72-.13-2.58-.19-1.37-.66-2.74-1.31-4.11-1.97,2.85-1.11,5.93,1.08,8.75-.59,1.79-.02,3.58-.05,5.37-.07Z"/><path class="cls-21" d="m82.87,43.41c0,.44-.01.87-.02,1.31,0,0,.02,0,.02,0-1.78-.18-3.04.68-4.07,2.02-.69-.46-1.38-.92-2.07-1.37-.83-.66-1.74-.54-2.52-.05-4.42,2.75-9.42,2.48-14.3,2.83l.02-.13c.44-.87.88-1.74,1.32-2.61.85.05,1.68-.02,2.36.77,1.24,1.42,1.52-.55,2.19-.86,1.05-.48-.3-.83-.5-1.29,1.41-.02,2.84.15,4.15-.58,2.8-.42,2.31-1.47.53-2.76,1-.39,2-.78,3.55-1.4-3.1-1.16-5.68-.53-8.26.02.01-.89.03-1.79.04-2.68.89.44,1.79.88,2.68,1.32,2.68.05,5.36.1,8.04.15.64,1.31-2.38,1.67-.96,2.83,1.09.89,2.17-.5,3.06-1.25.99-.83,2.15-1.02,3.37-1.07.66.11,1.23.04.8,1.16-.45,1.17-.63,2.58.54,3.64Z"/><path class="cls-1" d="m82.87,43.41c-1.17-1.06-.99-2.47-.54-3.64.43-1.12-.14-1.05-.8-1.16,0-.19-.02-.39-.03-.58,0,0-.01-.12-.01-.12,1.58.02,3.16.04,4.73.06.91-.02,1.81-.05,2.72-.07,2.69.39,5.49-.53,8.1.72-.03.27-.06.54-.09.81-.87-.26-1.75-.51-2.62-.77-1.98-.17-3.84.15-5.51,1.29-1.94-.36-4.01-.95-4.05,2.19-.63.42-1.27.85-1.9,1.27Z"/><path class="cls-77" d="m97.05,38.62c-2.61-1.25-5.41-.33-8.1-.72-.13-.82-1.25-1.61-.36-2.43.76-.71,1.42.24,2.06.56,1.2.6,2.39.23,3.61.17,2.19-.1,4.62-.48,5.49,2.47-.95,2.72-1.8-.26-2.7-.05Z"/><path class="cls-43" d="m76.06,38.1c-2.68-.05-5.36-.1-8.04-.15,0-.33-.13-.77.03-.97,1.58-2.01,9.97-1.3,11.43.95-1.14.06-2.28.12-3.42.18Z"/><path class="cls-104" d="m61.26,37.91c-1.48-2.07-3.67-1.09-5.58-1.26-1.42-.13-2.86-.03-4.33-.36,3.88.16,7.51-1.15,11.26-1.69.45.67.91,1.33,1.36,2-.97.09-1.73.5-2.08,1.47-.22-.03-.43-.08-.64-.16Z"/><path class="cls-14" d="m76.06,38.1c1.14-.06,2.28-.12,3.42-.18.68.04,1.36.07,2.04.11,0,.19.02.39.03.58-1.22.05-2.38.24-3.37,1.07-.9.75-1.97,2.13-3.06,1.25-1.43-1.16,1.59-1.52.96-2.83Z"/><path class="cls-41" d="m86.23,37.97c-1.58-.02-3.16-.04-4.73-.06-.47-1.69-.18-2.65,1.86-1.9,1.13.41,2.35.67,2.87,1.96Z"/><path class="cls-141" d="m61.9,38.07c.35-.97,1.1-1.38,2.08-1.47.45,0,.9.02,1.36.03-.01.89-.03,1.79-.04,2.68-1.24-.12-2.44-.36-3.39-1.24Z"/><path class="cls-109" d="m136.12,42.73c1.02-1.2-.11-1.25-.78-1.28-1.88-.1-3.77-.12-5.66-.1-1.9.02-3.26-.6-3.61-2.64,4.29,1.79,9.08.73,13.43,2.45,1.74.69,3.67.35,5.49-.68,1.73-.99,1.92,0,1.28,1.45-2.18.11-1.59,1.54-1.34,2.81q-3.51-1.56-3.37,2.69c-.88-.19-1.77-.39-2.66-.58-.02-.24-.03-.48-.05-.71,1.11-.97,1.24-1.91-.33-2.4-.84-.26-1.71-.4-2.41-.98Z"/><path class="cls-53" d="m157.11,40.68c2.31.18,4.23,2.26,6.76,1.37-2.84,2.04-6.49,1.72-9.48,3.31-2.95.07-5.91.13-8.86.2,0-.15.03-.28.11-.41,1.29-.69,2.69-.24,4.03-.42,1.29-.09,2.67.33,3.85-.64-.41-.93-.8-1.82-1.19-2.72,1.56-.47,3.29.2,4.79-.69Z"/><path class="cls-42" d="m149.67,44.72c-1.34.19-2.75-.26-4.03.42-.24-.14-.47-.28-.71-.43-.25-1.27-.84-2.7,1.34-2.81,1.1-.16,2.21-.32,3.31-.48.03,1.1.06,2.19.09,3.29Z"/><path class="cls-136" d="m149.67,44.72c-.03-1.1-.06-2.19-.09-3.29.92-.02,1.83-.04,2.75-.06.39.9.78,1.79,1.19,2.72-1.18.97-2.56.55-3.85.64Z"/><path class="cls-112" d="m136.12,42.73c.7.59,1.56.72,2.41.98,1.57.49,1.43,1.43.33,2.4-3.54-1.2-7.17-1.02-10.81-.66-1.33-.65-2.56-1.87-4.2-.74-.15.02-.3.04-.45.04-.41-2.12,1.04-2.05,2.42-2.04,3.43,0,6.86.01,10.29.02Z"/><path class="cls-91" d="m115.9,46.72c-.44,0-.89.01-1.33.02-.84-1.08-1.03-2.16-.01-3.24,1.13-.05,2.26-.09,3.38-.14.23.44.45.87.68,1.31-1.34.11-2.41.58-2.72,2.06Z"/><path class="cls-66" d="m244.08,97.93c-.57-5.81-2.05-11.56-1.29-17.46,1.38,5.75,1.65,11.63,2.12,17.48-.27,0-.55-.01-.82-.02Z"/><path class="cls-50" d="m248.9,141.74c-.14-2.96.08-5.98-1.25-8.77.21-.46.41-.92.62-1.38,1.61,2.01,1.16,4.42,1.33,6.71-.17,1.16-.02,2.38-.7,3.43Z"/><path class="cls-55" d="m240.73,68.37c-.21.2-.42.41-.62.61-.67-3.41-.15-6.74.61-10.06,0,3.15,0,6.3.01,9.45Z"/><path class="cls-135" d="m175.98,49.44c1.61-2.28,4.44-2.59,6.68-3.17,1.41-.36,3.53,1.32,5.66,1.51,2.88.25,5.5.78,6.73-2.71,0-.01.2.02.29.07.09.06.14.16.21.25.21,1.7,2.11,1.97,2.79,3.27,0,0-.16.22-.16.22-.64-.01-1.28-.03-1.92-.04-2.02.21-4.05.41-6.07.62-3.62,0-7.24,0-10.85,0-.86,0-1.72,0-2.58.01-.26,0-.52-.01-.77-.02Z"/><path class="cls-15" d="m175.98,49.44c.26,0,.52.01.77.02.63,1.62,2.12,1.8,3.52,1.91,2.17.17,4.36.14,6.54.2,1.05.61,2.23.54,3.38.61-2.26.66-4.53,1.32-6.79,1.99-2.99-.02-5.87-.65-8.7-1.55.43-1.06.86-2.12,1.29-3.17Z"/><path class="cls-113" d="m153.71,53.54c-1.15-.23-2.3-.47-3.45-.7-1.38-.43-2.76-.87-4.14-1.3.43-.2,1.73-.09.44-.97-1.22-.83-2.96-.9-3.66-2.5,1.91,0,3.27,2.09,5.36,1.41,1.7.59,3.41,1.13,5.09,1.78,1.34.51,1.99,1.25.36,2.28Z"/><path class="cls-111" d="m148.27,49.48c-2.09.69-3.45-1.41-5.36-1.41-.45-.22-.9-.44-1.34-.67q-.14-4.25,3.37-2.69c.24.14.47.28.71.43-.08.12-.12.26-.11.4.02.39.04.78.05,1.17.61,1.19,1.64,1.99,2.69,2.76Z"/><path class="cls-70" d="m145.58,46.72c-.02-.39-.04-.78-.05-1.17,2.95-.06,5.91-.13,8.86-.2-2.62,2.5-5.65,2.35-8.81,1.37Z"/><path class="cls-34" d="m169.25,55.47c-.26.26-.51.52-.77.78-.88-.89-1.76-1.77-2.65-2.66-.89-.23-1.78-.46-2.67-.69-.8-.5-1.25-1.22-1.35-2.16,3.36.19,5.65,2.06,7.44,4.73Z"/><path class="cls-97" d="m163.16,52.9c.89.23,1.78.46,2.67.69-.26,1.33.76,3.44-1.99,3.24-.25-1.31-1.53-2.44-.69-3.93Z"/><path class="cls-18" d="m198.33,48.65c-.68-1.3-2.57-1.57-2.79-3.27.24-.02.48-.03.73-.05,1.37.66,2.74,1.31,4.11,1.97-.26.27-.52.54-.79.81-.42.18-.84.36-1.26.54Z"/><path class="cls-51" d="m126.84,50.01c-.29-.38-.59-.76-.88-1.14.26-.78.81-1.03,1.59-.88,3.62,2.04,7.66.46,11.42,1.31.2.23.41.45.61.68.21.49.42.98.63,1.47-4.6.82-9.07.49-13.38-1.44Z"/><path class="cls-76" d="m140.21,51.45c-.21-.49-.42-.98-.63-1.47,2.18.52,4.36,1.04,6.54,1.56,1.38.43,2.76.87,4.14,1.3-3.56,1.03-6.9.5-10.05-1.39Z"/><path class="cls-11" d="m127.55,47.99c-.78-.16-1.33.1-1.59.88-.98-1.24-2.01-2.46-2.1-4.15,1.64-1.13,2.87.09,4.2.74,1.02,1.97,3.19.8,4.81,1.67-1.84.65-3.73-.15-5.31.87Z"/><path class="cls-105" d="m65.32,44.03c.2.46,1.55.81.5,1.29-.67.31-.96,2.28-2.19.86-.68-.79-1.51-.72-2.36-.77-1.71-.05-3.46.14-5.1-.54-.72-.3-1.58-.7-.33-1.49,3.11.96,6.41-.82,9.49.65Z"/><path class="cls-58" d="m65.32,44.03c-3.08-1.48-6.38.3-9.49-.65,3.23-1.46,6.57-2.39,10.17-1.97.08,2.52,2.17,1.61,3.47,2.04-1.31.73-2.74.57-4.15.58Z"/><path class="cls-105" d="m56.49,52.84c-2.25-.81-3.97-2.05-3.91-4.76,1.34-.39,2.67-.81,4.02-1.16.28-.07.98-.31.66.48-.1.26-.49.4-.75.59-2.24,1.18-.79,2.32.03,3.46-.02.46-.04.92-.06,1.38Z"/><path class="cls-13" d="m56.55,51.47c-.82-1.15-2.28-2.29-.03-3.46,1.14,0,2.28,0,3.42.01,0,0-.02.13-.02.13,1.34.42,2.69.85,4.03,1.27-2.57.26-5.25.14-7.43,1.9l.04.15Z"/><path class="cls-26" d="m69.47,43.45c-1.31-.43-3.4.48-3.47-2.04,1.34-.24,2.67-.48,4.01-.72,1.78,1.3,2.27,2.34-.53,2.76Z"/><path class="cls-21" d="m84.83,54.79c-1.58.89-3.17,1.79-4.75,2.68-6.02,1.12-11.7-.7-17.43-2.06,2.39-.99,4.81-.59,7.23-.14,1.64.3,3.2.36,3.56-1.84.66.01,1.32.02,1.98.03-.12,1.07-.13,2.08,1.41,1.92.56-.06,1.26-.24,1.24-.86-.06-1.32-1.28-.84-2.02-1.11,1.83-.42,3.66-.84,5.48-1.27,1.3-.25,2.59-.5,3.89-.75.49.01.98.03,1.47.04-.23.44-.46.88-.69,1.32-.73.5-1.17,1.18-1.37,2.03Z"/><path class="cls-9" d="m73.44,53.43c-.36,2.2-1.92,2.14-3.56,1.84-2.42-.44-4.84-.85-7.23.14-1.71-1.67-4.57-.61-6.16-2.57.02-.46.04-.92.06-1.38,0,0-.04-.15-.04-.15,2.69.32,5.31,0,7.92-.75,1.7-.49,3.98-1.06,4.9.71,1.03,1.98,2.64,1.68,4.11,2.15Z"/><path class="cls-33" d="m93.65,47.41c-1.26.11-2.31.74-3.37,1.35-.67-.46-1.34-.92-2.01-1.38-.74-.57-1.68-.92-2.01-1.93.9-.44,1.79-.88,2.69-1.32,2.43-.14,4.88-.32,4.7,3.27Z"/><path class="cls-15" d="m82.86,44.72c.24.02.47.03.71.05.06,1.72,1.21,2.34,2.67,2.66-.26.67-.73,1.12-1.41,1.37-1.56-.01-3.11-.03-4.67-.04.17-1.84,2.74-2.06,2.71-4.03h-.02Z"/><path class="cls-25" d="m88.83,39.95c1.67-1.14,3.53-1.46,5.51-1.29-1.64,3.06-4.58,2.64-7.33,2.73.61-.48,1.21-.96,1.82-1.44Z"/><path class="cls-101" d="m88.83,39.95c-.61.48-1.21.96-1.82,1.44-.58.75-1.15,1.51-2.24.75.04-3.15,2.11-2.55,4.05-2.19Z"/><path class="cls-67" d="m86.24,47.42c-1.46-.31-2.61-.94-2.67-2.66.9.23,1.8.46,2.7.69.32,1,1.27,1.36,2.01,1.93-.68.01-1.36.03-2.03.04Z"/><path class="cls-79" d="m86.24,47.42c.68-.01,1.36-.03,2.03-.04.67.46,1.34.92,2.01,1.38-.23.43-.45.86-.68,1.28-.9.47-1.8.93-2.71,1.4-.49-.01-.98-.03-1.47-.04.06-.93,0-1.82-.59-2.61.67-.25,1.15-.7,1.41-1.37Z"/><path class="cls-143" d="m237.75,38.72c.71.17,2.19-.27,1.14,1.34-.68,1.05-1.64,1.75-2.9,2.01-1.25-2.08.49-2.59,1.76-3.35Z"/><path class="cls-82" d="m58.46,124.81c1.43,4.05.57,7.86-1.19,11.59.12-3.89.35-7.77,1.19-11.59Z"/><path class="cls-92" d="m57.15,138.32c1.59,4.04-.66,7.84-.75,11.78-.9-4,.15-7.87.75-11.78Z"/><path class="cls-82" d="m59.87,124.25c-.46,0-.91,0-1.37,0,0-1.56-.02-3.12-.02-4.68.21-.5.43-1.01.65-1.51,1.01,1.97.75,4.09.75,6.18Z"/><path class="cls-121" d="m59.87,124.25c0-2.09.26-4.21-.75-6.18.48-4.05,1-8.1,1.41-12.16.13-1.31-.09-2.65.65-3.85.39-4.06,2.1-8.05.72-12.21,0,0,.04.04.04.04.74-.2,1.21.06,1.41.8.03.86.05,1.72.08,2.59.25,4.07-1.27,8.04-.67,12.12-.97,3.25-1.38,6.59-1.36,9.96.02,3.01-.1,5.98-.79,8.91l-.72-.02Z"/><path class="cls-115" d="m61.9,89.84c1.38,4.17-.33,8.15-.72,12.21-.23-.69-.45-1.39-.68-2.08.3-3.31.59-6.62.89-9.93.17-.07.34-.13.51-.19Z"/><path class="cls-69" d="m248.84,47.29c-.86.69-1.72,1.38-2.57,2.06-2.44-2.34-1.72-4.77-.13-7.16.55-.83,1.27-1.54,1.91-2.3.28-.18.55-.36.83-.53-.01,2.65-.02,5.29-.04,7.94Z"/><path class="cls-76" d="m261.24,36.21c-.24,1.03-.88,1.74-1.88,1.19-1.73-.96-3.15-.49-4.68.4-.92.53-2.01.7-2.37-.73-.35-1.4.58-1.71,1.72-1.78,1.77-.12,3.55-.28,5.32-.41.99-.08,1.78.15,1.9,1.34Z"/><path class="cls-24" d="m256.96,39.27c-.12.31-.2.63-.36.92-.56,1.04-.25,3.25-2.1,2.64-1.58-.52-.7-2.2-.21-3.4.89-.05,1.78-.1,2.67-.16Z"/><path class="cls-29" d="m63.34,90.69c-.2-.75-.67-1-1.41-.8.18-.69.37-1.38.55-2.07-.03-1.1-.05-2.2-.08-3.3.36-2.29-.26-4.68.69-6.91.48,1.17.96,2.33,1.44,3.5-.16.69-.31,1.37-.47,2.06.24,2.56.88,5.15-.73,7.53Z"/><path class="cls-27" d="m62.74,105.4c-.59-4.09.92-8.05.67-12.12,1.83,1.2,1.01,3.11,1.27,4.74-.26,2.89-.51,5.78-.77,8.66-.39-.43-.78-.85-1.18-1.28Z"/><path class="cls-134" d="m64.07,83.16c.16-.69.31-1.37.47-2.06.04-3.26.09-6.52.13-9.78.04-1.7.07-3.4.11-5.11.19.03.38.06.57.08-.01,4.43-.01,8.87-.05,13.3,0,1.31.15,2.72-1.23,3.57Z"/><path class="cls-96" d="m64.67,71.32c-.04,3.26-.09,6.52-.13,9.78-.48-1.17-.96-2.33-1.44-3.5.02-1.54.04-3.08.06-4.61.1-.92.57-1.51,1.51-1.67Z"/><path class="cls-93" d="m183.4,54.16c2.26-.66,4.53-1.32,6.79-1.99,2.02.38,4.13.38,6.03,1.32-4.15,1.56-8.46,1.5-12.79,1.27-.01-.2-.03-.4-.03-.6Z"/><path class="cls-63" d="m196.22,53.49c-1.9-.94-4.01-.94-6.03-1.32-1.15-.07-2.32,0-3.38-.61,2.75-.33,5.5-.66,8.25-.99,1.7,1.44,3.95,1.41,5.88,2.23-.73.26-1.47.51-2.2.77-.84-.03-1.68-.05-2.52-.08Z"/><path class="cls-49" d="m198.74,53.57c.73-.26,1.47-.51,2.2-.77.67,0,1.33,0,2,0,.39,1.26-.44,1.71-1.39,2.08-1.14-.01-2.16-.27-2.81-1.3Z"/><path class="cls-105" d="m202.96,47.48c2.27-.04,4.54-.07,6.75-.68,1.61,1.04,2.68-.56,4.03-.81.16,1.78-3.27,2.55-1.34,4.82-.21,0-.42-.01-.63-.02-3.05-.79-6.21-1.31-8.81-3.31Z"/><path class="cls-47" d="m202.95,52.79c-.67,0-1.33,0-2,0-1.94-.81-4.19-.78-5.89-2.22.4-.58.8-1.16,1.2-1.74.64.01,1.28.03,1.92.04,1.09.52,2.18,1.03,3.26,1.56.98.48,2.18.82,1.51,2.36Z"/><path class="cls-14" d="m212.4,50.81c-1.93-2.27,1.5-3.04,1.34-4.82,1.71,1.2,1.86,2.59.67,6.11-.67-.43-1.35-.86-2.02-1.29Z"/><path class="cls-20" d="m202.96,47.48c2.6,2,5.76,2.51,8.81,3.31-4.63,1.72-8.1-1.84-12.17-2.68.26-.27.52-.54.79-.81.86.06,1.72.12,2.58.19Z"/><path class="cls-40" d="m241.31,50c-3.51-.07-3.22-2.13-2.37-4.5,1,1.3,2.01,2.59,3.01,3.89-.21.2-.43.41-.64.61Z"/><path class="cls-26" d="m176.65,57.53c-.63-.17-1.48-.16-1.43-1.07.04-.64.69-.82,1.27-.86,1.36-.11,2.74-.22,3.53,1.26-1.17,0-2.34-.02-3.38.67Z"/><path class="cls-124" d="m63.95,49.42c-1.34-.42-2.69-.85-4.03-1.27,4.88-.36,9.88-.08,14.3-2.83.78-.49,1.69-.61,2.52.05-.62.64-1.22,1.31-1.87,1.91-2.19,2.04-1.12,2.74,1.19,2.95-.88.41-1.76.81-2.64,1.22-1.89-2.4-4.19-3.26-7.17-2.11-.68.26-1.54.06-2.31.08Z"/><path class="cls-135" d="m76.06,50.23c-2.31-.21-3.39-.91-1.19-2.95.65-.61,1.25-1.27,1.87-1.91.69.46,1.38.91,2.07,1.37-.58.59-1,1.23-.62,2.11-.35,1.02-1.22,1.24-2.13,1.39Z"/><path class="cls-107" d="m78.19,48.84c-.38-.87.04-1.51.62-2.11,1.02-1.34,2.29-2.2,4.07-2.02.03,1.97-2.54,2.2-2.71,4.03-.66.03-1.31.06-1.97.09Z"/><path class="cls-9" d="m127.55,47.99c1.58-1.02,3.47-.22,5.31-.87-1.62-.87-3.78.3-4.81-1.67,3.64-.36,7.26-.54,10.81.66.02.24.03.48.05.71-.46.84-.17,1.66.07,2.48-3.76-.86-7.8.73-11.42-1.31Z"/><path class="cls-89" d="m138.97,49.3c-.24-.82-.53-1.64-.07-2.48.89.19,1.77.39,2.66.58.45.22.9.44,1.34.67.7,1.6,2.44,1.67,3.66,2.5,1.3.88,0,.77-.44.97-2.18-.52-4.36-1.04-6.54-1.56-.2-.23-.41-.45-.61-.68Z"/><path class="cls-50" d="m196.26,48.83c-.4.58-.8,1.16-1.2,1.74-2.75.33-5.5.66-8.25.99-2.18-.06-4.37-.03-6.54-.2-1.39-.11-2.88-.29-3.52-1.91.86,0,1.72,0,2.58-.01,3.62,1.03,7.24,1.04,10.85,0,2.02-.21,4.05-.41,6.07-.62Z"/><path class="cls-21" d="m190.18,49.45c-3.62,1.03-7.24,1.02-10.85,0,3.62,0,7.24,0,10.85,0Z"/><path class="cls-88" d="m63.95,49.42c.78-.01,1.63.19,2.31-.08,2.98-1.15,5.28-.29,7.17,2.11,2.67.58,5.38.75,8.11.7-1.83.42-3.66.84-5.48,1.27-.21,0-.42.02-.63.04-.66-.01-1.32-.02-1.98-.03-1.48-.47-3.09-.16-4.11-2.15-.92-1.77-3.2-1.2-4.9-.71-2.61.75-5.22,1.07-7.92.75,2.19-1.76,4.86-1.65,7.43-1.91Z"/><path class="cls-103" d="m81.53,52.15c-2.73.05-5.43-.12-8.11-.7.88-.41,1.76-.81,2.64-1.22.92-.15,1.79-.36,2.13-1.39.66-.03,1.31-.06,1.97-.09,1.56.01,3.11.03,4.67.04.58.78.65,1.68.59,2.61-1.3.25-2.59.5-3.89.75Z"/><path class="cls-120" d="m75.42,53.46c.21-.02.42-.04.63-.04.74.27,1.96-.21,2.02,1.11.03.62-.68.8-1.24.86-1.54.16-1.53-.85-1.41-1.92Z"/></g></svg>