<?xml version="1.0" encoding="UTF-8"?><svg id="Layer_2" xmlns="http://www.w3.org/2000/svg" width="300" height="210.7" viewBox="0 0 300 210.7"><defs><style>.cls-1{fill:#cbccce;}.cls-1,.cls-2,.cls-3{stroke-width:0px;}.cls-2{fill:#131213;}.cls-3{fill:#7a797b;}</style></defs><g id="Layer_2-2"><rect class="cls-1" width="300" height="200"/><path class="cls-3" d="m178.18,162.91c-1.96-.5-4-.19-5.99-.64-2.06-.46-4.21-.49-6.31-.75-1.68-.21-3.35-.48-5.02-.75-.24-.04-.45-.2-.68-.3.29-.24,1.09-.27.5-.93-.55-.62-.47-1.33-.47-2.05.03-2.31.15-4.63.09-6.92-.12-4.4.1-8.8,0-13.2-.02-1,.38-2.06.33-3.01-.07-1.51-.26-3-.22-4.54.08-3.79-.12-7.58-.14-11.36-.04-6.3-.09-12.59-.04-18.89.02-2.29.68-4.46,2.05-6.36.23-.31.9-.61.57-.99-.35-.41-.94-.11-1.39.19-.4.26-.76.56-1.02.96-.99,1.58-1.7,3.37-1.72,5.14-.14,9.88-.11,19.76-.12,29.64,0,8.44-.02,16.87.03,25.3.01,2.37-.26,4.81,1.08,6.98-1.15.36-2.16-.2-3.2-.51.07-1.17-.62-2.2-.61-3.37.02-5.12-.02-10.25-.03-15.37-.02-7.37-.02-14.74-.03-22.1,0-3.6.09-7.2-.08-10.79-.05-1.11.43-2.05.23-3.29-.41-2.43-.42-5.02.04-7.53.38-2.13,1.07-4.1,2.84-5.74-1.08-.18-1.83-.03-2.36.59-.84.98-1.44,2.08-1.76,3.37-.8,3.28-.75,6.61-.73,9.94.04,6.75.15,13.5.17,20.26.03,9.47,0,18.93.04,28.4,0,1.9-.19,3.86.88,5.6-1.15.36-2.16-.19-3.21-.47.04-.21.15-.44.11-.62-.62-2.42-.41-4.9-.46-7.35-.11-5.52-.04-11.05-.07-16.58-.06-11.48-.15-22.96-.19-34.43-.01-3.34.55-6.53,3.16-9.06-1.84-.18-2.74.84-3.46,2.23-1.03,1.99-1.32,4.12-1.33,6.3-.02,7.58-.05,15.15.09,22.73.11,5.99,0,11.98,0,17.97,0,4.75.03,9.5.12,14.25.03,1.59.15,3.16,1.14,4.52-1.11.25-2.17.13-3.16-.47-.19-1.37-.68-2.69-.67-4.11.03-3.51-.01-7.02-.03-10.54-.09-15.11-.2-30.23-.26-45.34-.01-2.44.71-4.73,2.04-6.8.19-.3.77-.57.43-.93-.33-.35-.9-.21-1.28.12-.35.3-.69.64-.96,1.02-1.48,2.09-1.86,4.53-1.87,6.96-.03,9.27,0,18.53.19,27.8.14,6.55.03,13.11.07,19.67.02,3.25-.14,6.51.17,9.76.1,1,.42,1.9,1.47,2.32-.26.2-.59.22-.86.14-1.92-.61-3.98-.27-5.9-.88-.84-.27-1.77.23-2.58-.31.96-.25,1.22-.77.75-1.69-.3-.58-.19-1.26-.19-1.9-.09-13.99.1-27.99-.2-41.98-.09-4.4-.03-8.81-.08-13.21-.02-1.68.18-3.32.75-4.9.51-1.4,1.16-2.73,2.53-3.85-1.98-.06-2.9.87-3.55,2.26-.98,2.1-1.38,4.3-1.38,6.59.02,18.07.06,36.15.05,54.22,0,1.58.19,3.05,1.06,4.38-3.58-.28-7.14-.74-10.7-1.18-1.85-.23-3.66-.61-5.49-.85-.3-1.58-.74-3.13-.74-4.76-.06-11.27-.15-22.53-.21-33.8-.03-6.38-.07-12.77-.01-19.15.03-3.32.48-6.54,3.38-8.89-1.88-.2-2.98.66-3.69,2.16-1.15,2.47-1.38,5.09-1.36,7.77.1,11.67.06,23.33.3,35,.14,7.14-.67,14.31.76,21.41-.86.12-1.69-.02-2.52-.23-.26-1.37-.79-2.68-.8-4.12-.04-5.85-.16-11.71-.2-17.56-.08-11.77-.02-23.55-.27-35.32-.07-3.44.38-6.74,3.25-9.36-1.86.01-2.74,1.06-3.45,2.34-1.24,2.25-1.55,4.81-1.47,7.21.14,4.51.14,9.02.24,13.53.18,7.83-.02,15.66.17,23.49.12,4.97.04,9.93.17,14.89.04,1.69.25,3.31,1.06,4.82-.98-.04-1.94-.16-2.88-.47-.23-1.38-.77-2.69-.77-4.11-.04-12.25-.03-24.51-.18-36.76-.06-4.45-.1-8.9-.12-13.35-.02-3.85-.62-7.84,2.33-11.15-.51-.06-.84-.1-1.17-.14.39-.96,1.31-.78,2.04-.85,5.56-.55,11.12-1.01,16.68-1.59,5.13-.53,10.25-1.18,15.37-1.76.5-.06.96-.39,1.5-.23.62.3,1.08.18,1.42-.46.3-.57.56-1.12.66-1.78.67-4.6,1.37-9.19,2.06-13.78.6-3.97,1.2-7.93,1.81-11.89.76-4.9,1.25-9.85,2.43-14.69-.41-.11-.63.48-1.07.45.33-1.05.74-1.97,2.04-2.16,2.26-.33,4.52-.13,6.78-.15,3.54-.03,7.09.06,10.63.11.94.01,1.83.23,2.67.64-.45.24-.91.46-1.34.73-.63.4-1.56.73-1.65,1.43-.2,1.41-.71,2.73-.88,4.13-.76,6.48-1.87,12.92-2.73,19.39-.67,5.08-1.62,10.12-2.25,15.2-.15,1.25-.29,2.56-1.09,3.64-.14.2-.47.35-.3.63.18.3.54.23.82.19,1.48-.23,1.67-1.48,1.88-2.59.33-1.8.52-3.64.78-5.45.49-3.39,1.11-6.77,1.55-10.17.41-3.22.96-6.42,1.35-9.64.39-3.18.78-6.36,1.31-9.52.48-2.84.5-5.92,3.28-7.82.02-.01,0-.08,0-.12.81-.48,1.74-.59,2.59-.47,2.34.32,4.72,0,7,.41,1.43.26,2.81.34,4.23.35.45,0,.95.11,1.17.63-1.9.52-2.75,1.96-3.06,3.73-.43,2.44-.72,4.9-1.07,7.35-.59,4.1-1.2,8.2-1.77,12.3-.58,4.23-1.01,8.48-1.71,12.69-.53,3.18-.29,6.55-2.05,9.48,1.67.04,2.3-.48,2.63-2.3.63-3.53,1-7.1,1.53-10.65,1.17-7.77,2.09-15.58,3.19-23.37.3-2.1.33-4.24,1.12-6.28.41-1.05,1.13-1.89,1.53-2.92,1.29-.19,2.47-.72,3.92-.28,1.38.42,2.97.15,4.46.16,2.31.02,4.65-.24,6.9.13,1.64.27,3.35-.06,4.92.65.3.13.65.16.97-.09.16-.12.4-.19.6-.18,2.22.07,4.45.15,6.67.25.34.01.68.17,1.01.15,4.8-.23,9.62-.1,14.38.22,3.39.23,6.81-.03,10.18.58.68.12,1.45-.25,2.14-.16,1.9.24,3.81.34,5.71.51,1.06.1,2.13-.32,3.16.1-.06.43-.39.37-.68.4-1.88.16-2.85,1.2-3.06,3.06-.28,2.43-.66,4.85-.94,7.29-.57,5.03-1.07,10.06-1.65,15.09-.74,6.43-1.47,12.87-2.33,19.29-.29,2.15-.47,2.78-2.88,3.26-2,.4-4,.76-6,1.18-5.64,1.18-11.32,2.17-16.99,3.21-.82.15-1.48.58-1.8,1.3-.79,1.83-1.61,3.67-1.63,5.74,0,1.21-.14,2.43-.21,3.64-.1,1.66-.26,3.35-.18,4.98.13,2.62.04,5.24.09,7.86.08,4.36-.21,8.72-.18,13.08.07,8.86-.35,17.72-.24,26.58.03,2.75-.52,5.57.56,8.26-1.62.15-3.19.1-4.81-.26-1.86-.41-3.82-.13-5.7-.64-.81-.22-1.66-.33-2.45-.66.32-1.03-.22-2.01-.2-3.03.08-3.17.04-6.34.06-9.51.07-12.55-.09-25.1.16-37.65.08-4.15.02-8.3,0-12.46-.01-2.23.53-4.32,1.44-6.33.5-1.1,1.22-1.86,2.54-2.07,1.85-.3,3.68-.74,5.55-.94,1.29-.14,2.58-.38,3.78-.93-3.81.52-7.6,1.14-11.38,1.81-.81.14-1.52.53-2.04,1.23-1.6,2.14-2.21,4.58-2.23,7.2-.13,13.15.15,26.31-.2,39.46-.18,6.63.03,13.26-.26,19.89-.05,1.16.23,2.28.85,3.29-1.22.37-2.3-.2-3.42-.51.34-1.09-.31-2.08-.28-3.16.18-7.35.09-14.7.27-22.06.15-6.33.12-12.67.06-19.01-.05-5.35.03-10.7-.09-16.05-.08-3.77.07-7.6,3.12-10.61-1.15-.12-2.14.06-2.76.92-1.22,1.68-1.93,3.69-2.02,5.67-.23,5.07-.13,10.16-.15,15.24-.01,5.07,0,10.14,0,15.21,0,5.5-.02,11-.05,16.51-.03,4.42-.1,8.84-.16,13.26-.02,1.43.1,2.82,1.05,3.99-2.93-.36-5.91-.41-8.75-1.37.31-.3.37-.61.2-1.03-.41-1.06-.41-2.17-.37-3.29.08-1.87.18-3.74.19-5.61.02-17.01.03-34.02.02-51.02,0-3.32.68-6.41,2.74-9.12-1.52-.2-2.55.44-3.27,2.04-1.07,2.39-1.34,4.96-1.35,7.52-.04,14.69-.02,29.38-.04,44.07,0,3.34-.02,6.67-.11,10.01-.05,2.11-.48,4.37.75,6.37-1.19.24-2.33.12-3.39-.51.04-.21.44-.2.26-.59-.63-1.32-.53-2.74-.52-4.16.03-5.1.04-10.2.04-15.3.01-14.1-.02-28.2.07-42.29.01-2.16.59-4.3,1.79-6.21.24-.39.98-.84.54-1.25-.48-.45-1.13.03-1.59.42-.32.27-.64.59-.85.95-1.03,1.81-1.67,3.84-1.71,5.84-.16,8.31-.1,16.62-.11,24.92,0,5.57,0,11.14,0,16.71,0,.96-.53,1.88-.07,2.85-.44.23-.96-.46-1.18.16-.17.49.28.84.65.97.68.24.59.75.59,1.25,0,3.56,0,7.11-.03,10.67-.01,1.73.1,3.42.89,5-1.14.31-2.19.04-3.21-.47.19-1.38-.45-2.66-.42-4.05.09-4.41.07-8.82.07-13.23,0-14.56-.01-29.12-.03-43.68,0-2.53.55-4.9,1.78-7.12.25-.46.62-.89.58-1.54-1.16.05-1.96.39-2.56,1.51-1.21,2.26-1.6,4.7-1.64,7.15-.12,8.41-.08,16.82-.09,25.22,0,4.41-.01,8.82-.03,13.23,0,.32.16.79-.25.91-1.3.37-.64,1.04-.27,1.62.65,1.03.56,2.32-.29,3.18-.18.19-.14.44.08.54.72.34.55.98.55,1.56-.01,3.94-.04,7.88-.06,11.82,0,1.1.24,2.11,1.16,2.83-1.3.32-2.51.03-3.68-.54.59-.99-.25-1.86-.22-2.83.14-5.48.18-10.96.19-16.44.02-13.75,0-27.5,0-41.26,0-.98-.02-1.95.19-2.94.46-2.18,1.16-4.24,2.75-6.12-1.45-.02-2.4.42-3.01,1.48-.84,1.47-1.33,3.05-1.52,4.73-.29,2.68-.27,5.36-.26,8.04.03,11.4,0,22.79-.01,34.19,0,1.32-.17,2.65-.09,3.96.14,2.23.09,4.45.03,6.68-.02.76-.57,1.82-.39,2.25.64,1.58.11,3.12.21,4.66.08,1.36.28,2.62,1.37,3.57Zm-12.61-22.68c-.68-.02-.56-.55-.54-.94.19-3.24-.02-6.49-.1-9.72-.1-3.86-.05-7.72-.1-11.58-.06-5.32.09-10.65-.02-15.98-.06-2.63.38-5.06,1.48-7.43.43-.93,1.24-1.52,1.95-2.37-1.73-.29-2.74.52-3.4,1.66-1.02,1.75-1.48,3.69-1.62,5.73-.38,5.6.03,11.19-.02,16.78-.08,9.41,0,18.83-.03,28.24-.01,4.49-.13,8.98-.2,13.47-.01.97.17,1.86.97,2.53.3.25.62.3.95.13.32-.17.29-.5.25-.79-.1-.63-.29-1.26-.3-1.89-.06-2.98.18-5.96.05-8.95-.06-1.26.13-2.53.03-3.82-.13-1.7-.28-3.48.63-5.09.02-.02.04-.05.06-.07l-.05.08Zm84.14-96.11c-1.75-.03-2.46.45-2.93,1.88-.64,1.96-.78,4.01-1.02,6.04-.48,4.11-.93,8.22-1.41,12.33-.52,4.45-1.07,8.9-1.61,13.35-.43,3.6-.79,7.21-1.32,10.8-.36,2.47-.74,2.71-3.14,3.13-2.74.48-5.47,1-8.2,1.49-4.04.72-8.08,1.42-12.11,2.14-1.26.23-2.61.31-3.74.84-2.12.99-2.56,3.14-2.81,5.21-.18,1.47-.15,2.97-.89,4.32-.09.17-.18.45-.1.59.79,1.54.56,3.21.64,4.84.16,3.37-.23,6.73-.08,10.12.2,4.64,0,9.3,0,13.95,0,9.77,0,19.54,0,29.31,0,.7.2,1.35.33,2.01.16.81.86.61,1.34.64.49.02.39-.51.31-.8-.63-2.32-.14-4.68-.19-7.01-.08-3.95.13-7.91.16-11.87.05-6.11.07-12.22.07-18.32,0-7.84.02-15.68-.05-23.52-.02-2.75.36-5.38,1.64-7.83.51-.98,1.42-1.7,2.48-1.78,1.88-.14,3.71-.56,5.52-.94,6.39-1.35,12.91-1.94,19.23-3.64.81-.22,1.23-.56,1.44-1.37.41-1.63.49-3.29.67-4.95.38-3.44.78-6.87,1.16-10.31.35-3.18.76-6.36,1.06-9.55.4-4.25,1.02-8.48,1.49-12.72.31-2.84.44-5.7,2.06-8.37Zm-12.95-.52c-1.74-.02-2.49.87-2.98,2.1-.78,1.95-.67,4.02-.93,6.05-.77,6.1-1.53,12.2-2.42,18.29-.33,2.29-.03,4.73-1.32,6.84-.11.18-.15.36.05.56.5.5.24,1.14.2,1.7-.18,2.73-.8,5.4-.97,8.13-.15,2.35-.79,2.98-3.11,3.34-1.69.26-3.36.59-5.04.89-6.35,1.12-12.74,2.03-19.11,3.05-1.16.19-2.48.3-3.16,1.57-.79,1.48-1.47,2.99-1.6,4.7-.28,3.58-.3,7.16-.27,10.75.06,7.34-.05,14.68-.13,22.03-.12,9.68-.05,19.36-.08,29.04,0,.67.18,1.28.46,1.85.32.65.99.6,1.57.61.35,0,.4-.33.32-.56-.74-2.05-.28-4.16-.28-6.24.02-10.15.04-20.3.05-30.46.01-8.14,0-16.27.04-24.41,0-2.51.58-4.9,1.78-7.13.46-.86,1.24-1.37,2.11-1.54,1.93-.37,3.88-.63,5.83-.86,3.31-.38,6.58-.97,9.87-1.47,3.39-.51,6.76-1.25,10.16-1.75,1.35-.2,1.88-.94,2.12-1.99.34-1.5.54-3.03.72-4.55.61-5.26,1.17-10.53,1.78-15.8.7-5.98,1.41-11.96,2.18-17.94.3-2.31.47-4.69,2.17-6.82Zm-1.88,50.4c-.65-.39-1.28-.23-1.9-.12-1.22.21-2.44.43-3.66.64-2.94.52-5.89,1.04-8.83,1.58-1.63.3-2.67,1.24-3.24,2.85-.93,2.62-1.22,5.34-1.25,8.07-.15,15.2.07,30.39-.31,45.59-.1,4.2-.01,8.4-.03,12.6,0,.66.08,1.3.33,1.88.29.69,1.02.53,1.58.54.42,0,.31-.43.22-.71-.78-2.52-.29-5.11-.25-7.63.09-5.73-.03-11.47.18-17.2.12-3.4,0-6.83.06-10.25.14-8.73.21-17.46.22-26.19,0-2.22.34-4.34,1.08-6.41.62-1.73,1.66-2.78,3.64-3.07,4.07-.59,8.11-1.43,12.16-2.16Zm-62.04-1.38c-1.16-.05-2.14.11-2.72.87-.99,1.3-1.91,2.65-2.02,4.43-.16,2.54-.55,5.07-.43,7.64.12,2.38-.16,4.77-.03,7.14.2,3.66.02,7.31.1,10.96.05,2.48-.13,4.97-.05,7.44.11,3.62-.03,7.24.04,10.86.04,2.04-.06,4.09-.06,6.13,0,3.65.14,7.3,0,10.95-.05,1.41.6,2.47,1.59,2.56.76.07,1.26-.15.85-1-.31-.65-.37-1.31-.37-2,0-5.1,0-10.19,0-15.29-.03-13.62-.04-27.24-.11-40.86-.02-3.58.4-6.98,3.22-9.83Zm-.38,37.39s.03,0,.04,0c0,9.64,0,19.28,0,28.91,0,.87.15,1.7.41,2.52.25.79.97.89,1.58.65.68-.27-.03-.69-.08-1.04-.08-.59-.27-1.18-.28-1.77-.02-2.98-.12-5.97.03-8.94.2-3.99.19-7.98.19-11.98,0-4.88.01-9.77-.02-14.65-.05-7.54-.15-15.07-.17-22.61,0-2.31.7-4.46,1.86-6.46.25-.44.99-.96.45-1.38-.53-.41-1.23.1-1.68.57-.32.33-.54.76-.79,1.16-1.3,2.07-1.51,4.41-1.52,6.75-.04,9.42-.02,18.85-.02,28.27Zm-26.79-39.4c-1.24-.1-2.05.27-2.78,1.07-1.69,1.85-2.03,4.09-2.04,6.44-.02,5.21.01,10.42.01,15.63,0,7.68,0,15.35,0,23.03,0,5.87,0,11.73.05,17.6,0,1.06.07,2.15.62,3.11.32.56.88.75,1.44.51.56-.24.17-.74.12-1.13-.1-.76-.28-1.52-.3-2.28-.16-8.99-.03-17.97-.19-26.96-.09-4.84-.05-9.68-.09-14.52-.04-4.57-.06-9.14-.04-13.71.01-3.23.6-6.29,3.2-8.77Zm-18.13-1.04c-1.08-.16-1.74.26-2.18.9-1.26,1.84-2.3,3.7-2.27,6.12.09,9.34-.01,18.68.01,28.01.03,9.32-.07,18.65.21,27.97.03.97.2,1.86.7,2.69.28.46.76.68,1.2.54.59-.19.23-.73.15-1.1-.17-.75-.35-1.49-.36-2.28-.09-12.76.1-25.52-.23-38.27-.13-4.97.07-9.94-.07-14.91-.1-3.52.57-6.73,2.84-9.69Zm9.54.31c-1.96-.02-3.16.87-3.9,2.53-.89,1.99-1.28,4.09-1.28,6.24,0,5.74.09,11.48.12,17.22,0,1.97-.11,3.95-.04,5.9.19,5.95,0,11.9.11,17.85.09,4.88-.1,9.77.19,14.65.05.84.2,1.62.66,2.31.3.45.83.55,1.26.35.56-.26.13-.65-.04-.95-.26-.48-.23-.99-.24-1.5-.06-4.27-.16-8.54-.18-12.81-.06-14.86-.13-29.72-.08-44.57,0-2.73.91-5.3,3.41-7.2Zm-4.89-.05c-.33-.25-.54-.22-.75-.16-1.68.4-3.39,2.54-3.61,4.7-.19,1.87-.42,3.73-.4,5.63.1,9.91.17,19.82.22,29.74.04,7.7.05,15.41.07,23.11,0,1.08.19,2.12.73,3.09.31.55.8.6,1.33.49.33-.07.35-.34.26-.61-.95-2.83-.56-5.79-.59-8.66-.14-15.54-.11-31.09-.35-46.63-.06-3.85.06-7.65,3.09-10.69Zm108.53-45.83c-.24-.22-.44-.2-.66-.14-1.87.5-2.11,2.23-2.38,3.64-.79,4.06-1.11,8.2-1.57,12.3-.87,7.68-1.81,15.34-2.68,23.02-.22,1.91-.49,3.81-.76,5.71-.18,1.3-.74,2.23-2.21,2.42-.74.1-1.52.15-2.44.68,1.71.03,3.08-.62,4.5-.65,1.51-.03,2.09-.94,2.26-2.14.51-3.59.93-7.19,1.28-10.79.36-3.74.82-7.47,1.16-11.21.46-5.18,1.14-10.34,1.73-15.51.28-2.49.5-5,1.78-7.33Zm-42.24,45.89c.76.24,1.5.14,2.25.03,1.98-.29,3.95-.67,5.94-.8,1.05-.07,1.58-.54,1.88-1.39.25-.72.42-1.49.51-2.25.68-5.6,1.32-11.2,1.99-16.8.64-5.39,1.2-10.79,1.98-16.15.46-3.17.22-6.53,2.27-9.41-1.47-.36-2.12.47-2.56,1.49-.51,1.18-.74,2.44-.9,3.72-.56,4.66-1.15,9.32-1.75,13.98-.42,3.26-.91,6.51-1.28,9.77-.56,4.86-1.19,9.71-2.43,14.46-.51,1.94-.95,2.3-2.99,2.58-1.64.23-3.26.51-4.89.77Zm3.87-47.33c-1.67.01-2.27.5-2.84,2.06-.79,2.15-.91,4.43-1.24,6.66-.76,5.02-1.32,10.07-1.99,15.11-.63,4.7-1.26,9.39-1.98,14.07-.37,2.39-.3,4.88-1.54,7.09-.3.53.06.55.44.57,1.3.08,2.09-.6,2.33-2.33.73-5.24,1.4-10.48,2.07-15.73.85-6.57,1.67-13.14,2.53-19.71.35-2.65.4-5.39,2.23-7.79Zm15.33,47.43c2.38.15,3.36-.46,3.67-2.52.51-3.41.88-6.85,1.29-10.28.42-3.48.79-6.96,1.21-10.43.47-3.85.88-7.72,1.48-11.55.62-3.95.3-8.11,2.56-11.8-1.18-.07-1.91.35-2.4,1.29-.36.7-.58,1.44-.69,2.19-.53,3.63-1.03,7.26-1.51,10.89-.49,3.72-.88,7.46-1.42,11.17-.42,2.96-.63,5.94-1.14,8.88-.45,2.56-.58,5.17-.97,7.74-.24,1.63-.17,3.47-2.09,4.42Zm5.34.16c1.91.1,2.42-.32,2.72-2.5.63-4.65,1.22-9.31,1.78-13.97.99-8.23,1.94-16.46,2.94-24.68.19-1.61.45-3.22,1.35-4.63.15-.24.54-.43.3-.74-.2-.26-.56-.11-.85-.03-1.63.45-1.94,1.92-2.12,3.22-.84,5.82-1.66,11.65-2.28,17.5-.66,6.29-1.37,12.57-2.21,18.83-.32,2.38-.2,4.88-1.63,7.01Zm22.37,1.59c1.67,0,2.04-.23,2.27-1.86.4-2.88.73-5.76,1.06-8.65.46-4.03.88-8.07,1.36-12.1.63-5.34,1.28-10.68,1.95-16.01.35-2.75.25-5.59,1.66-8.13.1-.18.26-.39.09-.58-.19-.21-.49-.16-.73-.08-.9.3-1.34,1.04-1.63,1.86-.97,2.69-.86,5.55-1.22,8.33-.49,3.76-.74,7.56-1.2,11.32-.6,4.91-.94,9.85-1.83,14.73-.68,3.71-.71,7.53-1.78,11.18Zm-48.94-3.28c2.35.12,3.08-.3,3.34-2.03.42-2.74.76-5.49,1.11-8.24.53-4.24.99-8.48,1.58-12.71.54-3.89.98-7.79,1.5-11.67.51-3.8.12-7.84,2.64-11.24-1.94.24-2.94,1.09-3.21,2.87-.49,3.29-.93,6.59-1.33,9.89-.57,4.66-1.07,9.33-1.65,13.99-.62,4.91-1.27,9.82-1.98,14.72-.23,1.6-.11,3.4-1.99,4.43Zm-8.22-.86c1.67.45,2.53-.12,2.77-1.85,1.05-7.52,2.09-15.05,3.13-22.58.73-5.25,1.49-10.49,2.16-15.74.22-1.75.85-3.33,1.77-4.9-1.63-.02-2.62.83-2.93,2.63-.57,3.32-.92,6.68-1.57,9.98-.3,1.53.44,3.37-1.17,4.58-.04.03,0,.27.07.34.66.73.3,1.53.2,2.31-.8,5.92-1.51,11.85-2.44,17.75-.4,2.54.08,5.35-1.99,7.48Zm-5.99-45.81c-2.13.09-2.76.64-3.17,2.4-.55,2.36-.81,4.8-1.16,7.21-.75,5.19-1.48,10.39-2.21,15.59-.46,3.22-.82,6.45-1.4,9.64-.61,3.35-.38,6.89-2.27,10.03,1.37.06,2.28-.48,2.51-1.74.51-2.85.94-5.72,1.36-8.59.75-5.07,1.47-10.15,2.18-15.23.56-3.98,1.06-7.96,1.67-11.93.39-2.54.45-5.22,2.49-7.39Zm7.66.31c-1.81.2-2.85,1.36-3.18,3.37-.25,1.56-.38,3.14-.64,4.7-1.49,8.84-2.37,17.76-3.85,26.6-.51,3.04-.31,6.22-1.7,9.11-.15.31-.61.83-.08,1.12.5.27,1.07.13,1.51-.35.67-.71.69-1.62.81-2.5.58-4.23,1.08-8.48,1.75-12.69.93-5.82,1.57-11.67,2.51-17.48.64-3.96.33-8.18,2.87-11.88Zm20.36,47.19c1.74.07,2.35-.35,2.62-1.88.25-1.39.41-2.79.58-4.19.73-5.93,1.46-11.85,2.17-17.78.55-4.61,1.05-9.23,1.64-13.84.37-2.85.23-5.84,2.17-8.44-1.22-.09-1.98.35-2.38,1.3-.28.66-.49,1.37-.62,2.08-.72,3.78-.96,7.62-1.44,11.42-1.13,8.94-2.14,17.89-3.26,26.83-.19,1.54-.6,3.06-1.48,4.49Zm-34.55-2.31c2.07-.16,2.22-.25,2.71-1.93.66-2.26.8-4.61,1.13-6.92,1-7.15,1.92-14.31,3.11-21.43.82-4.91.58-10.07,3.18-14.68-.87-.1-1.46.22-1.92.85-.56.77-.99,1.62-1.13,2.56-.95,6.38-1.9,12.75-2.81,19.13-.84,5.92-1.58,11.85-2.49,17.76-.24,1.59-.38,3.31-1.78,4.65Zm47.91-43.57c-1-.37-1.63.14-2.05.87-.46.81-.78,1.7-.96,2.64-.8,4.15-.8,8.4-1.58,12.55-.22,1.16.1,2.46-.62,3.45-.36.5-.41.86-.29,1.37.09.37.18.76.14,1.13-.4,3.63-.68,7.29-1.27,10.89-.69,4.24-.41,8.63-1.97,12.73-.17.46.11.54.46.47.59-.11,1.03-.45,1.19-1.04.22-.78.45-1.57.55-2.37.5-3.85.96-7.71,1.44-11.56,1.02-8.14,2.04-16.27,3.09-24.41.3-2.32.56-4.67,1.86-6.74Zm-49.57-2.35c-1.48.63-2.71,1.44-3.17,3.21-.25.97-.28,1.94-.43,2.91-.95,6.36-1.92,12.73-2.86,19.09-.78,5.24-1.5,10.48-2.31,15.71-.17,1.07-.2,2.23-.87,3.16-.17.24-.52.4-.27.71.21.27.56.14.85.1.59-.1.82-.56,1.05-1.03.69-1.46.86-3.07,1.05-4.61.6-4.97,1.44-9.9,2.13-14.85.81-5.76,1.65-11.51,2.54-17.25.36-2.34.49-4.8,2.34-6.64.11-.11.19-.3-.04-.51Zm-13.32,44.66c.45-.06.8-.24,1.08-.62.44-.61.63-1.3.74-2.03.47-3.08.96-6.17,1.42-9.25,1.31-8.75,2.58-17.51,3.95-26.25.33-2.12.46-4.39,2.28-5.97.16-.13.35-.35.1-.52-.31-.21-.64-.13-.95.09-1.47,1.04-2.31,2.4-2.55,4.23-.61,4.74-1.56,9.43-2.16,14.17-.69,5.42-1.55,10.82-2.48,16.2-.54,3.13-.39,6.42-1.93,9.35-.24.45.06.62.49.6Zm-8.66-.7c1.71.18,2.43-.58,2.7-2.47.53-3.76,1.09-7.52,1.65-11.28,1.1-7.43,2.17-14.87,3.35-22.3.38-2.38.45-4.88,1.91-6.98.23-.33.67-.81.19-1.1-.41-.25-.84.03-1.25.5-1.37,1.54-1.7,3.43-1.98,5.32-1.36,8.99-2.69,17.99-3.97,26.99-.4,2.77-1.2,5.48-1.24,8.31-.02,1.07-.41,2.08-1.35,3.01Zm50.3,3.56c.37.03.6-.23.72-.56.3-.82.76-1.58.86-2.49.17-1.61.31-3.24.59-4.83,1.12-6.25,1.18-12.66,2.9-18.83.69-2.47.48-5.1.93-7.62.65-3.63.39-7.47,2.36-10.82.42-.71-.06-.75-.52-.63-1.05.27-1.68,1.06-1.89,2.06-.58,2.74-1.11,5.49-1.58,8.25-.28,1.68-.37,3.39-.58,5.09-.56,4.49-1.15,8.97-1.72,13.46-.7,5.48-.97,11.02-2.49,16.37-.12.42-.02.56.43.54Zm-46.53-3.21c1.89.21,2.5-.4,2.81-2.52,1.04-7.14,2.09-14.27,3.15-21.4.67-4.5,1.33-8.99,2.05-13.48.34-2.1.5-4.27,1.93-6.03.21-.26.82-.49.39-.89-.35-.32-.97-.23-1.28.14-.84.97-1.68,1.94-1.89,3.28-1.02,6.45-1.99,12.9-2.88,19.37-.8,5.79-1.77,11.55-2.66,17.32-.23,1.51-.26,3.07-1.62,4.21Zm89.24-41.25c-.24-.09-.32-.14-.4-.14-1.37.06-2.15.95-2.45,3.08-.41,2.91-.75,5.83-1.06,8.76-.48,4.54-.87,9.08-1.35,13.61-.54,5.13-1.08,10.26-1.73,15.38-.23,1.84.01,3.79-.97,5.51-.13.23-.47.52-.08.76.27.17.62.02.83-.19.6-.59.89-1.36.99-2.17.39-3.05.86-6.09,1.11-9.15.42-5.15,1.27-10.25,1.77-15.39.4-4.08.87-8.15,1.37-12.22.33-2.66.51-5.36,1.98-7.83Zm-25.14,89.79c-.39-.02-.59.29-.63.53-.07.45.41.57.7.74.26.15.36-.12.36-.34.01-.38,0-.77-.44-.94Zm-34.76-6.89c.67-.47,1.02-.87.92-1.48-.04-.24-.32-.32-.51-.23-.73.36-.36,1-.41,1.71Zm29.88,5.95c.29-.78-.03-1.31-.42-2.09-.2.92-.25,1.53.42,2.09Z"/><path class="cls-2" d="m221.18,168.19c-1.08-2.69-.53-5.51-.56-8.26-.11-8.86.31-17.72.24-26.58-.04-4.36.26-8.72.18-13.08-.05-2.62.04-5.24-.09-7.86-.08-1.62.08-3.32.18-4.98.07-1.21.2-2.43.21-3.64.02-2.07.84-3.9,1.63-5.74.31-.72.97-1.14,1.8-1.3,5.67-1.05,11.35-2.03,16.99-3.21,2-.42,4-.78,6-1.18,2.41-.48,2.59-1.12,2.88-3.26.86-6.42,1.59-12.86,2.33-19.29.58-5.03,1.08-10.06,1.65-15.09.28-2.43.65-4.85.94-7.29.22-1.86,1.18-2.9,3.06-3.06.29-.02.63.03.68-.4.49-.04.98-.18,1.45.07.2.63.34,1.29.82,1.79,0,3.43,0,6.86,0,10.28-.54,1.01-.55,2.11-.55,3.22,0,11.8,0,23.6,0,35.4,0,.41-.14.86.16,1.24-.03,5.29-.06,10.58-.08,15.87-.39.16-.36.53-.44.86-.31,1.33-.18,2.66-.17,4,.04,7.38,0,14.77,0,22.15,0,.45-.18.94.16,1.35,0,.15-.01.3-.02.45-.3.07-.35.33-.47.56-.87,1.61-2,2.94-3.76,3.67-.54.22-.99.66-1.47,1.01-.99.72-1.96,1.46-2.97,2.16-2.3,1.59-4.85,2.83-6.95,4.69-1.25,1.11-2.64,1.59-4.31,1.45-1.36-.11-2.74-.04-4.11-.04-2.79,0-2.82,0-2.82,2.72,0,2.13-.96,3.71-2.68,4.88-2.41,1.64-4.82,3.26-7.21,4.93-.68.47-1.63.59-2.01,1.48-.23,0-.45.01-.68.02Zm3.79-63.65c-.05-.56.12-1.31-.68-1.29-.73.02-.99.71-1.04,1.37-.06.65.32,1.11.94,1.12.78,0,.68-.71.78-1.19Zm3.58,52.85c0-.46.03-.94-.52-.89-.73.07-.89.7-.94,1.29-.04.5.27,1.09.7,1.03.81-.1.65-.93.75-1.44Zm31.46-49.82c-.07-.42.12-1.09-.53-1.06-.41.02-.69.58-.69,1.07,0,.46.24.88.69.92.66.05.46-.54.53-.92Zm-6.5,34.09c-.02-.39-.06-.87-.62-.89-.6-.03-.64.46-.59.9.05.45.09,1.05.68,1.04.57,0,.49-.58.53-1.05Zm6.02-90.91c-.04-.43-.04-.95-.56-1-.67-.07-.62.6-.71.99-.11.46.2.89.64.92.56.04.56-.5.63-.91Z"/><path class="cls-3" d="m88.4,150.76c-1.35,1-2.8.26-4.17.15-4.37-.34-8.65-1.38-13.02-1.77-3.98-.35-7.93-.91-11.89-1.46-2.7-.38-5.45-.47-8.09-1.15-2.42-.62-4.89-.56-7.31-.82-3.25-.35-6.45-1.01-9.72-1.27-2.79-.22-5.55-.91-8.35-1.13-.74-.06-1.01-.75-1.78-.86.23-.19.34-.34.39-.33,1.38.42,1.52-.25,1.43-1.42-.48-6.42-.15-12.85-.3-19.27-.13-5.73-.16-11.48-.49-17.2-.31-5.32-.16-10.63-.23-15.95-.02-1.48.25-2.89,1.02-4.16.8-1.32,1.92-2.1,3.62-1.95-2.29,1.9-3.25,4.25-3.25,7.15.01,8.23.3,16.45.53,24.67.19,7.02.4,14.04.5,21.06.03,1.88.11,3.77.2,5.65.06,1.11.49,2.01,1.7,2.27.52.11.76,0,.68-.67-.19-1.57-.32-3.15-.35-4.73-.12-5.74-.12-11.48-.31-17.22-.17-5.22-.08-10.45-.31-15.67-.25-5.61-.3-11.22-.17-16.83.05-2.19,1.5-5.3,4.17-5.35-2.21,1.79-3.05,4.14-3.1,6.68-.07,2.99.15,5.99.25,8.98.03.94.11,1.88.13,2.82.15,8.1.22,16.19.45,24.29.13,4.67.12,9.34.24,14.01.03,1.06.3,2.11.53,3.15.18.79.86.95,1.52.81.75-.16.14-.7.14-1.04,0-1.95-.02-3.91-.1-5.86-.26-6.29.08-12.59-.31-18.87-.07-1.11-.05-2.23-.07-3.34-.1-5.56-.13-11.12-.34-16.67-.09-2.44-.16-4.88-.15-7.32.01-2.32.59-4.48,2.19-6.25.39-.43.73-1.09,1.67-.92-.56.9-1.08,1.69-1.52,2.53-1,1.92-1.13,3.91-.95,5.98.06.72.09,1.45.09,2.18.08,9.81.6,19.61.65,29.42.03,5.86.27,11.71.41,17.56.02.87.25,1.67.46,2.5.23.91.87.73,1.39.66.77-.11.2-.66.21-1.01.03-.64,0-1.29,0-1.93-.1-9.21-.14-18.42-.33-27.63-.15-7.71-.55-15.41-.45-23.12.02-1.82.43-3.52,1.3-5.15.62-1.17,1.65-1.63,3.08-2.27-.83,1.12-1.66,1.78-2.11,2.71-.68,1.4-1.13,2.85-1.1,4.44.07,3.39-.03,6.78.15,10.16.33,6.3.43,12.6.48,18.9,1.01,1.54.03,3.16.15,4.74.13,1.66.05,3.34.07,5.01.02,1.71.02,3.43.06,5.14.06,2.74.13,5.48.23,8.22.06,1.47.96,2.49,2.08,2.49.46,0,.87-.11.52-.64-.44-.68-.32-1.4-.35-2.12-.27-7.79-.17-15.59-.29-23.39-.11-7.36-.24-14.73-.54-22.09-.12-2.84-.23-5.66.35-8.43.4-1.92,1.35-3.64,3.44-4.43-3.13,3.23-2.44,7.24-2.42,11.12,0,.73,0,1.46.01,2.19.13,8.29.24,16.58.39,24.87.13,6.98.28,13.96.44,20.94.04,1.86.51,2.23,2.9,2.38-.72-1.72-.65-3.51-.65-5.29-.02-5.83.06-11.66-.11-17.49-.3-10.28-.5-20.55-.46-30.83,0-2.19.62-4.27,1.7-6.19.18-.32.34-.86.79-.59.39.23-.05.6-.19.88-.79,1.61-1.43,3.26-1.39,5.09.17,7.36.27,14.73.56,22.09.2,5.14.12,10.28.23,15.42.1,4.75.14,9.51.22,14.26.03,1.95.82,3.04,2.19,3.07.36,0,.87.13.57-.57-.49-1.17-.43-2.44-.46-3.66-.11-4.1,0-8.21-.11-12.31-.2-7.63-.08-15.25-.3-22.88-.15-5.27-.23-10.54-.11-15.8.05-2.38.92-4.55,3.18-6.1.13,1.05-.58,1.54-.92,2.16-1.35,2.45-1.27,5.09-1.18,7.73.11,3.17.31,6.33.38,9.49.14,6.94.15,13.88.36,20.82.16,5.36.13,10.71.23,16.06.02,1.2.16,2.39.19,3.59.02.76.48,1.31.92,1.79.37.42,1.12.33,1.58.12.6-.28-.08-.7-.11-1.07-.03-.34-.09-.68-.09-1.02-.1-7.15-.1-14.31-.32-21.46-.2-6.64-.02-13.28-.26-19.92-.14-3.77-.27-7.54-.11-11.3.09-2.3.62-4.57,2.48-6.23.33-.3.6-.76,1.27-.51-2.94,3.1-2.72,6.86-2.57,10.71.25,6.46.28,12.94.39,19.4.16,9.72.31,19.45.43,29.17.01.85.34,1.59.62,2.34.21.57.79.18,1.2.25.35.07.54-.2.54-.55,0-.21.05-.45-.02-.64-.89-2.51-.11-5.06-.18-7.58-.15-5.03.06-10.07-.11-15.1-.2-5.95-.06-11.91-.29-17.86-.17-4.46-.23-8.91-.15-13.36.04-2.19.7-4.27,2.14-6.02.53-.65,1.26-.78,2.35-.78-.99,1.07-1.79,1.99-2.38,3.07-.47.88-.81,1.74-.83,2.75-.12,8.87.37,17.73.48,26.6.05,4.76.05,9.51.09,14.27.04,4.33.11,8.65.18,12.98.03,1.67.64,2.7,1.79,2.92.45.09,1.19.29.88-.67-.57-1.76-.34-3.57-.36-5.36-.06-4.71.06-9.43-.08-14.14-.21-7.11-.04-14.23-.29-21.33-.17-4.8-.21-9.59-.13-14.39.03-2,.95-3.68,2.15-5.22.31-.4.71-.72,1.42-.72-.46,1.2-1.27,2.07-1.73,3.14-.5,1.17-.79,2.32-.79,3.56,0,2.48.39,4.96.34,7.41-.06,3.38-.09,6.76.01,10.13.33,11.35.41,22.7.5,34.06,0,.77.12,1.54.18,2.3.08.88.66,1.38,1.37,1.72.38.19.88.25,1.23-.03.41-.32,0-.71-.12-1.04-.19-.54-.22-1.09-.22-1.65-.02-4.2.03-8.4-.08-12.6-.22-8.01-.04-16.03-.3-24.03-.14-4.41-.06-8.82-.3-13.22-.13-2.36-.04-4.81,1.18-7,.06-.11.09-.24.15-.35.37-.62.91-1.63,1.47-1.32.66.36-.25,1.1-.52,1.58-1.45,2.7-.97,5.58-.94,8.42,0,.38.1.77.11,1.15.1,4.5.17,8.99.3,13.49.27,9.73.22,19.45.26,29.18,0,.39-.23.88.35,1.11.27.11.18.24.08.48-.77,1.9-.7,3.76.22,5.62.4.81,1.14.85,1.72.68.75-.23.16-.88.06-1.31-.12-.51-.15-1.01-.15-1.53-.02-8.44.1-16.89-.1-25.33-.13-5.61,0-11.22-.23-16.82-.15-3.47-.18-6.94-.15-10.4.02-1.54.39-3.03,1.03-4.46.54-1.19,1.46-1.9,2.58-2.45.05.13.13.25.11.27-2.4,2.83-2.66,6.16-2.36,9.67.19,2.2.1,4.42.15,6.64.13,6.21.28,12.42.38,18.63.07,4.8.08,9.6.1,14.4.02,3.51,0,7.03.02,10.54.01,1.94.48,2.5,1.95,2.71.44.06.77.06.5-.46-.44-.86-.29-1.76-.29-2.65-.03-8.57.06-17.15-.11-25.72-.12-5.87-.04-11.74-.26-17.6-.1-2.7-.15-5.39-.17-8.09-.02-2.44.51-4.77,1.85-6.83.61-.94,1.51-1.55,2.96-1.53-3.17,2.91-3.46,6.48-3.17,10.25.12,1.62.07,3.26.1,4.88.1,5.27.18,10.54.3,15.81.11,5.01.41,10.01.35,15.01-.04,3.3.02,6.59-.03,9.89-.03,1.8.08,3.6.18,5.39.08,1.43.99,2.36,2.1,2.29.49-.03.74-.17.53-.7-.45-1.15-.33-2.37-.34-3.56-.1-8.95-.13-17.91-.29-26.86-.15-8.26-.51-16.53-.44-24.79.02-2.42.38-4.76,2.46-6.45.51-.41,1-.77,1.68-.8.21.44-.15.66-.35.88-1.7,1.87-2.37,4.11-2.35,6.59.05,6.09.04,12.17.2,18.26.29,11.05.42,22.1.47,33.16,0,.85.1,1.71.18,2.56.17,1.79.98,2.36,2.91,2.06-.52-1.2-.62-2.46-.62-3.74-.02-7.67.07-15.35-.11-23.02-.16-6.9-.06-13.8-.26-20.69-.08-2.57-.18-5.14-.14-7.7.03-2.55.53-5.01,2.31-7.02.4-.46.79-.85,1.72-.89-1.13,1.41-1.91,2.73-2.33,4.26-.28,1.01-.43,2.01-.4,3.04.27,12.55.58,25.09.6,37.64,0,5.18.12,10.35.17,15.53,0,.78.07,1.54.39,2.26.34.74.98,1.18,1.76.99.93-.22.21-.9.21-1.37,0-1.76-.05-3.51-.06-5.27-.02-7.07.1-14.15-.07-21.22-.15-5.83-.02-11.65-.25-17.47-.13-3.34-.11-6.68-.14-10.02-.02-2.45.59-4.73,1.95-6.8.57-.86,1.63-1.44,2.76-1.44-3.22,2.89-3.33,6.65-3.08,10.55.13,1.96.06,3.94.09,5.91.17,12.81.44,25.62.43,38.44,0,2.23.07,4.45.17,6.68.07,1.61.7,2.44,1.82,2.56.66.07,1.15,0,.81-.89-.32-.85-.32-1.76-.32-2.66,0-5.49.07-10.98-.08-16.46-.19-7.11-.05-14.23-.28-21.33-.16-4.88-.08-9.77-.21-14.65-.04-1.3.18-2.58.4-3.82.31-1.7,1.61-2.82,3.01-3.76.17-.11.4-.26.59-.08.26.25.03.47-.13.65-1.95,2.23-2.43,4.88-2.4,7.76.14,12.68.44,25.36.46,38.05,0,3.42.03,6.85.09,10.28.01.6-.23,1.31.56,1.68.22.1.22.35.1.56-.93,1.61-.7,3.25-.1,4.9l.02-.02Z"/><path class="cls-3" d="m88.38,150.78q2.29.58,1.94-1.7c-.07-.46-.11-.94-.11-1.4-.03-12.34.03-24.69-.13-37.03-.07-5.44-.18-10.88-.13-16.32.02-2.04.58-3.97,1.81-5.66.52-.72,1.1-1.4,2.31-1.44-1.28,1.66-2.23,3.29-2.62,5.2-.15.72-.2,1.44-.19,2.17.11,10.03.15,20.05.38,30.08.18,7.8.13,15.6.2,23.39,0,.88.13,1.71.5,2.49.31.66.82,1.07,1.62,1.03.48-.03.72-.19.63-.71-.5-3.15-.21-6.32-.23-9.49-.06-7.76.04-15.52-.07-23.27-.12-7.79-.26-15.57-.21-23.36.02-2.46.78-4.69,2.48-6.55.5-.55,1.06-.85,1.86-.65-1.43,1.65-2.29,3.48-2.8,5.66-.49,2.07-.08,4.01-.04,5.99.33,16.58.29,33.17.26,49.75,0,2.07.43,2.92,1.64,3.23.57.15,1,.16.96-.68-.54-11.13.26-22.27-.09-33.4-.24-7.75-.16-15.51-.19-23.26,0-2.15.79-4.01,1.94-5.74.46-.69,1.14-1.13,2.1-1.31-.07.67-.52,1.09-.81,1.54-1.23,1.9-1.78,3.96-1.74,6.21.34,18,.29,36,.36,54,0,2.05.81,3.22,2.17,3.24.29,0,.71.16.58-.49-.64-3.27-.26-6.58-.28-9.87-.07-8.91.07-17.83-.08-26.74-.11-6.34-.11-12.68-.14-19.02-.01-2.45.37-4.87,1.84-6.94.42-.58.79-1.4,1.78-1.18l-.02-.02c-.05.92-.85,1.44-1.16,2.23-.8,2.07-1.14,4.21-1.03,6.42.31,6.46.09,12.94.27,19.4.3,11.01.15,22.02.18,33.03,0,.73.05,1.46.24,2.16.18.7.56,1.28,1.28,1.47.39.1.93.15,1.24-.04.39-.24-.03-.69-.12-1.02-.17-.64-.16-1.27-.16-1.91-.01-11.27.06-22.54-.06-33.81-.07-6.59-.18-13.19-.19-19.78,0-1.81.34-3.55.97-5.26.55-1.5,1.49-2.52,2.97-3.06.22.17.16.34.04.46-1.87,2.01-2.48,4.49-2.43,7.11.29,14.52.29,29.04.26,43.56,0,3.6-.01,7.2-.05,10.79,0,.83.15,1.6.53,2.34.22.43.52.86,1.06.75.5-.1.55-.59.58-1.03.02-.26,0-.51,0-.77.1-18,.09-35.99-.1-53.99-.02-2.16.11-4.29,1.03-6.28.17-.37.19-.99.85-.96.12.26,0,.5-.09.73-1.17,2.65-1.22,5.44-1.19,8.27.06,6.2.15,12.4.22,18.61.11,10.14.06,20.29.02,30.43,0,2.14.11,4.22,1.07,6.18-1.67-.22-3.34-.42-5-.66-.67-.1-1.33-.28-2.02-.26-2.12.05-4.16-.53-6.24-.81-2.05-.28-4.11-.56-6.18-.72-1.32-.1-2.55-.69-3.9-.6-.49.03-.43-.41-.35-.76,0,0-.02.02-.02.02Z"/><path class="cls-2" d="m206.28,166.58c-.62-1.01-.9-2.13-.85-3.29.29-6.63.08-13.26.26-19.89.35-13.15.07-26.31.2-39.46.03-2.62.63-5.06,2.23-7.2.53-.7,1.23-1.09,2.04-1.23,3.78-.67,7.57-1.29,11.38-1.81-1.21.54-2.49.78-3.78.93-1.87.21-3.7.65-5.55.94-1.31.21-2.03.97-2.54,2.07-.92,2.01-1.46,4.1-1.44,6.33.03,4.15.09,8.31,0,12.46-.24,12.55-.09,25.1-.16,37.65-.02,3.17.02,6.34-.06,9.51-.02,1.03.52,2,.2,3.03-.65-.01-1.29-.03-1.94-.04Z"/><path class="cls-2" d="m182.61,163.48c-.93-.72-1.17-1.73-1.16-2.83.02-3.94.04-7.88.06-11.82,0-.58.17-1.21-.55-1.56-.21-.1-.26-.36-.08-.54.84-.86.94-2.15.29-3.18-.37-.58-1.02-1.25.27-1.62.42-.12.25-.59.25-.91.02-4.41.02-8.82.03-13.23.02-8.41-.03-16.82.09-25.22.03-2.45.42-4.89,1.64-7.15.6-1.12,1.41-1.46,2.56-1.51.05.65-.32,1.08-.58,1.54-1.23,2.22-1.79,4.59-1.78,7.12.02,14.56.03,29.12.03,43.68,0,4.41.02,8.82-.07,13.23-.03,1.38.61,2.67.42,4.05-.47-.02-.95-.03-1.42-.05Z"/><path class="cls-2" d="m187.24,164c-.78-1.58-.9-3.27-.89-5,.03-3.56.02-7.11.03-10.67,0-.5.08-1.01-.59-1.25-.37-.14-.82-.48-.65-.97.22-.62.74.07,1.18-.16-.47-.97.06-1.9.07-2.85,0-5.57,0-11.14,0-16.71.01-8.31-.05-16.62.11-24.92.04-2,.68-4.03,1.71-5.84.21-.36.52-.68.85-.95.46-.38,1.12-.87,1.59-.42.43.41-.3.86-.54,1.25-1.2,1.9-1.78,4.05-1.79,6.21-.09,14.1-.06,28.19-.07,42.29,0,5.1,0,10.2-.04,15.3,0,1.42-.11,2.84.52,4.16.18.39-.22.38-.26.59-.41-.02-.82-.03-1.23-.05Z"/><path class="cls-2" d="m191.86,164.56c-1.23-2-.81-4.26-.75-6.37.08-3.34.1-6.67.11-10.01.03-14.69,0-29.38.04-44.07,0-2.57.28-5.13,1.35-7.52.71-1.6,1.75-2.24,3.27-2.04-2.06,2.71-2.74,5.8-2.74,9.12.01,17.01,0,34.02-.02,51.02,0,1.87-.11,3.74-.19,5.61-.05,1.12-.05,2.23.37,3.29.17.42.1.74-.2,1.03-.41-.02-.82-.04-1.24-.06Z"/><path class="cls-2" d="m178.18,162.91c-1.09-.95-1.28-2.21-1.37-3.57-.09-1.54.43-3.07-.21-4.66-.17-.43.37-1.49.39-2.25.06-2.22.11-4.45-.03-6.68-.08-1.31.08-2.64.09-3.96.02-11.4.04-22.79.01-34.19,0-2.69-.03-5.37.26-8.04.18-1.68.68-3.26,1.52-4.73.61-1.07,1.56-1.5,3.01-1.48-1.59,1.88-2.29,3.94-2.75,6.12-.21.98-.19,1.96-.19,2.94,0,13.75.01,27.5,0,41.26,0,5.48-.05,10.96-.19,16.44-.02.98.82,1.85.22,2.83-.25-.01-.5-.02-.76-.03Z"/><path class="cls-2" d="m201.84,165.99c-.95-1.17-1.07-2.56-1.05-3.99.06-4.42.13-8.84.16-13.26.04-5.5.05-11,.05-16.51,0-5.07,0-10.14,0-15.21.01-5.08-.08-10.17.15-15.24.09-1.99.8-3.99,2.02-5.67.62-.86,1.61-1.03,2.76-.92-3.06,3.01-3.21,6.84-3.12,10.61.12,5.35.04,10.7.09,16.05.06,6.33.09,12.67-.06,19.01-.17,7.35-.09,14.71-.27,22.06-.03,1.08.62,2.07.28,3.16-.34-.03-.68-.05-1.02-.08Z"/><path class="cls-2" d="m137.53,157.71c-.87-1.34-1.06-2.8-1.06-4.38,0-18.07-.03-36.15-.05-54.22,0-2.29.4-4.5,1.38-6.59.65-1.39,1.57-2.31,3.55-2.26-1.37,1.12-2.02,2.45-2.53,3.85-.58,1.58-.77,3.22-.75,4.9.04,4.4-.02,8.81.08,13.21.3,13.99.11,27.99.2,41.98,0,.64-.1,1.32.19,1.9.47.92.2,1.44-.75,1.69-.08-.04-.16-.07-.24-.08Z"/><path class="cls-2" d="m155.09,159.88c-1.07-1.74-.87-3.71-.88-5.6-.04-9.47,0-18.93-.04-28.4-.02-6.75-.14-13.5-.17-20.26-.02-3.33-.07-6.66.73-9.94.31-1.29.92-2.39,1.76-3.37.53-.62,1.28-.77,2.36-.59-1.77,1.64-2.45,3.61-2.84,5.74-.45,2.52-.44,5.11-.04,7.53.21,1.24-.28,2.18-.23,3.29.17,3.59.07,7.19.08,10.79.01,7.37.02,14.74.03,22.1.01,5.12.05,10.25.03,15.37,0,1.18.69,2.2.61,3.37-.47-.01-.94-.03-1.42-.04Z"/><path class="cls-2" d="m150.97,159.37c-.99-1.35-1.11-2.92-1.14-4.52-.08-4.75-.11-9.5-.12-14.25,0-5.99.1-11.98,0-17.97-.14-7.58-.11-15.16-.09-22.73,0-2.18.29-4.31,1.33-6.3.72-1.39,1.62-2.4,3.46-2.23-2.61,2.53-3.17,5.72-3.16,9.06.04,11.48.14,22.96.19,34.43.03,5.53-.04,11.05.07,16.58.05,2.45-.16,4.93.46,7.35.05.19-.07.41-.11.62-.3-.02-.6-.03-.91-.05Z"/><path class="cls-2" d="m147.11,158.84c-1.05-.42-1.38-1.32-1.47-2.32-.31-3.25-.16-6.51-.17-9.76-.04-6.56.07-13.11-.07-19.67-.2-9.27-.21-18.53-.19-27.8,0-2.43.39-4.88,1.87-6.96.27-.38.61-.72.96-1.02.38-.33.95-.47,1.28-.12.34.36-.24.63-.43.93-1.33,2.07-2.05,4.36-2.04,6.8.06,15.11.17,30.23.26,45.34.02,3.51.06,7.02.03,10.54-.01,1.42.47,2.74.67,4.11-.23-.02-.47-.04-.7-.06Z"/><path class="cls-2" d="m159.7,160.44c-1.34-2.17-1.07-4.61-1.08-6.98-.05-8.43-.04-16.87-.03-25.3,0-9.88-.02-19.76.12-29.64.03-1.77.73-3.57,1.72-5.14.25-.41.62-.7,1.02-.96.45-.3,1.04-.6,1.39-.19.33.38-.35.68-.57.99-1.38,1.91-2.04,4.07-2.05,6.36-.05,6.3,0,12.59.04,18.89.03,3.79.22,7.58.14,11.36-.03,1.54.15,3.03.22,4.54.04.95-.35,2.01-.33,3.01.1,4.4-.12,8.8,0,13.2.06,2.29-.06,4.61-.09,6.92,0,.71-.08,1.43.47,2.05.59.66-.21.68-.5.93-.16-.01-.31-.03-.47-.04Z"/><path class="cls-2" d="m119.76,155.41c-1.43-7.09-.62-14.27-.76-21.41-.23-11.66-.2-23.33-.3-35-.02-2.68.21-5.3,1.36-7.77.7-1.5,1.8-2.36,3.69-2.16-2.9,2.35-3.35,5.58-3.38,8.89-.05,6.38-.02,12.77.01,19.15.06,11.27.15,22.53.21,33.8,0,1.63.45,3.18.74,4.76-.55.08-1.06-.12-1.57-.26Z"/><path class="cls-2" d="m115.95,155.09c-.82-1.5-1.02-3.13-1.06-4.82-.12-4.96-.05-9.93-.17-14.89-.19-7.83,0-15.66-.17-23.49-.1-4.51-.1-9.02-.24-13.53-.07-2.4.24-4.96,1.47-7.21.71-1.28,1.59-2.32,3.45-2.34-2.87,2.62-3.32,5.92-3.25,9.36.25,11.77.2,23.55.27,35.32.04,5.85.16,11.71.2,17.56,0,1.44.54,2.74.8,4.12-.43-.03-.86-.06-1.3-.09Z"/><path class="cls-2" d="m112.1,154.57c-.96-1.96-1.08-4.04-1.07-6.18.04-10.14.09-20.29-.02-30.43-.07-6.2-.16-12.4-.22-18.61-.03-2.83.03-5.62,1.19-8.27.1-.23.22-.47.09-.73.11-.16.22-.31.33-.47.52.01.8-.21.74-.76,0,0,.02-.02.02-.02.33.04.66.08,1.17.14-2.95,3.31-2.34,7.3-2.33,11.15.02,4.45.07,8.9.12,13.35.15,12.25.14,24.51.18,36.76,0,1.42.55,2.73.77,4.11-.33-.02-.65-.03-.98-.05Z"/><path class="cls-2" d="m178.92,40.98s.02.11,0,.12c-2.78,1.89-2.81,4.98-3.28,7.82-.53,3.16-.92,6.34-1.31,9.52-.4,3.22-.94,6.42-1.35,9.64-.44,3.39-1.06,6.77-1.55,10.17-.26,1.82-.45,3.65-.78,5.45-.21,1.11-.39,2.36-1.88,2.59-.28.04-.64.11-.82-.19-.17-.28.15-.44.3-.63.8-1.08.93-2.4,1.09-3.64.63-5.09,1.58-10.13,2.25-15.2.86-6.47,1.97-12.91,2.73-19.39.16-1.4.68-2.73.88-4.13.1-.7,1.03-1.03,1.65-1.43.43-.27.89-.49,1.34-.73.25.01.49.03.74.04Z"/><path class="cls-2" d="m194.25,41.93c-.39,1.03-1.12,1.87-1.53,2.92-.79,2.04-.82,4.18-1.12,6.28-1.1,7.78-2.02,15.59-3.19,23.37-.54,3.55-.9,7.12-1.53,10.65-.33,1.82-.96,2.34-2.63,2.3,1.76-2.93,1.52-6.3,2.05-9.48.7-4.21,1.13-8.46,1.71-12.69.56-4.1,1.18-8.2,1.77-12.3.35-2.45.64-4.91,1.07-7.35.31-1.77,1.16-3.21,3.06-3.73.11,0,.23.02.34.03Z"/><path class="cls-3" d="m128.45,39.45c-1.85,2.42-2.05,5.26-2.49,8.01-.92,5.78-1.76,11.58-2.63,17.36-.74,4.9-1.47,9.81-2.25,14.7-.17,1.08-.27,2.23-1.25,3-.37.29-.77.55-1.15.27-.48-.36.1-.64.24-.95.74-1.62.84-3.39,1.13-5.11.59-3.58,1.11-7.17,1.65-10.76.66-4.35,1.32-8.7,1.96-13.05.51-3.42.96-6.85,1.8-10.21.42-1.7,1.39-3.35,2.99-3.27Z"/><path class="cls-3" d="m147.06,40.16c-.42,1.69-1.42,2.97-1.63,4.56-.71,5.21-1.47,10.41-2.23,15.61-.7,4.74-1.43,9.47-2.14,14.2-.32,2.16-.64,4.31-.95,6.47-.15,1.02-.34,2.03-1.06,2.83-.38.42-.94.61-1.38.28-.46-.35.13-.65.28-.94.76-1.49.75-3.15,1.03-4.74.5-2.9.71-5.87,1.21-8.75.76-4.32,1.29-8.68,2-13.01.56-3.41.94-6.85,1.44-10.27.26-1.82.66-3.61,1.6-5.22.37-.63,1.05-.74,1.83-1.02Z"/><path class="cls-3" d="m142.98,40.27c-1.98,3.48-1.98,7.3-2.54,10.99-1.21,7.89-2.31,15.8-3.46,23.7-.32,2.15-.66,4.31-1.03,6.45-.18,1.03-.53,1.98-1.6,2.44-.2.09-.43.12-.6-.06-.13-.15-.02-.31.06-.46.98-1.79,1.04-3.82,1.37-5.76.73-4.38,1.33-8.79,1.97-13.18.73-5.03,1.39-10.07,2.19-15.08.44-2.76.56-5.62,2.04-8.14.33-.55.64-1,1.59-.89Z"/><path class="cls-3" d="m135.45,39.91c-2.19,4.83-2.21,10.11-3.07,15.21-.77,4.55-1.43,9.12-2.13,13.68-.58,3.76-1.15,7.51-1.71,11.27-.15.98-.34,1.95-.93,2.77-.32.44-.87.77-1.34.5-.61-.36,0-.83.18-1.16.79-1.35.76-2.88.99-4.35,1.1-6.83,2.12-13.67,3.2-20.5.71-4.51,1.13-9.07,2.18-13.52.28-1.19.52-2.42,1.42-3.36.33-.35.68-.67,1.22-.52l-.02-.03Z"/><path class="cls-3" d="m154.57,40.51c-.82,1.82-1.58,3.48-1.99,5.33-.47,2.14-.5,4.29-.84,6.43-.68,4.31-1.09,8.66-1.92,12.94-.7,3.63-.87,7.32-1.52,10.93-.41,2.27-.73,4.56-1.24,6.82-.09.41-.27.82-.49,1.18-.29.49-.87.76-1.32.52-.65-.34.05-.69.2-1.01.73-1.54.78-3.24,1.03-4.87.69-4.39,1.26-8.8,1.89-13.19.83-5.83,1.67-11.67,2.52-17.5.23-1.6.52-3.2.8-4.79.25-1.45,1.48-2.75,2.87-2.79Z"/><path class="cls-3" d="m122.31,83.09c1.77-3.5,1.66-7.25,2.31-10.83.82-4.49,1.43-9.03,2.11-13.54.71-4.69,1.36-9.38,2.1-14.06.27-1.73.68-3.44,2.1-4.68.23-.2.49-.43.79-.19.27.22.02.48-.08.69-2.03,4.1-2.11,8.63-2.82,13.01-1.14,6.95-2.15,13.93-3.22,20.89-.31,2.02-.62,4.04-.92,6.07-.23,1.52-.88,2.32-2.35,2.65Z"/><path class="cls-3" d="m109.98,39.23c-.04.08-.06.16-.11.23-1.91,2.78-1.86,6.09-2.39,9.2-1.19,7.01-2.19,14.06-3.27,21.1-.46,3-.93,5.99-1.4,8.99-.14.9-.37,1.76-1.09,2.4-.32.29-.76.37-1.07.15-.46-.34.09-.54.23-.79.99-1.72,1.02-3.68,1.32-5.57.87-5.53,1.67-11.06,2.49-16.6.59-3.97,1.07-7.95,1.78-11.9.39-2.2.43-4.52,1.68-6.52.32-.51.74-.82,1.27-1,.25-.09.52-.08.55.3Z"/><path class="cls-3" d="m139.27,40.25c-.18.38-.33.68-.47.99-1.88,4.03-1.78,8.46-2.51,12.71-.82,4.8-1.48,9.63-2.21,14.45-.56,3.72-1.12,7.44-1.7,11.16-.15.93-.35,1.85-.58,2.76-.17.67-.63,1.13-1.29,1.31-.3.09-.9.04-.53-.47,1.39-1.94,1.21-4.24,1.57-6.4,1.11-6.7,2.16-13.41,3.08-20.14.56-4.1,1.19-8.19,1.85-12.28.2-1.25.79-2.33,1.24-3.47.18-.46.6-.73,1.06-.88.26-.08.53-.06.5.25Z"/><path class="cls-3" d="m124.64,39.48c-2.04,2.22-2.12,4.96-2.53,7.63-1.49,9.76-3.07,19.51-4.61,29.26-.19,1.18-.35,2.37-.53,3.55-.12.77-.34,1.52-.9,2.09-.33.33-.85.65-1.26.28-.41-.37.17-.67.36-.93.85-1.18.8-2.59,1.03-3.91.49-2.77.82-5.57,1.34-8.35.52-2.77.8-5.58,1.22-8.36.85-5.65,1.71-11.29,2.62-16.93.16-1,.49-2,.91-2.92.4-.86.97-1.73,2.34-1.4Z"/><path class="cls-3" d="m95.95,38.48c-2.01,2.9-1.83,6.32-2.39,9.51-1.33,7.74-2.51,15.51-3.76,23.26-.32,1.98-.63,3.96-.96,5.95-.17,1.06-.38,2.12-1.3,2.85-.28.22-.65.42-.94.22-.55-.37.13-.53.24-.77.99-2.18,1.1-4.56,1.51-6.86.63-3.52,1.12-7.08,1.67-10.61.84-5.44,1.67-10.88,2.54-16.31.26-1.63.57-3.27,1.03-4.86.33-1.13,1.02-2.11,2.34-2.38Z"/><path class="cls-3" d="m93.17,80.83c1.81-1.77,1.7-3.92,2.03-5.91.77-4.54,1.54-9.09,2.15-13.66.73-5.45,1.57-10.89,2.41-16.32.2-1.26.45-2.52.78-3.75.23-.87.65-1.67,1.96-2.11-1.18,2.18-1.12,4.36-1.46,6.46-.77,4.67-1.43,9.36-2.15,14.04-.54,3.5-1.05,7-1.67,10.49-.54,3.02-.87,6.08-1.57,9.08-.29,1.25-.97,1.67-2.46,1.67Z"/><path class="cls-3" d="m104.04,81.45c1.49-2.3,1.43-4.85,1.84-7.27.57-3.32,1.04-6.65,1.55-9.98.79-5.19,1.55-10.38,2.36-15.56.39-2.48.83-4.96,1.33-7.42.26-1.27,1.35-2.15,2.52-2.1-2.01,2.18-1.95,4.95-2.38,7.56-.69,4.21-1.25,8.44-1.88,12.66-.66,4.43-1.33,8.86-2,13.28-.34,2.28-.67,4.56-1.06,6.82-.27,1.54-1.04,2.21-2.28,2.01Z"/><path class="cls-3" d="m120.65,39.33c-2.31,4.09-2.13,8.51-2.9,12.71-.86,4.66-1.49,9.36-2.21,14.04-.67,4.39-1.3,8.78-2,13.17-.14.91-.31,1.87-1.06,2.56-.3.27-.67.5-1.03.21-.33-.28.08-.51.19-.76.97-2.28,1.04-4.75,1.43-7.14.69-4.25,1.28-8.52,1.93-12.78.79-5.14,1.64-10.28,2.38-15.43.24-1.66.66-3.26,1.15-4.83.26-.83.82-1.57,2.11-1.74Z"/><path class="cls-3" d="m75.81,79.59c1.68-2.46,1.66-5.4,2.17-8.19,1.11-6.1,2.07-12.22,3.07-18.33.58-3.54,1.05-7.11,1.74-10.62.31-1.57.56-3.32,2.17-4.29.24-.15.53-.39.8-.08.15.18.03.41-.12.57-1.71,1.83-1.7,4.22-2.09,6.47-.79,4.59-1.47,9.2-2.22,13.79-.97,5.94-1.95,11.89-2.98,17.82-.21,1.21-.27,2.63-1.9,3-.22.05-.42.08-.64-.15Z"/><path class="cls-3" d="m141.97,84.46c-.49-.03-.71-.15-.5-.56,1.61-3.22,1.49-6.81,2.07-10.24.98-5.77,1.76-11.58,2.61-17.37.56-3.85,1.07-7.7,1.62-11.55.19-1.34.8-2.52,1.54-3.63.15-.22.32-.46.61-.35.4.14.33.53.2.76-1.15,2.18-1.26,4.58-1.58,6.95-.88,6.39-1.81,12.78-2.76,19.17-.75,5.02-1.35,10.07-2.35,15.05-.18.89-.66,1.54-1.46,1.78Z"/><path class="cls-3" d="m99.24,39c-.07.14-.1.28-.17.37-1.19,1.58-1.33,3.48-1.61,5.33-.83,5.41-1.58,10.82-2.43,16.23-.91,5.74-1.88,11.46-2.86,17.19-.15.89-.58,1.71-1.28,2.32-.23.2-.56.27-.83.04-.16-.13-.05-.31.05-.45,1.29-1.85,1.24-4.06,1.59-6.14.8-4.67,1.47-9.36,2.21-14.04.88-5.61,1.76-11.22,2.69-16.83.25-1.5.52-3.06,1.89-4.08.16-.12.37-.18.57-.22.04,0,.12.18.18.28Z"/><path class="cls-3" d="m92.45,38.3c-2.41,3.2-1.98,7.1-2.71,10.69-.72,3.51-1.09,7.09-1.66,10.63-.83,5.14-1.7,10.28-2.56,15.42-.17,1.01-.28,2.04-.57,3.02-.31,1.06-.75,2.14-2.33,1.97,1.73-2.42,1.69-5.26,2.14-7.93,1.21-7.12,2.26-14.26,3.43-21.39.52-3.2,1.14-6.38,1.74-9.56.24-1.29,1.13-2.33,2.52-2.85Z"/><path class="cls-3" d="m89.5,37.99c-2.39,2.39-2.36,5.47-2.88,8.32-.98,5.37-1.74,10.78-2.61,16.18-.77,4.77-1.54,9.54-2.34,14.3-.16.96-.36,1.92-1.06,2.69-.3.33-.7.5-1.02.26-.48-.34-.04-.66.19-.94.57-.69.74-1.55.88-2.38,1.19-7.07,2.43-14.13,3.5-21.22.69-4.6,1.4-9.2,2.24-13.78.37-2,1.41-3.24,3.11-3.44Z"/><path class="cls-3" d="m79.01,37.93c-2.53,4.17-2.42,8.96-3.27,13.51-.66,3.48-1.26,6.97-1.86,10.46-.84,4.88-1.66,9.76-2.49,14.64-.32,1.89-1.09,2.67-2.75,2.63,2.29-2.08,1.95-4.96,2.44-7.54,1.09-5.79,1.96-11.61,2.95-17.42.77-4.49,1.53-8.99,2.4-13.46.18-.93.78-1.8,1.48-2.51.32-.32.67-.53,1.11-.31Z"/><path class="cls-3" d="m73.08,79.45c-.51-.08-.46-.33-.3-.65,1.66-3.33,1.55-7.05,2.27-10.59.62-3.05,1.12-6.13,1.64-9.2.76-4.59,1.47-9.19,2.25-13.77.27-1.6.66-3.18,1.01-4.76.06-.29.11-.64.3-.84.51-.56.84-1.84,1.68-1.41.66.34-.36,1.09-.62,1.61-1.02,2.06-.94,4.33-1.36,6.49-.93,4.73-1.63,9.51-2.42,14.27-.84,5.06-1.64,10.12-2.52,15.17-.21,1.19-.32,2.49-1.43,3.33-.17.13-.34.25-.48.35Z"/><path class="cls-3" d="m75.85,37.62c-.49,1.27-1.54,1.95-1.69,3.17-.23,1.82-.64,3.62-.94,5.43-1.24,7.46-2.46,14.92-3.71,22.38-.45,2.67-.92,5.34-1.47,7.99-.21,1.03-.56,2.08-2.16,2.45,1.05-1.68,1.32-3.36,1.69-5.02.63-2.84.82-5.74,1.37-8.58.62-3.22,1.06-6.47,1.72-9.69.6-2.87.93-5.8,1.37-8.71.38-2.49.73-4.99,1.54-7.38.33-.96.98-1.66,2.27-2.03Z"/><path class="cls-3" d="m106.78,38.64c-2.53,3.01-2.29,6.57-2.87,9.88-.86,4.92-1.52,9.88-2.29,14.82-.79,5.11-1.62,10.21-2.43,15.31-.15.92-.46,1.74-1.25,2.3-.21.15-.47.24-.71.05-.17-.13-.1-.31,0-.45,1.28-1.9,1.27-4.15,1.61-6.27,1.28-8.05,2.5-16.1,3.65-24.17.42-2.92.69-5.85,1.42-8.71.32-1.26,1.43-2.43,2.86-2.76Z"/><path class="cls-3" d="m116.91,39.41c-.03.09-.03.19-.08.25-1.52,2.02-1.56,4.46-1.93,6.8-1.24,8.01-2.42,16.04-3.65,24.05-.47,3.08-.99,6.15-1.51,9.22-.13.76-.4,1.49-1.05,2-.23.19-.46.44-.78.2-.29-.22-.25-.51-.1-.81,2.1-3.92,1.83-8.33,2.6-12.52.79-4.28,1.33-8.61,1.95-12.92.52-3.59.96-7.19,1.54-10.78.24-1.47.73-2.89,1.12-4.33.18-.67.77-.99,1.28-1.37.2-.15.5-.14.6.2Z"/><path class="cls-2" d="m156.06,42.5c.44.04.66-.55,1.07-.45-1.19,4.85-1.67,9.79-2.43,14.69-.61,3.96-1.21,7.93-1.81,11.89-.69,4.59-1.4,9.18-2.06,13.78-.1.66-.36,1.21-.66,1.78-.34.64-.8.76-1.42.46.22-.33.44-.66.66-.99.74-.6.73-1.38.54-2.2l.1-.4c.36-.21.41-.47.1-.77.04-.32.07-.64.11-.96.47-.31.43-.68.15-1.09.04-.24.07-.47.11-.71.58-.81.62-1.7.4-2.64.02-.16.04-.31.06-.47.49-.29.5-.65.18-1.07.03-.24.06-.48.09-.72.49-.33.45-.74.19-1.19.04-.22.08-.44.11-.66.43-.29.47-.64.13-1.03.03-.24.05-.49.08-.73.5-.29.5-.66.16-1.07.05-.34.11-.68.16-1.03.4-.24.42-.54.14-.89.04-.3.09-.61.13-.91.37-.22.38-.48.1-.78.03-.24.06-.49.08-.73.55-.37.54-.82.21-1.33.03-.24.06-.47.09-.71.41-.25.46-.57.16-.95.04-.22.08-.44.12-.66.38-.21.4-.47.1-.77.05-.41.09-.82.14-1.22.35-.22.53-.48.15-.83.03-.24.06-.48.1-.71.53-.94.75-1.93.43-3,.02-.14.04-.28.05-.42.57-.35.47-.8.2-1.27.04-.32.08-.64.12-.96.42-.75.74-1.51.37-2.38.02-.25.04-.49.06-.74.61-.34.54-.81.23-1.31.02-.15.05-.31.07-.46.58-.89.7-1.92.89-2.93.02-.15.04-.3.06-.46Z"/><path class="cls-3" d="m221.85,168.17c.38-.89,1.33-1,2.01-1.48,2.39-1.66,4.8-3.29,7.21-4.93,1.72-1.17,2.68-2.75,2.68-4.88,0-2.73.03-2.73,2.82-2.72,1.37,0,2.75-.07,4.11.04,1.68.14,3.06-.34,4.31-1.45,2.11-1.87,4.65-3.1,6.95-4.69,1.01-.7,1.98-1.44,2.97-2.16.48-.35.93-.78,1.47-1.01,1.76-.73,2.89-2.05,3.76-3.67.12-.22.18-.49.47-.56.12,2.13-1.43,3.28-2.87,4.22-3.74,2.44-7.58,4.75-11.07,7.51-2.31,1.82-4.65,2.27-7.36,2.1-1.37-.09-2.74.03-4.11-.02-.86-.03-1.1.31-1.1,1.12.01,1.49.09,2.97-.53,4.42-.3.71-.7,1.27-1.26,1.71-2.97,2.3-6.29,4.08-9.37,6.22-.32.22-.69.35-1.09.22Z"/><path class="cls-3" d="m261.17,95.99c-.3-.38-.16-.82-.16-1.24,0-11.8,0-23.6,0-35.4,0-1.11.02-2.21.55-3.22.23.2.21.47.16.71-.69,3.43-.31,6.9-.34,10.35-.06,9.15-.03,18.29-.05,27.44,0,.45.16.94-.17,1.36Z"/><path class="cls-3" d="m260.65,140.22c-.35-.41-.16-.9-.16-1.35,0-7.38.03-14.77,0-22.15,0-1.34-.14-2.68.17-4,.08-.33.05-.69.44-.86.31,1.03-.27,1.98-.26,3.01.05,8,.02,16,0,24,0,.45.17.94-.18,1.35Z"/><path class="cls-3" d="m109.84,134.11c-.55-.76-1.07-1.33-1.34-2.16.96.45,1.23.86,1.34,2.16Z"/><path class="cls-3" d="m155.99,42.96c-.19,1.01-.31,2.04-.89,2.93-.07-1.09-.12-2.17.89-2.93Z"/><path class="cls-3" d="m154,53.44c.32,1.07.1,2.05-.43,3-.22-1.05-.03-2.04.43-3Z"/><path class="cls-3" d="m150.91,74.9c.22.93.17,1.83-.4,2.64-.2-.93-.07-1.81.4-2.64Z"/><path class="cls-3" d="m154.74,48.41c.37.87.05,1.63-.37,2.38-.21-.85-.11-1.64.37-2.38Z"/><path class="cls-3" d="m149.94,81.48c.2.82.21,1.6-.54,2.2.04-.77.06-1.54.54-2.2Z"/><path class="cls-3" d="m261.57,45.84c-.49-.5-.62-1.16-.82-1.79.93.29.94,1.01.82,1.79Z"/><path class="cls-3" d="m152.72,62.3c.33.51.34.96-.21,1.33-.14-.48-.22-.94.21-1.33Z"/><path class="cls-3" d="m155.03,46.36c.31.51.38.97-.23,1.31-.13-.47-.22-.94.23-1.31Z"/><path class="cls-3" d="m154.25,51.76c.27.48.37.92-.2,1.27-.2-.46-.21-.9.2-1.27Z"/><path class="cls-3" d="m150.4,78.25c.29.41.32.79-.15,1.09-.22-.4-.25-.78.15-1.09Z"/><path class="cls-3" d="m151.15,73.36c.32.42.31.79-.18,1.07-.15-.39-.21-.77.18-1.07Z"/><path class="cls-3" d="m151.42,71.45c.27.45.3.86-.19,1.19-.19-.44-.18-.84.19-1.19Z"/><path class="cls-3" d="m151.67,69.76c.34.39.3.73-.13,1.03-.27-.38-.23-.73.13-1.03Z"/><path class="cls-3" d="m151.9,67.96c.33.42.34.78-.16,1.07-.15-.39-.22-.76.16-1.07Z"/><path class="cls-3" d="m113.13,89.12c.06.55-.22.77-.74.76-.08-.57.16-.83.74-.76Z"/><path class="cls-3" d="m150.14,80.3c.31.3.26.56-.1.77-.31-.3-.2-.55.1-.77Z"/><path class="cls-3" d="m152.21,66.04c.28.35.25.65-.14.89-.25-.34-.21-.64.14-.89Z"/><path class="cls-3" d="m152.43,64.36c.28.3.27.56-.1.78-.29-.3-.21-.55.1-.78Z"/><path class="cls-3" d="m152.97,60.64c.3.37.25.69-.16.95-.2-.36-.19-.68.16-.95Z"/><path class="cls-3" d="m153.19,59.21c.3.3.28.56-.1.77-.27-.3-.21-.55.1-.77Z"/><path class="cls-3" d="m153.48,57.16c.38.35.21.61-.15.83-.2-.32-.23-.61.15-.83Z"/><path class="cls-3" d="m105.89,88.54c-.11-.39.09-.53.44-.51.12,0,.24.1.16.24-.14.24-.36.3-.62.24,0,0,.02.02.02.02Z"/><path class="cls-3" d="m51.04,84.09c-.05-.06-.09-.12-.13-.18.09-.05.18-.09.27-.14.02.07.09.16.06.21-.03.06-.13.07-.2.11Z"/><path class="cls-3" d="m135.47,39.93c.08-.07.17-.14.25-.21.03.05.05.11.08.16-.11,0-.23.02-.34.02,0,0,.02.03.02.03Z"/><polygon class="cls-3" points="65.92 85.33 65.85 85.35 65.86 85.29 65.92 85.33"/><path class="cls-2" d="m249.71,44.12c-1.62,2.67-1.75,5.54-2.06,8.37-.46,4.24-1.09,8.47-1.49,12.72-.3,3.19-.71,6.36-1.06,9.55-.38,3.44-.78,6.87-1.16,10.31-.18,1.65-.26,3.32-.67,4.95-.2.81-.63,1.16-1.44,1.37-6.32,1.7-12.85,2.3-19.23,3.64-1.81.38-3.64.8-5.52.94-1.06.08-1.97.8-2.48,1.78-1.28,2.45-1.66,5.08-1.64,7.83.06,7.84.05,15.68.05,23.52,0,6.11-.02,12.22-.07,18.32-.03,3.96-.23,7.92-.16,11.87.05,2.33-.45,4.69.19,7.01.08.3.18.83-.31.8-.47-.02-1.18.17-1.34-.64-.13-.67-.33-1.31-.33-2.01.01-9.77,0-19.54,0-29.31,0-4.65.19-9.31,0-13.95-.15-3.39.24-6.75.08-10.12-.08-1.63.15-3.3-.64-4.84-.07-.14,0-.42.1-.59.74-1.35.71-2.85.89-4.32.26-2.07.69-4.21,2.81-5.21,1.13-.53,2.48-.61,3.74-.84,4.04-.73,8.08-1.42,12.11-2.14,2.73-.49,5.46-1.01,8.2-1.49,2.39-.42,2.78-.66,3.14-3.13.52-3.59.88-7.2,1.32-10.8.54-4.45,1.09-8.9,1.61-13.35.48-4.11.93-8.22,1.41-12.33.24-2.03.38-4.08,1.02-6.04.47-1.43,1.18-1.91,2.93-1.88Z"/><path class="cls-2" d="m236.76,43.6c-1.69,2.13-1.87,4.51-2.17,6.82-.77,5.97-1.48,11.96-2.18,17.94-.61,5.26-1.17,10.53-1.78,15.8-.18,1.53-.38,3.06-.72,4.55-.24,1.05-.77,1.79-2.12,1.99-3.4.5-6.77,1.24-10.16,1.75-3.29.49-6.56,1.08-9.87,1.47-1.95.23-3.9.48-5.83.86-.87.17-1.65.68-2.11,1.54-1.2,2.23-1.77,4.61-1.78,7.13-.03,8.14-.03,16.27-.04,24.41-.02,10.15-.03,20.3-.05,30.46,0,2.08-.47,4.19.28,6.24.09.24.04.57-.32.56-.59-.01-1.25.04-1.57-.61-.28-.57-.46-1.18-.46-1.85.03-9.68-.04-19.36.08-29.04.09-7.34.2-14.68.13-22.03-.03-3.59,0-7.17.27-10.75.13-1.71.81-3.22,1.6-4.7.68-1.28,2.01-1.39,3.16-1.57,6.37-1.02,12.76-1.92,19.11-3.05,1.68-.3,3.36-.63,5.04-.89,2.32-.36,2.96-.99,3.11-3.34.17-2.73.79-5.41.97-8.13.04-.57.3-1.2-.2-1.7-.2-.2-.16-.38-.05-.56,1.29-2.11.99-4.55,1.32-6.84.89-6.08,1.65-12.19,2.42-18.29.26-2.03.14-4.11.93-6.05.49-1.23,1.24-2.11,2.98-2.1Z"/><path class="cls-2" d="m234.88,94c-4.05.74-8.09,1.57-12.16,2.16-1.98.29-3.02,1.35-3.64,3.07-.75,2.07-1.08,4.19-1.08,6.41-.02,8.73-.08,17.46-.22,26.19-.06,3.42.06,6.85-.06,10.25-.2,5.74-.08,11.47-.18,17.2-.04,2.52-.53,5.11.25,7.63.09.28.2.71-.22.71-.56,0-1.28.16-1.58-.54-.25-.59-.33-1.23-.33-1.88.02-4.2-.07-8.4.03-12.6.38-15.19.16-30.39.31-45.59.03-2.73.32-5.45,1.25-8.07.57-1.62,1.61-2.55,3.24-2.85,2.94-.55,5.89-1.06,8.83-1.58,1.22-.22,2.44-.43,3.66-.64.63-.11,1.25-.26,1.9.12Z"/><path class="cls-2" d="m172.84,92.62c-2.82,2.85-3.23,6.25-3.22,9.83.06,13.62.08,27.24.11,40.86.01,5.1,0,10.19,0,15.29,0,.69.06,1.35.37,2,.41.85-.09,1.07-.85,1-.99-.1-1.64-1.16-1.59-2.56.14-3.65,0-7.3,0-10.95,0-2.04.1-4.09.06-6.13-.06-3.62.08-7.24-.04-10.86-.08-2.47.1-4.96.05-7.44-.07-3.65.11-7.3-.1-10.96-.13-2.36.14-4.76.03-7.14-.13-2.56.27-5.09.43-7.64.11-1.78,1.03-3.13,2.02-4.43.58-.76,1.56-.92,2.72-.87Z"/><path class="cls-2" d="m172.46,130.01c0-9.42-.03-18.85.02-28.27.01-2.34.22-4.68,1.52-6.75.25-.4.47-.82.79-1.16.45-.47,1.15-.99,1.68-.57.53.42-.2.94-.45,1.38-1.16,2-1.87,4.15-1.86,6.46.03,7.54.13,15.07.17,22.61.03,4.88.01,9.77.02,14.65,0,3.99.01,7.98-.19,11.98-.15,2.97-.05,5.96-.03,8.94,0,.59.2,1.18.28,1.77.05.35.76.77.08,1.04-.61.25-1.34.14-1.58-.65-.26-.81-.41-1.65-.41-2.52,0-9.64,0-19.28,0-28.91-.01,0-.03,0-.04,0Z"/><path class="cls-2" d="m145.67,90.6c-2.6,2.49-3.19,5.54-3.2,8.77-.02,4.57,0,9.14.04,13.71.04,4.84,0,9.69.09,14.52.17,8.99.03,17.98.19,26.96.01.76.19,1.52.3,2.28.05.39.44.89-.12,1.13-.56.24-1.11.05-1.44-.51-.55-.96-.61-2.05-.62-3.11-.04-5.87-.05-11.73-.05-17.6,0-7.68,0-15.35,0-23.03,0-5.21-.03-10.42-.01-15.63,0-2.34.35-4.59,2.04-6.44.73-.8,1.54-1.16,2.78-1.07Z"/><path class="cls-2" d="m165.55,140.22c-.91,1.6-.76,3.38-.63,5.09.1,1.29-.09,2.56-.03,3.82.13,2.99-.11,5.97-.05,8.95.01.63.2,1.26.3,1.89.05.3.08.62-.25.79-.33.17-.64.12-.95-.13-.8-.67-.98-1.56-.97-2.53.07-4.49.18-8.98.2-13.47.03-9.41-.05-18.83.03-28.24.05-5.59-.36-11.19.02-16.78.14-2.04.6-3.98,1.62-5.73.66-1.13,1.67-1.94,3.4-1.66-.71.85-1.52,1.44-1.95,2.37-1.1,2.37-1.54,4.81-1.48,7.43.12,5.32-.04,10.65.02,15.98.04,3.86,0,7.72.1,11.58.08,3.23.29,6.48.1,9.72-.02.39-.14.92.54.94h-.01Z"/><path class="cls-2" d="m127.54,89.56c-2.27,2.96-2.95,6.17-2.84,9.69.15,4.97-.05,9.94.07,14.91.33,12.76.14,25.51.23,38.27,0,.78.19,1.52.36,2.28.08.37.44.91-.15,1.1-.44.14-.92-.08-1.2-.54-.5-.83-.67-1.73-.7-2.69-.28-9.32-.18-18.65-.21-27.97-.03-9.34.08-18.68-.01-28.01-.02-2.43,1.01-4.28,2.27-6.12.44-.64,1.1-1.07,2.18-.9Z"/><path class="cls-2" d="m137.07,89.88c-2.5,1.9-3.4,4.47-3.41,7.2-.05,14.86.02,29.72.08,44.57.02,4.27.11,8.54.18,12.81,0,.51-.02,1.03.24,1.5.17.3.6.69.04.95-.44.2-.96.11-1.26-.35-.46-.69-.61-1.47-.66-2.31-.29-4.88-.1-9.76-.19-14.65-.11-5.95.08-11.9-.11-17.85-.06-1.95.05-3.93.04-5.9-.03-5.74-.13-11.48-.12-17.22,0-2.14.39-4.25,1.28-6.24.74-1.66,1.94-2.54,3.9-2.53Z"/><path class="cls-2" d="m132.18,89.83c-3.03,3.04-3.14,6.84-3.09,10.69.24,15.54.21,31.09.35,46.63.03,2.87-.37,5.83.59,8.66.09.27.07.54-.26.61-.53.11-1.02.06-1.33-.49-.54-.96-.73-2-.73-3.09-.02-7.7-.03-15.41-.07-23.11-.05-9.91-.12-19.82-.22-29.74-.02-1.89.21-3.76.4-5.63.22-2.16,1.93-4.3,3.61-4.7.21-.05.42-.09.75.16Z"/><path class="cls-2" d="m240.71,44c-1.28,2.33-1.5,4.84-1.78,7.33-.59,5.17-1.27,10.33-1.73,15.51-.33,3.74-.8,7.47-1.16,11.21-.35,3.6-.77,7.21-1.28,10.79-.17,1.2-.75,2.11-2.26,2.14-1.42.03-2.79.67-4.5.65.92-.53,1.7-.58,2.44-.68,1.47-.19,2.03-1.12,2.21-2.42.27-1.9.54-3.8.76-5.71.88-7.68,1.81-15.34,2.68-23.02.46-4.11.78-8.25,1.57-12.3.27-1.41.51-3.14,2.38-3.64.22-.06.42-.08.66.14Z"/><path class="cls-2" d="m198.47,89.89c1.63-.26,3.26-.54,4.89-.77,2.03-.28,2.48-.63,2.99-2.58,1.24-4.75,1.87-9.6,2.43-14.46.37-3.26.87-6.51,1.28-9.77.6-4.66,1.19-9.32,1.75-13.98.15-1.28.39-2.54.9-3.72.44-1.01,1.09-1.85,2.56-1.49-2.05,2.88-1.8,6.24-2.27,9.41-.78,5.37-1.34,10.76-1.98,16.15-.67,5.6-1.31,11.2-1.99,16.8-.09.76-.26,1.52-.51,2.25-.29.85-.83,1.32-1.88,1.39-1.99.14-3.96.51-5.94.8-.74.11-1.48.22-2.25-.03Z"/><path class="cls-2" d="m202.34,42.56c-1.83,2.39-1.88,5.14-2.23,7.79-.86,6.57-1.68,13.14-2.53,19.71-.68,5.24-1.34,10.49-2.07,15.73-.24,1.73-1.03,2.41-2.33,2.33-.39-.02-.74-.04-.44-.57,1.24-2.21,1.17-4.7,1.54-7.09.72-4.68,1.35-9.38,1.98-14.07.68-5.03,1.23-10.09,1.99-15.11.34-2.23.46-4.51,1.24-6.66.57-1.55,1.18-2.04,2.84-2.06Z"/><path class="cls-2" d="m217.67,89.99c1.92-.94,1.85-2.78,2.09-4.42.38-2.57.52-5.18.97-7.74.52-2.95.72-5.93,1.14-8.88.53-3.72.93-7.45,1.42-11.17.48-3.63.97-7.27,1.51-10.89.11-.75.33-1.49.69-2.19.49-.95,1.22-1.37,2.4-1.29-2.26,3.69-1.94,7.85-2.56,11.8-.6,3.83-1.02,7.7-1.48,11.55-.42,3.47-.79,6.96-1.21,10.43-.41,3.43-.78,6.86-1.29,10.28-.31,2.07-1.29,2.67-3.67,2.52Z"/><path class="cls-2" d="m223.01,90.15c1.43-2.14,1.31-4.64,1.63-7.01.84-6.26,1.55-12.54,2.21-18.83.62-5.85,1.44-11.68,2.28-17.5.19-1.3.49-2.76,2.12-3.22.28-.08.64-.23.85.03.24.32-.15.51-.3.74-.9,1.41-1.16,3.02-1.35,4.63-1,8.22-1.95,16.45-2.94,24.68-.56,4.66-1.15,9.32-1.78,13.97-.3,2.19-.82,2.6-2.72,2.5Z"/><path class="cls-2" d="m245.38,91.73c1.07-3.65,1.1-7.47,1.78-11.18.89-4.88,1.23-9.82,1.83-14.73.46-3.76.71-7.56,1.2-11.32.36-2.78.26-5.64,1.22-8.33.29-.82.74-1.56,1.63-1.86.24-.08.53-.13.73.08.17.19.01.4-.09.58-1.41,2.53-1.31,5.38-1.66,8.13-.67,5.33-1.32,10.67-1.95,16.01-.48,4.03-.9,8.07-1.36,12.1-.33,2.89-.66,5.77-1.06,8.65-.23,1.63-.6,1.87-2.27,1.86Z"/><path class="cls-2" d="m196.44,88.45c1.88-1.03,1.76-2.83,1.99-4.43.7-4.9,1.36-9.81,1.98-14.72.59-4.66,1.08-9.33,1.65-13.99.41-3.3.84-6.6,1.33-9.89.27-1.78,1.27-2.63,3.21-2.87-2.51,3.41-2.13,7.44-2.64,11.24-.52,3.89-.96,7.79-1.5,11.67-.59,4.23-1.04,8.47-1.58,12.71-.35,2.75-.69,5.5-1.11,8.24-.27,1.73-.99,2.15-3.34,2.03Z"/><path class="cls-2" d="m188.22,87.58c2.07-2.13,1.59-4.94,1.99-7.48.93-5.9,1.64-11.83,2.44-17.75.11-.79.46-1.59-.2-2.31-.07-.08-.11-.31-.07-.34,1.61-1.21.87-3.05,1.17-4.58.65-3.3.99-6.66,1.57-9.98.31-1.8,1.3-2.64,2.93-2.63-.92,1.57-1.54,3.15-1.77,4.9-.67,5.25-1.43,10.49-2.16,15.74-1.04,7.53-2.07,15.05-3.13,22.58-.24,1.73-1.1,2.3-2.77,1.85Z"/><path class="cls-2" d="m182.23,41.78c-2.04,2.17-2.1,4.84-2.49,7.39-.61,3.97-1.11,7.95-1.67,11.93-.72,5.08-1.44,10.16-2.18,15.23-.42,2.87-.85,5.74-1.36,8.59-.23,1.26-1.14,1.8-2.51,1.74,1.89-3.14,1.67-6.68,2.27-10.03.58-3.19.94-6.43,1.4-9.64.74-5.2,1.46-10.39,2.21-15.59.35-2.41.61-4.85,1.16-7.21.41-1.76,1.04-2.31,3.17-2.4Z"/><path class="cls-2" d="m189.88,42.08c-2.54,3.7-2.23,7.91-2.87,11.88-.93,5.81-1.58,11.67-2.51,17.48-.67,4.22-1.17,8.46-1.75,12.69-.12.88-.14,1.78-.81,2.5-.44.47-1.01.62-1.51.35-.54-.29-.07-.81.08-1.12,1.39-2.89,1.19-6.07,1.7-9.11,1.48-8.84,2.36-17.76,3.85-26.6.26-1.56.39-3.14.64-4.7.33-2.02,1.37-3.17,3.18-3.37Z"/><path class="cls-2" d="m210.24,89.28c.89-1.43,1.29-2.95,1.48-4.49,1.12-8.94,2.13-17.89,3.26-26.83.48-3.81.71-7.65,1.44-11.42.14-.71.34-1.42.62-2.08.4-.95,1.16-1.39,2.38-1.3-1.93,2.6-1.8,5.59-2.17,8.44-.6,4.61-1.09,9.23-1.64,13.84-.71,5.93-1.44,11.86-2.17,17.78-.17,1.4-.34,2.8-.58,4.19-.27,1.52-.88,1.94-2.62,1.88Z"/><path class="cls-2" d="m175.69,86.97c1.4-1.33,1.54-3.06,1.78-4.65.91-5.91,1.64-11.84,2.49-17.76.91-6.38,1.86-12.76,2.81-19.13.14-.94.56-1.79,1.13-2.56.46-.63,1.06-.95,1.92-.85-2.6,4.61-2.36,9.77-3.18,14.68-1.19,7.12-2.11,14.28-3.11,21.43-.33,2.32-.46,4.66-1.13,6.92-.49,1.68-.64,1.76-2.71,1.93Z"/><path class="cls-2" d="m223.6,43.4c-1.29,2.07-1.56,4.42-1.86,6.74-1.05,8.13-2.07,16.27-3.09,24.41-.48,3.85-.94,7.71-1.44,11.56-.1.8-.34,1.59-.55,2.37-.16.59-.6.93-1.19,1.04-.35.07-.63-.02-.46-.47,1.56-4.1,1.28-8.49,1.97-12.73.59-3.6.88-7.26,1.27-10.89.04-.37-.06-.76-.14-1.13-.12-.52-.07-.87.29-1.37.72-.99.4-2.29.62-3.45.78-4.15.78-8.4,1.58-12.55.18-.94.5-1.83.96-2.64.41-.73,1.05-1.24,2.05-.87Z"/><path class="cls-2" d="m174.03,41.05c.23.21.15.4.04.51-1.85,1.84-1.98,4.3-2.34,6.64-.89,5.74-1.73,11.5-2.54,17.25-.7,4.95-1.53,9.88-2.13,14.85-.19,1.54-.36,3.15-1.05,4.61-.22.47-.46.94-1.05,1.03-.29.05-.64.17-.85-.1-.24-.32.1-.48.27-.71.67-.93.71-2.09.87-3.16.81-5.23,1.53-10.48,2.31-15.71.94-6.37,1.92-12.73,2.86-19.09.14-.97.17-1.94.43-2.91.46-1.76,1.69-2.58,3.17-3.21Z"/><path class="cls-2" d="m160.71,85.71c-.43.01-.72-.15-.49-.6,1.54-2.93,1.39-6.22,1.93-9.35.93-5.38,1.79-10.78,2.48-16.2.6-4.74,1.54-9.43,2.16-14.17.24-1.83,1.08-3.19,2.55-4.23.31-.22.64-.3.95-.09.25.17.05.39-.1.52-1.82,1.58-1.95,3.85-2.28,5.97-1.36,8.74-2.63,17.5-3.95,26.25-.46,3.09-.96,6.17-1.42,9.25-.11.73-.3,1.42-.74,2.03-.27.38-.63.56-1.08.62Z"/><path class="cls-2" d="m152.05,85.01c.94-.93,1.33-1.94,1.35-3.01.04-2.83.85-5.54,1.24-8.31,1.28-9,2.62-18,3.97-26.99.29-1.89.62-3.78,1.98-5.32.41-.46.84-.75,1.25-.5.48.29.04.77-.19,1.1-1.46,2.1-1.54,4.6-1.91,6.98-1.17,7.42-2.24,14.86-3.35,22.3-.56,3.76-1.12,7.51-1.65,11.28-.27,1.9-.98,2.65-2.7,2.47Z"/><path class="cls-2" d="m202.34,88.57c-.45.01-.55-.13-.43-.54,1.52-5.35,1.79-10.89,2.49-16.37.57-4.49,1.16-8.97,1.72-13.46.21-1.69.3-3.41.58-5.09.46-2.76,1-5.51,1.58-8.25.21-1,.84-1.78,1.89-2.06.47-.12.94-.09.52.63-1.96,3.35-1.71,7.18-2.36,10.82-.45,2.52-.24,5.15-.93,7.62-1.71,6.17-1.78,12.58-2.9,18.83-.28,1.59-.42,3.22-.59,4.83-.09.9-.55,1.66-.86,2.49-.12.33-.36.59-.72.56Z"/><path class="cls-2" d="m155.81,85.36c1.35-1.15,1.39-2.71,1.62-4.21.88-5.77,1.86-11.54,2.66-17.32.89-6.47,1.86-12.92,2.88-19.37.21-1.34,1.05-2.32,1.89-3.28.32-.37.94-.46,1.28-.14.43.4-.18.63-.39.89-1.43,1.76-1.6,3.93-1.93,6.03-.72,4.49-1.38,8.98-2.05,13.48-1.06,7.13-2.11,14.27-3.15,21.4-.31,2.12-.92,2.73-2.81,2.52Z"/><path class="cls-2" d="m245.05,44.11c-1.47,2.46-1.65,5.17-1.98,7.83-.5,4.07-.97,8.14-1.37,12.22-.5,5.14-1.35,10.24-1.77,15.39-.25,3.06-.72,6.1-1.11,9.15-.1.81-.39,1.58-.99,2.17-.21.21-.55.36-.83.19-.39-.24-.05-.53.08-.76.99-1.72.74-3.66.97-5.51.65-5.12,1.19-10.25,1.73-15.38.48-4.54.88-9.08,1.35-13.61.31-2.92.65-5.85,1.06-8.76.3-2.12,1.08-3.01,2.45-3.08.08,0,.16.05.4.14Z"/><path class="cls-2" d="m219.91,133.9c.44.17.45.55.44.94,0,.22-.11.49-.36.34-.29-.17-.78-.29-.7-.74.04-.24.24-.55.63-.53Z"/><path class="cls-2" d="m185.15,127.01c.06-.71-.32-1.35.41-1.71.19-.1.47,0,.51.23.1.61-.25,1.02-.92,1.48Z"/><path class="cls-2" d="m215.04,132.96c-.66-.56-.62-1.17-.42-2.09.39.78.71,1.31.42,2.09Z"/><path class="cls-2" d="m165.57,140.24l.05-.08s-.04.05-.06.07c0,0,.01.01.01.01Z"/><path class="cls-3" d="m224.96,104.54c-.1.49,0,1.2-.78,1.19-.62,0-1-.47-.94-1.12.06-.66.31-1.35,1.04-1.37.8-.02.62.73.68,1.29Z"/><path class="cls-3" d="m228.54,157.39c-.1.51.06,1.34-.75,1.44-.43.05-.74-.53-.7-1.03.05-.59.2-1.22.94-1.29.55-.05.52.42.52.89Z"/><path class="cls-3" d="m259.99,107.57c-.07.38.13.97-.53.92-.45-.03-.7-.46-.69-.92,0-.49.29-1.05.69-1.07.65-.03.46.64.53,1.06Z"/><path class="cls-3" d="m253.5,141.65c-.04.47.04,1.04-.53,1.05-.6,0-.63-.59-.68-1.04-.05-.44-.01-.93.59-.9.56.03.6.51.62.89Z"/><path class="cls-3" d="m259.52,50.74c-.07.4-.07.95-.63.91-.45-.03-.75-.47-.64-.92.09-.39.04-1.06.71-.99.52.06.52.58.56,1Z"/></g></svg>