<?xml version="1.0" encoding="UTF-8"?><svg id="Layer_2" xmlns="http://www.w3.org/2000/svg" width="154" height="103" viewBox="0 0 154 103"><defs><style>.cls-1{fill:#868b94;}.cls-1,.cls-2,.cls-3,.cls-4{stroke-width:0px;}.cls-2{fill:#cbccce;}.cls-3{fill:#3d3e43;}.cls-4{fill:#fdfdfd;}</style></defs><g id="Layer_2-2"><rect class="cls-2" width="154" height="103"/><path class="cls-4" d="m77.15,85.98c-21.65,0-43.3,0-64.94.01-.57,0-.7-.13-.7-.69.02-22.38.02-44.75,0-67.13,0-.57.13-.69.7-.69,43.3.02,86.59.02,129.89,0,.57,0,.7.13.7.69-.02,22.38-.02,44.75,0,67.13,0,.57-.13.7-.7.69-21.65-.02-43.3-.01-64.94-.01Zm64.43-22.05c.05-.52-.02-1.1.17-1.56.44-1.09.27-2.3.75-3.37-.13-.91-.27-1.83-.37-2.74-.05-.48-.46-.68-.77-.73-1.56-.27-3.14-.62-4.72-.3-.95.19-1.84-.08-2.76-.05-.21,0-.42-.12-.61-.26-1.03-.77-1.67-1.69-1.35-3.06.23-.99-.42-1.84-.49-2.79-.13-2-.21-4-.33-6-.22-3.68-.11-7.38-.55-11.06-.23-1.91-.12-3.86-.32-5.79-.19-1.86,0-3.76-.4-5.62-.14-.66-.35-1.1-1.04-1.16-1.9-.17-3.72-.79-5.64-.82-.3,0-.6-.06-.9-.11-2.6-.41-5.21-.81-7.85-.83-3.76-.02-7.51.04-11.27.08-.19,0-.41.04-.58.13-1.21.63-2.56.87-3.86,1.16-1.83.4-3.67.7-5.45,1.33-1.08.38-2.21.68-3.27,1.09-1.56.61-3.1,1.28-4.63,1.99-2.81,1.31-5.66,2.54-8.32,4.14-1.44.87-3.01,1.44-4.46,2.3-2.1,1.24-4.24,2.45-6.54,3.33-.56.21-.98.17-1.49-.07-2.02-.96-3.77-2.36-5.79-3.35-2.02-.99-4.03-2.02-6.08-2.91-2.13-.92-4.3-1.78-6.56-2.39-2.04-.56-4.05-1.23-6.2-1.11-.12,0-.25,0-.37-.04-2.4-.62-4.83-.87-7.3-.86-5.86.02-11.73-.17-17.57.63-.6.08-1.01.23-1.02.93,0,.4-.23.76-.4,1.13-.22.5-.31,1.02.06,1.5-.29.44-.11.92-.12,1.39-.14.55-.39,1.1-.39,1.65,0,2.19-.46,4.35-.36,6.54.05,1.15.05,2.31.02,3.47-.05,2.1-.54,4.18-.34,6.29.03.33.01.65.17.95,0,.25,0,.49,0,.74-.06.24-.17.48-.17.73-.08,2.63-.09,5.25-.26,7.88-.17,2.61-.06,5.25.69,7.86.39,1.35.25,2.92.51,4.38.17.98.26,1.98.38,2.97.02.16.09.28.23.37.01.29.02.59.04.88-.13.28-.09.58.1.78.49.54.49,1.17.46,1.83-.02.5-.03,1.01.35,1.41.01.08.02.16.04.24-.12.15-.01.29.04.42.31.67.8,1.26.91,2.03.04.27.34.42.58.41.73-.05,1.35.26,2,.48.52.06,1.04.11,1.56.19,2.07.32,4.14.53,6.23.55,3.1.03,6.21-.03,9.31.02,3.53.06,7.05-.21,10.55-.57,2.3-.24,4.55-.79,6.87-.93,2.08-.12,4.16-.37,6.17-.97.97-.29,1.98-.44,2.98-.54,3.26-.33,6.54-.37,9.82-.34,1.79.02,3.56.29,5.33.44,1.66.14,3.24.71,4.94.7,1.79-.02,3.53.45,5.27.88,1.88.47,3.76.89,5.73.91,2.11.02,4.23.03,6.33.46,1.8.37,3.61.7,5.45.76,1.21.04,2.42.08,3.62.25,1.27.18,2.54.36,3.82.44,3.65.23,7.31.08,10.97.1,2.57.01,5.13-.18,7.68-.54.2,0,.41,0,.61,0,.31,0,.62.05.9-.14.32-.06.5-.3.64-.57.44-.02.89-.03,1.33-.05.99.09,1.38-.85,2.09-1.25.59-.33,1.01-.91,1.24-1.64.13-.41.15-.89.48-1.24.74-.8,1.1-1.83,1.5-2.8.55-1.31.53-2.78.96-4.14.19-.61.1-1.39.45-1.87.73-.98.35-2.06.57-3.07.09-.26.07-.52,0-.79.06-.24.06-.47-.01-.7Z"/><path class="cls-1" d="m13.31,26.68c-.37-.49-.29-1-.06-1.5.17-.37.39-.73.4-1.13.01-.7.41-.85,1.02-.93,5.84-.8,11.7-.62,17.57-.63,2.48,0,4.91.24,7.3.86.12.03.25.04.37.04,2.16-.12,4.17.55,6.2,1.11,2.26.62,4.43,1.47,6.56,2.39,2.06.89,4.07,1.92,6.08,2.91,2.01.99,3.77,2.39,5.79,3.35.51.25.93.29,1.49.07,2.3-.88,4.44-2.09,6.54-3.33,1.45-.86,3.02-1.43,4.46-2.3,2.66-1.6,5.51-2.83,8.32-4.14,1.52-.71,3.07-1.38,4.63-1.99,1.05-.41,2.19-.71,3.27-1.09,1.78-.63,3.62-.93,5.45-1.33,1.29-.28,2.64-.52,3.86-1.16.17-.09.38-.13.58-.13,3.76-.03,7.51-.1,11.27-.08,2.64.01,5.25.42,7.85.83.3.05.6.1.9.11,1.92.03,3.74.65,5.64.82.69.06.89.49,1.04,1.16.4,1.86.21,3.76.4,5.62.2,1.93.09,3.88.32,5.79.45,3.68.33,7.38.55,11.06.12,2,.2,4,.33,6,.06.95.72,1.8.49,2.79-.32,1.37.32,2.29,1.35,3.06.19.14.4.27.61.26.92-.03,1.82.24,2.76.05,1.58-.32,3.16.03,4.72.3.31.05.71.25.77.73.1.92.25,1.83.37,2.74-.44.23-1.24-.59-1.41.47,0,0-.19-.04-.28-.02-.89.18-1.86-.3-2.7.32-.08.06-.28-.03-.43-.06-.21-.05-.43-.07-.56.1-.65.89-.87.38-1.06-.31,0-.03-.08-.04-.13-.05-.19.24-.35.23-1.06.33-1.25.18-2.51.24-3.77.21-.14,0-.36.01-.42.1-.33.47-.52.12-.83-.04-.44-.22-.91-.68-1.45.05-.22.29-.77.53-1.34.41-.75-.15-1.64-.38-2.29-.13-.71.28-1.34.21-2.02.2-.33,0-.62.06-.93.22-.57.3-1.34-.06-1.85.51-.02.02-.09-.02-.14-.03-.77-.21-1.35.08-1.68.78-.18.38-.42.73-.41,1.19,0,.22-.21.36-.44.23-.4-.23-.82-.21-1.25-.2-.33,0-.63-.17-.49-.48.16-.37.13-.76.28-1.12.25-.62-.02-1-.67-.9-.22.03-.37-.03-.56-.07-.76-.17-1.53-.3-2.3-.39-.54-.06-1.17.46-1.6-.29-.07-.12-.28-.02-.42.06-.24.13-.45.22-.63-.1-.06-.11-.19-.15-.33-.08-.2.11-.43,1.11-.33,1.35.24.59.59.55.99.1.07.33.19.67-.16.7-.52.05-1.07.17-1.55-.13-.34-.2-.03-.42.04-.64.08-.23.03-.51.13-.73.15-.36.1-.69-.17-.89-.3-.22-.75-.12-1.05-.03-.39.12-.04.52-.05.8,0,.25.03.49.18.72.26.39,0,.46-.34.48-.84.03-1.57-.33-2.45-.63.87-.15.09-.89.58-1.2.28-.18.38-.59.11-.78-.31-.23-.6.07-.79.34-.19.27-.46.57-.27.89.43.73-.04.64-.5.62-.61-.03-3.39-1.06-4.13-1.43-1.11-.55-2.25-1.03-3.4-1.48-.36-.14-.62-.46-.98-.53-1.28-.23-2.23-1.1-3.33-1.68-1.01-.53-1.97-1.16-2.96-1.74-.64-.38-1.35-.67-1.91-1.14-.65-.55-1.41-.9-2.08-1.4-1.37-1.03-2.91-1.82-4.2-2.97-.4-.36-.89-.74-1.3-.94-.65-.32-1.29-.65-1.87-1.09-.93-.69-1.82-1.43-2.85-1.97-1.03-.54-1.98-1.25-2.87-1.97-.98-.79-2.17-1.33-2.94-2.39-.22-.31-.59-.57-.95-.72-1.77-.73-3.02-2.22-4.68-3.11-.72-.39-1.39-.92-2.11-1.29-.68-.35-1.11-1.18-2.03-1.09-.09,0-.19-.16-.29-.22-.91-.55-1.81-1.11-2.79-1.53-1.32-.56-2.6-1.22-3.91-1.82-.77-.35-1.53-.75-2.33-.99-1.14-.34-2.24-.79-3.39-1.12-1.31-.38-2.64-.65-3.95-1.02-1.42-.4-2.89-.63-4.37-.72-1.53-.09-3.01-.52-4.54-.53-.54,0-1.12.02-1.62-.07-1.27-.21-2.54-.07-3.79-.22-.37-.05-.83-.25-1.1-.11-.78.44-1.6.16-2.38.23-1.47.13-2.95.09-4.41.31-.75.11-1.52,0-2.27.27-.29.11-.71-.13-1.16-.04-.92.17-1.88.61-2.85.15-.25-.12-.49-.03-.65.21Z"/><path class="cls-3" d="m141.6,64.63c.07.26.09.52,0,.79-.08.06-.2.11-.22.18-.23.83-.15,1.67-.59,2.53-.37.73-.48,1.76-.68,2.66-.3,1.36-.4,1.47-1.76,1.62-.4.05-.85.02-1.4.35.87.02,1.53.1,2.2-.08.54-.15.74.18.57.62-.21.55-.32,1.14-.7,1.64-.48.63-.58,1.49-1.17,2.07-.05.05-.04.14-.06.21-.26.87-.61,1.65-1.28,2.33-.68.7-1.6,1.1-2.22,1.87-.44.02-.89.03-1.33.05-.43-.06-.61.17-.64.57-.28.19-.59.13-.9.14-.21-.33-.41-.36-.61,0-2.55.36-5.11.55-7.68.54-3.66-.02-7.31.13-10.97-.1-1.28-.08-2.55-.25-3.82-.44-1.2-.17-2.41-.21-3.62-.25-1.84-.07-3.65-.4-5.45-.76-2.09-.43-4.21-.44-6.33-.46-1.97-.02-3.85-.44-5.73-.91-1.74-.43-3.48-.9-5.27-.88-1.7.02-3.28-.55-4.94-.7-1.78-.15-3.54-.43-5.33-.44-3.28-.03-6.55,0-9.82.34-1,.1-2,.25-2.98.54-2.01.6-4.09.85-6.17.97-2.32.13-4.57.69-6.87.93-3.51.36-7.02.63-10.55.57-3.1-.05-6.2.01-9.31-.02-2.09-.02-4.17-.23-6.23-.55-.52-.08-1.04-.12-1.56-.19-.11-.39-.36-.56-.77-.59-.37-.02-.75-.08-1.11-.18-.22-.06-.59-.15-.48-.46.11-.32.4-.17.62-.04.42.26.47-.02.48-.34,0-.42-.28-.51-.61-.48-.73.08-1.1-.34-1.4-.91-.07-.13-.09-.29-.27-.34-.01-.08-.02-.16-.04-.24.02-.12.06-.25.04-.36-.23-1.11-.2-1.16.95-1.13.45.01.31-.17.19-.4-.28-.57-.63-1.04-1.31-1.2-.45-.11-.28-.81-.78-.93-.01-.29-.02-.59-.04-.88.11-.77-.22-1.53.16-2.33.32-.68.51-.65.86-.12.23.35.57.5.79.18.61-.87,1.57-.64,2.31-.66,1.87-.04,3.75.11,5.62-.21.18-.03.28.09.39.19.14.13.28.14.47.13.76-.03,1.5-.42,2.29-.08.26.11.59,0,.87-.14.47-.23.97-.22,1.45-.04.09.03.18.17.25.09.51-.63.9-.03,1.26.17.35.19.45.24.52-.19.05-.28.26-.37.5-.18.2.16.4.14.64.11.81-.08,1.62-.03,2.44-.05,1.17-.04,2.35.13,3.52.25,1.04.11,2.08-.08,3.13.12.69.13,1.42.14,2.13.21.94.1,1.91.05,2.86.12.87.06,1.73.23,2.6.31.33.03.72.14,1.09-.21-.74-.26-1.48-.3-2.14-.43-2.72-.53-5.47-.93-8.25-1.04-3.4-.14-6.79-.59-10.2-.45-2.38.1-4.76-.16-7.16-.02-1.85.11-3.73.13-5.58.27-1.09.08-1.85-.08-2.46-.95-.12-.17-.48-.2-.37-.5.1-.28.4-.11.6-.16.6-.16,1.42.09,1.58-.88.01-.08.13-.15.25-.1.15.06.15.2.13.32-.05.42.19.48.54.53.57.09,1.09-.04,1.63-.17.4-.1.38-.41.38-.72,0-.26-.04-.62-.33-.57-.97.16-1.5-.66-2.25-.98-.46-.2-.43-.1-.58.21-.31.67-.81,1.19-1.43,1.58-.43.27-1.01-.05-1.03-.5-.01-.42.79-1.48,1.21-1.57.15-.03.31-.05.33-.24.02-.17-.08-.29-.24-.34-.28-.09-.54-.23-.86-.03-.62.39-.81.25-.91-.48-.06-.45.17-.77.32-1.13.18-.42.47-.48.75-.17.36.39.48.19.72-.13.43-.59.94-.59,1.44-.09.1.1.23.37.3.26.36-.55,1.09-.18,1.47-.63.34-.41.94-.19,1.31-.48.95-.75.5.54.89.59.04,0,.08.09.12.09.64,0,.87.61,1.33.88.22.12.4.38.64.11.24-.25-.05-.4-.18-.56-.18-.22-.26-.53-.08-.69.28-.24.4.16.58.29.29.2.51.65.94.3.4-.32.74-.3,1.15,0,.13.09.49.4.56-.09.05-.35.12-.68.5-.74.43-.07.45.41.67.63.18.18.25.59.6.19.32-.37.58-.75,1.13-.26.18.16.3-.18.43-.32.31-.32.53-.59,1.06-.16.24.19.76.65,1.3.22.19-.15.48,0,.68.19.37.36.56.23.63-.23.02-.16-.01-.45.24-.35.91.34,1.82.38,2.76.11.05-.02.14.05.2.09.32.23.62.2.98.03.53-.24,1.12.04,1.25.56.11.46.24.41.53.11.62-.67.64-.66,1.22.05.13.15.28.21.47.17.22-.04.18-.19.14-.35-.05-.22.07-.34.27-.36.25-.02.33.15.4.36.16.52.81.78,1.16.37.51-.58.82.37,1.3.08.1-.06.09.47.13.73.04.26-.12.56.13.78.04.03.17.02.2-.01.19-.25.12-.52.05-.79-.01-.05-.04-.09-.05-.14-.03-.15-.07-.31.06-.42.16-.13.34-.1.48.04.3.3.69.24,1,.15.59-.17.92-.07,1.02.58.05.32.25.45.52.16.1-.11.18-.25.37-.17.24.1.44.06.57-.19.17-.33-.35-.29-.32-.56.7-.07,1.22.46,1.86.5.94.06,1.87.07,2.5.94.03.04.08.06.12.09.72.55,1.82-.22,2.44.69.06-.05.11-.12.18-.14.74-.18,1.48.07,1.72.6.07.15.04.36.29.38.26.02.33-.18.43-.36.07-.12.09-.3.31-.28.06.19.12.38.17.57.21.78.22.79.83.25.34-.3.44-.04.53.2.1.28.26.54.5.2.33-.48.56-.49.86,0,.04.07.25.09.35.06.45-.17.83-.09,1.19.22.15.13.33.14.46-.05.12-.17.24-.36.04-.54-.15-.13-.31-.27-.49-.34-.88-.34-1.77-.69-2.66-.99-1.79-.61-3.62-1.1-5.36-1.81-1.53-.62-3.14-.9-4.7-1.36-1.85-.55-3.8-.58-5.66-1.24-1.38-.5-2.96-.6-4.45-.64-2.99-.08-5.96-.53-8.96-.49-2.59.03-5.19-.1-7.77.11-2.73.21-5.44.46-8.18.36-.35-.01-.69-.11-1.03-.19-.21-.05-.38-.2-.42-.4-.05-.27.22-.31.39-.39.67-.32,1.42-.26,2.12-.38,1.14-.19,2.32.13,3.49-.07.73-.13,1.5-.08,2.25-.14,1.3-.11,2.67.42,3.87-.49.06-.04.22-.04.27,0,.43.36.93.12,1.39.18.27.04.44-.08.44-.38-.01-.8.04-1.62-.07-2.41-.09-.64.16-1.2.1-1.92.44.32.39.65.42.96.01.14.08.25.23.24.15,0,.22-.12.21-.26-.02-.25-.07-.49-.1-.74-.03-.2.02-.39.23-.39.2,0,.17.21.17.36.02.55.09,1.1.1,1.64.01.48.14,1.14-.6,1.46-.43.19-.49.76-.38,1.21.1.41.45.11.7.14,1.08.1,2.15-.04,3.23.05,1.6.14,3.21.21,4.79.5.4.07.74-.28,1.09-.19,1.47.36,3,.19,4.48.6,1.24.34,1.46.08,1.58-1.18,0-.1.03-.2.24-.19.13.41.05.86.06,1.3,0,.15-.02.32.17.37.24.06.3-.15.36-.3.05-.14.06-.29.06-.44.01-1.63.02-3.25.04-4.88,0-.07.04-.14.06-.21.07.03.14.06.21.09,0,.84-.04,1.69.02,2.53.02.36-.18.99.61.9.16-.02.26.15.25.32-.02.2-.18.23-.33.18-.44-.15-.38.16-.39.41,0,.23.02.46-.01.68-.07.5-.24.94.64.88.24-.02.76.11,1.14.24.74.25,1.53.46,2.31.56.85.1,1.62.42,2.42.67.73.24,1.52.31,2.22.67.06.03.21,0,.27-.07.08-.08.03-.24-.06-.24-.56-.04-.76-.42-.93-.87-.06-.15-.2-.06-.29.05-.08.1-.2.27-.29.18-.52-.54-1.47-.17-1.88-.96-.16-.31-.52-.55-.81-.04-.09.15-.05.47-.36.33-.23-.1-.27-.34-.26-.59.05-1.49.1-2.99.15-4.48,0-.15-.08-.37.18-.44.26.26-.06.97.44.89.7-.12.65.35.88.7.21.3.03.69.35,1.04.17-.38.1-.71.12-1.02.02-.21.04-.44.31-.43.26,0,.27.24.29.45.03.21-.1.45.13.61.46-.13.16-.69.63-1.01,0,.63,0,1.13,0,1.62,0,.16.02.33.22.34.19,0,.22-.17.23-.32,0-.28,0-.55,0-.83,0-.16.04-.33.2-.38.22-.07.2.14.26.26.15.33.28.17.41-.03.08-.12-.02-.37.34-.39,0,.7,0,1.37,0,2.04,0,.18.06.38.29.36.2-.02.15-.22.17-.36.04-.25-.12-.66.27-.66.28,0,.14.43.28.63.04.05.03.15.04.22.04.22.14.4.38.38.25-.02.31-.25.34-.44.04-.3.03-.6.05-.9.01-.17.11-.27.29-.28.14,0,.31.09.26.2-.27.55.22,1.02.13,1.52-.07.38-.14.84.26.87.46.03.17-.49.25-.76.04-.16-.04-.39.2-.43.26-.04.24.19.26.36.02.16.04.33.24.31.19-.02.19-.2.21-.35.04-.4-.09-.82.17-1.19.15.61.23,1.21.3,1.81.03.27-.03.61.36.64.34.02.36-.27.39-.53.04-.39.26-.43.5-.19.55.55.46-.07.53-.3.04-.12-.07-.28-.09-.43-.03-.17-.08-.39.15-.44.26-.06.25.17.28.34.13.67.61,1.24.55,2.02.4-.61,1-.38,1.44-.54.71-.26.84.09,1.03.53.05.11.06.22.19.3.74.42.76.49.17,1.11-.27.28-.51.55-.25.95.31-.02.23-.48.54-.44.19.12.03.55.38.47.26-.06.15-.33.17-.52.03-.42.06-.84.06-1.27,0-.22-.15-.51.19-.53.28-.02.16.31.23.47.31.69.34,1.51,1.27,1.87.31.12,1.33.51.64,1.38-.09.12-.14.3.02.4.19.12.41.08.53-.11.22-.34.42-.68.4-1.12-.02-.42.09-.68.56-.36.26.18.51.2.74-.06.1-.11.04-.41.32-.32.2.07.19.27.21.45.04.41.3.86.67.73.81-.28,1.03.27,1.34.74.09.14.15.44.33.33.74-.42.97.05,1.21.6.09.22.32.23.52.22.27-.02.51.07.68.26.81.87,2.27.6,2.97,1.68.08.12.31.16.48.19.6.14,1.19.26,1.57.84.12.19.46.33.68.15.26-.2.13-.5,0-.76-.09-.2-.23-.31-.43-.39-1.24-.47-2.19-1.43-3.34-2.08-1.79-1.03-3.51-2.22-5.28-3.32-1.24-.76-2.48-1.52-3.73-2.27-.87-.52-1.8-.96-2.61-1.55-.93-.69-2.1-.9-2.99-1.72-.54-.51-1.44-.58-2.15-1.01-1.42-.84-3-1.39-4.51-2.08-1.57-.72-3.19-1.3-4.81-1.88-1.11-.4-2.1-1.32-3.43-.88-.04.01-.1,0-.14-.03-.89-.62-1.98-.69-2.96-.93-1.89-.46-3.84-.68-5.79-.83-1.01-.08-2.06.09-3.03-.21-1.12-.35-2.29-.48-3.38-.41-1.26.09-2.52.09-3.77.13-1.42.04-2.84.18-4.27.08-1.14-.08-2.29.24-3.44.24-1.16,0-2.27.34-3.41.38-1.25.05-2.5.48-3.75.07,0-.25,0-.49,0-.74.36-.12.72-.2,1.11-.19,1.8.02,3.55-.47,5.33-.54,1.43-.05,2.85-.24,4.28-.32,1.41-.08,2.83-.03,4.25-.14.85-.07,1.71-.2,2.55-.13,1.85.14,3.69.31,5.54.54,2.76.34,5.52.58,8.23,1.22,1.18.28,2.41.38,3.56.76,1.25.41,2.51.77,3.75,1.21.81.28,1.56.7,2.41.91.6.15,1.21.49,1.8.8,1.15.59,2.35,1.06,3.5,1.62.43.21,1.01.11,1.27.49.26.37.58.47.94.66.52.27,1.15.33,1.59.62,1.42.93,3.01,1.6,4.28,2.75.36.33.64.48.94-.28.14.94.39,1.56,1.2,1.74.24.05.46.15.69.28.58.32.9.12.91-.53.02-.84-.08-1.7.3-2.5.09-.2.06-.5.39-.41.24.06.24.29.16.51-.12.32-.18.69-.03.96.41.7.22,1.27-.2,1.87-.4.57-.17,1.05.48,1.3.28.11.66-.02.83.26.69,1.09,1.96,1.34,2.92,2.04.48.35.68.15.61-.39-.16-1.23.12-2.44.15-3.66,0-.12-.02-.27.13-.32.14-.05.23.07.32.14.4.32.33.78.29,1.19-.07.72.54.54.87.65.4.13.34-.24.36-.47.05-.44.16-.34.51-.17.46.22.67.87,1.19.79.57-.08.72.19.86.6.22.63.04,1.44.86,1.8.11.05.07.37.32.34.25-.03.31-.22.33-.44.01-.17-.01-.39.23-.41.21-.02.43.08.49.28.09.29.33.49.35.82.05.64.7,1,1.14.58.55-.53.74-.27.95.23.07.17.2.27.38.34.49.18.62.56.48,1.03-.08.25-.06.48-.03.74.1.83.34,1.67-.16,2.47-.12.19-.02.39.14.54.11.11.23.23.39.16.25-.1.19-.35.16-.53-.1-.62.02-1.24,0-1.86-.02-.38.41-.63.2-1.07-.15-.32-.03-.69.33-.82.34-.12.44.23.59.46.12.17.21.52.48.28.35-.31.46.02.68.15.49.28.16.88.49,1.29q.2-.96,1.07-.57s.05.01.07.02c.68.21,1.21.73,1.92.92.49.14.74.72,1.26.94.37.16.72-.26,1.06.11.48.52,1.22.57,1.8.9.6.35,1.32.27,1.93.69.37.25.47.8,1.3.76,1.14-.06,2.45.23,3.37,1.2.09.09.22.2.32.11.62-.56,1.2-.15,1.83,0,.63.15,1.31-.02,1.95.21.13.05.3-.07.33-.24.01-.11-.09-.2-.2-.18-.9.16-1.5-.6-2.32-.72-.76-.11-1.51-.33-2.22-.6-1.51-.58-3-1.19-4.47-1.85-1.6-.71-3.21-1.35-4.73-2.27-1.52-.92-3.17-1.62-4.71-2.53-1.57-.93-3.12-1.9-4.64-2.88-1.03-.67-2.15-1.25-3.1-2.06-.4-.34-1.08-.24-1.29-.9-.09-.27-.4-.41-.66-.57-.74-.45-1.63-.66-2.16-1.42-.07-.1-.2-.15-.3-.22-.77-.55-1.49-1.17-2.32-1.61-.82-.44-1.08-1.55-2.17-1.65-.3-.03-.32-.45-.17-.7.15-.26.35-.02.51.07.33.18.62.42.96.56,1.03.42,1.45,1.77,2.74,1.8.14,0,.28.27.41.42.12.13.2.32.34.39,1.46.76,2.71,1.81,4.03,2.77,1.36.99,2.81,1.88,4.21,2.82.47.32.94.65,1.38,1.01.32.26.82-.03,1.04.34.32.52.92.59,1.35.94.21.17.62.23.75,0,.16-.29-.2-.49-.43-.59-.25-.11-.54-.14-.66-.43-.17-.42-.11-.89.17-1.17.31-.32.42.15.59.32.06.06.17.13.25.12.19-.03.19-.21.19-.36,0-.73,0-1.46.01-2.19,0-.2-.12-.53.24-.52.27,0,.2.3.2.49,0,.85.04,1.7.14,2.55.06.53.25.72.75.68.74-.06,1.04.17.59.89-.12.2-.03.34.16.42.17.07.46.06.44-.12-.09-.62.74-1.08.27-1.74-.08-.11-.04-.26.09-.32.16-.07.33.01.37.16.06.24.1.5.06.74-.1.67-.25,1.33,0,2,.07.2-.04.4-.26.48-.27.09-.42-.03-.5-.3-.06-.19-.21-.28-.42-.19-.14.06-.3.12-.3.3,0,.2.14.29.31.37.56.28,1.11.56,1.66.86.21.11.32.4.64.25.35-.16.24-.46.25-.72.03-.83.13-1.65.19-2.47.04-.54.44-1.06-.02-1.6-.04-.05,0-.21.05-.28.11-.14.22-.02.32.05.3.22.57.47.99.48.18,0,.26.19.26.4,0,1.02,0,2.04.03,3.07,0,.17-.11.42.39.54-.07-.97.08-1.88.34-2.77.07-.22-.45-.42-.09-.63.19-.11.49-.04.74-.01.5.07.83.27.74.88-.06.42.05.87-.15,1.26-.5,1.01-.17,2.12-.4,3.17-.06.25.1.41.3.46.28.07.26-.18.24-.34-.19-1.51.63-2.91.46-4.42-.02-.15-.05-.41.23-.36.25.04.35.18.32.48-.09,1.24-.43,2.47-.12,3.73.06.26.04.54-.19.77-.14.13-.14.34.01.47.08.08.24.16.33.13.24-.06.17-.29.15-.44-.1-.81.08-1.61.19-2.4.08-.64.02-1.31.26-1.93.07-.18.15-.32.37-.29.27.05.13.24.16.4.12.67-.06,1.34-.05,2,0,.23-.03.46.14.65.16.18.34.33.59.18.24-.15.15-.36.02-.52-.41-.52-.25-1.06-.19-1.65.07-.77.53-.71,1-.57,1.05.31,2.03.86,3.18.76.12-.01.26.03.36.1.75.47,1.66.46,2.45.57,1.17.16,2.24.71,3.44.7.82,0,1.63.28,2.46.3.75.02,1.43.95,2.24.17.02-.02.13.05.2.09.28.15.55.11.87.07.93-.12,1.87-.22,2.8-.2,1.19.03,2.37.43,3.56-.02.1-.04.25.06.37.05.72-.09,1.42.11,2.15.03.63-.07,1.34-.33,1.88-.17,1.16.34,2.3.06,3.37-.09,3.35-.47,6.72-.76,10.04-1.38Zm-56.04,5.77c.14.27.27.54.42.83.29-.24.68-.46.42-.86-.23-.37-.57-.14-.85.03-.03-.19.05-.39-.14-.55-.83-.73-1.85-1.13-2.79-1.66-.19-.11-.32-.01-.38.21-.14.5.45,1.24.98,1.3.38.04.94.07,1.08.3.35.6.76.54,1.27.4Zm-53.02-4.53s0-.02,0-.03c.35,0,.71.03,1.06,0,.27-.03.37-.25.31-.51-.06-.25-.24-.21-.42-.14-.44.15-.86-.06-.95-.39-.21-.83-.76-1.62-.33-2.55.11-.23.17-.6-.03-.79-.28-.26-.49.12-.71.23-.29.14-.52.38-.78.57-.29.22-.26.52-.2.82.07.32.31.36.58.35.1,0,.2,0,.3,0,.22.01.39.1.45.33.04.15.04.32-.11.4-.19.11-.4.06-.56-.09-.35-.34-.92-.4-1.16-.92-.06-.14-.47-.41-.53-.14-.26,1.04-1.12,1.55-1.79,2.24-.13.13-.32.35-.18.52.12.16.37.07.57.02.28-.07.5-.22.7-.42.36-.35.74-.67,1.1-1.02.13-.12.26-.18.4-.11.21.11.03.24-.01.37-.2.55.11,1.22.57,1.24.57.03,1.14,0,1.71,0Zm-5.88-.92c0-.1.02-.2,0-.3-.04-.18.11-.47-.17-.51-.25-.03-.25.25-.3.44-.1.43-.37.4-.69.24-.8-.38-1.72-.54-2.33-1.28-.14-.17-.57-.43-.68-.07-.26.86-.77,1.43-1.55,1.82-.18.09-.4.29-.29.55.11.27.39.15.61.17.4.03.67-.29,1.13-.26.62.04,1.23.08,1.82.26.55.16.96-.3,1.51-.19.88.16.96.04.95-.87Zm35.78-.12c-.21,0-.36.11-.35.26.03.33,0,.69.49.8.5.11,1.01.25,1.45.5.68.4,1.49.47,2.12.99.21.18.6.29.75-.13.13-.36-.19-.49-.45-.58-1.08-.37-2.1-.88-3.13-1.39-.3-.15-.61-.31-.89-.46Zm50.12,8.26c-1.28-.01-2.45-.65-3.73-.66-.19,0-.36-.06-.4.18-.02.16.06.28.24.33,1.28.36,2.57.49,3.89.15Zm-32.35-5.39c-.18.54.56.53.87.86.24.26.46.08.66-.06.24-.18.22-.41.08-.66-.2-.36-.6-.42-.89-.64-.16-.12-.28-.32-.51-.22-.24.1-.13.34-.2.72Zm-54.92-5.44c.01-.29-.15-.38-.34-.34-.58.11-1.02.41-1.25.96-.1.24-.04.48.23.55.27.08.68.37.83.07.2-.41.35-.87.54-1.24Zm-7.6,1.51c.45-.27.36-.84.51-1.28.06-.2-.02-.4-.29-.41-.33-.02-1.06.72-1.08,1.06-.03.56.39.55.86.63Zm20.63,1.6c0-.26.03-.49-.17-.61-.26-.15-.33.11-.47.23-.11.09-.27.12-.4.19-.27.14-.62.34-.57.61.07.39.42-.05.63.07.06.04.15.04.22.06.59.2.8-.06.77-.56Zm52.99-1.77c-.01-.4,0-.95-.46-.97-.41-.01-.53.56-.58.94-.05.37.23.59.61.62.49.05.44-.29.43-.6Zm-9.82,1.72c-.3.2-.87-.05-.83.36.04.47.64.62,1.03.84.24.14.25-.2.21-.33-.1-.3.02-.73-.4-.88Zm34.47,8.31c-.7-.42-2.2-.48-2.78-.12.93.16,1.81.33,2.78.12Zm-18.88-6.53c.2.05.36.15.41-.08.03-.14-.04-.25-.15-.31-.24-.13-.48-.27-.73-.36-.18-.06-.43-.11-.54.1-.14.26.14.32.29.42.24.15.51.2.72.23Zm-12.01-.97c.42-.08.35-.48.46-.76.06-.16.04-.41-.21-.37-.35.05-.57.31-.65.65-.07.29.15.39.4.48Zm-1.23,1.33c-.03-.29-1-.78-1.24-.63-.11.07-.23.24-.12.29.38.19.67.54,1.13.55.13,0,.25-.04.23-.21Zm-26.94-6.42c-.18-.14-.36-.25-.51-.4-.13-.13-.18-.39-.44-.28-.19.08-.21.27-.18.45.04.23.19.36.41.36.23,0,.49.1.72-.12Zm-36.17,2.12c.2-.08.59.13.61-.23.02-.34-.34-.38-.62-.39-.27-.01-.55.06-.53.38.02.34.33.22.54.25Zm37.28-2.04c-.05-.18.1-.54-.24-.49-.34.06-.22.49-.32.75-.06.16.07.37.28.34.34-.05.27-.35.28-.6Zm.79.93c.27,0,.4-.16.4-.42,0-.18-.05-.39-.26-.38-.28,0-.43.22-.46.49-.03.21.1.32.32.32Zm-32.75-.79c-.23.53-.07.87.13,1.18.07.1.24,0,.29-.13.18-.44-.15-.66-.42-1.05Zm-6.19,3.58c-.03-.15.07-.43-.16-.41-.42.03-.23.48-.37.71-.07.13.01.25.16.25.34-.02.35-.29.36-.55Zm52.38,4.65c-.08.05-.31,0-.24.23.06.21.15.44.41.49.18.03.28-.08.28-.26,0-.26-.15-.41-.46-.46Zm-4.35-1.5c.13,0,.29-.06.25-.3-.04-.24-.22-.32-.43-.33-.22-.01-.32.1-.31.32.02.27.2.31.49.31Zm20.15-1.64c-.12.02-.17.1-.16.21,0,.13.1.17.21.16.13,0,.17-.1.16-.21,0-.13-.1-.16-.21-.17Z"/><path class="cls-1" d="m141.6,64.63c-3.32.62-6.7.9-10.04,1.38-1.07.15-2.21.43-3.37.09-.55-.16-1.25.1-1.88.17-.73.08-1.43-.12-2.15-.03-.12.02-.27-.09-.37-.05-1.19.45-2.37.05-3.56.02-.93-.02-1.87.08-2.8.2-.31.04-.59.08-.87-.07-.07-.04-.18-.11-.2-.09-.8.78-1.49-.15-2.24-.17-.82-.02-1.64-.31-2.46-.3-1.2,0-2.27-.54-3.44-.7-.79-.11-1.7-.09-2.45-.57-.1-.06-.24-.11-.36-.1-1.15.1-2.13-.45-3.18-.76-.47-.14-.92-.2-1,.57-.05.58-.22,1.13.19,1.65.13.16.22.37-.02.52-.25.15-.43,0-.59-.18-.17-.19-.13-.42-.14-.65,0-.67.17-1.33.05-2-.03-.16.12-.36-.16-.4-.22-.04-.3.1-.37.29-.24.62-.17,1.29-.26,1.93-.1.79-.28,1.58-.19,2.4.02.16.08.39-.15.44-.1.02-.25-.06-.33-.13-.15-.14-.15-.34-.01-.47.23-.23.26-.51.19-.77-.31-1.26.03-2.49.12-3.73.02-.3-.08-.44-.32-.48-.28-.04-.25.21-.23.36.17,1.51-.65,2.91-.46,4.42.02.16.03.41-.24.34-.19-.05-.35-.21-.3-.46.24-1.04-.1-2.15.4-3.17.2-.4.09-.84.15-1.26.09-.61-.24-.81-.74-.88-.25-.03-.55-.1-.74.01-.36.21.16.4.09.63-.27.89-.42,1.8-.34,2.77-.5-.12-.39-.37-.39-.54-.02-1.02-.03-2.04-.03-3.07,0-.21-.08-.4-.26-.4-.42,0-.69-.25-.99-.48-.1-.07-.21-.19-.32-.05-.05.07-.09.23-.05.28.46.54.06,1.06.02,1.6-.06.82-.16,1.65-.19,2.47,0,.26.1.56-.25.72-.32.15-.44-.14-.64-.25-.54-.3-1.1-.59-1.66-.86-.17-.08-.32-.17-.31-.37,0-.18.16-.24.3-.3.21-.09.36,0,.42.19.08.27.23.39.5.3.22-.08.34-.28.26-.48-.24-.68-.1-1.33,0-2,.04-.24,0-.5-.06-.74-.04-.15-.21-.23-.37-.16-.13.06-.17.21-.09.32.47.66-.36,1.12-.27,1.74.03.17-.27.18-.44.12-.19-.07-.28-.22-.16-.42.45-.72.15-.95-.59-.89-.5.04-.69-.15-.75-.68-.1-.85-.14-1.7-.14-2.55,0-.19.07-.48-.2-.49-.35-.01-.23.33-.24.52-.02.73,0,1.46-.01,2.19,0,.15,0,.32-.19.36-.07.01-.19-.05-.25-.12-.17-.18-.27-.65-.59-.32-.28.29-.34.75-.17,1.17.12.29.4.33.66.43.23.1.59.3.43.59-.13.24-.54.18-.75,0-.43-.34-1.03-.41-1.35-.94-.22-.37-.72-.08-1.04-.34-.44-.36-.9-.7-1.38-1.01-1.4-.94-2.85-1.83-4.21-2.82-1.32-.96-2.57-2.01-4.03-2.77-.14-.07-.23-.26-.34-.39-.13-.15-.27-.42-.41-.42-1.3-.03-1.71-1.38-2.74-1.8-.34-.14-.64-.38-.96-.56-.16-.09-.36-.33-.51-.07-.15.25-.12.68.17.7,1.09.1,1.35,1.21,2.17,1.65.82.44,1.55,1.07,2.32,1.61.1.07.23.12.3.22.53.76,1.42.97,2.16,1.42.27.16.58.3.66.57.21.66.89.56,1.29.9.95.81,2.07,1.39,3.1,2.06,1.52.99,3.07,1.96,4.64,2.88,1.54.91,3.19,1.61,4.71,2.53,1.52.91,3.13,1.56,4.73,2.27,1.47.65,2.97,1.27,4.47,1.85.71.27,1.47.5,2.22.6.82.12,1.43.88,2.32.72.11-.02.21.07.2.18-.02.17-.19.29-.33.24-.64-.23-1.32-.05-1.95-.21-.63-.15-1.21-.56-1.83,0-.11.1-.24-.01-.32-.11-.91-.98-2.23-1.26-3.37-1.2-.83.04-.93-.51-1.3-.76-.61-.42-1.33-.34-1.93-.69-.58-.34-1.33-.38-1.8-.9-.34-.38-.69.05-1.06-.11-.52-.22-.77-.81-1.26-.94-.71-.2-1.24-.71-1.92-.92-.02,0-.05,0-.07-.02q-.87-.39-1.07.57c-.33-.41,0-1.01-.49-1.29-.22-.12-.32-.46-.68-.15-.27.24-.36-.1-.48-.28-.15-.22-.25-.57-.59-.46-.36.12-.48.5-.33.82.2.43-.22.69-.2,1.07.02.62-.1,1.23,0,1.86.03.18.09.42-.16.53-.16.07-.29-.05-.39-.16-.15-.15-.26-.35-.14-.54.5-.8.25-1.64.16-2.47-.03-.26-.05-.49.03-.74.15-.47.02-.85-.48-1.03-.18-.07-.31-.16-.38-.34-.21-.5-.4-.76-.95-.23-.44.42-1.1.06-1.14-.58-.02-.33-.26-.53-.35-.82-.06-.2-.28-.3-.49-.28-.24.02-.22.23-.23.41-.01.22-.08.41-.33.44-.25.03-.21-.29-.32-.34-.82-.36-.64-1.17-.86-1.8-.14-.4-.3-.68-.86-.6-.52.08-.74-.57-1.19-.79-.35-.17-.46-.27-.51.17-.03.24.03.6-.36.47-.34-.11-.94.07-.87-.65.04-.41.12-.87-.29-1.19-.1-.08-.18-.2-.32-.14-.15.06-.13.2-.13.32-.03,1.22-.31,2.43-.15,3.66.07.54-.13.74-.61.39-.96-.7-2.23-.95-2.92-2.04-.18-.28-.56-.15-.83-.26-.64-.25-.88-.74-.48-1.3.42-.6.62-1.17.2-1.87-.16-.27-.09-.64.03-.96.08-.21.08-.44-.16-.51-.32-.09-.29.21-.39.41-.38.81-.28,1.66-.3,2.5-.01.65-.34.85-.91.53-.23-.13-.45-.22-.69-.28-.81-.18-1.06-.81-1.2-1.74-.31.76-.58.61-.94.28-1.27-1.15-2.86-1.82-4.28-2.75-.44-.29-1.07-.35-1.59-.62-.36-.18-.68-.29-.94-.66-.27-.38-.84-.28-1.27-.49-1.15-.56-2.35-1.03-3.5-1.62-.58-.3-1.2-.65-1.8-.8-.85-.21-1.6-.63-2.41-.91-1.24-.43-2.5-.8-3.75-1.21-1.15-.37-2.38-.48-3.56-.76-2.71-.65-5.47-.89-8.23-1.22-1.84-.22-3.69-.39-5.54-.54-.84-.07-1.7.06-2.55.13-1.41.11-2.83.06-4.25.14-1.43.08-2.85.27-4.28.32-1.79.07-3.54.56-5.33.54-.39,0-.75.08-1.11.19-.16-.3-.14-.63-.17-.95-.2-2.12.28-4.19.34-6.29.03-1.16.03-2.31-.02-3.47-.09-2.19.37-4.35.36-6.54,0-.55.25-1.1.39-1.65.31.39.63.68,1.18.33.16-.1.44,0,.66-.03.72-.14,1.45.07,2.17-.19,1.21-.42,2.52-.26,3.78-.51.56-.11,1.28.01,1.91,0,2.34-.06,4.68-.21,7.02-.21.48,0,.97-.14,1.42-.1,1.91.16,3.82.42,5.73.66.78.1,1.64.45,2.31.39,1.35-.13,2.5.45,3.76.58.99.11,1.99.35,2.95.71.86.32,1.8.31,2.67.77,1.5.79,3.17,1.24,4.73,1.93,1.55.68,3.11,1.35,4.57,2.2,1.12.65,2.29,1.19,3.4,1.85.35.21.58.7.62.68.83-.27,1.37.48,1.78.79.88.68,1.87,1.09,2.75,1.68.66.44,1.15,1.1,1.94,1.47.32.15.73.6,1.14.83.29.17.5.37.74.59.57.56,1.39.76,1.93,1.43.36.44,1.37.33,1.14,1.32,0,.04.08.12.13.14.55.28,1.09.56,1.62.9,1.23.78,2.51,1.53,3.63,2.45,1.06.87,2.38,1.32,3.33,2.32.31.33.84.37,1.21.72.77.74,1.76,1.24,2.66,1.75.75.41,1.39.99,2.15,1.38,1.03.52,1.96,1.27,3.03,1.7,1.1.44,2.17,1,3.11,1.63,1.95,1.31,4.18,1.93,6.22,3.01,2.15,1.14,4.6,1.67,6.96,2.3,1.94.52,3.9.9,5.89,1.16,1.51.2,3.03.53,4.55.52,1.57-.01,3.08.4,4.65.36,3.19-.08,6.37-.37,9.55-.64,1.9-.16,3.79-.37,5.68-.68,1.23-.2,2.47-.5,3.74-.35.07.23.07.47.01.7ZM12.72,36.84c-.04.43.05.67.59.52.35-.1.75-.07,1.13-.06,1.69.05,3.3-.65,5-.48.09,0,.19-.06.28-.09,1.43-.41,2.9-.19,4.34-.13.37.01.82.3,1.21.17,1.84-.6,3.75-.28,5.6-.32,1.59-.03,3.26-.18,4.83.44.51.2,1.09,0,1.64.16,1.26.4,2.6.24,3.9.55.79.19,1.61.07,2.45.37,1.1.4,2.28.67,3.43.91.68.14,1.32.4,1.92.64,1.39.58,2.84,1.05,4.17,1.79,2.03,1.12,4.23,1.92,6.16,3.25.27.19.59.23.81-.06.22-.29-.02-.46-.2-.69-.32-.41-.89-.35-1.2-.66-.52-.53-1.5-.36-1.81-1.22-.03-.09-.37-.08-.57-.12-.15-.02-.33,0-.44-.06-1.15-.74-2.33-1.4-3.7-1.63-.09-.01-.19-.09-.24-.17-.3-.53-.84-.58-1.35-.71-.14-.04-.33-.05-.41-.14-.51-.56-1.47-.11-1.89-.86-.01-.02-.16,0-.2.04-.39.34-.62.16-.84-.21-.05-.09-.2-.2-.3-.19-.74.06-1.33-.46-2.07-.54-.58-.06-1.34,0-1.79-.31-.55-.39-1.05-.34-1.61-.37-.17,0-.35-.04-.5-.11-.84-.41-1.77-.5-2.66-.61-1.8-.22-3.64-.23-5.42-.55-.72-.13-1.41-.01-2.09-.02-.47,0-.67-.37-1.03-.35-1.81.07-3.62.14-5.42.19-1.13.03-2.31.17-3.45.27-1.26.12-2.53.57-3.83.29-.24-.05-.48,0-.71.15-.95.59-2.03.55-3.05.4-.57-.08-.68,0-.64.5Zm48.06,7.45c-.22.02-.26.12-.27.31-.03.57.51.46.72.67.87.89,2.29,1.02,2.91,2.21.04.08.22.08.34.11.37.09.67.28.98.52.72.58,1.47,1.12,2.21,1.68.94.71,2.25.84,2.94,1.96.14.23.61.4.87.09.25-.31-.02-.57-.25-.82-.33-.37-.85-.43-1.19-.72-1.02-.88-2.13-1.6-3.32-2.25-1.06-.58-2.07-1.29-3.05-1.97-.82-.57-1.89-.75-2.53-1.58-.08-.11-.26-.14-.37-.19Z"/><path class="cls-1" d="m12.3,47.71c1.26.41,2.5-.02,3.75-.07,1.14-.05,2.25-.39,3.41-.38,1.15,0,2.3-.31,3.44-.24,1.43.1,2.86-.04,4.27-.08,1.25-.04,2.52-.04,3.77-.13,1.09-.08,2.26.05,3.38.41.97.31,2.02.14,3.03.21,1.95.15,3.9.37,5.79.83.99.24,2.08.31,2.96.93.04.03.1.05.14.03,1.33-.44,2.32.48,3.43.88,1.62.58,3.24,1.16,4.81,1.88,1.51.69,3.1,1.24,4.51,2.08.71.42,1.61.5,2.15,1.01.89.83,2.06,1.04,2.99,1.72.81.6,1.74,1.03,2.61,1.55,1.25.75,2.49,1.51,3.73,2.27,1.77,1.09,3.48,2.29,5.28,3.32,1.14.66,2.09,1.61,3.34,2.08.21.08.34.19.43.39.12.26.25.55,0,.76-.22.18-.56.04-.68-.15-.38-.58-.97-.7-1.57-.84-.17-.04-.4-.07-.48-.19-.7-1.08-2.16-.81-2.97-1.68-.17-.19-.41-.28-.68-.26-.21.01-.43,0-.52-.22-.23-.55-.47-1.02-1.21-.6-.18.1-.24-.2-.33-.33-.31-.48-.53-1.02-1.34-.74-.36.12-.63-.32-.67-.73-.02-.18,0-.38-.21-.45-.28-.09-.22.2-.32.32-.23.26-.48.24-.74.06-.47-.32-.58-.06-.56.36.02.43-.18.78-.4,1.12-.12.19-.34.23-.53.11-.16-.1-.11-.28-.02-.4.69-.87-.32-1.26-.64-1.38-.94-.36-.96-1.19-1.27-1.87-.07-.16.05-.49-.23-.47-.34.02-.19.32-.19.53,0,.42-.03.84-.06,1.27-.01.19.09.46-.17.52-.35.08-.19-.35-.38-.47-.31-.03-.23.43-.54.44-.25-.41-.02-.67.25-.95.59-.62.58-.69-.17-1.11-.13-.07-.14-.19-.19-.3-.19-.45-.32-.79-1.03-.53-.44.16-1.04-.07-1.44.54.06-.78-.42-1.35-.55-2.02-.03-.17-.02-.4-.28-.34-.24.05-.18.27-.15.44.02.15.13.31.09.43-.07.23.02.85-.53.3-.24-.24-.47-.2-.5.19-.03.27-.05.55-.39.53-.39-.02-.33-.36-.36-.64-.07-.61-.15-1.21-.3-1.81-.26.37-.13.8-.17,1.19-.02.15-.01.33-.21.35-.2.02-.22-.15-.24-.31-.02-.17,0-.4-.26-.36-.24.04-.15.27-.2.43-.08.27.22.79-.25.76-.4-.03-.33-.48-.26-.87.09-.5-.4-.97-.13-1.52.05-.1-.12-.2-.26-.2-.18,0-.28.1-.29.28-.02.3,0,.61-.05.9-.03.19-.09.43-.34.44-.24.02-.35-.16-.38-.38-.01-.07,0-.17-.04-.22-.14-.2,0-.63-.28-.63-.39,0-.23.41-.27.66-.02.14.03.34-.17.36-.23.02-.29-.18-.29-.36,0-.67,0-1.34,0-2.04-.36.02-.26.26-.34.39-.12.19-.26.35-.41.03-.06-.13-.04-.34-.26-.26-.16.05-.19.22-.2.38,0,.28,0,.55,0,.83,0,.16-.03.33-.23.32-.19,0-.21-.18-.22-.34,0-.49,0-.99,0-1.62-.47.32-.17.88-.63,1.01-.23-.15-.11-.4-.13-.61-.03-.21-.03-.44-.29-.45-.27,0-.29.23-.31.43-.02.31.05.63-.12,1.02-.31-.35-.14-.74-.35-1.04-.23-.34-.18-.81-.88-.7-.49.08-.18-.64-.44-.89-.26.07-.17.28-.18.44-.05,1.49-.1,2.99-.15,4.48,0,.24.03.48.26.59.31.14.27-.18.36-.33.29-.51.65-.27.81.04.41.79,1.37.42,1.88.96.08.09.21-.09.29-.18.09-.11.23-.2.29-.05.17.45.37.83.93.87.09,0,.14.16.06.24-.06.06-.21.1-.27.07-.7-.36-1.48-.43-2.22-.67-.79-.25-1.56-.57-2.42-.67-.78-.1-1.58-.31-2.31-.56-.38-.13-.89-.25-1.14-.24-.88.06-.71-.38-.64-.88.03-.22,0-.45.01-.68,0-.25-.04-.56.39-.41.16.06.32.02.33-.18.01-.17-.08-.34-.25-.32-.79.09-.59-.54-.61-.9-.05-.84-.02-1.69-.02-2.53-.07-.03-.14-.06-.21-.09-.02.07-.06.14-.06.21-.01,1.63-.02,3.25-.04,4.88,0,.15-.01.31-.06.44-.06.15-.12.36-.36.3-.19-.05-.17-.23-.17-.37-.02-.44.07-.88-.06-1.3-.21-.01-.23.09-.24.19-.12,1.25-.33,1.51-1.58,1.18-1.48-.4-3.01-.24-4.48-.6-.35-.09-.69.27-1.09.19-1.58-.28-3.19-.36-4.79-.5-1.09-.1-2.16.05-3.23-.05-.25-.02-.6.27-.7-.14-.11-.45-.06-1.02.38-1.21.74-.32.61-.98.6-1.46-.02-.54-.09-1.09-.1-1.64,0-.14.03-.36-.17-.36-.21,0-.26.2-.23.39.04.25.08.49.1.74.01.14-.06.25-.21.26-.15,0-.22-.11-.23-.24-.03-.31.02-.65-.42-.96.05.73-.19,1.28-.1,1.92.11.79.05,1.61.07,2.41,0,.3-.17.42-.44.38-.46-.06-.96.18-1.39-.18-.06-.05-.21-.05-.27,0-1.2.91-2.57.38-3.87.49-.75.07-1.52.02-2.25.14-1.18.2-2.35-.12-3.49.07-.7.12-1.45.05-2.12.38-.17.08-.43.12-.39.39.04.2.21.35.42.4.34.08.69.17,1.03.19,2.74.1,5.45-.15,8.18-.36,2.58-.2,5.18-.08,7.77-.11,3-.03,5.97.42,8.96.49,1.5.04,3.07.14,4.45.64,1.86.67,3.81.7,5.66,1.24,1.56.46,3.17.74,4.7,1.36,1.75.71,3.58,1.2,5.36,1.81.9.3,1.78.65,2.66.99.18.07.34.21.49.34.2.18.08.37-.04.54-.13.18-.31.18-.46.05-.36-.31-.74-.39-1.19-.22-.1.04-.31.01-.35-.06-.31-.48-.53-.47-.86,0-.23.34-.4.08-.5-.2-.09-.24-.19-.5-.53-.2-.6.54-.61.53-.83-.25-.05-.19-.11-.38-.17-.57-.22-.02-.24.15-.31.28-.1.17-.17.38-.43.36-.25-.02-.21-.22-.29-.38-.25-.53-.99-.78-1.72-.6-.07.02-.12.09-.18.14-.62-.91-1.72-.14-2.44-.69-.04-.03-.09-.05-.12-.09-.62-.87-1.56-.88-2.5-.94-.64-.04-1.16-.57-1.86-.5-.03.26.49.23.32.56-.13.25-.33.29-.57.19-.19-.08-.26.06-.37.17-.27.29-.47.16-.52-.16-.11-.65-.43-.74-1.02-.58-.31.09-.7.14-1-.15-.14-.14-.32-.17-.48-.04-.14.11-.09.28-.06.42,0,.05.04.09.05.14.07.27.14.54-.05.79-.03.04-.16.05-.2.01-.26-.22-.09-.52-.13-.78-.04-.26-.03-.79-.13-.73-.48.29-.78-.66-1.3-.08-.36.4-1.01.15-1.16-.37-.06-.22-.15-.39-.4-.36-.2.02-.33.14-.27.36.04.16.08.3-.14.35-.19.04-.34-.02-.47-.17-.58-.71-.6-.72-1.22-.05-.28.3-.41.35-.53-.11-.13-.52-.72-.8-1.25-.56-.36.17-.66.2-.98-.03-.06-.04-.15-.1-.2-.09-.93.27-1.84.23-2.76-.11-.26-.1-.22.19-.24.35-.06.47-.26.6-.63.23-.2-.19-.49-.34-.68-.19-.54.43-1.06-.02-1.3-.22-.53-.43-.75-.16-1.06.16-.13.14-.26.47-.43.32-.55-.49-.82-.1-1.13.26-.34.4-.42,0-.6-.19-.22-.22-.24-.69-.67-.63-.38.06-.45.39-.5.74-.07.48-.43.18-.56.09-.41-.29-.75-.31-1.15,0-.44.35-.66-.1-.94-.3-.18-.13-.3-.53-.58-.29-.19.16-.1.47.08.69.13.16.42.3.18.56-.25.27-.43,0-.64-.11-.46-.26-.69-.89-1.33-.88-.04,0-.08-.08-.12-.09-.4-.05.05-1.35-.89-.59-.37.3-.96.07-1.31.48-.38.45-1.1.08-1.47.63-.07.11-.21-.16-.3-.26-.5-.5-1.01-.5-1.44.09-.23.32-.36.52-.72.13-.29-.31-.57-.25-.75.17-.16.36-.38.68-.32,1.13.09.73.29.87.91.48.32-.2.58-.06.86.03.16.05.26.17.24.34-.02.19-.18.2-.33.24-.41.09-1.22,1.15-1.21,1.57.01.45.59.77,1.03.5.62-.38,1.12-.91,1.43-1.58.14-.31.12-.41.58-.21.74.32,1.27,1.14,2.25.98.29-.05.33.31.33.57,0,.31.02.62-.38.72-.53.14-1.06.26-1.63.17-.35-.05-.59-.11-.54-.53.01-.12.01-.26-.13-.32-.12-.05-.24.03-.25.1-.15.97-.98.72-1.58.88-.2.05-.5-.12-.6.16-.11.3.25.32.37.5.61.87,1.38,1.03,2.46.95,1.85-.14,3.72-.17,5.58-.27,2.39-.14,4.77.12,7.16.02,3.42-.14,6.8.31,10.2.45,2.78.12,5.53.51,8.25,1.04.66.13,1.39.17,2.14.43-.36.36-.76.24-1.09.21-.87-.07-1.73-.24-2.6-.31-.95-.07-1.92-.02-2.86-.12-.71-.07-1.44-.08-2.13-.21-1.05-.2-2.09,0-3.13-.12-1.17-.12-2.35-.29-3.52-.25-.81.02-1.63-.03-2.44.05-.24.02-.44.04-.64-.11-.25-.2-.46-.1-.5.18-.07.43-.17.38-.52.19-.36-.2-.75-.8-1.26-.17-.07.08-.17-.06-.25-.09-.49-.18-.98-.19-1.45.04-.29.14-.61.26-.87.14-.79-.34-1.53.05-2.29.08-.2,0-.34,0-.47-.13-.11-.1-.21-.22-.39-.19-1.86.32-3.74.17-5.62.21-.74.02-1.7-.21-2.31.66-.22.32-.57.17-.79-.18-.35-.54-.54-.56-.86.12-.38.8-.05,1.56-.16,2.33-.13-.09-.21-.21-.23-.37-.12-.99-.21-1.99-.38-2.97-.26-1.46-.12-3.03-.51-4.38-.75-2.62-.86-5.26-.69-7.86.17-2.63.18-5.25.26-7.88,0-.24.11-.49.17-.73Zm12.51,4.77c-.17-.18-.1-.41-.11-.62-.01-.18-.03-.39-.23-.43-.27-.05-.21.22-.25.37-.23.94-.11,1.89-.09,2.84,0,.16.06.35.25.41.29-.04.2-.48.53-.45.17.17.11.51.38.59.63-.65.57-1.5.54-2.25-.02-.43.24-1.21-.41-1.37-.66-.16-.19.7-.61.92Zm9.29-.9c0,.7,0,1.21,0,1.72-.01.73.18,1.53-.59,2.05-.13.09-.19.26.01.36.26.13.39.54.75.41.37-.14.26-.5.26-.79,0-.17-.08-.34-.08-.51,0-.21.17-.29.37-.3.21-.01.4.11.3.3-.2.41.25.64.2.99-.02.15.02.33.22.32.2,0,.21-.18.21-.33,0-.78,0-1.56,0-2.34,0-.3-.14-.45-.49-.36-.65.17-.86-.2-.86-.78,0-.19.06-.4-.29-.74Zm-18.23.83c-.41.09,0,.68-.4.85-.18.08-.15.34.04.43.36.17.44.45.42.8,0,.16.06.3.25.32.13.01.25-.01.31-.15.09-.22-.05-.65.41-.56.37.07.36.43.39.73.01.14.07.25.21.26.15,0,.21-.11.25-.24.04-.14.15-.3.12-.43-.15-.56-.15-.95.58-1.07.24-.04.45-.44.27-.76-.21-.35-.42-.02-.62.07-.23.1-.46.34-.68-.07-.17-.33-.36-.2-.43.1-.07.34-.32.45-.61.44-.43-.01-.15-.32-.17-.5-.02-.14-.1-.22-.34-.23Zm-1.28-.71c-.26.55-.04.98-.22,1.29-.17.31.18.75-.15.86-.38.13-.54-.37-.81-.57-.14-.1-.27-.38-.47-.11-.27.35-.14,2.25.15,2.56.07.08.15.15.26.1.19-.08.18-.26.08-.37-.27-.31-.17-.47.19-.57.24-.07.26-.43.53-.45.34.26-.16,1.03.46.93.55-.08.58-.73.57-1.25,0-.05.02-.11,0-.15-.36-.65-.36-1.4-.58-2.29Zm32.95,1.25c-.55.79-.88,1.55-.34,2.44.19.32.16.84-.05,1.24-.2.39-.53.26-.86.18-.14-.03-.22.09-.24.23-.01.15-.05.32.1.42.44.29,1.52-.16,1.52-.69,0-1.27-.09-2.55-.14-3.82Zm-20.97,6.2q-.35.69.06,1.27c.04-.44.11-.78-.06-1.27Zm31.8-3.22c.02.3.08.55,0,.82-.05.18.17.43.33.18.2-.31-.01-.65-.17-.96,0-.01-.05-.01-.17-.04Zm-13.97,1.43c.17.02.25-.07.26-.2.02-.17.03-.37-.18-.42-.18-.04-.23.13-.24.28-.01.15,0,.3.16.34Z"/><path class="cls-3" d="m141.58,63.92c-1.27-.15-2.51.15-3.74.35-1.89.31-3.78.52-5.68.68-3.18.28-6.36.57-9.55.64-1.57.04-3.08-.38-4.65-.36-1.51.01-3.03-.32-4.55-.52-1.99-.27-3.95-.64-5.89-1.16-2.37-.64-4.81-1.16-6.96-2.3-2.04-1.08-4.27-1.7-6.22-3.01-.94-.63-2.01-1.19-3.11-1.63-1.07-.43-2-1.18-3.03-1.7-.77-.39-1.4-.96-2.15-1.38-.91-.5-1.89-1.01-2.66-1.75-.37-.35-.9-.39-1.21-.72-.95-1.01-2.27-1.46-3.33-2.32-1.12-.92-2.39-1.67-3.63-2.45-.53-.33-1.07-.62-1.62-.9-.06-.03-.14-.11-.13-.14.23-1-.78-.88-1.14-1.32-.54-.67-1.37-.87-1.93-1.43-.23-.23-.45-.43-.74-.59-.41-.23-.82-.68-1.14-.83-.79-.37-1.28-1.03-1.94-1.47-.89-.59-1.88-1-2.75-1.68-.41-.32-.95-1.06-1.78-.79-.05.02-.27-.47-.62-.68-1.11-.66-2.28-1.2-3.4-1.85-1.45-.84-3.02-1.52-4.57-2.2-1.56-.69-3.23-1.14-4.73-1.93-.88-.46-1.81-.45-2.67-.77-.96-.36-1.96-.6-2.95-.71-1.25-.14-2.41-.72-3.76-.58-.67.07-1.52-.29-2.31-.39-1.91-.23-3.81-.49-5.73-.66-.45-.04-.94.1-1.42.1-2.34,0-4.68.15-7.02.21-.62.02-1.34-.11-1.91,0-1.26.25-2.57.09-3.78.51-.73.25-1.46.05-2.17.19-.22.04-.5-.07-.66.03-.55.36-.87.06-1.18-.33,0-.47-.17-.95.12-1.39.16-.24.4-.33.65-.21.97.46,1.93.02,2.85-.15.46-.08.87.15,1.16.04.76-.27,1.52-.15,2.27-.27,1.46-.22,2.94-.18,4.41-.31.79-.07,1.6.21,2.38-.23.26-.15.73.06,1.1.11,1.26.15,2.53,0,3.79.22.5.08,1.08.06,1.62.07,1.54,0,3.02.44,4.54.53,1.48.09,2.95.31,4.37.72,1.31.37,2.64.64,3.95,1.02,1.15.34,2.25.78,3.39,1.12.8.24,1.56.64,2.33.99,1.3.6,2.58,1.26,3.91,1.82.99.42,1.88.99,2.79,1.53.11.06.2.23.29.22.92-.09,1.35.74,2.03,1.09.72.37,1.38.9,2.11,1.29,1.66.89,2.91,2.38,4.68,3.11.36.15.73.41.95.72.77,1.06,1.96,1.6,2.94,2.39.88.72,1.83,1.42,2.87,1.97,1.03.54,1.92,1.29,2.85,1.97.58.43,1.22.76,1.87,1.09.42.21.9.59,1.3.94,1.29,1.15,2.83,1.94,4.2,2.97.67.5,1.43.85,2.08,1.4.56.47,1.27.76,1.91,1.14.99.58,1.95,1.21,2.96,1.74,1.1.58,2.05,1.45,3.33,1.68.36.07.62.39.98.53,1.15.45,2.29.94,3.4,1.48.74.37,3.52,1.4,4.13,1.43.45.02.93.11.5-.62-.19-.32.09-.62.27-.89.2-.28.48-.57.79-.34.26.19.16.61-.11.78-.49.31.29,1.05-.58,1.2.88.3,1.61.67,2.45.63.34-.01.6-.08.34-.48-.15-.23-.19-.46-.18-.72,0-.28-.35-.68.05-.8.3-.09.75-.19,1.05.03.27.2.32.53.17.89-.09.22-.05.5-.13.73-.08.22-.38.43-.04.64.48.29,1.04.17,1.55.13.35-.03.23-.37.16-.7-.4.45-.75.49-.99-.1-.1-.23.13-1.24.33-1.35.14-.08.27-.03.33.08.18.32.39.23.63.1.13-.07.35-.17.42-.06.44.74,1.06.23,1.6.29.77.09,1.54.22,2.3.39.19.04.34.11.56.07.64-.1.92.28.67.9-.15.36-.12.75-.28,1.12-.13.31.16.48.49.48.43,0,.85-.03,1.25.2.23.14.44,0,.44-.23,0-.46.23-.8.41-1.19.33-.7.91-.99,1.68-.78.05.01.13.05.14.03.51-.58,1.28-.21,1.85-.51.31-.16.6-.23.93-.22.68,0,1.3.08,2.02-.2.65-.26,1.54-.03,2.29.13.57.12,1.12-.13,1.34-.41.54-.72,1.01-.26,1.45-.05.31.15.5.51.83.04.06-.09.28-.1.42-.1,1.26.02,2.52-.04,3.77-.21.71-.1.86-.09,1.06-.33.04.02.12.03.13.05.18.69.4,1.2,1.06.31.13-.18.36-.15.56-.1.14.03.34.12.43.06.85-.62,1.81-.13,2.7-.32.09-.02.28.02.28.02.17-1.06.97-.24,1.41-.47-.48,1.07-.31,2.28-.75,3.37-.19.47-.12,1.04-.17,1.56Zm-6.69-2.17c.09.09-.08.39.18.39.32,0,.27-.3.28-.51,0-.17.01-.41-.23-.4-.28.02-.21.29-.23.52Z"/><path class="cls-1" d="m134.3,81.43c.61-.77,1.53-1.17,2.22-1.87.66-.68,1.02-1.47,1.28-2.33.02-.07.01-.17.06-.21.59-.58.68-1.45,1.17-2.07.38-.5.49-1.09.7-1.64.17-.44-.03-.77-.57-.62-.67.18-1.34.11-2.2.08.54-.34.99-.31,1.4-.35,1.36-.15,1.46-.27,1.76-1.62.2-.9.3-1.93.68-2.66.44-.86.36-1.7.59-2.53.02-.08.15-.12.22-.18-.23,1.01.15,2.09-.57,3.07-.35.47-.25,1.25-.45,1.87-.43,1.36-.41,2.83-.96,4.14-.4.97-.76,2-1.5,2.8-.33.36-.35.84-.48,1.24-.23.72-.66,1.31-1.24,1.64-.71.4-1.1,1.35-2.09,1.25Z"/><path class="cls-1" d="m13.71,72.79c.49.12.32.82.78.93.68.16,1.02.63,1.31,1.2.11.22.26.41-.19.4-1.14-.03-1.17.02-.95,1.13.02.11-.03.24-.04.36-.38-.41-.37-.92-.35-1.41.03-.66.03-1.29-.46-1.83-.18-.2-.22-.5-.1-.78Z"/><path class="cls-1" d="m14.65,77.06c.17.05.2.21.27.34.29.57.67.99,1.4.91.33-.04.61.06.61.48,0,.32-.05.6-.48.34-.22-.13-.51-.29-.62.04-.1.31.26.4.48.46.36.1.74.16,1.11.18.41.03.66.2.77.59-.65-.22-1.28-.52-2-.48-.24.02-.54-.14-.58-.41-.11-.77-.6-1.35-.91-2.03-.06-.12-.17-.26-.04-.42Z"/><path class="cls-1" d="m132.33,82.04c.03-.4.21-.63.64-.57-.14.27-.32.5-.64.57Z"/><path class="cls-1" d="m130.81,82.19c.2-.37.41-.34.61,0-.2,0-.41,0-.61,0Z"/><path class="cls-1" d="m32.53,65.88c-.57,0-1.14.02-1.71,0-.47-.02-.77-.69-.57-1.24.05-.13.23-.26.01-.37-.14-.07-.28-.01-.4.11-.36.35-.74.67-1.1,1.02-.2.2-.42.35-.7.42-.2.05-.44.14-.57-.02-.13-.18.05-.39.18-.52.67-.69,1.53-1.2,1.79-2.24.07-.26.47,0,.53.14.24.52.8.58,1.16.92.16.15.36.2.56.09.15-.08.15-.25.11-.4-.06-.23-.23-.31-.45-.33-.1,0-.2-.01-.3,0-.27,0-.51-.04-.58-.35-.06-.3-.09-.6.2-.82.26-.2.5-.44.78-.57.22-.11.43-.49.71-.23.2.19.14.56.03.79-.42.93.12,1.72.33,2.55.08.33.51.55.95.39.18-.06.36-.11.42.14.06.26-.05.48-.31.51-.35.04-.7,0-1.06,0,0,.01,0,.02,0,.03Z"/><path class="cls-1" d="m26.66,64.95c.01.91-.07,1.03-.95.87-.55-.1-.97.36-1.51.19-.59-.18-1.2-.21-1.82-.26-.46-.03-.74.3-1.13.26-.22-.02-.49.1-.61-.17-.11-.26.11-.46.29-.55.78-.39,1.29-.96,1.55-1.82.11-.37.54-.11.68.07.62.74,1.53.9,2.33,1.28.32.15.59.19.69-.24.05-.19.05-.47.3-.44.27.03.13.33.17.51.02.1,0,.2,0,.3Z"/><path class="cls-1" d="m62.44,64.84c.28.15.58.31.89.46,1.02.51,2.04,1.01,3.13,1.39.26.09.58.22.45.58-.15.42-.54.3-.75.13-.62-.52-1.44-.6-2.12-.99-.43-.25-.95-.39-1.45-.5-.49-.11-.46-.47-.49-.8-.01-.15.13-.26.35-.26Z"/><path class="cls-1" d="m85.55,70.4c-.51.14-.92.2-1.27-.4-.14-.23-.7-.26-1.08-.3-.53-.06-1.12-.79-.98-1.3.06-.22.19-.31.38-.21.94.53,1.96.93,2.79,1.66.19.17.12.36.14.55h0Z"/><path class="cls-1" d="m112.55,73.09c-1.32.34-2.61.21-3.89-.15-.18-.05-.26-.16-.24-.33.04-.25.21-.19.4-.18,1.28.01,2.44.65,3.73.66Z"/><path class="cls-1" d="m80.2,67.7c.08-.38-.04-.62.2-.72.23-.1.36.11.51.22.29.22.7.28.89.64.13.25.16.49-.08.66-.19.14-.42.32-.66.06-.3-.33-1.04-.32-.87-.86Z"/><path class="cls-1" d="m25.28,62.27c-.19.37-.33.83-.54,1.24-.15.3-.55,0-.83-.07-.27-.07-.33-.31-.23-.55.23-.55.67-.86,1.25-.96.19-.04.35.05.34.34Z"/><path class="cls-1" d="m17.68,63.78c-.47-.09-.89-.07-.86-.63.02-.34.75-1.08,1.08-1.06.28.02.36.22.29.41-.15.44-.06,1.01-.51,1.28Z"/><path class="cls-1" d="m38.31,65.37c.03.5-.18.76-.77.56-.07-.02-.15-.03-.22-.06-.21-.12-.56.33-.63-.07-.05-.27.31-.47.57-.61.13-.07.29-.1.4-.19.14-.12.21-.38.47-.23.21.12.16.35.17.61Z"/><path class="cls-1" d="m91.3,63.6c.01.31.06.65-.43.6-.38-.04-.66-.25-.61-.62.05-.38.16-.95.58-.94.47.01.45.57.46.97Z"/><path class="cls-1" d="m81.49,65.32c.43.14.31.57.4.88.04.13.03.46-.21.33-.39-.22-.98-.37-1.03-.84-.04-.41.54-.16.83-.36Z"/><path class="cls-1" d="m115.95,73.63c-.98.21-1.86.03-2.78-.12.58-.36,2.08-.3,2.78.12Z"/><path class="cls-1" d="m97.07,67.1c-.22-.03-.48-.08-.72-.23-.16-.1-.43-.16-.29-.42.11-.21.36-.17.54-.1.26.09.49.23.73.36.11.06.19.18.15.31-.05.24-.22.14-.41.08Z"/><path class="cls-1" d="m85.06,66.13c-.24-.09-.46-.2-.4-.48.08-.34.3-.6.65-.65.25-.04.27.22.21.37-.11.28-.04.68-.46.76Z"/><path class="cls-1" d="m83.82,67.46c.02.18-.1.22-.23.21-.46,0-.75-.37-1.13-.55-.11-.06,0-.22.12-.29.24-.15,1.21.34,1.24.63Z"/><path class="cls-1" d="m56.88,61.04c-.23.23-.49.12-.72.12-.22,0-.38-.13-.41-.36-.03-.18,0-.37.18-.45.27-.11.31.15.44.28.14.15.33.26.51.4Z"/><path class="cls-1" d="m20.71,63.16c-.21-.03-.52.09-.54-.25-.02-.33.26-.39.53-.38.28.01.63.06.62.39-.02.36-.4.15-.61.23Z"/><path class="cls-1" d="m85.54,70.41c.28-.17.61-.4.85-.03.25.4-.13.61-.42.86-.14-.29-.28-.56-.42-.83,0,0,0,.01,0,.01Z"/><path class="cls-1" d="m57.99,61.12c0,.25.05.55-.28.6-.21.03-.33-.18-.28-.34.09-.26-.03-.69.32-.75.34-.06.18.31.24.49Z"/><path class="cls-1" d="m58.78,62.06c-.21,0-.34-.1-.31-.31.03-.27.18-.48.46-.49.21,0,.26.2.26.38,0,.27-.13.41-.4.42Z"/><path class="cls-1" d="m26.03,61.27c.26.39.59.61.42,1.05-.05.12-.22.23-.29.13-.2-.31-.36-.65-.13-1.18Z"/><path class="cls-1" d="m19.85,64.85c-.02.26-.03.53-.36.55-.15,0-.24-.11-.16-.25.13-.24-.05-.68.37-.71.23-.02.13.26.16.41Z"/><path class="cls-1" d="m72.22,69.49c.31.05.45.2.46.46,0,.18-.1.29-.28.26-.26-.05-.35-.28-.41-.49-.07-.24.16-.19.24-.23Z"/><path class="cls-1" d="m67.88,68c-.29,0-.47-.04-.49-.31-.02-.22.09-.33.31-.32.22,0,.4.1.43.33.04.24-.12.3-.25.3Z"/><path class="cls-1" d="m88.03,66.36c.11,0,.2.04.21.17,0,.11-.04.2-.16.21-.11,0-.2-.04-.21-.16,0-.11.04-.19.16-.21Z"/><path class="cls-3" d="m12.72,36.84c-.03-.5.08-.58.64-.5,1.02.14,2.11.19,3.05-.4.24-.15.48-.2.71-.15,1.3.28,2.57-.17,3.83-.29,1.14-.11,2.32-.24,3.45-.27,1.81-.05,3.62-.11,5.42-.19.36-.01.56.35,1.03.35.68,0,1.37-.11,2.09.02,1.78.31,3.62.33,5.42.55.9.11,1.82.19,2.66.61.15.07.33.1.5.11.56.03,1.07-.02,1.61.37.45.32,1.21.25,1.79.31.75.08,1.33.6,2.07.54.1,0,.25.09.3.19.21.37.45.55.84.21.05-.04.19-.06.2-.04.42.75,1.39.29,1.89.86.09.09.27.11.41.14.51.13,1.05.18,1.35.71.04.08.15.15.24.17,1.37.23,2.56.88,3.7,1.63.11.07.29.04.44.06.2.03.53.02.57.12.31.86,1.29.68,1.81,1.22.31.31.87.25,1.2.66.18.23.42.4.2.69-.22.29-.55.25-.81.06-1.92-1.33-4.12-2.13-6.16-3.25-1.34-.74-2.78-1.21-4.17-1.79-.59-.25-1.23-.5-1.92-.64-1.15-.24-2.33-.51-3.43-.91-.84-.3-1.67-.19-2.45-.37-1.29-.3-2.64-.15-3.9-.55-.55-.17-1.13.04-1.64-.16-1.57-.63-3.24-.48-4.83-.44-1.86.04-3.76-.28-5.6.32-.39.13-.84-.16-1.21-.17-1.44-.05-2.91-.28-4.34.13-.1.03-.19.1-.28.09-1.7-.17-3.31.53-5,.48-.38-.01-.77-.04-1.13.06-.54.15-.63-.09-.59-.52Z"/><path class="cls-3" d="m60.78,44.29c.11.05.29.08.37.19.64.84,1.71,1.02,2.53,1.58.98.68,1.99,1.39,3.05,1.97,1.18.65,2.29,1.37,3.32,2.25.33.29.85.35,1.19.72.23.25.5.52.25.82-.26.32-.72.15-.87-.09-.69-1.12-2.01-1.25-2.94-1.96-.74-.56-1.49-1.1-2.21-1.68-.31-.24-.6-.43-.98-.52-.12-.03-.3-.03-.34-.11-.62-1.19-2.04-1.32-2.91-2.21-.2-.21-.75-.09-.72-.67.01-.19.05-.28.27-.31Z"/><path class="cls-3" d="m24.8,52.49c.42-.21-.04-1.08.61-.92.65.16.4.94.41,1.37.03.75.09,1.6-.54,2.25-.28-.08-.21-.42-.38-.59-.33-.03-.24.42-.53.45-.19-.06-.25-.25-.25-.41-.02-.95-.14-1.9.09-2.84.04-.15-.02-.41.25-.37.2.03.22.25.23.43.01.21-.05.44.11.62Z"/><path class="cls-3" d="m34.09,51.59c.35.34.28.55.29.74,0,.58.21.95.86.78.35-.09.49.06.49.36.02.78,0,1.56,0,2.34,0,.15-.01.33-.21.33-.2,0-.24-.18-.22-.32.04-.35-.4-.58-.2-.99.1-.2-.09-.31-.3-.3-.19,0-.36.09-.37.3,0,.17.08.34.08.51,0,.29.12.65-.26.79-.36.13-.49-.28-.75-.41-.2-.1-.14-.27-.01-.36.78-.52.58-1.32.59-2.05,0-.51,0-1.03,0-1.72Z"/><path class="cls-3" d="m15.86,52.42c.23,0,.32.08.34.23.02.18-.25.49.17.5.29,0,.54-.1.61-.44.07-.31.25-.43.43-.1.22.41.45.17.68.07.21-.09.41-.42.62-.07.19.31-.03.72-.27.76-.73.12-.73.51-.58,1.07.03.12-.08.28-.12.43-.04.13-.1.25-.25.24-.15,0-.2-.12-.21-.26-.03-.3-.02-.66-.39-.73-.45-.09-.32.33-.41.56-.06.14-.18.17-.31.15-.18-.02-.26-.15-.25-.32.02-.35-.07-.63-.42-.8-.19-.09-.22-.35-.04-.43.4-.17-.01-.76.4-.85Z"/><path class="cls-3" d="m14.57,51.71c.23.88.22,1.63.58,2.29.02.04,0,.1,0,.15,0,.52-.03,1.16-.57,1.25-.62.09-.12-.67-.46-.93-.27.02-.29.38-.53.45-.36.1-.45.25-.19.57.1.12.1.29-.08.37-.11.05-.18-.02-.26-.1-.29-.32-.42-2.22-.15-2.56.21-.27.33,0,.47.11.27.2.43.69.81.57.33-.11-.02-.56.15-.86.17-.31-.04-.74.22-1.29Z"/><path class="cls-3" d="m47.52,52.96c.05,1.27.14,2.55.14,3.82,0,.53-1.08.98-1.52.69-.15-.1-.11-.27-.1-.42.01-.14.1-.26.24-.23.32.08.65.2.86-.18.21-.4.24-.91.05-1.24-.54-.9-.21-1.66.34-2.44Z"/><path class="cls-3" d="m26.56,59.16c.17.49.1.83.06,1.27q-.41-.58-.06-1.27Z"/><path class="cls-3" d="m58.36,55.94c.12.03.16.02.17.04.16.3.37.65.17.96-.16.25-.38,0-.33-.18.07-.27.01-.52,0-.82Z"/><path class="cls-3" d="m44.39,57.37c-.17-.04-.17-.2-.16-.34.01-.15.06-.32.24-.28.21.05.2.25.18.42-.02.13-.09.22-.26.2Z"/><path class="cls-1" d="m134.89,61.75c.02-.23-.05-.5.23-.52.24-.02.23.22.23.4,0,.22.04.52-.28.51-.26,0-.09-.29-.18-.39Z"/></g></svg>