<?xml version="1.0" encoding="UTF-8"?><svg id="Layer_2" xmlns="http://www.w3.org/2000/svg" width="300" height="200" viewBox="0 0 300 200"><defs><style>.cls-1{fill:#868b94;}.cls-1,.cls-2,.cls-3{stroke-width:0px;}.cls-2{fill:#cbccce;}.cls-3{fill:#3c3d42;}</style></defs><g id="Layer_2-2"><rect class="cls-2" width="300" height="200"/><path class="cls-1" d="m35.33,137.97c-.25-.06-.43-.25-.41-.48.14-1.78-.21-3.61-.68-5.2-.91-3.02.35-6.33-1.47-9.15-.25-.38-.23-.96-.24-1.46-.15-3.97-.62-7.93-.4-11.91.01-.2-.08-.34-.28-.4v-.54c1.01.07.74-.71.74-1.21.04-3.25.05-6.5.04-9.74,0-.82.05-1.62.34-2.39.7-.08,1.18.66,1.94.45,2.69-.76,5.5-.59,8.25-1.07,2.26-.4,4.67-.43,7.03-.46,1.6-.02,3.2.07,4.76.05,2.91-.03,5.85-.28,8.77-.38,1.91-.07,3.82-.17,5.76-.03,1.97.14,3.7,1.15,5.83.89,1.72-.21,3.66-.13,5.5.44,1.49.46,3.19.24,4.73.61,1.14.27,2.41.04,3.39.54,1.61.81,3.47.72,5,1.66.17.11.46.12.66.06,1.58-.48,3.09.27,4.28.84,2.94,1.41,6.25,1.83,9.06,3.55,1.02.63,2.19,1.05,3.29,1.5,2.48,1,4.9,2.06,7.09,3.6.18.12.41.28.6.25,1.08-.14,2.06.46,2.69,1,1.89,1.59,4.23,2.27,6.25,3.59,2.25,1.47,4.54,2.92,6.91,4.21,2.89,1.57,5.59,3.45,8.39,5.16,1.49.91,2.87,2.16,4.41,2.8,2.37.99,3.84,3.26,6.36,3.93.67.18.71,1.1.39,1.66-.29.5-1.02.4-1.29-.03-.71-1.09-1.78-1.34-2.91-1.64-.77-.2-1.59-.46-1.77-1.47-.05-.29-.34-.44-.64-.3-.65.31-1.05-.15-1.59-.35-1.15-.42-2.01-1.44-3.22-1.63-.8-.13-1.34-.34-1.59-1.18-.16-.55-.6-.95-1.26-.52-.63.41-.91.06-1.07-.49-.26-.88-1.23-1.67-1.69-1.49-1.65.62-1.76-.35-1.95-1.44-.04-.24-.16-.45-.39-.51-.29-.07-.34.2-.44.4-.36.72-.88.66-1.46.28-.75-.49-1-.13-.96.59.03.67-.22,1.23-.52,1.8-.24.46-.61.77-1.09.52-.55-.29-.17-.76.04-1.04.46-.6.14-.74-.23-1.28-.62-.91-1.87-.86-2.26-1.74-.4-.93-1.24-1.71-1.13-2.85.03-.27-.06-.58-.44-.54-.36.04-.41.38-.33.62.28.91-.16,1.78-.06,2.68.03.32.16.83-.34.89-.54.07-.32-.55-.56-.78-.05-.05-.16-.05-.23-.08-.39.15-.3.78-.84.81-.29-.5-.23-.94.13-1.36.15-.17.31-.33.48-.49,1.91-1.73-1.17-1.76-1.05-2.96.03-.27-.56-1.01-1.25-.48-.27.21-.55.3-.88.15-.63-.29-1.14-.2-1.48.47-.1.19-.26.43-.52.29-.12-.06-.22-.31-.2-.44.22-1.22-.87-2.08-.86-3.23,0-.25-.14-.46-.4-.44-.36.02-.41.32-.38.6.04.31.16.61.21.92.06.33-.07.66-.3.87-.42.39-.49-.17-.7-.32-.56-.37-.84-.2-.88.44-.03.49-.13.97-.75.9-.61-.07-.54-.6-.59-1.06-.12-1.12-.27-2.24-.41-3.35-.56.58-.35,1.21-.43,1.8-.04.34.17.83-.3.94-.58.14-.46-.39-.52-.71-.04-.24-.1-.47-.38-.47-.36,0-.4.3-.42.57-.01.27.02.55-.02.81-.05.31.21.84-.37.83-.37,0-.78-.47-.64-.74.59-1.15-.63-2.16-.17-3.26.14-.34.08-.65-.35-.7-.39-.05-.6.16-.61.55-.01.32-.01.63-.02.95-.02.54.03,1.27-.59,1.36-.71.1-.7-.65-.81-1.16-.02-.09-.02-.2-.07-.26-.29-.29.11-1.1-.59-1-.47.07-.32.66-.37,1.06-.04.37.21.99-.32,1.02-.64.04-.49-.61-.52-1.03-.09-1.09.17-2.2-.23-3.4-.62,1.38-.7,1.44-1.1.87-.14-.2-.08-.6-.49-.45-.28.11-.34.41-.34.69,0,.41,0,.82-.01,1.22-.02.34.1.85-.42.82-.5-.03-.35-.54-.38-.88-.09-.81.18-1.66-.27-2.5-.51.52-.04,1.49-1.03,1.7-.03-.42-.05-.77-.08-1.12-.02-.37-.06-.79-.53-.79-.48,0-.5.42-.54.79-.06.55.15,1.14-.24,1.76-.15-.2-.25-.29-.28-.39-.34-1.14.07-2.83-2.04-2.66-.3.02-.42-.41-.45-.75-.03-.31.14-.72-.47-.91-.11,3.11-.22,6.15-.31,9.18-.01.39.2.74.59.82.34.07.38-.29.48-.54.32-.81.8-.75,1.34-.23.26.25.56.48.77.77.73,1.01,2.19.17,2.91,1.16,1.01-1.08,1.13-.21,1.31.58.08.34.39.32.66.34.37.03.87.09.74.55-.13.46-.58.2-.91.09-3.3-1.09-6.62-2.14-10.03-2.78-1.2-.23-2.34-.64-3.6-.72-1.93-.13-1.91-.3-1.91-2.46,0-1.84,0-3.68-.01-5.53,0-.31.14-.71-.34-.97-.28.46-.18.91-.19,1.34-.01,1.95,0,3.9,0,5.85,0,.55-.05,1.28-.67,1.28-.74,0-.35-.76-.42-1.2-.11-.68.23-1.45-.32-2.13-.67.9.48,2.38-.9,2.79-1.01.3-2.15.13-3.22-.17-.31-.09-.62-.07-.81-.39-.09-.15-.23-.33-.44-.23-1.2.61-2.41.08-3.62.1-1.21.03-2.38-.22-3.62-.12-1.54.13-3.28-.02-4.69-.41-2-.55-3.98-.12-5.97-.59-1.28-.3-3.01-.04-4.53.09-.48.04-1.16.55-1.3-.35-.11-.76-.05-1.71.69-2.06,1.37-.66,1.07-1.85,1.07-2.88,0-.55-.13-1.15-.18-1.73-.05-.54.27-1.56-.29-1.54-.93.05-.18.91-.24,1.42-.01.09,0,.18,0,.27-.03.33-.1.69-.5.68-.37,0-.31-.38-.33-.63-.04-.48.02-1-.71-1.35-.1,1.08-.37,2.11-.23,3.07.22,1.5.04,2.98.13,4.47.02.37-.03.82-.51.8-.85-.03-1.75.32-2.53-.17-.45-.28-.75-.25-1.06.09-1.03,1.11-2.41.61-3.62.72-1.29.12-2.63-.02-3.95.05-2.26.13-4.53.39-6.77.24-2.06-.14-4,.43-6.02.51-.39.02-1.13.2-1.11.8.02.63.62.79,1.2.87,2.46.36,4.91.45,7.4.28,3.5-.25,7.02-.3,10.52-.62,4.9-.44,9.8-.23,14.69-.18,3.93.04,7.85.52,11.78.73,3.48.18,6.92.69,10.37,1.15,2.46.33,4.91.8,7.34,1.27,2.54.48,5.07,1.18,7.59,1.9,3.77,1.09,7.46,2.38,11.13,3.77,3.03,1.15,6.07,2.28,9.07,3.5,1.37.55,2.82,1.09,3.95,1.99,1.38,1.09,3.03,1.76,4.52,2.28,2.26.79,4.15,2.28,6.44,2.93.33.09,1.22.32.84.95-.39.65-1.11.42-1.65-.04-.34-.29-.61-.74-1.12-.69-.96.1-1.49-.58-2.22-.97-.88-.47-2.06-.37-2.66-1.43-.01-.02-.18,0-.25.05-.91.67-1.66.07-2.31-.41-1.01-.76-2.7-.24-3.29-1.76-.02-.05-.31-.07-.36-.01-.58.64-1.04-.03-1.56-.11-1.71-.26-2.91-2.04-4.88-1.61-.3.07-.62-.32-.74-.7-.29-.95-.69-.79-1.16-.11-.48.68-.81.58-1.08-.19-.26-.76-.62-.76-1.11-.1-.6.81-1.02.56-1.24-.32-.13-.49-.28-.97-.45-1.56-.22.24-.33.32-.39.43-.47.89-.85,1.5-1.5.06-.21-.46-.72-1.05-1.49-.95-1.13.15-2.28.4-3.16-.66-.19-.22-.43-.21-.73-.1-1.41.49-2.62.03-3.18-1.23-.21-.46-.35-.78-.83-.33-.19.18-.35.25-.59.11-1.8-.99-3.94-.7-5.82-1.79.02.72.92.67.59,1.29-.24.46-.62.47-1.05.3-.26-.1-.4.06-.56.24-.64.72-.9.3-1.05-.37-.19-.87-.63-1.25-1.56-.91-.32.12-.72.1-1.08.08-1.49-.08-1.56-.02-1.73,1.55-.04.33-.07.72-.44.74-.47.03-.34-.42-.39-.71-.14-.86.68-2.35-1.31-2.04-.09.01-.22-.26-.34-.4-.22-.25-.42-.23-.69-.02-1.14.87-1.98.68-2.54-.55-.1-.22-.14-.45-.42-.43-.32.02-.31.25-.25.49.15.56-.18.75-.65.79-.4.03-.75-.14-.81-.55-.1-.59-.25-1.12-.98-1.01-.59.09-1.15.32-1.23,1.06-.04.33-.14.66-.53.68-.4.02-.55-.31-.55-.64,0-1.21-1.03-1.1-1.65-1.06-1.33.07-2.64.4-4,.27-.46-.05-.59.31-.66.7-.06.32.17.73-.26.94-.42-.17-.13-1.29-.92-.77-.59.39-.62.11-.81-.3-.17-.38-.58-.49-.93-.38-.79.23-1.48.27-2.09-.42-.14-.15-.59-.23-.76-.12-1.08.69-1.87-.05-2.66-.55-.48-.3-.84-.31-1.21.02-.61.55-1.04,1.63-2.1.56-.15-.15-.42.07-.55.27-.77,1.23-1.44,1.08-2.05-.14-.18-.36-.37-.79-.89-.66-.48.12-.82.47-.81.97.03,1.08-.56.79-1.12.54-.47-.21-.91-.8-1.46-.31-1.06.95-1.76.34-2.48-.44-.2-.22-.43-.61-.77-.38-.34.23-.24.67-.1,1,.1.24.32.43.49.64.2.24.25.48,0,.71-.22.21-.5.26-.74.07-1-.78-1.92-1.66-3.11-2.21-.54-.25-1.43-.79-2.01-.65-.13.03-.28,0-.41.03-1.28.34-2.4,1.08-3.68,1.46-.45.14-.55.27-.9-.11-1-1.08-1.8-1.03-2.73.21-.39.52-.63.73-1.12.16-.37-.43-.9-.64-1.26-.08-.53.83-1.03,1.74-.7,2.79.21.68.55,1.4,1.4.59.65-.62,1.29-.34,1.87-.02.43.23.48.88-.07.86-1.61-.06-1.46,1.45-2.14,2.19-.38.42-.42.99.11,1.45.53.46,1.05.42,1.62.09,1-.59,1.57-1.59,2.35-2.39.29-.3.05-1.46.78-.86.5.41,1.11.01,1.47.61.48.81,1.32,1.18,2.26,1.19.72.01,1.24.13,1.26,1.02.01.76-.09,1.34-.99,1.49-.84.14-1.65.38-2.53.23-.63-.1-1.19-.13-1.08-.99.03-.21.02-.49-.27-.55-.34-.07-.52.19-.54.46-.06.82-.55.99-1.28,1.06-.62.06-1.23.29-1.88.25-.28-.02-.57-.02-.67.31-.07.25.12.39.29.55.53.49,1.07.98,1.56,1.51.51.57,1.12.78,1.83.63,2.5-.54,5.06-.31,7.58-.47,6.95-.43,13.91-.15,20.87-.11,4.84.03,9.64.64,14.46.81,6.28.22,12.4,1.43,18.54,2.57.04,0,.06.14.15.35-.61.21-1.24.19-1.84.12-1.52-.16-3.02-.43-4.54-.56-2.77-.23-5.55-.39-8.32-.56-1.69-.11-3.39-.17-5.08-.27-1.2-.07-2.46-.35-3.56-.32-2.23.05-4.48-.47-6.65-.05-1.5.29-3.36-1.33-4.52.77-.01.02-.2,0-.24-.04-1.32-1.45-3.09-.66-4.64-.89-.96-.14-1.8.91-2.74.51-1.38-.59-2.66.14-3.98.11-.21,0-.48.18-.64-.01-.92-1.12-2.23.27-3.19-.52-2.5.95-5.08.05-7.59.38-1.34.18-2.87-.39-4,.79-.77.81-1.36.9-2.03-.16-.34-.54-.79-1.02-1.29.14-.49,1.15-.43,2.28-.5,3.43Zm19.34-29.26c.55-.05.39-.85.95-.84.41.26.19,1.02.76,1.06,1.35-1.75.91-3.69.81-5.6-.03-.48-.08-.98-.68-.97-.6,0-.64.51-.67.98-.02.27.14.68-.38.69-.27-.32-.15-.69-.18-1.04-.03-.36-.01-.81-.5-.8-.44,0-.29.49-.37.76-.38,1.23-.16,2.51-.19,3.76-.02.69-.18,1.45.46,1.99Zm-16.27-2.87c.43.59,1.3.85,1.1,1.77-.07.32.07.63.5.65.41.02.55-.23.57-.59.06-.79.44-.96,1.04-.46.28.23.32.63.33,1,0,.28.06.56.43.55.28,0,.35-.25.4-.47.08-.3.29-.66.2-.9-.35-.99-.12-1.47.97-1.69.5-.1.86-.78.59-1.33-.37-.78-.79-.09-1.2.08-.35.14-.76.54-1.07.03-.53-.9-.72-.59-.94.17-.15.5-.63.65-1.09.61-.64-.05-.3-.5-.27-.82.02-.26-.1-.45-.36-.48-.16-.02-.49.09-.49.1.11.72-.31,1.24-.73,1.77Zm-2.02,1.57c.06.42.09.59.12.76.07.41-.2,1.01.4,1.16.67.17.75-.5,1-.9.26-.41.31-.88.21-1.31-.33-1.38-.77-2.73-1.06-4.13-.43.58-.12,1.25-.32,1.8-.22.59.15,1.53-.26,1.71-.73.33-1.02-.67-1.56-1.03-.26-.17-.66-.72-.81-.1-.33,1.45-.49,2.94.19,4.37.14.29.3.5.6.33.29-.16.24-.48.05-.7-.45-.51-.24-.71.31-.95.38-.16.65-.57,1.13-1.02Zm60.56-2.46c-.19-.01-.37-.02-.56-.04-.71,1.39-1.18,2.68-.36,4.34.78,1.56.09,2.49-1.51,2.61-.26.02-.44.09-.49.35-.05.26-.13.69.11.74.58.14,1.24.27,1.8.12.56-.15.97-.81.98-1.35.08-2.26.03-4.52.03-6.78Zm-22.03,6.14c.47-.28.53-.67.53-1.07,0-1.26,0-2.51,0-3.77,0-.42-.05-.92-.61-.83-.49.08-.54.6-.44.99.16.66.02,1.34.1,1.95.11.88-.05,1.86.42,2.73Zm7.82.52c.31-.75.46-1.2.67-1.62.14-.28.18-.49-.07-.71-.19-.16-.41-.2-.62-.1-.27.11-.45.34-.4.63.09.51.23,1.01.41,1.8Zm-24.08,6.82c.21-.9.36-1.53-.06-2.23-.6.71-.57,1.33.06,2.23Zm57.66-8.12c-.13.5.05.97-.16,1.44-.1.22.12.45.36.47.3.03.34-.22.36-.45.04-.56-.21-1.02-.56-1.46Zm-25.21,2.55c.37-.04.42-.3.4-.59-.02-.27-.08-.58-.43-.55-.25.02-.33.28-.34.52-.01.28.01.55.37.62Z"/><path class="cls-1" d="m34.78,57.65c-.7-.32-.32-.94-.37-1.42-.15-1.6,1.01-2.85,1.26-4.36.08-.49.86-.53,1.42-.6,12.18-1.66,24.43-1.18,36.67-1.04,2.67.03,5.39.55,8.01,1.25.35.09.7.25,1.05.24,3.98-.22,7.68,1.04,11.44,2.04,4.02,1.07,7.89,2.6,11.66,4.23,3.7,1.6,7.34,3.4,10.96,5.24,3.67,1.87,6.95,4.36,10.65,6.17.64.31,1.2.46,1.93.18,3.53-1.38,6.84-3.19,10.17-4.99,2.33-1.26,4.52-2.79,7.08-3.61,1.14-.36,2.01-1.2,3.02-1.79,4.09-2.4,8.49-4.12,12.73-6.2,2.39-1.17,4.93-2.04,7.32-3.22,3.53-1.73,7.37-2.62,10.97-4.16,1.83-.78,3.93-.94,5.89-1.45,2.74-.7,5.6-.93,8.17-2.23.7-.36,1.45-.49,2.24-.49,8.45.03,16.89.06,25.34.06,1.33,0,2.57.44,3.88.59,3.32.36,6.69.58,9.93,1.17,2.59.47,5.25.62,7.81,1.35.95.27,1.21.83,1.43,1.71.83,3.26.19,6.6.65,9.84.51,3.62,0,7.27.57,10.8,1.07,6.66.65,13.35,1.09,20,.23,3.47.36,6.93.47,10.4.01.39.19.79.33,1.17.66,1.77.79,3.59.74,5.47-.08,2.77,2.07,4.71,4.84,4.89,3.73.24,7.49-.46,11.21.47,1.59.39,2.05.66,2.24,2.29.15,1.38.4,2.75.6,4.12-.79.41-2.23-1.06-2.52.85,0,.02-.08.03-.12.04-1.84.41-3.73-.32-5.65.41-.69.26-1.55.22-2.16.87-.2.21-.58.58-.72.07-.43-1.58-1.81-1.01-2.65-1-2.3.02-4.56.89-6.91.32-.18-.04-.51.07-.6.21-.47.71-.8.35-1.29,0-.87-.64-1.7-.92-2.65.13-.58.64-1.6.88-2.54.87-1.93-.01-3.9-1.02-5.77.31-.19.13-.61-.04-.91-.1-.81-.16-1.65-.25-2.42,0-.79.25-1.62.18-2.31.34-1.1.27-2.05.99-3.2.2-.03-.02-.16.08-.22.14-.48.43-.84.22-1.31-.09-1.6-1.06-2.63-.68-3.29,1.13-.05.13-.14.23-.35.15-.04-.08-.12-.2-.14-.31-.23-1.75-.36-1.83-1.94-1.27-.12.04-.29.09-.39.04-1.19-.68-2.6-.25-3.82-.78-1.2-.51-2.76.85-3.8-.69-.04-.05-.4.12-.62.19-.21.07-.56.25-.62.17-1.17-1.28-1.1-.06-1.56.62-.6.89-.02,1.38.38,1.9.57.75.8-.46,1.38-.31.14.7.17,1.25-.84,1.17-.54-.04-1.1.04-1.63-.04-.69-.11-1.32-.34-.69-1.23.44-.63.37-1.41.43-2.09.12-1.37-1.09-1.03-1.89-1.15-.57-.09-.77.24-.7.71.1.66.14,1.38.46,1.95.6,1.07-.05,1.02-.76,1.03-1.42.02-2.65-.65-4.2-1.1,1.55-.3.19-1.57,1.02-2.16.52-.37.76-1.12.18-1.49-.53-.34-1.06.2-1.41.72-.34.5-.77,1.05-.42,1.61.81,1.32-.19,1.01-.86,1.04-1.42.08-2.64-.67-3.87-1.15-1.18-.47-2.45-.61-3.62-1.34-1.74-1.08-3.86-1.54-5.68-2.63-1.46-.88-3.24-1.07-4.68-2.09-.52-.36-.89-1.04-1.5-1.12-1.58-.2-2.45-1.61-3.93-2.06-1.58-.47-2.66-2.12-4.51-2.21-.26-.01-.52-.34-.74-.56-1.54-1.5-3.46-2.5-5.17-3.78-2.1-1.57-4.58-2.66-6.56-4.34-1.3-1.11-3.85-1.21-3.55-4-.47,1.28-1.11.83-1.69.45-2.57-1.69-4.95-3.66-7.68-5.12-2.07-1.11-3.89-2.62-5.74-4.08-2.52-2-4.88-4.19-7.78-5.71-1.58-.83-2.83-2.29-4.42-3.11-3.31-1.73-6.1-4.28-9.58-5.8-1.87-.82-3.6-2.04-5.49-2.94-2.42-1.15-4.86-2.26-7.28-3.43-3.08-1.5-6.36-2.57-9.67-3.52-.87-.25-1.86-.21-2.59-.64-1.52-.89-3.26-.87-4.87-1.36-2.54-.77-5.2-1.15-7.85-1.31-2.84-.17-5.59-.98-8.45-.95-.97,0-2.01.04-2.92-.12-2.23-.37-4.47-.13-6.69-.4-.71-.09-1.6-.48-2.11-.19-1.37.78-2.79.28-4.15.4-2.68.23-5.39.16-8.07.55-1.35.2-2.73-.02-4.09.48-.53.19-1.27-.23-2.09-.08-1.66.3-3.37,1.1-5.13.28-.46-.21-.88-.06-1.17.37Z"/><path class="cls-3" d="m35.33,137.97c.07-1.15.01-2.28.5-3.43.5-1.16.95-.68,1.29-.14.66,1.06,1.25.97,2.03.16,1.13-1.18,2.66-.61,4-.79,2.51-.33,5.1.57,7.59-.38.96.79,2.27-.6,3.19.52.16.19.42,0,.64.01,1.33.03,2.6-.7,3.98-.11.94.4,1.78-.65,2.74-.51,1.56.23,3.32-.56,4.64.89.05.05.23.07.24.04,1.16-2.11,3.02-.49,4.52-.77,2.17-.42,4.42.1,6.65.05,1.09-.03,2.36.25,3.56.32,1.69.1,3.39.17,5.08.27,2.77.17,5.55.33,8.32.56,1.52.12,3.02.4,4.54.56.6.06,1.23.09,1.84-.12-.08-.2-.1-.34-.15-.35-6.14-1.14-12.26-2.35-18.54-2.57-4.82-.17-9.63-.78-14.46-.81-6.96-.04-13.92-.32-20.87.11-2.52.15-5.08-.07-7.58.47-.71.15-1.32-.06-1.83-.63-.48-.54-1.02-1.02-1.56-1.51-.17-.16-.37-.3-.29-.55.1-.33.39-.33.67-.31.64.04,1.25-.19,1.88-.25.73-.07,1.22-.24,1.28-1.06.02-.27.2-.53.54-.46.29.06.3.34.27.55-.11.86.45.89,1.08.99.88.15,1.69-.1,2.53-.23.9-.14,1-.73.99-1.49-.02-.89-.54-1.01-1.26-1.02-.94-.01-1.78-.38-2.26-1.19-.36-.6-.97-.19-1.47-.61-.73-.6-.49.56-.78.86-.78.8-1.35,1.8-2.35,2.39-.56.33-1.09.37-1.62-.09-.53-.46-.49-1.02-.11-1.45.68-.74.54-2.25,2.14-2.19.56.02.5-.63.07-.86-.58-.32-1.22-.6-1.87.02-.84.81-1.19.09-1.4-.59-.32-1.05.17-1.96.7-2.79.36-.56.89-.34,1.26.08.49.57.73.36,1.12-.16.92-1.24,1.72-1.3,2.73-.21.35.38.45.25.9.11,1.28-.39,2.4-1.12,3.68-1.46.13-.03.28,0,.41-.03.59-.14,1.47.4,2.01.65,1.19.55,2.11,1.43,3.11,2.21.24.19.52.14.74-.07.25-.23.2-.47,0-.71-.17-.21-.4-.4-.49-.64-.13-.33-.23-.77.1-1,.34-.23.57.16.77.38.72.78,1.42,1.39,2.48.44.54-.49.99.1,1.46.31.56.26,1.15.54,1.12-.54-.01-.5.33-.85.81-.97.52-.13.71.3.89.66.61,1.22,1.27,1.37,2.05.14.13-.2.4-.43.55-.27,1.06,1.06,1.49,0,2.1-.56.37-.33.73-.33,1.21-.02.78.49,1.58,1.23,2.66.55.17-.11.62-.03.76.12.61.68,1.3.64,2.09.42.36-.1.76,0,.93.38.19.41.22.69.81.3.78-.52.49.61.92.77.43-.21.2-.63.26-.94.08-.39.2-.74.66-.7,1.35.13,2.67-.2,4-.27.63-.03,1.65-.15,1.65,1.06,0,.33.14.66.55.64.39-.02.49-.35.53-.68.08-.74.64-.96,1.23-1.06.73-.12.89.42.98,1.01.07.42.41.59.81.55.47-.04.79-.23.65-.79-.06-.24-.08-.47.25-.49.29-.02.33.21.42.43.55,1.24,1.4,1.42,2.54.55.27-.21.47-.23.69.02.12.14.25.41.34.4,2-.31,1.17,1.18,1.31,2.04.05.29-.08.74.39.71.37-.02.41-.41.44-.74.17-1.57.24-1.63,1.73-1.55.36.02.75.04,1.08-.08.93-.34,1.37.04,1.56.91.15.67.41,1.09,1.05.37.16-.18.3-.34.56-.24.43.17.8.15,1.05-.3.33-.62-.57-.57-.59-1.29,1.88,1.09,4.02.79,5.82,1.79.24.13.4.06.59-.11.48-.45.62-.13.83.33.56,1.26,1.78,1.73,3.18,1.23.3-.11.55-.12.73.1.88,1.06,2.03.81,3.16.66.77-.1,1.28.49,1.49.95.65,1.44,1.03.84,1.5-.06.06-.11.17-.19.39-.43.17.59.33,1.07.45,1.56.22.88.64,1.13,1.24.32.49-.67.84-.66,1.11.1.27.78.6.87,1.08.19.47-.68.87-.84,1.16.11.12.39.44.77.74.7,1.96-.43,3.16,1.35,4.88,1.61.52.08.98.74,1.56.11.06-.06.35-.04.36.01.59,1.52,2.27,1,3.29,1.76.65.48,1.4,1.08,2.31.41.06-.05.23-.08.25-.05.6,1.06,1.78.96,2.66,1.43.73.39,1.26,1.06,2.22.97.51-.05.78.4,1.12.69.54.46,1.25.69,1.65.04.38-.63-.51-.85-.84-.95-2.29-.65-4.18-2.14-6.44-2.93-1.49-.52-3.15-1.19-4.52-2.28-1.13-.9-2.58-1.44-3.95-1.99-3-1.21-6.04-2.35-9.07-3.5-3.66-1.39-7.35-2.68-11.13-3.77-2.51-.72-5.05-1.42-7.59-1.9-2.43-.46-4.88-.94-7.34-1.27-3.45-.46-6.89-.97-10.37-1.15-3.93-.21-7.85-.69-11.78-.73-4.89-.05-9.79-.27-14.69.18-3.5.32-7.02.37-10.52.62-2.48.18-4.94.08-7.4-.28-.58-.08-1.18-.24-1.2-.87-.02-.6.72-.79,1.11-.8,2.01-.08,3.96-.65,6.02-.51,2.24.15,4.52-.11,6.77-.24,1.32-.07,2.65.07,3.95-.05,1.2-.12,2.59.39,3.62-.72.31-.34.61-.37,1.06-.09.78.49,1.68.13,2.53.17.48.02.53-.43.51-.8-.09-1.49.08-2.97-.13-4.47-.14-.96.13-1.99.23-3.07.72.35.66.87.71,1.35.02.25-.05.62.33.63.4,0,.47-.35.5-.68,0-.09,0-.18,0-.27.06-.5-.69-1.37.24-1.42.55-.03.24.99.29,1.54.05.58.18,1.18.18,1.73,0,1.03.3,2.22-1.07,2.88-.74.35-.8,1.3-.69,2.06.13.9.82.39,1.3.35,1.52-.13,3.25-.4,4.53-.09,1.99.47,3.98.05,5.97.59,1.41.39,3.14.54,4.69.41,1.24-.1,2.41.14,3.62.12,1.21-.03,2.42.51,3.62-.1.2-.1.35.08.44.23.19.32.5.31.81.39,1.07.3,2.21.48,3.22.17,1.38-.41.22-1.89.9-2.79.54.68.2,1.44.32,2.13.07.43-.32,1.2.42,1.2.62,0,.67-.73.67-1.28,0-1.95,0-3.9,0-5.85,0-.43-.09-.88.19-1.34.47.26.33.66.34.97.02,1.84.02,3.68.01,5.53,0,2.16-.02,2.33,1.91,2.46,1.26.09,2.4.5,3.6.72,3.42.64,6.73,1.69,10.03,2.78.34.11.79.37.91-.09.13-.46-.38-.51-.74-.55-.27-.02-.58,0-.66-.34-.18-.79-.3-1.66-1.31-.58-.72-1-2.18-.15-2.91-1.16-.21-.29-.5-.52-.77-.77-.55-.52-1.03-.59-1.34.23-.1.25-.14.6-.48.54-.39-.08-.6-.43-.59-.82.09-3.03.2-6.07.31-9.18.61.19.44.61.47.91.04.34.15.78.45.75,2.11-.17,1.7,1.52,2.04,2.66.03.11.14.19.28.39.39-.62.18-1.21.24-1.76.04-.37.06-.79.54-.79.48,0,.51.42.53.79.02.35.05.71.08,1.12.99-.21.52-1.18,1.03-1.7.45.84.18,1.7.27,2.5.04.34-.12.85.38.88.53.03.41-.49.42-.82.02-.41,0-.82.01-1.22,0-.28.06-.58.34-.69.4-.15.35.25.49.45.4.57.47.51,1.1-.87.4,1.19.15,2.31.23,3.4.03.42-.12,1.08.52,1.03.53-.04.28-.65.32-1.02.05-.39-.11-.99.37-1.06.7-.1.29.71.59,1,.06.06.06.17.07.26.11.51.1,1.27.81,1.16.62-.09.57-.82.59-1.36.01-.32,0-.63.02-.95.02-.39.23-.59.61-.55.43.05.5.36.35.7-.46,1.11.76,2.11.17,3.26-.14.27.27.73.64.74.58.01.32-.52.37-.83.04-.27,0-.54.02-.81.01-.28.05-.57.42-.57.28,0,.34.23.38.47.06.32-.06.86.52.71.46-.12.25-.61.3-.94.08-.59-.13-1.23.43-1.8.14,1.12.29,2.23.41,3.35.05.45-.02.99.59,1.06.62.07.72-.41.75-.9.04-.64.32-.81.88-.44.22.15.29.7.7.32.23-.21.35-.54.3-.87-.05-.31-.17-.61-.21-.92-.04-.28.02-.58.38-.6.27-.02.41.2.4.44-.01,1.16,1.08,2.02.86,3.23-.03.14.08.38.2.44.26.14.42-.1.52-.29.35-.66.85-.75,1.48-.47.33.15.61.06.88-.15.69-.53,1.28.22,1.25.48-.13,1.2,2.96,1.23,1.05,2.96-.17.15-.33.32-.48.49-.36.42-.43.86-.13,1.36.54-.02.45-.66.84-.81.07.02.17.03.23.08.24.23.01.85.56.78.5-.07.38-.57.34-.89-.09-.9.34-1.78.06-2.68-.08-.25-.03-.58.33-.62.37-.04.46.26.44.54-.11,1.14.72,1.92,1.13,2.85.39.89,1.63.84,2.26,1.74.37.54.7.68.23,1.28-.21.28-.59.75-.04,1.04.48.25.84-.06,1.09-.52.3-.57.56-1.13.52-1.8-.04-.72.21-1.08.96-.59.58.38,1.1.45,1.46-.28.1-.2.15-.47.44-.4.23.05.35.27.39.51.19,1.08.3,2.06,1.95,1.44.46-.17,1.43.62,1.69,1.49.16.55.44.9,1.07.49.66-.43,1.09-.03,1.26.52.25.85.79,1.05,1.59,1.18,1.21.2,2.06,1.21,3.22,1.63.54.2.94.66,1.59.35.3-.15.59,0,.64.3.18,1,1,1.26,1.77,1.47,1.13.3,2.21.55,2.91,1.64.27.42,1,.52,1.29.03.32-.56.28-1.48-.39-1.66-2.52-.67-3.99-2.95-6.36-3.93-1.54-.64-2.92-1.89-4.41-2.8-2.8-1.71-5.5-3.59-8.39-5.16-2.37-1.29-4.66-2.74-6.91-4.21-2.02-1.31-4.37-2-6.25-3.59-.63-.53-1.61-1.13-2.69-1-.19.02-.42-.13-.6-.25-2.19-1.54-4.61-2.6-7.09-3.6-1.1-.44-2.27-.87-3.29-1.5-2.81-1.72-6.11-2.14-9.06-3.55-1.2-.57-2.71-1.33-4.28-.84-.2.06-.49.05-.66-.06-1.53-.94-3.39-.85-5-1.66-.98-.5-2.25-.27-3.39-.54-1.54-.37-3.24-.14-4.73-.61-1.84-.57-3.78-.65-5.5-.44-2.13.26-3.86-.75-5.83-.89-1.94-.13-3.85-.03-5.76.03-2.92.1-5.86.35-8.77.38-1.56.02-3.16-.07-4.76-.05-2.36.03-4.77.06-7.03.46-2.75.48-5.56.31-8.25,1.07-.75.21-1.24-.52-1.94-.45,0-.44-.01-.89-.02-1.33,2.68-.8,5.49-.55,8.23-.98,4.66-.73,9.44-.71,14.16-.97,2.22-.12,4.45-.22,6.68-.23,2.4-.02,4.8-.2,7.19.21,2.13.36,4.29.63,6.45.79,4.26.31,8.49.83,12.68,1.62,3.84.73,7.62,1.74,11.36,2.91,2.44.76,4.83,1.68,7.17,2.64,3.04,1.24,6.03,2.65,9.05,3.98,1.03.46,2.12.82,3.05,1.43.42.28.75.64,1.28.86,1.04.42,2.25.67,3.1,1.22,2.4,1.58,5.11,2.66,7.29,4.61.55.49,1.27,1.68,2.27-.06.04,2,.98,2.86,2.54,3.16.29.06.54.32.82.44,1.02.45,1.54.11,1.57-1,.03-1.56-.14-3.14.54-4.64.15-.34.19-.78.66-.66.43.11.46.51.32.9-.22.62-.35,1.31-.02,1.85.7,1.17.36,2.14-.31,3.13-.82,1.21-.49,2.03.86,2.51.47.17,1.1-.06,1.39.4,1.28,2,3.58,2.5,5.36,3.75.91.64,1.07.07,1.01-.72-.16-2.17.2-4.33.26-6.49,0-.26-.08-.6.26-.69.3-.08.49.18.65.4.39.54.4,1.1.31,1.79-.13.99.45,1.43,1.53,1.59,1.2.17.73-.61.8-1.06.08-.51.19-.7.78-.53,1.12.32,1.74,1.64,3.1,1.51.19-.02.47.4.63.67.23.36.61.5.89.74,1.21,1.03,3.01,1.15,3.93,2.6.21.34.66.44.99.65,1.07.69,2.72.62,3.12,2.25.04.14.29.37.37.34,1.33-.44,1.51,2.74,3.22,1.02.01-.01.1.03.12.06.6,1.05,1.85,1.11,2.76,1.5,1.58.68,2.68,2.04,4.38,2.59.85.27,2.16.33,2.66,1.34.46.92,1.43,1.25,2.08,1.26.9.01,1.47.4,2.2.71,1.46.62,2.8,1.53,4.48,1.7.73.07,1.57.52,2.06,1.07.47.53.52.86,1.55.92,2.12.12,4.42.44,6.13,2.1.19.18.46.53.67.34,1.18-1.05,2.25-.24,3.43.02,1.09.23,2.27-.07,3.38.35.24.09.55-.08.64-.38.06-.21-.09-.4-.27-.36-1.44.31-2.41-.86-3.66-1.14-1.61-.36-3.25-.73-4.77-1.35-2.8-1.14-5.65-2.16-8.4-3.46-3.24-1.53-6.46-3.11-9.72-4.62-2.65-1.23-5.14-2.82-7.66-4.32-2.56-1.52-5.08-3.1-7.58-4.7-.79-.51-1.44-1.26-2.24-1.74-2.12-1.26-4.25-2.48-6.3-3.86-2.1-1.42-4.09-2.98-6.19-4.39-2.39-1.6-4.46-3.65-6.98-5.07-.48-.27-.5-.74-.38-1.2.13-.49.49-.31.75-.14,1.25.85,2.65,1.44,3.8,2.5.68.63,1.2,1.77,2.21,1.72.83-.04,1.16.34,1.55.81.29.35.48.78.93.95,2.25.87,4.02,2.52,5.9,3.9,1.65,1.21,3.57,2.03,5.07,3.51.54.54,1.27,1.16,2.04,1.49,1.49.64,2.82,1.5,4.02,2.58.34.3.71.57,1.21.52.55-.06.98.18,1.3.6.55.71,1.41.97,2.12,1.45.39.27,1.11.41,1.34-.05.26-.51-.39-.97-.8-1.05-1.47-.3-1.39-1.26-1.18-2.34.06-.34.18-.61.55-.69.34-.07.47.18.62.41.16.26.27.66.67.53.46-.14.32-.6.33-.94.02-1.27,0-2.54.02-3.81,0-.32-.13-.84.45-.78.42.04.34.47.33.78-.01,1.58.03,3.15.24,4.73.12.85.37,1.19,1.24,1.21,1.56.03,1.57.07,1.14,1.61-.09.32-.05.54.21.69.29.16.84.19.83-.08-.06-1.1,1.26-1.92.59-3.11-.14-.25-.19-.55.14-.68.29-.12.55.05.67.32.09.2.12.44.11.66-.02,1.47-.57,2.93-.03,4.42.11.3-.16.61-.5.71-.41.12-.7,0-.83-.44-.12-.39-.37-.63-.82-.44-.25.11-.53.23-.51.56.03.43.36.57.73.69,1.05.32,1.78,1.22,2.84,1.55.38.12.59.69,1.17.41.61-.3.4-.84.43-1.31.07-1.48.19-2.98.35-4.44.11-.99.75-1.91-.04-2.88-.07-.09.01-.37.11-.49.13-.17.32-.07.47.04.57.42,1.07.94,1.89.94.32,0,.44.36.44.73,0,1.84.02,3.68.05,5.52,0,.29-.13.64.32.89.62-.55.59-1.25.39-1.94-.15-.51-.24-.97.17-1.39.63-.64.67-1.36.23-2.1-.27-.45-.19-.62.33-.71,1.49-.25,2.37.45,2.37,1.95,0,.63.09,1.29-.22,1.87-.99,1.85-.3,3.91-.75,5.83-.1.44.21.7.56.81.4.12.45-.25.41-.51-.38-2.67,1.1-5.14.84-7.81-.03-.32-.24-.95.44-.88.56.05.53.46.5,1-.1,1.84-.58,3.67-.35,5.52.11.89.46,1.75-.25,2.56-.18.2-.13.55.13.73.17.12.42.25.61.21.35-.07.28-.44.25-.68-.17-1.46.22-2.87.3-4.32.06-1.16.3-2.31.48-3.47.06-.38.23-.72.71-.61.5.11.18.48.24.75.29,1.26-.13,2.49-.08,3.74.02.42.03.81.36,1.12.29.27.6.43.97.17.35-.24.27-.57.06-.83-.77-.96-.52-1.98-.39-3.08.16-1.4,1.03-1.28,1.8-.95.64.27,1.38.25,1.91.61,1.39.95,3.09.28,4.47.92,1.42.66,2.99.77,4.43,1,2.27.36,4.4,1.29,6.72,1.39,1.35.05,2.69.47,4.03.45,1.27-.02,2.42,1.68,3.77.25.04-.04.26.05.37.12.59.35,1.17.21,1.82.13,1.62-.21,3.29-.42,4.91-.29,2.66.21,5.31.46,7.99.42,2.18-.03,4.34-.46,6.48-.45,2.19,0,4.34-.4,6.52-.32,1.7.06,3.3-.63,4.96-.77,3.91-.32,7.78-.99,11.65-1.57,1-.15,1.28.33.93,1.01-.49.96-.38,1.93-.43,2.91-.02.35.15.84-.18,1.02-.94.52-.71,1.42-.89,2.21-.3,1.33-.81,2.62-1.02,3.97-.31,1.92-.74,2.44-2.7,2.69-.97.12-1.95.27-2.92.4,1.18.39,2.34.4,3.49.22.48-.07,1.04-.4,1.37.1.27.41.11.91-.09,1.41-.82,2.03-1.79,3.97-2.97,5.82-.14.22-.27.47-.34.72-.47,1.56-1.11,2.97-2.3,4.2-1.23,1.27-2.89,1.98-4,3.37-.8.03-1.6.06-2.39.09-.78-.11-1.1.3-1.15,1.02-.5.35-1.07.24-1.62.25-.38-.59-.75-.65-1.11.01-4.31.61-8.66.98-13.01.95-7.71-.06-15.44.52-23.13-.4-7.82-.94-15.73-1.05-23.46-2.72-2.86-.62-5.79-.42-8.69-.45-3.91-.04-7.63-.95-11.36-1.88-2.87-.71-5.76-1.41-8.7-1.35-3.11.07-6-.97-9.04-1.24-3.29-.3-6.56-.78-9.87-.8-5.81-.04-11.61.02-17.4.6-1.8.18-3.6.44-5.35.96-3.62,1.08-7.36,1.53-11.11,1.74-4.17.24-8.23,1.25-12.36,1.67-6.27.64-12.54,1.13-18.86,1.03-5.76-.09-11.53.03-17.29-.03-4.67-.05-9.3-.67-13.92-1.34-.2-.61-.58-.97-1.27-1.03-.71-.06-1.43-.17-2.13-.34-.4-.1-1.05-.27-.86-.82.2-.57.72-.3,1.12-.06.76.46.84-.05.86-.61.02-.75-.5-.92-1.09-.86-1.31.15-1.99-.62-2.52-1.64-.12-.23-.17-.53-.48-.61-.02-.14-.04-.29-.07-.43.03-.22.11-.45.07-.65-.41-1.99-.36-2.09,1.7-2.04.81.02.55-.32.35-.72-.51-1.02-1.13-1.87-2.35-2.16-.81-.19-.51-1.45-1.4-1.67-.02-.53-.04-1.05-.07-1.58.28-.27.14-.42-.14-.54.01-.16.02-.33.03-.49Zm130.04-1.69c.24.49.49.98.75,1.5.52-.44,1.22-.82.76-1.54-.42-.66-1.02-.25-1.53.06,0-.32-.09-.56-.32-.84-1.28-1.55-3.37-1.85-4.82-3.15-.41-.37-.81.01-.85.62-.05.97.85,1.91,1.89,2.05.64.09,1.6.16,1.83.57.6,1.1,1.37.98,2.28.73Zm-96.11-8.17c.67,0,1.26.02,1.85,0,.55-.03.84-.36.75-.9-.09-.55-.49-.42-.84-.27-.5.21-.89-.06-1.26-.31-.6-.41-1.58-3.84-1.22-4.49.38-.68.66-1.56.11-1.96-.52-.37-1.16.39-1.68.8-.21.17-.46.28-.67.45-.29.22-.62.43-.65.82-.08.85.03,1.57,1.18,1.5.54-.03,1.13-.04,1.29.68.05.23.04.49-.17.61-.55.32-.89-.1-1.32-.35-.7-.41-1.38-.77-1.87-1.48-.26-.38-.8-.77-1.08.26-.27,1.03-1,1.88-1.91,2.53-.51.37-.99.78-1.33,1.34-.33.55-.26.87.45.78.49-.06.98-.18,1.37-.53.71-.63,1.44-1.23,2.12-1.89.26-.25.47-.66.87-.46.57.29-.02.57-.1.85-.24.89.45,2.14,1.24,2.02,1-.15,1.97.28,2.87,0Zm-10.44-1.69c0-.14.02-.28,0-.41-.08-.33.18-.87-.24-.96-.56-.12-.51.46-.62.83-.16.56-.52.7-1.04.46-1.49-.69-3.17-.99-4.34-2.33-.29-.34-1.01-1-1.35.01-.46,1.35-1.21,2.37-2.55,2.95-.39.17-.86.58-.71,1.05.2.63.84.36,1.31.34.64-.03,1.14-.45,1.9-.43,1.09.03,2.13.13,3.14.45.99.3,1.75-.51,2.72-.35,1.69.27,1.82.09,1.79-1.63Zm97.31,3.68c-.33-.02-.52.09-.53.27-.03.66-.37,1.54.27,1.88.73.39,1.4,1.42,2.5.7.41-.27.59-.68.37-1.03-.62-1-1.9-1.1-2.61-1.82Zm58.2,11.01c-1.06-.15-1.76-.2-2.44-.34-1.57-.33-3.12-.74-4.73-.86-.23-.02-.47-.08-.57.19-.1.26.05.44.3.49,2.33.43,4.59,1.55,7.43.52Zm-158.6-20.11c-.67.25-1.3.42-1.75,1-.4.52-.94,1.06-.31,1.59.45.38,1.56.87,1.72.23.23-.9,1.2-1.62.78-2.67-.04-.1-.31-.11-.44-.15Zm-13.08,3.37c.81-.48.65-1.51.92-2.3.12-.35-.03-.72-.53-.75-.59-.04-1.92,1.29-1.95,1.91-.05,1.01.69.99,1.55,1.14Zm116.15,4.21c-.44-.34.19-1.53-.86-1.4-.57.08-1.79-.24-1.74.8.05,1.08,1.32,1.08,2.1,1.42.47.21.49-.36.51-.82Zm16.91-4.7c-.02-.5.04-1.5-.78-1.57-.79-.06-.98.98-1.08,1.65-.11.73.44,1.14,1.18,1.17.79.04.68-.54.68-1.25Zm-95.65,3.4c0-.86-.14-1.36-1-.75-.25.18-.58.23-.86.37-.49.24-1.12.62-1.05,1.1.11.72.74-.06,1.12.13.16.08.34.1.52.15,1.02.29,1.32-.22,1.28-1Zm139.62,14.68c-1.39-.76-2.83-.44-4.27-.29,1.4.59,2.82.76,4.27.29Zm-34.62-13.03c-.37.02-.66-.04-.82.27-.1.19-.03.37.11.48.67.5,1.46.68,2.26.78.19.02.3-.24.21-.4-.41-.72-1.23-.77-1.77-1.12Zm-24.43.83c-.44-.01-.94.16-.84.38.31.71,1.08.93,1.76,1.19.28.11.6-.09.5-.41-.22-.71-.92-.88-1.41-1.16Zm-47.18-10.26c-.16-.49-.8-.37-.96-.85-.1-.29-.31-.59-.7-.44-.28.11-.37.37-.36.66.01.4.18.72.6.77.47.06.96.19,1.42-.15Zm-65.35,3.77c.37-.14,1.06.24,1.09-.42.03-.61-.61-.69-1.11-.71-.48-.02-.98.1-.95.69.03.6.59.39.97.44Zm67.38-3.65c-.1-.32.17-.98-.42-.9-.64.09-.41.87-.59,1.33-.11.28.11.67.48.63.61-.08.5-.61.52-1.06Zm2.16.83c-.03-.24-.08-.62-.47-.62-.51,0-.78.4-.84.88-.05.38.18.57.56.57.5,0,.72-.28.74-.83Zm-59.9-.58c-.53.85-.18,1.47.11,2.08.09.18.34.11.45-.04.6-.83-.17-1.28-.56-2.04Zm-11.2,6.34c-.05-.26.09-.76-.38-.65-.61.14-.37.83-.56,1.25-.15.32.03.54.37.47.59-.11.54-.61.57-1.06Zm95.38,9.21c-.06-.47-.33-.73-.8-.74-.29,0-.59.08-.44.46.15.37.28.8.79.83.36.02.46-.23.45-.54Zm25.07-1.75c0-.43-.19-.67-.64-.63-.33.03-.49.24-.4.54.1.35.34.67.72.69.37.01.31-.35.32-.6Z"/><path class="cls-1" d="m253.38,156.11c1.1-1.38,2.76-2.1,4-3.37,1.19-1.23,1.83-2.64,2.3-4.2.08-.25.2-.49.34-.72,1.18-1.85,2.15-3.79,2.97-5.82.2-.5.36-1.01.09-1.41-.34-.5-.89-.18-1.37-.1-1.15.18-2.31.17-3.49-.22.97-.13,1.95-.27,2.92-.4,1.97-.25,2.4-.77,2.7-2.69.21-1.34.72-2.64,1.02-3.97.18-.79-.04-1.69.89-2.21.33-.18.16-.67.18-1.02.05-.98-.06-1.95.43-2.91.34-.68.06-1.16-.93-1.01-3.88.58-7.74,1.25-11.65,1.57-1.66.14-3.26.84-4.96.77-2.18-.08-4.33.33-6.52.32-2.14,0-4.3.42-6.48.45-2.68.04-5.33-.21-7.99-.42-1.62-.13-3.28.08-4.91.29-.65.08-1.23.22-1.82-.13-.11-.07-.33-.16-.37-.12-1.34,1.44-2.5-.27-3.77-.25-1.34.02-2.68-.4-4.03-.45-2.32-.09-4.45-1.03-6.72-1.39-1.44-.23-3.01-.34-4.43-1-1.38-.64-3.08.03-4.47-.92-.53-.36-1.27-.34-1.91-.61-.77-.33-1.64-.45-1.8.95-.13,1.1-.37,2.12.39,3.08.21.26.28.59-.06.83-.37.25-.68.1-.97-.17-.33-.31-.35-.71-.36-1.12-.05-1.25.37-2.48.08-3.74-.06-.26.26-.63-.24-.75-.49-.11-.65.23-.71.61-.18,1.15-.42,2.31-.48,3.47-.07,1.44-.47,2.86-.3,4.32.03.24.1.61-.25.68-.18.04-.44-.09-.61-.21-.25-.18-.3-.52-.13-.73.71-.81.36-1.67.25-2.56-.23-1.85.25-3.68.35-5.52.03-.54.06-.95-.5-1-.68-.07-.47.57-.44.88.26,2.66-1.22,5.13-.84,7.81.04.25-.01.62-.41.51-.35-.1-.66-.37-.56-.81.46-1.92-.24-3.98.75-5.83.31-.58.23-1.24.22-1.87,0-1.49-.88-2.2-2.37-1.95-.52.09-.6.26-.33.71.44.74.4,1.46-.23,2.1-.41.42-.32.88-.17,1.39.21.69.24,1.39-.39,1.94-.45-.24-.31-.6-.32-.89-.03-1.84-.05-3.68-.05-5.52,0-.37-.12-.73-.44-.73-.82,0-1.32-.51-1.89-.94-.15-.11-.34-.21-.47-.04-.1.13-.18.41-.11.49.79.98.15,1.89.04,2.88-.16,1.47-.27,2.96-.35,4.44-.02.47.19,1.01-.43,1.31-.57.28-.78-.29-1.17-.41-1.06-.33-1.8-1.22-2.84-1.55-.37-.11-.7-.25-.73-.69-.02-.33.26-.45.51-.56.45-.2.7.04.82.44.13.45.42.56.83.44.35-.1.61-.41.5-.71-.54-1.49,0-2.95.03-4.42,0-.22-.02-.46-.11-.66-.12-.27-.38-.43-.67-.32-.33.13-.28.43-.14.68.67,1.19-.65,2.01-.59,3.11.01.26-.54.24-.83.08-.27-.15-.3-.37-.21-.69.43-1.54.42-1.59-1.14-1.61-.87-.01-1.12-.36-1.24-1.21-.22-1.58-.26-3.15-.24-4.73,0-.3.08-.74-.33-.78-.58-.06-.44.46-.45.78-.02,1.27,0,2.54-.02,3.81,0,.34.13.79-.33.94-.4.13-.51-.27-.67-.53-.15-.24-.28-.48-.62-.41-.37.08-.48.35-.55.69-.21,1.08-.29,2.05,1.18,2.34.41.08,1.06.54.8,1.05-.23.46-.95.32-1.34.05-.7-.49-1.57-.74-2.12-1.45-.32-.42-.75-.65-1.3-.6-.51.05-.88-.21-1.21-.52-1.2-1.08-2.52-1.94-4.02-2.58-.77-.33-1.5-.95-2.04-1.49-1.5-1.49-3.42-2.3-5.07-3.51-1.88-1.38-3.66-3.03-5.9-3.9-.46-.18-.65-.61-.93-.95-.39-.47-.72-.85-1.55-.81-1,.05-1.53-1.09-2.21-1.72-1.15-1.06-2.55-1.65-3.8-2.5-.26-.18-.62-.35-.75.14-.12.45-.1.92.38,1.2,2.52,1.42,4.59,3.47,6.98,5.07,2.1,1.41,4.09,2.97,6.19,4.39,2.05,1.38,4.18,2.61,6.3,3.86.81.48,1.45,1.23,2.24,1.74,2.51,1.6,5.03,3.18,7.58,4.7,2.52,1.5,5.01,3.09,7.66,4.32,3.25,1.51,6.48,3.08,9.72,4.62,2.75,1.3,5.6,2.32,8.4,3.46,1.52.62,3.16.99,4.77,1.35,1.26.28,2.22,1.45,3.66,1.14.18-.04.34.15.27.36-.09.3-.4.47-.64.38-1.11-.42-2.29-.12-3.38-.35-1.17-.25-2.25-1.07-3.43-.02-.21.19-.48-.16-.67-.34-1.71-1.65-4.01-1.98-6.13-2.1-1.03-.06-1.07-.38-1.55-.92-.49-.55-1.33-1-2.06-1.07-1.67-.17-3.01-1.08-4.48-1.7-.72-.31-1.3-.7-2.2-.71-.64,0-1.62-.33-2.08-1.26-.5-1.01-1.81-1.07-2.66-1.34-1.7-.54-2.8-1.91-4.38-2.59-.91-.39-2.16-.45-2.76-1.5-.02-.03-.11-.07-.12-.06-1.72,1.71-1.89-1.47-3.22-1.02-.08.03-.34-.2-.37-.34-.4-1.63-2.05-1.56-3.12-2.25-.33-.21-.78-.31-.99-.65-.92-1.46-2.72-1.57-3.93-2.6-.28-.24-.66-.38-.89-.74-.17-.26-.44-.69-.63-.67-1.36.13-1.98-1.18-3.1-1.51-.59-.17-.7.02-.78.53-.07.45.4,1.23-.8,1.06-1.07-.15-1.66-.6-1.53-1.59.09-.68.08-1.24-.31-1.79-.15-.21-.34-.48-.65-.4-.34.09-.25.44-.26.69-.07,2.16-.43,4.32-.26,6.49.06.79-.1,1.36-1.01.72-1.79-1.25-4.09-1.75-5.36-3.75-.29-.46-.92-.23-1.39-.4-1.35-.48-1.68-1.3-.86-2.51.67-.99,1.01-1.96.31-3.13-.33-.54-.2-1.23.02-1.85.14-.39.1-.79-.32-.9-.48-.12-.51.32-.66.66-.68,1.5-.51,3.07-.54,4.64-.02,1.12-.55,1.45-1.57,1-.29-.13-.53-.38-.82-.44-1.56-.3-2.5-1.16-2.54-3.16-1.01,1.74-1.73.55-2.27.06-2.17-1.95-4.89-3.03-7.29-4.61-.84-.55-2.06-.8-3.1-1.22-.53-.21-.86-.58-1.28-.86-.93-.61-2.02-.98-3.05-1.43-3.01-1.33-6-2.74-9.05-3.98-2.34-.96-4.73-1.88-7.17-2.64-3.74-1.17-7.52-2.18-11.36-2.91-4.19-.8-8.42-1.31-12.68-1.62-2.16-.16-4.32-.43-6.45-.79-2.4-.41-4.8-.23-7.19-.21-2.23.02-4.45.11-6.68.23-4.73.26-9.51.24-14.16.97-2.74.43-5.55.19-8.23.98-.35-.66-.35-1.38-.43-2.1-.42-3.77.66-7.42.76-11.15.03-1.21-.22-2.43.21-3.62,1.02-.24,2.04-.36,3.09-.37,1.49-.02,3.03.04,4.46-.31,3.01-.73,6.08-.64,9.12-.97,2.86-.31,5.77.63,8.61-.26,1.41-.44,2.83-.19,4.24-.25,2.9-.13,5.85-.19,8.67.37,4.46.88,9.01.94,13.46,1.88,1.56.33,3.27.18,4.92.69,2.7.85,5.48,1.35,8.15,2.37,2.28.87,4.58,1.67,6.8,2.69,4.41,2.04,8.82,4.07,12.92,6.7.5.32,1.06.41,1.47-.11.4-.52-.02-.82-.35-1.24-.58-.74-1.6-.63-2.15-1.19-.94-.96-2.71-.65-3.27-2.19-.06-.17-.66-.15-1.02-.21-.27-.04-.59.02-.79-.12-2.07-1.34-4.19-2.52-6.67-2.93-.16-.03-.32-.17-.43-.3-1.26-1.41-3.1-1.54-4.74-2.04-1.02-.31-1.9-1.54-3.19-.71-.45-.88-1.44-.73-2.11-1.12-2.2-1.28-4.76-1.15-7.1-1.86-2.18-.66-4.55-1.2-6.89-1.5-2.66-.35-5.36-.19-8.03-.78-2.61-.57-5.43.45-7.99-.85-.09-.04-.29.03-.37.11-.51.53-1.57.19-1.81,1.22-.09.37-.54.25-.64-.17-.24-.98-1.29-1.11-1.79-1.02-1.39.26-2.7.53-4.13.13-.96-.28-1.93.34-2.87.39-1.54.08-3.18-.65-4.48.79-.1.11-.43.03-.64,0-3.22-.49-6.35-.08-9.47.81-1.15.33-2.47.23-3.68-.01-.69-.14-1.05-.1-1.08.68-.02.39.14.83-.28,1.13-.42-.62-.17-1.31-.2-1.96-.23-4.01.7-7.95.61-11.95-.02-.95.54-1.77.72-2.68.57.7,1.16,1.26,2.11.56.13-.09.35-.1.53-.09,2.24.24,4.38-.38,6.57-.66,1.64-.21,3.29-.5,4.93-.57,1.13-.05,2.31,0,3.45,0,3.39,0,6.77-.28,10.16-.4,1.84-.06,3.68-.12,5.52,0,2.47.16,4.94.56,7.39.77,4.4.39,8.76,1.04,13.09,1.85,2.4.45,4.73,1.21,7.12,1.74,1.58.35,3.14.83,4.54,1.55,2.39,1.24,5.05,1.69,7.46,2.96,2.86,1.52,5.92,2.68,8.7,4.39.95.59,1.9,1.22,2.93,1.62,1.94.76,3.58,2.02,5.39,3,1.22.67,2.35,1.51,3.51,2.3,1.08.74,2.65,1.05,3.33,1.91,1.4,1.77,3.39,2.53,5.07,3.8,1.91,1.44,3.88,2.8,5.83,4.19.65.47,1.7.67,1.18,1.88-.03.06.1.26.19.3.99.49,1.98.94,2.91,1.6,2.26,1.62,4.63,3.1,7.03,4.51,1.2.71,2.07,1.86,3.42,2.34.51.18,1.22.24,1.47.6,1.28,1.89,3.45,2.46,5.19,3.64,1.26.86,2.73,1.61,3.9,2.48,2.01,1.5,4.19,2.68,6.31,3.91,2.39,1.39,5.06,2.45,7.32,3.96,3.52,2.34,7.53,3.49,11.2,5.44,3.87,2.06,8.27,3.01,12.53,4.15,3.53.95,7.11,1.64,10.73,2.12,2.46.33,4.92.7,7.39.81,3.07.13,6.09.68,9.16.79,3.64.12,7.22-.64,10.85-.6,1.58.02,3.17-.13,4.74-.33,4.25-.56,8.55-.76,12.77-1.56,2.03-.38,4.13-.36,6.14-.9.6,2.4.13,4.88-.51,7.05-.81,2.74-1.33,5.55-2.23,8.25-.44,1.33-.11,2.8-.85,4.07-.96,1.65-1.44,3.57-2.75,5.03-.61.68-.64,1.58-.93,2.36-.61,1.64-1.75,2.66-3.16,3.53-.42.26-.77.63-1.13.98-.47.45-.96.8-1.66.58ZM120.54,89.32c-.38,0-.49.15-.52.57-.06,1.08.96.81,1.32,1.18,1.56,1.6,4.09,1.89,5.23,3.98.07.14.41.14.62.19.67.16,1.2.51,1.75.95,1.3,1.04,2.65,2.01,3.99,3,1.69,1.26,4.04,1.53,5.29,3.53.26.42,1.11.71,1.56.13.42-.55-.09-1.01-.48-1.48-.61-.75-1.63-.78-2.25-1.37-1.71-1.61-3.71-2.75-5.75-3.89-1.93-1.09-3.81-2.35-5.6-3.61-1.48-1.04-3.41-1.35-4.55-2.86-.12-.16-.39-.21-.61-.32Z"/><path class="cls-3" d="m266.6,124.27c-2.01.53-4.11.52-6.14.9-4.22.8-8.52,1-12.77,1.56-1.57.21-3.16.35-4.74.33-3.63-.04-7.2.72-10.85.6-3.07-.1-6.09-.66-9.16-.79-2.47-.1-4.93-.48-7.39-.81-3.62-.48-7.2-1.17-10.73-2.12-4.26-1.14-8.66-2.1-12.53-4.15-3.67-1.95-7.68-3.1-11.2-5.44-2.26-1.51-4.93-2.57-7.32-3.96-2.12-1.24-4.3-2.41-6.31-3.91-1.16-.87-2.63-1.62-3.9-2.48-1.74-1.18-3.91-1.76-5.19-3.64-.25-.37-.97-.42-1.47-.6-1.34-.48-2.21-1.64-3.42-2.34-2.4-1.41-4.77-2.89-7.03-4.51-.93-.66-1.92-1.11-2.91-1.6-.1-.05-.22-.24-.19-.3.52-1.21-.53-1.41-1.18-1.88-1.95-1.39-3.92-2.75-5.83-4.19-1.68-1.27-3.67-2.03-5.07-3.8-.68-.86-2.25-1.17-3.33-1.91-1.15-.79-2.28-1.64-3.51-2.3-1.81-.98-3.45-2.24-5.39-3-1.03-.4-1.98-1.03-2.93-1.62-2.78-1.72-5.83-2.88-8.7-4.39-2.4-1.27-5.06-1.72-7.46-2.96-1.4-.73-2.96-1.21-4.54-1.55-2.39-.52-4.72-1.29-7.12-1.74-4.33-.81-8.68-1.46-13.09-1.85-2.45-.22-4.92-.61-7.39-.77-1.83-.12-3.68-.06-5.52,0-3.39.12-6.77.4-10.16.4-1.14,0-2.32-.05-3.45,0-1.64.07-3.29.36-4.93.57-2.19.28-4.33.89-6.57.66-.17-.02-.4,0-.53.09-.95.7-1.55.13-2.11-.56,0-.84-.31-1.7.21-2.5.3-.42.72-.58,1.17-.37,1.75.83,3.47.03,5.13-.28.82-.15,1.56.27,2.09.08,1.36-.49,2.74-.28,4.09-.48,2.68-.39,5.39-.32,8.07-.55,1.37-.12,2.78.38,4.15-.4.51-.29,1.4.1,2.11.19,2.22.27,4.46.03,6.69.4.91.15,1.94.12,2.92.12,2.86-.03,5.61.78,8.45.95,2.65.16,5.32.54,7.85,1.31,1.61.49,3.35.47,4.87,1.36.74.43,1.72.39,2.59.64,3.31.96,6.59,2.03,9.67,3.52,2.41,1.17,4.86,2.28,7.28,3.43,1.89.9,3.62,2.13,5.49,2.94,3.48,1.52,6.26,4.07,9.58,5.8,1.58.83,2.83,2.29,4.42,3.11,2.9,1.51,5.26,3.71,7.78,5.71,1.84,1.46,3.66,2.96,5.74,4.08,2.73,1.47,5.11,3.43,7.68,5.12.58.38,1.22.83,1.69-.45-.29,2.79,2.25,2.89,3.55,4,1.98,1.69,4.46,2.77,6.56,4.34,1.71,1.28,3.62,2.28,5.17,3.78.22.22.48.55.74.56,1.85.08,2.93,1.73,4.51,2.21,1.48.44,2.35,1.86,3.93,2.06.61.08.98.75,1.5,1.12,1.44,1.01,3.22,1.21,4.68,2.09,1.82,1.09,3.94,1.54,5.68,2.63,1.17.73,2.44.87,3.62,1.34,1.23.48,2.44,1.23,3.87,1.15.68-.04,1.67.28.86-1.04-.34-.56.08-1.11.42-1.61.35-.52.88-1.06,1.41-.72.58.37.35,1.12-.18,1.49-.82.59.53,1.86-1.02,2.16,1.55.45,2.79,1.12,4.2,1.1.71-.01,1.36.04.76-1.03-.31-.56-.36-1.28-.46-1.95-.07-.47.13-.8.7-.71.8.12,2.01-.22,1.89,1.15-.06.68.01,1.46-.43,2.09-.63.89,0,1.12.69,1.23.53.08,1.09,0,1.63.04,1,.08.98-.48.84-1.17-.58-.16-.82,1.06-1.38.31-.4-.52-.98-1.01-.38-1.9.46-.68.39-1.9,1.56-.62.06.07.41-.11.62-.17.21-.07.58-.24.62-.19,1.04,1.55,2.61.18,3.8.69,1.23.52,2.64.1,3.82.78.09.05.26,0,.39-.04,1.59-.55,1.71-.47,1.94,1.27.02.12.1.23.14.31.21.08.3-.02.35-.15.66-1.82,1.69-2.2,3.29-1.13.47.32.84.52,1.31.09.07-.06.19-.16.22-.14,1.15.79,2.1.07,3.2-.2.69-.17,1.53-.09,2.31-.34.77-.25,1.61-.16,2.42,0,.31.06.72.24.91.1,1.88-1.33,3.85-.33,5.77-.31.93,0,1.96-.23,2.54-.87.95-1.05,1.78-.77,2.65-.13.49.36.82.72,1.29,0,.1-.15.42-.26.6-.21,2.35.58,4.61-.3,6.91-.32.85,0,2.22-.58,2.65,1,.14.51.53.13.72-.07.61-.64,1.46-.6,2.16-.87,1.92-.72,3.8,0,5.65-.41.04,0,.12-.02.12-.04.29-1.91,1.72-.44,2.52-.85-.85,1.9-.54,4.05-1.33,5.99-.31.74-.16,1.67-.22,2.52Zm-12.14-3.64c.09.29-.14.83.38.82.41,0,.45-.48.45-.84,0-.34.08-.82-.41-.82-.49,0-.38.49-.41.84Z"/><path class="cls-3" d="m33.44,76.75c.41-.3.26-.74.28-1.13.03-.78.4-.82,1.08-.68,1.21.24,2.52.34,3.68.01,3.12-.89,6.25-1.3,9.47-.81.21.03.54.11.64,0,1.31-1.44,2.94-.71,4.48-.79.95-.05,1.91-.67,2.87-.39,1.43.41,2.74.14,4.13-.13.5-.09,1.55.04,1.79,1.02.1.42.55.55.64.17.24-1.03,1.3-.69,1.81-1.22.08-.08.28-.15.37-.11,2.57,1.3,5.39.28,7.99.85,2.67.59,5.36.43,8.03.78,2.34.3,4.71.84,6.89,1.5,2.34.71,4.89.58,7.1,1.86.67.39,1.66.24,2.11,1.12,1.29-.83,2.17.4,3.19.71,1.64.5,3.48.63,4.74,2.04.12.13.28.27.43.3,2.47.41,4.6,1.59,6.67,2.93.2.13.53.07.79.12.35.06.96.04,1.02.21.56,1.54,2.32,1.23,3.27,2.19.56.57,1.57.46,2.15,1.19.33.42.75.73.35,1.24-.4.52-.97.43-1.47.11-4.1-2.64-8.52-4.66-12.92-6.7-2.22-1.03-4.52-1.82-6.8-2.69-2.67-1.02-5.45-1.53-8.15-2.37-1.64-.52-3.35-.36-4.92-.69-4.45-.95-9.01-1-13.46-1.88-2.81-.56-5.77-.5-8.67-.37-1.41.06-2.84-.19-4.24.25-2.84.89-5.75-.04-8.61.26-3.04.33-6.11.23-9.12.97-1.43.35-2.97.29-4.46.31-1.05.02-2.08.13-3.09.37-.02-.18-.04-.36-.06-.54Z"/><path class="cls-1" d="m37.2,148.25c.31.09.36.38.48.61.53,1.02,1.2,1.78,2.52,1.64.59-.07,1.11.1,1.09.86-.01.56-.09,1.08-.86.61-.4-.24-.92-.51-1.12.06-.19.56.46.72.86.82.69.18,1.41.28,2.13.34.69.06,1.07.42,1.27,1.03-1.22-.39-2.41-.92-3.75-.87-.37.01-.87-.27-.91-.7-.12-1.47-1.17-2.5-1.68-3.77-.08-.2-.22-.4-.03-.62Z"/><path class="cls-1" d="m35.51,140.58c.88.22.58,1.48,1.4,1.67,1.23.29,1.84,1.14,2.35,2.16.2.4.47.74-.35.72-2.06-.05-2.11.04-1.7,2.04.04.2-.05.43-.07.65-.6-.8-.67-1.74-.63-2.68.05-1.14.06-2.23-.78-3.16-.32-.35-.48-.87-.21-1.39Z"/><path class="cls-1" d="m249.84,157.22c.05-.71.37-1.13,1.15-1.02-.26.48-.57.9-1.15,1.02Z"/><path class="cls-1" d="m247.11,157.48c.36-.67.73-.61,1.11-.01-.37,0-.74,0-1.11.01Z"/><path class="cls-1" d="m35.3,138.46c.29.12.43.27.14.54-.15-.15-.53-.25-.14-.54Z"/><path class="cls-3" d="m54.67,108.71c-.64-.54-.48-1.3-.46-1.99.03-1.26-.18-2.53.19-3.76.08-.27-.07-.75.37-.76.48,0,.47.45.5.8.03.35-.09.73.18,1.04.52-.02.36-.43.38-.69.03-.48.07-.98.67-.98.6,0,.65.49.68.97.11,1.91.54,3.85-.81,5.6-.57-.04-.35-.8-.76-1.06-.56,0-.39.79-.95.84Z"/><path class="cls-3" d="m38.39,105.84c.42-.54.84-1.06.73-1.77,0-.01.32-.12.49-.1.26.03.38.21.36.48-.03.31-.37.77.27.82.47.04.95-.11,1.09-.61.22-.76.41-1.07.94-.17.3.51.72.11,1.07-.03.4-.16.82-.86,1.2-.08.26.55-.09,1.23-.59,1.33-1.09.22-1.32.7-.97,1.69.09.25-.12.6-.2.9-.06.22-.12.46-.4.47-.37.01-.42-.27-.43-.55-.01-.37-.05-.77-.33-1-.6-.49-.98-.33-1.04.46-.03.36-.16.61-.57.59-.43-.02-.57-.33-.5-.65.2-.92-.67-1.17-1.1-1.77Z"/><path class="cls-3" d="m36.37,107.41c-.48.45-.75.86-1.13,1.02-.55.24-.75.43-.31.95.19.22.24.54-.05.7-.3.17-.46-.04-.6-.33-.69-1.43-.53-2.92-.19-4.37.14-.62.55-.07.81.1.53.36.83,1.36,1.56,1.03.4-.18.03-1.12.26-1.71.21-.55-.11-1.22.32-1.8.29,1.41.73,2.76,1.06,4.13.1.43.05.9-.21,1.31-.25.4-.33,1.06-1,.9-.61-.15-.33-.74-.4-1.16-.03-.17-.05-.35-.12-.76Z"/><path class="cls-3" d="m96.93,104.95c0,2.26.04,4.52-.03,6.78-.02.54-.42,1.2-.98,1.35-.56.14-1.21.01-1.8-.12-.24-.05-.16-.48-.11-.74.05-.26.23-.33.49-.35,1.6-.12,2.29-1.05,1.51-2.61-.82-1.66-.35-2.95.36-4.34.19.01.37.02.56.04Z"/><path class="cls-3" d="m74.9,111.09c-.47-.88-.32-1.85-.42-2.73-.08-.61.07-1.29-.1-1.95-.1-.39-.05-.91.44-.99.55-.08.6.42.61.83.01,1.26.01,2.51,0,3.77,0,.4-.07.79-.53,1.07Z"/><path class="cls-3" d="m82.72,111.61c-.19-.79-.33-1.29-.41-1.8-.05-.29.13-.52.4-.63.22-.09.44-.06.62.1.25.21.21.43.07.71-.22.42-.37.88-.67,1.62Z"/><path class="cls-3" d="m58.64,118.44c-.63-.9-.66-1.52-.06-2.23.42.7.27,1.33.06,2.23Z"/><path class="cls-3" d="m116.3,110.32c.35.45.6.9.56,1.46-.02.23-.06.49-.36.45-.24-.03-.46-.25-.36-.47.21-.47.03-.95.16-1.44Z"/><path class="cls-3" d="m91.09,112.87c-.36-.06-.38-.33-.37-.62.01-.24.09-.5.34-.52.35-.03.41.28.43.55.02.29-.03.55-.4.59Z"/><path class="cls-1" d="m69.26,128.11c-.9.28-1.87-.16-2.87,0-.79.12-1.48-1.13-1.24-2.02.08-.28.67-.56.1-.85-.4-.21-.61.21-.87.46-.68.65-1.41,1.26-2.12,1.89-.39.35-.88.47-1.37.53-.71.09-.78-.23-.45-.78.33-.56.82-.97,1.33-1.34.9-.65,1.63-1.5,1.91-2.53.27-1.03.81-.64,1.08-.26.49.71,1.17,1.07,1.87,1.48.43.26.78.67,1.32.35.21-.12.22-.39.17-.61-.16-.73-.75-.71-1.29-.68-1.14.06-1.25-.65-1.18-1.5.04-.39.37-.61.65-.82.21-.16.46-.28.67-.45.52-.41,1.16-1.18,1.68-.8.55.4.27,1.27-.11,1.96-.36.64.62,4.08,1.22,4.49.37.25.76.52,1.26.31.35-.14.75-.28.84.27.09.54-.2.87-.75.9-.59.03-1.18,0-1.85,0Z"/><path class="cls-1" d="m58.82,126.42c.03,1.72-.1,1.9-1.79,1.63-.97-.16-1.73.65-2.72.35-1.01-.31-2.06-.41-3.14-.45-.76-.02-1.26.39-1.9.43-.47.02-1.1.29-1.31-.34-.15-.47.31-.88.71-1.05,1.35-.58,2.09-1.6,2.55-2.95.34-1.01,1.06-.35,1.35-.01,1.17,1.34,2.85,1.63,4.34,2.33.52.24.88.1,1.04-.46.1-.37.06-.95.62-.83.42.09.17.63.24.96.03.13,0,.27,0,.41Z"/><path class="cls-1" d="m165.37,136.28c-.91.25-1.68.37-2.28-.73-.22-.41-1.18-.48-1.83-.57-1.04-.14-1.95-1.08-1.89-2.05.03-.6.44-.98.85-.62,1.45,1.3,3.54,1.6,4.82,3.15.23.28.31.52.32.84v-.02Z"/><path class="cls-1" d="m156.13,130.1c.71.72,1.99.82,2.61,1.82.22.35.04.76-.37,1.03-1.1.72-1.76-.31-2.5-.7-.64-.34-.3-1.23-.27-1.88,0-.18.2-.28.53-.27Z"/><path class="cls-1" d="m214.33,141.11c-2.85,1.03-5.11-.09-7.43-.52-.26-.05-.4-.23-.3-.49.1-.27.34-.21.57-.19,1.61.12,3.16.54,4.73.86.68.14,1.38.2,2.44.34Z"/><path class="cls-1" d="m55.73,121c.13.04.4.05.44.15.42,1.05-.55,1.77-.78,2.67-.17.64-1.28.15-1.72-.23-.63-.54-.09-1.08.31-1.59.45-.59,1.08-.75,1.75-1Z"/><path class="cls-1" d="m42.66,124.37c-.86-.16-1.6-.14-1.55-1.14.03-.62,1.35-1.95,1.95-1.91.5.03.64.4.53.75-.27.8-.11,1.82-.92,2.3Z"/><path class="cls-1" d="m158.8,128.58c-.02.46-.03,1.03-.51.82-.78-.34-2.05-.34-2.1-1.42-.05-1.04,1.16-.72,1.74-.8,1.05-.14.42,1.06.86,1.4Z"/><path class="cls-1" d="m175.72,123.88c0,.72.12,1.29-.68,1.25-.75-.04-1.29-.44-1.18-1.17.1-.66.29-1.71,1.08-1.65.83.06.77,1.07.78,1.57Z"/><path class="cls-1" d="m80.07,127.28c.05.78-.26,1.29-1.28,1-.17-.05-.36-.07-.52-.15-.38-.19-1.01.59-1.12-.13-.07-.48.56-.85,1.05-1.1.28-.14.61-.19.86-.37.87-.62,1-.12,1,.75Z"/><path class="cls-1" d="m219.69,141.96c-1.45.47-2.87.29-4.27-.29,1.43-.15,2.88-.47,4.27.29Z"/><path class="cls-1" d="m185.07,128.93c.54.35,1.37.39,1.77,1.12.09.16-.02.43-.21.4-.8-.1-1.6-.27-2.26-.78-.14-.11-.21-.29-.11-.48.16-.3.45-.25.82-.27Z"/><path class="cls-1" d="m160.64,129.76c.49.27,1.19.45,1.41,1.16.1.33-.21.52-.5.41-.67-.26-1.45-.48-1.76-1.19-.1-.22.41-.39.84-.38Z"/><path class="cls-1" d="m113.46,119.49c-.46.34-.96.2-1.42.15-.41-.05-.59-.37-.6-.77,0-.29.08-.56.36-.66.39-.15.61.15.7.44.16.48.8.36.96.85Z"/><path class="cls-1" d="m48.11,123.26c-.39-.05-.94.16-.97-.44-.03-.59.47-.71.95-.69.5.02,1.14.1,1.11.71-.03.65-.72.28-1.09.42Z"/><path class="cls-1" d="m165.36,136.3c.5-.31,1.11-.72,1.53-.06.46.72-.24,1.1-.76,1.54-.26-.52-.51-1.01-.75-1.5,0,0-.01.02-.01.02Z"/><path class="cls-1" d="m115.49,119.61c-.02.45.09.98-.52,1.06-.37.05-.59-.34-.48-.63.18-.46-.05-1.24.59-1.33.59-.08.32.57.42.9Z"/><path class="cls-1" d="m117.65,120.44c-.02.55-.25.82-.74.83-.38,0-.61-.19-.56-.57.06-.48.33-.87.84-.88.38,0,.43.37.47.62Z"/><path class="cls-1" d="m57.75,119.86c.4.76,1.17,1.21.56,2.04-.11.15-.36.22-.45.04-.3-.6-.65-1.23-.11-2.08Z"/><path class="cls-1" d="m46.56,126.2c-.03.45.02.95-.57,1.06-.34.07-.52-.15-.37-.47.2-.42-.05-1.11.56-1.25.47-.11.33.39.38.65Z"/><path class="cls-1" d="m141.93,135.41c0,.32-.09.56-.45.54-.51-.03-.64-.46-.79-.83-.15-.38.14-.47.44-.46.48.01.75.28.8.74Z"/><path class="cls-1" d="m167.01,133.66c-.02.25.04.61-.33.6-.38-.01-.62-.33-.72-.69-.09-.31.07-.51.4-.54.45-.04.65.19.65.63Z"/><path class="cls-3" d="m120.54,89.32c.22.11.49.16.61.32,1.15,1.51,3.08,1.82,4.55,2.86,1.79,1.26,3.67,2.53,5.6,3.61,2.04,1.14,4.03,2.28,5.75,3.89.63.59,1.64.61,2.25,1.37.38.48.9.93.48,1.48-.45.59-1.3.29-1.56-.13-1.25-2-3.6-2.27-5.29-3.53-1.34-.99-2.69-1.97-3.99-3-.55-.44-1.08-.79-1.75-.95-.22-.05-.55-.05-.62-.19-1.14-2.09-3.68-2.38-5.23-3.98-.36-.37-1.38-.1-1.32-1.18.02-.42.14-.57.52-.57Z"/><path class="cls-1" d="m254.46,120.63c.03-.35-.08-.83.41-.84.49,0,.4.48.41.82,0,.36-.04.83-.45.84-.51,0-.28-.53-.38-.82Z"/></g></svg>