<?xml version="1.0" encoding="UTF-8"?><svg id="Layer_2" xmlns="http://www.w3.org/2000/svg" width="300" height="200" viewBox="0 0 300 200"><defs><style>.cls-1{letter-spacing:0em;}.cls-2{fill:#868b94;}.cls-2,.cls-3,.cls-4,.cls-5{stroke-width:0px;}.cls-3{fill:#cbccce;}.cls-6{letter-spacing:0em;}.cls-7{font-family:MyriadPro-Regular, 'Myriad Pro';font-size:30.4px;}.cls-8{letter-spacing:0em;}.cls-9{letter-spacing:0em;}.cls-4{fill:#3c3d42;}.cls-5{fill:#fdfdfd;}.cls-10{letter-spacing:0em;}.cls-11{letter-spacing:0em;}</style></defs><g id="Layer_2-2"><rect class="cls-3" width="300" height="200"/><path class="cls-5" d="m223.72,153.8c-17.41,0-34.81,0-52.22.01-.45,0-.56-.1-.56-.56.01-17.93.01-35.87,0-53.8,0-.45.1-.56.56-.56,34.81.01,69.63.01,104.44,0,.45,0,.56.1.56.56-.01,17.93-.01,35.87,0,53.8,0,.45-.1.56-.56.56-17.41-.01-34.81-.01-52.22-.01Zm51.86-17.94c.02-.34-.03-.71.09-1.01.35-.87.24-1.82.6-2.68-.09-.61-.2-1.22-.27-1.84-.09-.75-.28-.83-.99-1.02-1.68-.44-3.36-.12-5.04-.14-1.07,0-2.26-1-2.17-2.15.06-.81,0-1.6-.32-2.37-.11-.27-.13-.58-.13-.89.01-.82-.03-1.65-.01-2.47.02-.85-.28-1.66-.27-2.52.03-2.45.02-4.91-.26-7.35-.25-2.12-.2-4.26-.39-6.38-.12-1.37-.04-2.76-.44-4.1-.08-.28-.27-.41-.51-.45-1.42-.23-2.84-.51-4.28-.65-1.14-.11-2.28-.27-3.42-.42-1.5-.21-3-.36-4.51-.36-2.73-.01-5.45.06-8.18.06-.52,0-1.05.01-1.46.27-.8.5-1.73.55-2.58.75-1.46.35-2.94.57-4.36,1.07-.87.3-1.77.55-2.62.87-1.23.47-2.46,1-3.65,1.57-2.32,1.09-4.72,2.03-6.9,3.37-1.13.7-2.38,1.14-3.52,1.82-1.68,1-3.39,1.97-5.24,2.67-.45.17-.78.14-1.2-.06-1.62-.77-3.02-1.89-4.64-2.69-1.62-.8-3.23-1.62-4.87-2.33-1.71-.74-3.45-1.42-5.26-1.92-1.63-.45-3.24-.98-4.97-.89-.1,0-.2,0-.3-.03-2.02-.53-4.07-.7-6.16-.69-4.66,0-9.32-.11-13.96.52-.43.06-.73.17-.75.68,0,.35-.18.65-.32.96-.18.4-.25.81.05,1.2-.23.35-.09.74-.09,1.11-.11.44-.31.88-.31,1.31,0,1.76-.38,3.5-.29,5.27.01.27-.09.56.09.81,0,.08.02.16.03.24-.19.53-.08,1.07-.1,1.61-.06,1.72-.45,3.42-.28,5.15.03.26.01.52.14.76,0,.2,0,.4,0,.59-.05.19-.13.39-.14.58-.06,2.11-.07,4.21-.21,6.32-.13,2.09-.05,4.21.55,6.3.31,1.08.2,2.34.41,3.51.14.79.21,1.59.31,2.38.02.13.07.23.18.3,0,.23.02.47.03.7-.12.3,0,.55.17.78.21.26.3.55.28.89-.1,1.21.3,2.28,1.03,3.23,0,.06,0,.12.01.18.07.61.29.72,1.14.6.11.02.21.04.32.06.08.17.23.2.39.2.48.23,1,.23,1.51.3,1.64.23,3.28.41,4.93.43,2.57.03,5.13-.03,7.7.01,2.81.05,5.6-.17,8.39-.46,1.84-.19,3.65-.63,5.5-.74,1.65-.1,3.29-.3,4.89-.76.55-.16,1.11-.26,1.67-.35,1.11-.17,2.24-.21,3.37-.27,3.15-.18,6.29-.15,9.43.22,1.42.17,2.8.61,4.26.61,1.43,0,2.83.38,4.22.72,1.5.37,3.01.7,4.59.71,1.65,0,3.31.02,4.95.35,1.44.3,2.89.56,4.37.62.99.04,1.98.03,2.96.21,1.01.19,2.03.28,3.06.34,3.13.17,6.26.08,9.39.07,1.9,0,3.79-.15,5.67-.42h.49c.25-.01.5.04.72-.12.26-.05.4-.24.51-.45.36-.01.71-.03,1.07-.04.8.08,1.11-.68,1.67-1,.47-.26.81-.73,1-1.31.11-.33.12-.71.39-1,.59-.64.88-1.47,1.2-2.25.44-1.05.42-2.23.77-3.32.16-.49.08-1.12.36-1.5.58-.78.28-1.65.46-2.46.07-.21.06-.42,0-.63,0-.28.12-.55.04-.83Z"/><path class="cls-2" d="m172.38,106.28c-.3-.39-.23-.8-.05-1.2.14-.31.32-.62.32-.96.01-.51.32-.62.75-.68,4.64-.63,9.3-.51,13.96-.52,2.09,0,4.14.16,6.16.69.1.03.2.03.3.03,1.73-.1,3.34.44,4.97.89,1.81.49,3.55,1.18,5.26,1.92,1.65.71,3.26,1.54,4.87,2.33,1.61.8,3.02,1.91,4.64,2.69.41.2.75.23,1.2.06,1.84-.7,3.56-1.67,5.24-2.67,1.14-.68,2.39-1.12,3.52-1.82,2.18-1.35,4.58-2.28,6.9-3.37,1.2-.57,2.42-1.1,3.65-1.57.85-.32,1.75-.57,2.62-.87,1.43-.5,2.91-.72,4.36-1.07.85-.2,1.78-.25,2.58-.75.41-.26.94-.27,1.46-.27,2.73,0,5.45-.07,8.18-.06,1.51,0,3.01.16,4.51.36,1.13.15,2.27.31,3.42.42,1.43.14,2.85.42,4.28.65.24.04.43.18.51.45.4,1.34.32,2.73.44,4.1.18,2.12.14,4.26.39,6.38.28,2.44.29,4.9.26,7.35-.01.86.28,1.66.27,2.52-.02.82.02,1.65.01,2.47,0,.31.02.62.13.89.33.77.38,1.56.32,2.37-.09,1.15,1.11,2.15,2.17,2.15,1.68.01,3.36-.3,5.04.14.72.19.91.27.99,1.02.07.61.18,1.22.27,1.84-.35.18-.99-.47-1.12.38,0,0-.04.01-.06.02-.82.18-1.66-.14-2.51.18-.31.12-.69.1-.96.39-.09.09-.26.26-.32.03-.19-.71-.81-.45-1.18-.45-1.02,0-2.03.4-3.08.14-.08-.02-.23.03-.27.1-.21.32-.36.15-.57,0-.39-.28-.75-.4-1.18.06-.27.29-.73.39-1.18.38-.82,0-1.66-.46-2.46.13-.14.1-.31.02-.47-.02-.36-.09-.73-.12-1.08,0-.35.11-.73.07-1.03.15-.49.13-.92.43-1.42.09-.01,0-.07.03-.1.06-.21.19-.37.09-.58-.05-.71-.47-1.17-.3-1.47.51-.01.04-.08.06-.12.09-.16-.17-.04-.38-.12-.53-.13-.23-.26-.6-.6-.38-.26.17-.43.08-.67.07-.6-.02-1.15-.22-1.73-.28-.43-.04-.94.42-1.29-.22-.06-.1-.22-.02-.34.03-.11.05-.3.14-.33.1-.54-.59-.49,0-.69.28-.28.39,0,.61.17.85.25.33.36-.22.6-.14.09.33.07.56-.37.52-.24-.02-.49.02-.73-.02-.31-.05-.58-.16-.3-.55.2-.28.16-.63.19-.93.05-.61-.49-.45-.85-.51-.25-.04-.37.13-.3.32.11.29,0,.61.19.88.26.37.08.44-.27.45-.65.01-1.22-.28-1.96-.48.62-.19.17-.71.49-.98.22-.18.33-.5.07-.66-.24-.15-.47.1-.63.33-.15.22-.33.47-.18.72.36.6-.1.44-.39.46-.63.04-1.18-.29-1.72-.51-.53-.21-1.09-.3-1.61-.59-.84-.46-1.81-.73-2.65-1.22-.56-.33-1.24-.33-1.76-.79-.56-.5-1.27-.89-1.93-1.17-.97-.41-1.85-1.01-2.79-1.46-1.05-.5-1.99-1.34-2.96-2.06-1.06-.78-2.19-1.44-3.27-2.2-.48-.34-.74-.64-.82-1.31-.19.69-.49.37-.76.23-.72-.38-1.26-1-1.94-1.42-.84-.51-1.71-.99-2.52-1.55-.83-.57-1.66-1.16-2.44-1.77-.78-.61-1.49-1.29-2.38-1.79-1.05-.58-1.9-1.47-2.95-2.07-.57-.33-1.11-.74-1.68-1.04-.56-.29-.92-.98-1.68-.91-.07,0-.15-.13-.23-.18-.72-.41-1.41-.87-2.18-1.2-1.06-.45-2.09-.97-3.13-1.45-.61-.28-1.2-.65-1.84-.82-.94-.25-1.84-.64-2.78-.9-1.05-.3-2.12-.51-3.17-.82-1.13-.33-2.32-.5-3.5-.58-1.26-.08-2.49-.44-3.76-.42-.43,0-.89.02-1.3-.05-1.01-.17-2.03-.05-3.04-.18-.3-.04-.67-.2-.88-.09-.63.35-1.28.13-1.91.18-1.17.1-2.36.07-3.53.24-.6.09-1.22,0-1.82.21-.24.09-.57-.1-.93-.03-.74.14-1.5.49-2.28.12-.2-.1-.39-.02-.52.16Z"/><path class="cls-4" d="m174.2,148.32c0-.06,0-.12-.01-.18.17-.05.31-.19.51-.1.11.05.3.15.33-.08.02-.17-.16-.23-.3-.22-.69.05-.87-.47-1.08-.94-.1-.22-.12-.47-.18-.7-.19-.75-.07-.91.69-.87.09,0,.2.09.27-.01.09-.12-.02-.22-.08-.32-.23-.37-.37-.78-.92-.86-.41-.06-.33-.67-.72-.81,0-.23-.02-.47-.03-.7.09-.62-.17-1.23.13-1.87.26-.55.41-.52.69-.09.18.28.46.4.63.14.47-.68,1.23-.51,1.79-.53,1.52-.03,3.05.09,4.56-.17.14-.02.22.08.31.16.11.1.22.11.38.1.61-.03,1.2-.33,1.83-.06.21.09.47,0,.7-.12.38-.18.77-.18,1.16-.03.07.03.15.14.2.07.41-.51.73-.01,1.01.14.28.15.36.18.42-.16.04-.22.21-.29.41-.14.14.11.29.14.45.1.64-.16,1.31-.05,1.95-.04.97.01,1.97,0,2.94.18.85.15,1.71-.03,2.57.1.58.09,1.17.11,1.76.18.78.09,1.58.01,2.36.12.67.09,1.35.14,2.03.22.25.03.54.11.84-.23-1.25-.05-2.34-.51-3.48-.62-1.62-.15-3.22-.45-4.86-.51-2.75-.1-5.48-.46-8.24-.36-1.08.04-2.17-.1-3.25-.07-2.34.05-4.68.07-7.01.27-.9.08-1.51-.09-2.02-.78-.09-.12-.34-.15-.27-.35.08-.24.32-.1.47-.15.46-.15,1.16.12,1.27-.69,0-.04.13-.09.19-.09.1,0,.13.11.12.18-.07.44.22.49.54.51.39.03.75-.05,1.13-.13.43-.09.38-.4.37-.71,0-.33-.22-.39-.49-.39-.45,0-.79-.19-1.08-.53-.2-.23-.58-.12-.77-.38-.16.12-.12.35-.23.48-.33.37-.59.81-1.04,1.07-.4.23-.86.04-.89-.35-.02-.33.63-1.21.96-1.27.12-.02.26-.03.28-.18.02-.16-.08-.25-.23-.3-.21-.07-.4-.15-.63-.01-.53.32-.68.21-.74-.42-.03-.34.14-.57.26-.85.13-.33.36-.41.6-.16.27.28.38.2.58-.08.35-.49.75-.49,1.19-.05.07.07.16.24.2.17.31-.44.88-.18,1.24-.52.36-.35.92-.3,1.36-.53.2-.1.1.47.34.62.03.02.06.07.09.07.5,0,.7.49,1.07.7.17.1.31.32.52.11.2-.2-.01-.32-.12-.45-.15-.17-.22-.41-.08-.55.23-.22.32.11.46.21.23.16.41.52.75.26.32-.24.59-.27.92-.02.11.08.43.35.47-.11.02-.27.11-.49.38-.55.33-.07.4.26.5.44.23.42.42.4.69.05.13-.16.26-.43.52-.18.27.26.39.1.57-.11.22-.27.4-.5.84-.16.19.15.56.36,1.04.23.48-.12,1.08.28,1.66.27.04,0,.09.12.12.2.03.08.11.18.16.12.4-.42.42.14.58.27.21-.26-.08-.76.39-.75.6.01,1.19-.1,1.78-.13.24-.01.64-.07.72.35.03.18,0,.4.26.4.2,0,.21-.2.25-.36.08-.31.33-.4.6-.41.26-.01.33.17.36.39.03.22.17.32.38.3.18-.01.33-.08.3-.29-.02-.16-.06-.29.16-.29.19,0,.23.13.23.28,0,.29.1.45.45.37.2-.05.4.12.6-.19.22-.34.33.31.55.19.64-.34.43.2.46.45.03.18,0,.36,0,.54,0,.1.02.22.15.22.11,0,.18-.09.2-.2.05-.24,0-.48-.08-.71-.05-.13-.04-.29.1-.38.13-.08.24.01.32.09.29.29.65.2.97.12.26-.07.5-.04.56.18.13.47.21.44.74.36.76-.11.54-.29.32-.67.48-.03.87.25,1.3.39.42.13.94-.17,1.28.32.05.07.14,0,.21-.05.27-.24.3-.04.39.18.17.42.91.82,1.23.61.33-.21.53-.07.74.1.2.18.33.21.64.16.48-.08,1.09-.11,1.28.61.07.24.26.2.42.05.13-.12.1-.36.35-.42.06.19.13.37.17.56.09.43.25.63.59.18.21-.28.36-.22.46.06.14.4.29.39.51.07.09-.13.27-.33.37-.14.23.45.46.75,1,.43.03-.02.16.05.2.11.32.49.96.36,1.36.69.3.25.76-.02.95.12.37.28.65.65,1.19.54.44.74,1.49.13,1.93.88.06.1.23.02.34-.03.16-.07.26,0,.35.13.41.63,1.29.34,1.75.89.08.1.39.05.45-.16.06-.2-.16-.28-.29-.32-.57-.19-1.04-.6-1.6-.78-.36-.12-.6-.44-.96-.49-.73-.1-1.38-.49-1.95-.84-1.05-.64-2.17-1.08-3.28-1.56-1.57-.68-3.19-1.22-4.78-1.83-2.16-.82-4.39-1.46-6.65-1.89-1.47-.28-2.97-.53-4.46-.74-2.62-.37-5.26-.39-7.88-.62-1.76-.16-3.55-.02-5.33-.05-.9-.02-1.82.02-2.71.1-2.18.2-4.36.36-6.55.28-.26,0-.51-.09-.77-.14-.19-.04-.35-.16-.38-.35-.03-.21.19-.27.33-.3.58-.12,1.17-.22,1.75-.31.85-.13,1.7.13,2.57-.03.66-.12,1.36-.05,2.04-.12,1-.1,2.06.32,2.98-.38.15-.12.25,0,.37.06.59.24,1.31-.05,1.29-.57-.03-.59.18-1.18-.03-1.78-.11-.32-.04-.68.07-1.01.04-.11.01-.28.18-.25.13.02.16.16.18.29.03.19-.09.43.18.57.15-.3.05-.59.1-.86.02-.12.06-.25.22-.23.14.02.12.15.12.24-.02.46.09.92.1,1.38.01.43.09.94-.53,1.18-.28.11-.27.55-.27.87,0,.15.13.23.3.21,1.39-.15,2.77.05,4.15.05.16,0,.36-.05.48.03.39.27.79.19,1.19.07.17-.05.31-.06.43.09.15.18.37.19.56.15.82-.19,1.64.08,2.46.02.37-.02.77.02,1.11.11.57.16,1.13.22,1.71.24.36,0,.45-.14.45-.47,0-.22-.14-.51.16-.7.13.33.06.64.08.93.01.16-.09.43.17.44.25.01.28-.25.31-.45.02-.14,0-.28,0-.42,0-1.11,0-2.22.01-3.33,0-.13-.09-.33.13-.4.12.1.08.23.09.34.02.62,0,1.24.06,1.86.02.2-.12.7.45.54.19-.06.21.13.21.28,0,.16-.05.3-.24.25-.21-.05-.36-.06-.36.22,0,.32,0,.65,0,.97,0,.12.01.27.18.25.61-.07,1.15.23,1.73.32.77.12,1.55.25,2.27.52.91.34,1.88.48,2.77.88.06.03.16,0,.23-.03.03-.01.04-.14.03-.14-.44-.11-.68-.43-.87-.81-.03-.07-.13.05-.18.11-.07.08-.16.19-.24.12-.47-.39-1.24-.23-1.58-.87-.12-.23-.38-.22-.53.04-.07.12-.03.38-.27.31-.22-.07-.24-.29-.23-.51.04-1.12.07-2.23.12-3.35,0-.18-.08-.4.12-.58.23.21-.03.78.35.74.91-.09.63.66.85,1.05.05.09-.03.26.18.25.14-.24.05-.51.08-.76.02-.15.04-.3.22-.32.22-.02.23.16.26.33.03.18-.11.41.14.52.3-.15.14-.52.41-.72.07.41.06.82.07,1.23,0,.13.03.25.2.23.13-.01.15-.12.15-.23,0-.26,0-.53.03-.79.01-.13.18-.35.26-.18.45.93.36-.26.68-.08,0,.36-.02.77,0,1.18.01.24-.13.65.21.65.29,0,.11-.39.16-.6,0-.04,0-.08.01-.12.02-.1.07-.2.18-.21.14-.01.13.12.16.21.05.21.1.43.16.64.04.13.1.29.28.27.17-.02.22-.18.24-.31.04-.24.03-.48.05-.72,0-.13.04-.24.19-.26.1-.01.27.03.24.11-.22.47.21.89.1,1.33-.08.3-.05.61.24.64.33.03.13-.33.19-.51.01-.04,0-.08,0-.12,0-.14-.02-.32.17-.34.2-.02.19.17.2.31.01.15.05.33.21.32.23-.02.13-.25.15-.39.05-.31-.11-.65.26-1.09-.05.67.07,1.16.12,1.65.02.2-.01.44.26.47.27.03.32-.17.34-.39.02-.28.13-.37.39-.2.1.06.13.31.31.15.12-.11.17-.28.13-.45-.03-.14-.07-.27-.09-.41-.01-.11.04-.2.16-.21.09,0,.17.05.17.13-.02.52.47.9.39,1.44-.01.09-.03.22.09.26.15.06.21-.08.27-.18.1-.18.25-.25.46-.22.51.08,1.23-.27,1.33.65,0,.03.1.04.16.06.46.18.5.37.15.77-.2.22-.48.4-.37.77.01.05.07.08.1.11.2-.07.16-.35.37-.37.19.07.04.43.3.38.26-.04.15-.29.16-.45.03-.34.04-.68.04-1.01,0-.15-.1-.36.13-.39.25-.03.16.21.21.35.22.59.29,1.24,1.05,1.54.27.1,1.03.45.47,1.12-.08.09-.08.24.06.31.14.06.3.04.38-.09.18-.27.35-.54.33-.89-.02-.37.07-.58.48-.3.21.15.42.14.58-.1.06-.09.05-.27.22-.24.16.04.18.2.19.34.01.34.26.72.51.62.69-.26.87.19,1.11.62.08.14.12.34.34.21.44-.26.61-.04.74.35.07.2.23.34.46.33.26,0,.51.08.67.24.66.66,1.79.45,2.34,1.31.07.11.3.11.44.19.33.18.83-.04,1.03.48.09.23.35.39.66.33.18-.04.18-.18.19-.33.01-.32-.13-.52-.44-.64-.54-.21-1.05-.46-1.44-.93-.16-.2-.4-.34-.63-.46-1.37-.69-2.61-1.58-3.91-2.39-1.23-.78-2.53-1.47-3.74-2.28-.86-.57-1.76-1.07-2.65-1.58-1.21-.7-2.47-1.34-3.73-1.96-1.37-.67-2.78-1.26-4.18-1.86-.54-.23-1-.62-1.58-.74-.81-.17-1.55-.54-2.33-.81-.62-.22-1.25-.58-1.96-.42-.18.04-.36,0-.53-.09-.71-.4-1.53-.52-2.29-.7-.84-.19-1.74-.28-2.61-.39-1.37-.18-2.73-.38-4.12-.28-.12,0-.27.03-.36-.03-.97-.59-2.04-.43-3.08-.41-.9.02-1.81.13-2.7.14-1.06,0-2.12.21-3.19-.04-.43-.1-.87.1-1.32.11-1.44.06-2.87.19-4.3.38-.98.13-2,.4-3,.07,0-.2,0-.4,0-.59,1.19-.36,2.44-.25,3.66-.44,2.07-.32,4.2-.31,6.31-.43.99-.05,1.98-.1,2.97-.1,1.07,0,2.13-.09,3.2.09.95.16,1.91.28,2.87.35,1.9.14,3.78.37,5.64.72,1.71.32,3.39.78,5.06,1.3,1.09.34,2.15.75,3.19,1.18,1.35.55,2.69,1.18,4.03,1.77.46.2.95.37,1.36.64.19.12.33.29.57.38.46.19,1,.3,1.38.54,1.13.72,2.38,1.25,3.39,2.16.29.26.54.46.85-.1.09.66.24,1.14.87,1.29.23.06.45.15.66.28.42.24.68.05.69-.43.01-.7-.06-1.4.24-2.07.07-.15.08-.35.29-.29.19.05.21.23.15.4-.1.27-.15.58,0,.82.31.52.16.95-.14,1.4-.36.54-.22.91.38,1.12.21.07.49-.03.62.18.57.89,1.59,1.12,2.39,1.67.4.28.48.04.45-.32-.07-.97.09-1.93.12-2.89,0-.11-.04-.26.12-.31.14-.04.21.08.29.17.24.29.19.64.19.99,0,.53.5.41.76.51.32.12.18-.25.21-.41.03-.18.02-.43.29-.28.49.27.81.83,1.5.78.21-.02.25.27.28.48.07.51,0,1.09.65,1.35.14.05.12.4.42.32.29-.08.25-.32.26-.54,0-.13-.05-.31.13-.36.19-.06.31.08.39.22.1.17.15.4.38.43.98.12,1.58.88,2.28,1.42.32.24.38.81.9.25.06-.07.18.05.26.11.83.64,1.8,1.02,2.7,1.54.51.3,1.19.33,1.55.81.27.35.68.59.93.55.65-.09,1.02.4,1.53.57.4.13.77.39,1.2.47.65.12,1.19.35,1.42,1.04.19-.03.3-.24.54-.17.93.28,1.95.3,2.69,1.06.07.07.17.16.26.07.48-.44.93-.13,1.41,0,.52.15,1.09-.06,1.62.17.1.04.25-.06.25-.2,0-.16-.17-.13-.28-.15-.2-.02-.44.03-.59-.07-1.1-.71-2.41-.8-3.59-1.25-1.31-.5-2.58-1.05-3.84-1.65-.99-.47-1.98-.95-2.96-1.44-1.05-.52-2.08-1.08-3.11-1.63-1.48-.79-2.88-1.74-4.3-2.65-.37-.24-.68-.58-1.05-.8-.94-.56-1.89-1.1-2.81-1.72-.95-.64-1.85-1.35-2.8-1.99-1.04-.71-1.96-1.59-3.06-2.22-.22-.12-.23-.33-.17-.53.05-.22.21-.15.33-.07.56.38,1.18.64,1.69,1.11.3.28.54.79.98.77.37-.01.53.14.69.36.16.22.36.35.58.5.44.31.96.49,1.36.88.57.55,1.24,1.06,1.9,1.39,1.02.52,1.84,1.29,2.82,1.85,1.01.57,2.06,1.11,2.99,1.82.13.1.26.19.41.26.2.09.5.18.6-.03.11-.23-.18-.43-.36-.47-.65-.13-.61-.57-.52-1.05.03-.15.08-.27.25-.3.15-.03.21.08.27.19.08.13.15.34.35.22.16-.1.17-.27.15-.48-.05-.54-.04-1.09-.05-1.63,0-.13-.04-.33.15-.34.24-.01.19.21.19.36,0,.68.02,1.36.11,2.05.05.44.19.59.63.59.67,0,.7.03.46.67-.08.2-.05.31.14.38.14.05.36.04.34-.12-.08-.49.6-.86.2-1.39-.06-.08-.02-.2.1-.24.11-.03.2.02.26.1.12.16.09.35.07.53-.06.58-.22,1.15,0,1.73.06.16-.05.32-.23.37-.19.05-.3-.02-.36-.21-.05-.18-.17-.27-.37-.18-.11.05-.23.11-.22.26.01.16.14.22.27.29.45.22.89.45,1.32.7.17.1.27.31.52.18.24-.13.18-.34.18-.53,0-.66.12-1.32.15-1.98.02-.45.37-.89-.01-1.34-.03-.04,0-.17.06-.22.09-.08.18,0,.26.07.22.16.41.38.74.36.15,0,.25.13.25.29,0,.64,0,1.28.02,1.91,0,.32-.07.66.05.98.08-.02.11-.02.12-.03.25-.71.43-1.52.34-2.17-.11-.78.25-.52.56-.5.43.03.7.22.63.74-.04.34.03.7-.13,1.01-.4.79-.13,1.66-.31,2.48-.05.23.08.37.26.4.22.03.18-.19.17-.3-.16-1.21.52-2.33.37-3.54-.02-.13-.01-.32.21-.26.14.04.26.11.24.29-.11,1.07-.33,2.14-.1,3.23.04.17-.07.31-.19.43-.1.1-.21.23-.06.36.1.09.25.18.37.17.18-.03.14-.23.12-.35-.08-.65.07-1.29.15-1.92.07-.51.01-1.05.21-1.55.06-.15.12-.26.3-.23.22.04.1.2.12.32.1.54-.05,1.07-.04,1.61,0,.18-.02.37.11.52.13.15.27.26.47.14.19-.12.12-.29.02-.42-.33-.41-.2-.85-.15-1.32.06-.62.44-.59.79-.44.3.13.65.12.91.29.6.4,1.34.11,1.93.4.63.31,1.33.33,1.97.45,1.04.18,2.04.67,3.11.61,1.16-.07,2.22.79,3.41.32.04-.02.11.04.16.07.22.12.44.11.7.06.47-.09.98-.2,1.43-.15,1.71.19,3.42.1,5.12.08.44,0,.89.08,1.3-.02.3-.07.64-.19.87-.09.61.28,1.18-.03,1.77-.03,1.52,0,2.98-.41,4.47-.61,1.51-.2,3.01-.41,4.52-.6.06.21.07.42,0,.63-.13.04-.2.13-.23.26-.12.62-.1,1.21-.41,1.86-.31.63-.42,1.49-.56,2.25-.16.93-.34,1.11-1.29,1.24-.36.05-.76.02-1.09.26.54.02,1.08.12,1.62-.04.37-.11.56.07.47.44-.08.34-.18.71-.37,1-.41.64-.58,1.41-1.11,1.97-.05.05-.05.15-.08.22-.21.7-.49,1.32-1.02,1.87-.55.56-1.29.88-1.78,1.5-.36.01-.71.03-1.07.04-.35-.05-.49.14-.51.45-.22.15-.48.11-.72.11-.17-.26-.33-.29-.49,0-1.88.27-3.77.41-5.67.42-3.13.01-6.26.11-9.39-.07-1.02-.06-2.05-.15-3.06-.34-.98-.18-1.97-.17-2.96-.21-1.47-.06-2.93-.32-4.37-.62-1.63-.34-3.3-.34-4.95-.35-1.58,0-3.09-.34-4.59-.71-1.39-.34-2.79-.73-4.22-.72-1.46,0-2.84-.44-4.26-.61-3.14-.37-6.28-.39-9.43-.22-1.13.06-2.25.1-3.37.27-.56.09-1.12.2-1.67.35-1.6.45-3.24.66-4.89.76-1.86.11-3.66.55-5.5.74-2.79.29-5.58.51-8.39.46-2.57-.04-5.13.01-7.7-.01-1.65-.02-3.3-.2-4.93-.43-.51-.07-1.03-.07-1.51-.3-.07-.18-.18-.29-.39-.2-.11-.02-.21-.04-.32-.06-.02-.19-.16-.23-.3-.2-.4.09-.63-.12-.84-.4Zm56.32-7c.11.22.22.44.33.67.23-.2.54-.37.34-.69-.19-.29-.46-.11-.68.03,0-.2-.03-.34-.22-.5-.55-.49-1.29-.64-1.83-1.12-.16-.14-.33-.3-.52-.14-.17.14-.16.43-.04.56.23.24.23.74.81.64.21-.03.69,0,.81.23.26.49.61.44,1.01.32Zm-46.8-3.68c.38.1.68,0,.95-.25.32-.28.64-.55.94-.85.11-.11.22-.22.36-.14.22.12,0,.23-.04.34-.14.41.04.85.37.9.77.1,1.55.05,2.33.03.21,0,.31-.19.26-.4-.06-.25-.23-.14-.39-.1-.32.08-.64-.07-.71-.33-.17-.66-.59-1.3-.27-2.04.08-.2.17-.51-.06-.67-.2-.14-.36.12-.53.21-.23.11-.42.3-.63.46-.23.18-.22.42-.17.66.05.25.24.29.46.29.08,0,.16,0,.24,0,.2.01.35.1.38.32.02.1,0,.22-.09.27-.16.09-.32.06-.45-.07-.28-.28-.72-.32-.93-.73-.09-.17-.37-.43-.51.1-.12.46-.46.82-.85,1.12-.3.22-.63.44-.67.89Zm-.63-.7c0-.06.01-.13,0-.18-.05-.16.11-.42-.15-.45-.19-.02-.19.22-.23.37-.07.3-.26.31-.51.2-.66-.31-1.41-.45-1.92-1.05-.11-.13-.45-.35-.54-.02-.2.69-.63,1.14-1.25,1.45-.14.07-.32.24-.21.44.1.2.32.11.5.12.31.02.54-.23.91-.2.5.03.99.07,1.46.2.42.11.73-.23,1.15-.16.76.13.82.04.81-.71Zm43.05,2.06c0,.55.64,1.04,1.11.87.41-.15.47-.44.14-.7-.22-.17-.48-.27-.72-.42-.13-.08-.23-.25-.41-.17-.19.09-.09.28-.12.42Zm-44.16-4.19c.01-.22-.1-.31-.26-.28-.48.08-.85.33-1.03.8-.07.19,0,.37.21.42.22.05.54.29.65.05.15-.33.27-.69.42-.99Zm-6.78.71c-.06.3.17.4.45.47.68.17.38-.51.61-.74.11-.1.15-.42-.1-.57-.03-.02-.08-.02-.12-.02-.24,0-.83.57-.84.86Zm52.39,2.38c-.18-.16.08-.68-.38-.63-.26.03-.79-.11-.78.35.01.48.58.49.92.64.21.09.23-.15.23-.36Zm23.64,5.58c0-.13-.08-.17-.19-.2-.65-.18-1.32-.26-1.99-.35-.08-.01-.16.01-.19.1-.04.12.03.19.14.22.66.15,1.32.31,1.99.45.14.03.21-.09.23-.22Zm-16.11-7.67c-.02-.23.03-.68-.35-.71-.35-.02-.44.44-.48.74-.05.33.2.51.53.52.35.01.3-.25.3-.55Zm-42.58,1.5c.02-.42-.08-.61-.5-.29-.09.07-.23.07-.33.13-.21.11-.5.27-.46.49.06.31.33-.04.51.05.07.04.15.05.23.07.4.11.57-.06.56-.46Zm62.56,6.61c-.86-.46-1.63-.17-2.34-.36-.1-.03-.14.07-.14.15,0,.13.04.25.19.25.71,0,1.42.07,2.3-.04Zm-15.31-5.23c.1.05.21.09.27-.02.05-.09.02-.22-.07-.26-.24-.13-.49-.25-.75-.34-.1-.04-.25-.03-.31.1-.08.18.08.24.19.31.21.13.44.19.67.21Zm-10.75.2c-.17-.23-.4-.43-.74-.46-.14-.01-.36.12-.28.21.2.23.47.4.78.49.13.04.23-.02.23-.23Zm-21.63-5.07c-.14-.11-.29-.2-.4-.32-.1-.11-.14-.32-.36-.23-.15.06-.17.21-.15.36.03.22.19.3.39.29.17,0,.36.07.52-.11Zm-29.07,1.7c.16-.07.48.11.46-.21-.02-.26-.3-.29-.52-.29-.19,0-.39.05-.39.28,0,.32.28.19.46.23Zm29.97-1.65c-.04-.14.08-.43-.21-.37-.25.05-.17.36-.24.55-.06.16.03.35.23.32.26-.05.21-.29.21-.49Zm.66.77c.22-.02.31-.16.3-.37,0-.15-.06-.31-.23-.28-.21.03-.34.2-.34.42,0,.18.12.23.28.23Zm-26.4-.63c-.17.43-.06.7.14.96,0,.01.16-.04.19-.09.17-.34-.09-.54-.33-.86Zm-4.94,2.8c-.05-.07.05-.31-.16-.27-.28.06-.17.36-.25.55-.07.14,0,.24.16.22.26-.04.25-.27.26-.5Zm42.12,3.8c-.14,0-.27.03-.23.15.05.19.12.4.37.42.16.01.21-.1.19-.24-.02-.21-.15-.32-.33-.33Zm11.21-.73c-.09.01-.2.04-.19.2.01.17.13.3.28.34.17.05.18-.1.19-.22,0-.17-.02-.32-.28-.33Zm21.18,3.6c-.19-.04-.41-.19-.61.07.24.11.43.12.61-.07Z"/><path class="cls-2" d="m275.54,136.69c-1.51.19-3.01.41-4.52.6-1.49.19-2.95.61-4.47.61-.59,0-1.16.31-1.77.03-.23-.11-.57.01-.87.09-.41.1-.86.01-1.3.02-1.71.02-3.41.11-5.12-.08-.44-.05-.96.06-1.43.15-.25.05-.47.07-.7-.06-.05-.03-.12-.08-.16-.07-1.19.46-2.25-.39-3.41-.32-1.06.06-2.06-.43-3.11-.61-.64-.11-1.34-.14-1.97-.45-.59-.28-1.33,0-1.93-.4-.26-.17-.61-.15-.91-.29-.35-.15-.73-.18-.79.44-.04.47-.17.9.15,1.32.1.13.18.3-.02.42-.2.12-.34,0-.47-.14-.13-.15-.11-.34-.11-.52,0-.54.14-1.06.04-1.61-.02-.13.1-.28-.12-.32-.18-.03-.24.08-.3.23-.19.5-.14,1.03-.21,1.55-.08.63-.23,1.27-.15,1.92.02.13.06.33-.12.35-.11.02-.27-.08-.37-.17-.15-.13-.04-.25.06-.36.12-.12.22-.26.19-.43-.23-1.09-.01-2.16.1-3.23.02-.19-.1-.26-.24-.29-.23-.06-.23.13-.21.26.15,1.21-.53,2.33-.37,3.54.02.12.05.34-.17.3-.18-.03-.31-.17-.26-.4.18-.82-.09-1.69.31-2.48.16-.31.08-.67.13-1.01.07-.51-.2-.7-.63-.74-.31-.02-.66-.27-.56.5.09.65-.1,1.46-.34,2.17,0,0-.03,0-.12.03-.12-.32-.04-.66-.05-.98-.02-.64-.01-1.27-.02-1.91,0-.16-.09-.3-.25-.29-.32.02-.51-.2-.74-.36-.08-.06-.17-.15-.26-.07-.05.04-.09.18-.06.22.38.46.03.89.01,1.34-.03.66-.14,1.32-.15,1.98,0,.19.06.4-.18.53-.25.13-.35-.08-.52-.18-.43-.25-.88-.48-1.32-.7-.13-.07-.26-.12-.27-.29-.01-.15.11-.2.22-.26.2-.09.32,0,.37.18.06.19.17.26.36.21.18-.05.29-.21.23-.37-.21-.58-.05-1.15,0-1.73.02-.18.05-.37-.07-.53-.06-.09-.15-.14-.26-.1-.12.04-.16.16-.1.24.4.53-.28.9-.2,1.39.03.16-.2.17-.34.12-.18-.06-.21-.17-.14-.38.24-.64.22-.68-.46-.67-.44,0-.57-.14-.63-.59-.08-.68-.1-1.36-.11-2.05,0-.15.05-.37-.19-.36-.19,0-.16.21-.15.34,0,.54,0,1.09.05,1.63.02.2.01.38-.15.48-.2.12-.27-.09-.35-.22-.06-.1-.12-.22-.27-.19-.16.03-.22.15-.25.3-.09.48-.13.91.52,1.05.18.04.47.24.36.47-.1.21-.4.12-.6.03-.15-.06-.28-.16-.41-.26-.93-.71-1.98-1.25-2.99-1.82-.98-.56-1.8-1.33-2.82-1.85-.66-.33-1.34-.84-1.9-1.39-.4-.39-.92-.57-1.36-.88-.22-.15-.42-.28-.58-.5-.16-.22-.32-.37-.69-.36-.44.02-.68-.49-.98-.77-.51-.48-1.14-.73-1.69-1.11-.12-.08-.28-.15-.33.07-.05.2-.04.41.17.53,1.1.63,2.02,1.51,3.06,2.22.95.65,1.85,1.35,2.8,1.99.91.62,1.86,1.16,2.81,1.72.38.22.68.57,1.05.8,1.42.9,2.82,1.85,4.3,2.65,1.03.55,2.06,1.11,3.11,1.63.98.49,1.97.97,2.96,1.44,1.26.6,2.54,1.15,3.84,1.65,1.19.46,2.5.54,3.59,1.25.15.1.39.05.59.07.11.01.27-.02.28.15,0,.14-.15.24-.25.2-.53-.24-1.1-.03-1.62-.17-.48-.13-.94-.44-1.41,0-.09.08-.19,0-.26-.07-.74-.76-1.77-.78-2.69-1.06-.24-.07-.35.14-.54.17-.23-.69-.78-.92-1.42-1.04-.43-.08-.8-.34-1.2-.47-.51-.17-.87-.66-1.53-.57-.25.03-.66-.2-.93-.55-.36-.47-1.04-.51-1.55-.81-.89-.52-1.87-.9-2.7-1.54-.08-.06-.2-.18-.26-.11-.51.55-.57-.01-.9-.25-.71-.54-1.31-1.29-2.28-1.42-.23-.03-.28-.26-.38-.43-.08-.13-.2-.28-.39-.22-.18.06-.13.23-.13.36-.01.22.03.46-.26.54-.29.08-.28-.27-.42-.32-.65-.26-.57-.84-.65-1.35-.03-.21-.07-.49-.28-.48-.69.05-1.01-.51-1.5-.78-.27-.15-.26.1-.29.28-.03.16.11.53-.21.41-.26-.1-.76.02-.76-.51,0-.34.04-.69-.19-.99-.07-.09-.15-.21-.29-.17-.15.04-.11.19-.12.31-.03.96-.19,1.92-.12,2.89.03.36-.05.6-.45.32-.8-.55-1.82-.78-2.39-1.67-.13-.2-.41-.1-.62-.18-.6-.21-.75-.58-.38-1.12.3-.44.45-.88.14-1.4-.14-.24-.09-.55,0-.82.06-.17.04-.35-.15-.4-.21-.05-.23.14-.29.29-.3.67-.23,1.37-.24,2.07,0,.49-.27.67-.69.43-.21-.12-.43-.22-.66-.28-.62-.15-.78-.62-.87-1.29-.31.56-.56.36-.85.1-1-.91-2.26-1.44-3.39-2.16-.38-.24-.92-.36-1.38-.54-.24-.1-.38-.26-.57-.38-.41-.27-.9-.43-1.36-.64-1.34-.59-2.67-1.22-4.03-1.77-1.04-.43-2.11-.84-3.19-1.18-1.67-.52-3.35-.97-5.06-1.3-1.86-.35-3.75-.58-5.64-.72-.96-.07-1.92-.19-2.87-.35-1.07-.18-2.14-.1-3.2-.09-.99,0-1.98.05-2.97.1-2.11.12-4.23.11-6.31.43-1.22.19-2.47.08-3.66.44-.12-.24-.11-.5-.14-.76-.17-1.73.22-3.43.28-5.15.02-.54-.1-1.08.1-1.61.45-.11.91-.16,1.38-.17.66,0,1.35.02,1.99-.14,1.34-.33,2.71-.28,4.06-.43.93-.11,1.86.17,2.77.07.96-.12,1.91-.31,2.89-.31,1.31,0,2.64-.07,3.92.18,1.98.38,4.01.44,5.99.84.74.15,1.54.14,2.31.32.63.14,1.26.32,1.86.5.55.17,1.16.33,1.71.54,1.44.55,2.93,1.04,4.27,1.79,1.49.83,3.13,1.37,4.5,2.43.18.14.44.14.6-.07.17-.23,0-.37-.15-.56-.26-.32-.69-.3-.96-.53-.44-.38-1.18-.32-1.45-.98-.03-.08-.3-.07-.45-.1-.12-.02-.26,0-.35-.05-.92-.59-1.86-1.13-2.97-1.31-.08-.01-.17-.1-.23-.18-.46-.6-1.23-.67-1.84-.82-.51-.12-.97-.81-1.6-.34-.02.01-.15-.08-.18-.14-.13-.25-.35-.25-.58-.33-.54-.2-1.12-.25-1.65-.45-.58-.22-1.3.04-1.77-.5-.92.24-1.7-.37-2.59-.45-1-.09-2.01-.27-3.03-.28-.14,0-.3.01-.42-.04-.77-.38-1.62-.14-2.43-.27-.54-.09-1.14.23-1.64-.25-.03-.03-.18-.02-.22.03-.23.24-.68.09-.82.54-.07.23-.23.08-.3-.11-.13-.36-.57-.46-.77-.41-.66.15-1.3.25-1.97.06-.4-.11-.78.17-1.16.18-.69.02-1.42-.29-1.99.35-.04.04-.16.04-.23.02-.71-.23-1.43-.11-2.14-.07-.72.04-1.43.22-2.13.41-.52.14-1.1.11-1.64,0-.31-.06-.47-.05-.48.3,0,.17.06.37-.12.5-.18-.25-.08-.54-.09-.81-.09-1.76.29-3.5.29-5.27,0-.44.2-.88.31-1.31.25.31.52.56.94.25.06-.04.16-.05.24-.04,1,.11,1.95-.17,2.92-.29.73-.09,1.46-.22,2.19-.25.5-.02,1.03,0,1.53,0,1.51,0,3.01-.13,4.52-.18.82-.03,1.64-.05,2.46,0,1.1.07,2.2.25,3.29.34,1.96.17,3.9.46,5.83.82,1.09.2,2.17.49,3.24.8.37.11.81-.02,1.1.23.48.4,1.05.59,1.6.76,1.06.33,2.05.82,3.07,1.25,1.51.63,2.95,1.4,4.35,2.24.67.4,1.57.49,1.94,1.34,0,0,.07-.01.11-.01.65-.01,1.05.48,1.55.77.23.13.4.35.66.48.51.26,1.3.45,1.47.81.39.83,1.25.91,1.81,1.4.57.49,1.18,1.13,2,1.34.37.09.35.51.65.67.42.23,1.15.2.95,1.02,0,.03.06.1.1.12.44.23.87.45,1.3.71,1.03.63,2.01,1.33,3.01,1.98.91.6,1.84,1.17,2.73,1.82,1.3.95,2.71,1.74,4.05,2.64.7.47,1.45.89,2.2,1.3,1.82,1,3.67,1.94,5.5,2.92.94.51,1.98.78,2.92,1.34.7.41,1.55.64,2.36.89,1.41.44,2.83.88,4.26,1.24,2.01.49,4.08.67,6.13.92,1.37.17,2.79-.07,4.13.44.14.05.32.01.48,0,2.03-.12,4.06-.22,6.09-.36,1.32-.1,2.64-.25,3.96-.41,1.34-.16,2.67-.33,4-.56.55-.1,1.14.02,1.65-.28.08.28-.04.55-.04.83Zm-65.19-16.09c-.15.65.46.39.63.59.64.74,1.8.8,2.27,1.75.03.06.18.06.28.08.3.07.53.25.78.42.68.46,1.3.99,1.98,1.45.7.47,1.65.57,2.1,1.43.11.21.51.37.74.09.19-.24,0-.48-.22-.65-.17-.14-.32-.33-.52-.41-.8-.32-1.41-.93-2.09-1.41-.57-.41-1.2-.75-1.78-1.08-.58-.33-1.11-.79-1.7-1.12-.69-.38-1.54-.62-2.1-1.26-.13-.15-.37-.16-.37.13Z"/><path class="cls-2" d="m171.57,123.14c1.01.33,2.02.06,3-.07,1.43-.19,2.86-.32,4.3-.38.45-.02.89-.21,1.32-.11,1.06.24,2.13.04,3.19.04.89,0,1.8-.12,2.7-.14,1.04-.02,2.11-.18,3.08.41.09.06.24.04.36.03,1.39-.1,2.75.1,4.12.28.87.11,1.77.2,2.61.39.76.17,1.58.29,2.29.7.16.09.35.13.53.09.72-.16,1.35.21,1.96.42.77.27,1.51.64,2.33.81.58.12,1.04.51,1.58.74,1.4.6,2.82,1.18,4.18,1.86,1.26.62,2.51,1.27,3.73,1.96.89.51,1.79,1.02,2.65,1.58,1.22.81,2.51,1.5,3.74,2.28,1.29.82,2.54,1.7,3.91,2.39.23.12.47.26.63.46.38.47.9.73,1.44.93.31.12.45.31.44.64,0,.15,0,.29-.19.33-.31.07-.56-.09-.66-.33-.21-.52-.7-.3-1.03-.48-.14-.08-.37-.08-.44-.19-.55-.85-1.68-.65-2.34-1.31-.16-.16-.41-.25-.67-.24-.23,0-.4-.13-.46-.33-.13-.39-.3-.61-.74-.35-.22.13-.27-.08-.34-.21-.24-.43-.42-.88-1.11-.62-.25.09-.49-.28-.51-.62,0-.15-.03-.31-.19-.34-.17-.04-.15.14-.22.24-.16.23-.37.24-.58.1-.41-.28-.5-.07-.48.3.01.35-.15.62-.33.89-.09.13-.25.15-.38.09-.14-.07-.14-.21-.06-.31.56-.67-.2-1.02-.47-1.12-.76-.3-.83-.95-1.05-1.54-.05-.14.04-.38-.21-.35-.23.03-.13.24-.13.39,0,.34-.01.68-.04,1.01-.01.16.1.41-.16.45-.26.04-.11-.31-.3-.38-.21.02-.18.3-.37.37-.03-.03-.09-.07-.1-.11-.1-.36.17-.54.37-.77.35-.39.31-.58-.15-.77-.05-.02-.16-.04-.16-.06-.1-.92-.82-.57-1.33-.65-.2-.03-.35.04-.46.22-.06.1-.12.24-.27.18-.11-.04-.1-.17-.09-.26.08-.54-.41-.92-.39-1.44,0-.09-.08-.14-.17-.13-.12,0-.18.1-.16.21.02.14.06.27.09.41.03.17-.01.34-.13.45-.18.16-.21-.08-.31-.15-.26-.17-.37-.07-.39.2-.01.22-.06.43-.34.39-.27-.03-.24-.27-.26-.47-.05-.5-.17-.98-.12-1.65-.36.44-.21.78-.26,1.09-.02.14.08.37-.15.39-.16.01-.19-.17-.21-.32-.01-.14,0-.32-.2-.31-.19.02-.16.2-.17.34,0,.04,0,.08,0,.12-.06.18.14.54-.19.51-.29-.03-.32-.34-.24-.64.11-.44-.32-.86-.1-1.33.04-.08-.14-.12-.24-.11-.15.02-.19.14-.19.26-.01.24-.01.48-.05.72-.02.13-.07.29-.24.31-.18.02-.24-.14-.28-.27-.07-.21-.11-.43-.16-.64-.02-.09-.02-.22-.16-.21-.11,0-.16.11-.18.21,0,.04,0,.08-.01.12-.05.21.13.61-.16.6-.34,0-.2-.42-.21-.65-.02-.41,0-.83,0-1.18-.32-.17-.24,1.02-.68.08-.08-.16-.25.05-.26.18-.03.26-.02.52-.03.79,0,.1-.03.21-.15.23-.17.02-.2-.11-.2-.23,0-.41,0-.82-.07-1.23-.27.19-.11.56-.41.72-.25-.11-.1-.35-.14-.52-.03-.17-.05-.35-.26-.33-.17.01-.2.17-.22.32-.03.25.07.52-.08.76-.2,0-.13-.17-.18-.25-.23-.39.05-1.14-.85-1.05-.37.04-.11-.53-.35-.74-.21.18-.11.4-.12.58-.05,1.12-.08,2.23-.12,3.35,0,.22.01.44.23.51.24.08.2-.18.27-.31.16-.26.41-.27.53-.04.35.64,1.11.48,1.58.87.08.07.18-.04.24-.12.05-.06.14-.18.18-.11.19.38.43.7.87.81,0,0,0,.13-.03.14-.07.03-.17.06-.23.03-.89-.39-1.86-.54-2.77-.88-.72-.27-1.5-.4-2.27-.52-.58-.09-1.12-.38-1.73-.32-.17.02-.18-.13-.18-.25,0-.32,0-.65,0-.97,0-.28.15-.27.36-.22.19.05.24-.1.24-.25,0-.15-.02-.34-.21-.28-.57.17-.43-.34-.45-.54-.07-.61-.04-1.24-.06-1.86,0-.12.03-.24-.09-.34-.23.07-.13.26-.13.4-.01,1.11,0,2.22-.01,3.33,0,.14.01.28,0,.42-.03.2-.06.46-.31.45-.26-.01-.16-.28-.17-.44-.02-.3.05-.6-.08-.93-.3.2-.16.48-.16.7,0,.33-.09.48-.45.47-.58-.02-1.14-.08-1.71-.24-.33-.09-.74-.13-1.11-.11-.82.05-1.64-.21-2.46-.02-.19.04-.41.03-.56-.15-.12-.15-.26-.14-.43-.09-.4.12-.8.19-1.19-.07-.11-.08-.32-.03-.48-.03-1.38,0-2.77-.2-4.15-.05-.18.02-.3-.06-.3-.21,0-.32-.01-.77.27-.87.62-.24.55-.75.53-1.18-.01-.46-.12-.91-.1-1.38,0-.09.02-.23-.12-.24-.16-.02-.2.11-.22.23-.05.27.06.56-.1.86-.27-.14-.14-.38-.18-.57-.02-.12-.05-.27-.18-.29-.17-.03-.15.14-.18.25-.11.33-.18.69-.07,1.01.21.6,0,1.19.03,1.78.02.52-.7.82-1.29.57-.13-.05-.22-.18-.37-.06-.92.7-1.99.28-2.98.38-.68.07-1.38,0-2.04.12-.86.16-1.71-.09-2.57.03-.59.09-1.17.19-1.75.31-.14.03-.35.09-.33.3.03.19.18.31.38.35.26.05.51.13.77.14,2.19.08,4.37-.09,6.55-.28.89-.08,1.8-.11,2.71-.1,1.78.03,3.57-.11,5.33.05,2.62.24,5.26.25,7.88.62,1.49.21,2.99.46,4.46.74,2.26.43,4.48,1.06,6.65,1.89,1.59.61,3.21,1.15,4.78,1.83,1.11.48,2.23.92,3.28,1.56.57.35,1.22.74,1.95.84.36.05.61.37.96.49.57.18,1.03.59,1.6.78.14.04.36.12.29.32-.07.21-.37.26-.45.16-.47-.55-1.34-.27-1.75-.89-.09-.14-.19-.2-.35-.13-.11.05-.28.13-.34.03-.44-.75-1.5-.14-1.93-.88-.54.12-.82-.26-1.19-.54-.19-.15-.65.13-.95-.12-.4-.33-1.04-.2-1.36-.69-.04-.06-.16-.13-.2-.11-.54.32-.77.02-1-.43-.1-.19-.28,0-.37.14-.22.32-.38.33-.51-.07-.1-.29-.25-.34-.46-.06-.34.44-.5.25-.59-.18-.04-.19-.11-.37-.17-.56-.24.06-.22.3-.35.42-.16.15-.36.19-.42-.05-.2-.72-.81-.69-1.28-.61-.3.05-.44.02-.64-.16-.2-.18-.4-.32-.74-.1-.32.21-1.06-.19-1.23-.61-.09-.22-.12-.42-.39-.18-.06.06-.16.12-.21.05-.34-.49-.86-.19-1.28-.32-.43-.13-.82-.42-1.3-.39.22.37.44.55-.32.67-.53.08-.61.11-.74-.36-.06-.22-.3-.25-.56-.18-.32.09-.67.18-.97-.12-.08-.08-.19-.18-.32-.09-.14.09-.15.25-.1.38.08.23.13.47.08.71-.02.1-.08.2-.2.2-.13,0-.15-.12-.15-.22,0-.18.02-.37,0-.54-.04-.25.18-.78-.46-.45-.23.12-.33-.53-.55-.19-.2.31-.39.14-.6.19-.35.08-.44-.07-.45-.37,0-.16-.05-.28-.23-.28-.22,0-.19.13-.16.29.03.21-.12.28-.3.29-.21.01-.35-.09-.38-.3-.03-.23-.1-.41-.36-.39-.27.02-.52.1-.6.41-.04.16-.04.36-.25.36-.25,0-.23-.22-.26-.4-.08-.42-.48-.37-.72-.35-.59.03-1.18.15-1.78.13-.47-.01-.19.49-.39.75-.16-.14-.17-.7-.58-.27-.06.06-.13-.04-.16-.12-.03-.07-.08-.2-.12-.2-.58.01-1.18-.39-1.66-.27-.48.12-.85-.08-1.04-.23-.44-.34-.62-.11-.84.16-.17.21-.3.38-.57.11-.26-.25-.4.02-.52.18-.27.34-.46.37-.69-.05-.1-.18-.17-.51-.5-.44-.27.06-.36.28-.38.55-.04.45-.36.19-.47.11-.33-.25-.6-.22-.92.02-.35.26-.52-.09-.75-.26-.14-.1-.23-.43-.46-.21-.14.14-.07.38.08.55.11.13.33.25.12.45-.21.2-.35-.01-.52-.11-.37-.21-.56-.69-1.07-.7-.03,0-.06-.05-.09-.07-.25-.15-.14-.72-.34-.62-.45.22-1,.18-1.36.53-.35.34-.93.08-1.24.52-.05.07-.14-.11-.2-.17-.43-.44-.84-.44-1.19.05-.2.29-.31.37-.58.08-.24-.25-.46-.17-.6.16-.11.27-.29.51-.26.85.06.63.21.74.74.42.23-.14.42-.05.63.01.15.05.26.14.23.3-.02.14-.16.15-.28.18-.33.07-.98.94-.96,1.27.02.39.49.58.89.35.45-.26.71-.7,1.04-1.07.11-.12.07-.35.23-.48.19.26.57.15.77.38.29.34.64.53,1.08.53.27,0,.49.07.49.39,0,.3.05.61-.37.71-.37.08-.74.16-1.13.13-.32-.02-.61-.07-.54-.51.01-.07-.02-.18-.12-.18-.07,0-.19.05-.19.09-.11.81-.81.54-1.27.69-.16.05-.4-.09-.47.15-.06.2.18.23.27.35.51.69,1.12.86,2.02.78,2.33-.2,4.67-.22,7.01-.27,1.08-.02,2.17.11,3.25.07,2.76-.1,5.49.26,8.24.36,1.64.06,3.24.36,4.86.51,1.14.11,2.23.57,3.48.62-.3.34-.6.26-.84.23-.67-.08-1.35-.13-2.03-.22-.78-.11-1.58-.03-2.36-.12-.59-.07-1.19-.08-1.76-.18-.86-.14-1.72.05-2.57-.1-.97-.18-1.97-.16-2.94-.18-.64,0-1.31-.12-1.95.04-.17.04-.32,0-.45-.1-.2-.16-.37-.09-.41.14-.06.34-.13.31-.42.16-.29-.16-.6-.65-1.01-.14-.06.07-.13-.04-.2-.07-.39-.15-.79-.15-1.16.03-.23.11-.49.21-.7.12-.63-.27-1.22.04-1.83.06-.16,0-.27,0-.38-.1-.09-.08-.17-.18-.31-.16-1.51.26-3.04.14-4.56.17-.57.01-1.32-.16-1.79.53-.17.26-.45.13-.63-.14-.28-.43-.43-.45-.69.09-.3.64-.04,1.25-.13,1.87-.11-.07-.17-.17-.18-.3-.1-.8-.17-1.6-.31-2.38-.21-1.17-.1-2.43-.41-3.51-.6-2.1-.69-4.21-.55-6.3.13-2.11.14-4.21.21-6.32,0-.2.09-.39.14-.58Zm10.42,6.28c.47-.81.6-1.63.42-2.47-.09-.43.08-1.23-.86-.81-.02,0-.07-.04-.1-.06-.31-.21-.41-.01-.42.24-.01.84,0,1.69,0,2.54,0,.17.1.38.28.28.35-.18.44.16.68.28Zm-5.23-2.19c-.04-.2-.12-.37-.36-.24-.18.1-.33.24-.5.33-.13.07-.29.13-.24-.14.02-.14,0-.26-.16-.25-.16,0-.15.14-.15.27-.02.31-.3.26-.49.3-.21.04-.28-.11-.22-.31.04-.13.04-.24-.13-.27-.13-.02-.24.03-.27.18-.08.35-.46.71.09,1.02.13.07.14.28.15.45,0,.16.07.27.25.27.15,0,.22-.09.23-.23.01-.19.03-.39.29-.35.22.03.26.23.31.4.04.14-.05.38.18.39.25.02.22-.25.28-.4.05-.12.06-.29.01-.41-.11-.32,0-.45.31-.49.3-.03.35-.29.44-.52Zm-3.46-.74c-.05.44-.1.88-.13,1.32,0,.09.08.2-.03.27-.12.07-.23,0-.32-.09-.13-.13-.25-.26-.39-.38-.14-.11-.31-.15-.37.08-.16.56-.13,1.12.05,1.66.04.13.05.39.28.3.23-.09.09-.26,0-.39-.08-.11-.12-.25.05-.28.28-.05.36-.36.61-.47.04.09.06.15.08.2.06.21-.14.56.22.59.34.04.37-.33.46-.55.07-.16.09-.38.03-.53-.22-.56-.3-1.16-.54-1.74Zm26.61.86c-.44.63-.7,1.24-.27,1.96.16.26.13.67-.03.99-.16.31-.42.22-.68.15-.11-.03-.18.07-.19.18-.01.12-.04.26.08.33.35.24,1.22-.12,1.22-.55,0-1.02-.07-2.04-.11-3.06Zm-20.76,1.8c.24-.35.39-.72.77-.92.15-.08.27-.2.2-.38-.08-.21-.24-.23-.44-.16-.4.14-.42-.11-.32-.38.17-.48-.16-.5-.46-.65-.02.9.24,1.67.25,2.5Zm11.11.92c.33-.75.18-1.54.17-2.32,0-.12-.12-.22-.26-.18-.13.03-.21.15-.19.28.12.73,0,1.49.27,2.23Zm-10.3-1.41c-.27.06-.13.29-.18.44-.04.11-.17.29.07.33.2.03.28-.12.3-.3.02-.18.03-.37-.19-.47Zm3.07,3.78c-.38.34-.38.43-.02.82.09-.28.08-.54.02-.82Zm25.63-2.68c-.06.22.02.43-.07.64-.04.1.05.2.16.21.13.01.15-.1.16-.2.02-.25-.09-.45-.25-.65Zm-11.04.83c-.03-.07-.03-.23-.19-.2-.14.02-.15.17-.15.29,0,.11.05.21.17.21.16,0,.18-.13.18-.3Zm-14.7-4.67c.22-.23.16-.43.08-.78-.21.33-.18.53-.08.78Zm-.94-.36c.05-.07.1-.11.1-.15,0-.04-.05-.09-.08-.13-.03.04-.09.07-.1.11,0,.04.04.09.07.17Z"/><path class="cls-4" d="m275.58,135.86c-.51.3-1.1.18-1.65.28-1.33.23-2.66.4-4,.56-1.32.16-2.64.31-3.96.41-2.03.15-4.06.25-6.09.36-.16,0-.34.05-.48,0-1.34-.51-2.76-.27-4.13-.44-2.05-.25-4.12-.43-6.13-.92-1.44-.35-2.85-.8-4.26-1.24-.81-.25-1.66-.47-2.36-.89-.94-.56-1.98-.83-2.92-1.34-1.83-.98-3.68-1.92-5.5-2.92-.75-.41-1.5-.83-2.2-1.3-1.34-.9-2.75-1.7-4.05-2.64-.89-.65-1.82-1.22-2.73-1.82-1-.66-1.98-1.36-3.01-1.98-.43-.26-.86-.48-1.3-.71-.04-.02-.11-.09-.1-.12.2-.82-.54-.79-.95-1.02-.3-.16-.28-.58-.65-.67-.81-.21-1.43-.84-2-1.34-.57-.49-1.42-.57-1.81-1.4-.17-.37-.96-.56-1.47-.81-.26-.13-.43-.35-.66-.48-.5-.29-.9-.78-1.55-.77-.04,0-.11.02-.11.01-.36-.85-1.26-.94-1.94-1.34-1.4-.84-2.85-1.6-4.35-2.24-1.02-.43-2.01-.92-3.07-1.25-.55-.17-1.12-.37-1.6-.76-.29-.25-.73-.12-1.1-.23-1.07-.31-2.15-.59-3.24-.8-1.93-.36-3.86-.65-5.83-.82-1.09-.1-2.19-.27-3.29-.34-.81-.05-1.64-.03-2.46,0-1.51.05-3.02.18-4.52.18-.51,0-1.03-.02-1.53,0-.73.03-1.46.16-2.19.25-.97.12-1.93.4-2.92.29-.08,0-.18,0-.24.04-.42.31-.69.06-.94-.25,0-.37-.14-.76.09-1.11.13-.19.32-.26.52-.16.78.37,1.55.01,2.28-.12.37-.07.7.12.93.03.61-.22,1.22-.12,1.82-.21,1.17-.17,2.36-.14,3.53-.24.63-.06,1.28.17,1.91-.18.21-.12.58.05.88.09,1.01.12,2.02,0,3.04.18.4.07.87.06,1.3.05,1.27-.01,2.5.35,3.76.42,1.18.07,2.36.25,3.5.58,1.05.3,2.12.52,3.17.82.94.27,1.83.65,2.78.9.64.17,1.23.53,1.84.82,1.04.48,2.08,1,3.13,1.45.77.33,1.46.79,2.18,1.2.09.05.16.19.23.18.76-.08,1.12.61,1.68.91.57.3,1.11.71,1.68,1.04,1.05.6,1.91,1.49,2.95,2.07.89.49,1.6,1.18,2.38,1.79.78.61,1.61,1.2,2.44,1.77.82.56,1.68,1.03,2.52,1.55.69.42,1.23,1.04,1.94,1.42.28.14.57.46.76-.23.08.67.34.97.82,1.31,1.07.76,2.21,1.42,3.27,2.2.97.71,1.92,1.55,2.96,2.06.94.45,1.82,1.04,2.79,1.46.66.28,1.37.67,1.93,1.17.52.46,1.2.46,1.76.79.84.49,1.81.76,2.65,1.22.53.29,1.09.38,1.61.59.54.22,1.09.55,1.72.51.29-.02.75.14.39-.46-.15-.25.03-.5.18-.72.16-.23.39-.47.63-.33.26.16.16.48-.07.66-.32.27.12.79-.49.98.74.2,1.31.49,1.96.48.35,0,.53-.09.27-.45-.19-.26-.08-.59-.19-.88-.07-.19.04-.36.3-.32.36.06.9-.1.85.51-.03.3,0,.65-.19.93-.28.39-.01.5.3.55.24.04.48,0,.73.02.44.03.46-.19.37-.52-.25-.08-.35.47-.6.14-.18-.23-.45-.45-.17-.85.2-.28.15-.88.69-.28.03.04.22-.06.33-.1.11-.05.28-.13.34-.03.35.63.86.17,1.29.22.58.06,1.13.27,1.73.28.25,0,.41.1.67-.07.34-.22.47.15.6.38.08.15-.04.36.12.53.04-.03.11-.05.12-.09.3-.81.76-.98,1.47-.51.21.14.37.24.58.05.03-.03.09-.07.1-.06.51.34.93.04,1.42-.09.3-.08.68-.04,1.03-.15.34-.11.72-.08,1.08,0,.16.04.33.13.47.02.79-.59,1.64-.14,2.46-.13.45,0,.91-.1,1.18-.38.43-.46.79-.34,1.18-.06.22.16.37.32.57,0,.04-.07.19-.12.27-.1,1.04.26,2.05-.13,3.08-.14.38,0,.99-.26,1.18.45.06.23.23.06.32-.03.27-.29.65-.27.96-.39.85-.32,1.69,0,2.51-.18.02,0,.05-.01.06-.02.13-.85.77-.19,1.12-.38-.36.85-.25,1.81-.6,2.68-.12.3-.06.67-.09,1.01Zm-5.41-1.61c.05.15-.09.4.16.45.16.03.21-.16.2-.31,0-.15.07-.36-.14-.41-.21-.06-.2.13-.23.28Z"/><path class="cls-4" d="m171.79,114.79c.18-.13.12-.33.12-.5.01-.35.18-.37.48-.3.54.11,1.12.14,1.64,0,.7-.19,1.41-.37,2.13-.41.71-.04,1.44-.16,2.14.07.07.02.19.03.23-.02.58-.64,1.31-.33,1.99-.35.38-.01.76-.3,1.16-.18.67.19,1.31.1,1.97-.06.2-.05.64.05.77.41.07.19.23.34.3.11.14-.45.59-.3.82-.54.04-.04.18-.06.22-.03.5.48,1.1.16,1.64.25.81.13,1.65-.11,2.43.27.12.06.28.04.42.04,1.02.01,2.02.2,3.03.28.89.08,1.67.68,2.59.45.48.54,1.19.29,1.77.5.53.19,1.11.24,1.65.45.23.09.45.09.58.33.03.06.16.15.18.14.64-.46,1.1.22,1.6.34.61.15,1.38.22,1.84.82.06.08.15.16.23.18,1.11.18,2.04.72,2.97,1.31.09.06.24.03.35.05.16.03.42.02.45.1.27.66,1,.59,1.45.98.27.23.7.21.96.53.15.19.32.33.15.56-.16.21-.43.21-.6.07-1.36-1.06-3.01-1.6-4.5-2.43-1.34-.75-2.82-1.24-4.27-1.79-.56-.21-1.16-.37-1.71-.54-.6-.18-1.23-.36-1.86-.5-.77-.18-1.57-.17-2.31-.32-1.99-.39-4.01-.45-5.99-.84-1.28-.24-2.61-.17-3.92-.18-.98,0-1.93.19-2.89.31-.91.11-1.84-.17-2.77-.07-1.35.16-2.72.11-4.06.43-.64.15-1.32.13-1.99.14-.47,0-.92.06-1.38.17,0-.08-.02-.16-.03-.24Z"/><path class="cls-2" d="m269.69,150.16c.49-.62,1.23-.93,1.78-1.5.53-.55.82-1.18,1.02-1.87.02-.08.03-.17.08-.22.54-.56.71-1.34,1.11-1.97.19-.29.28-.65.37-1,.09-.37-.1-.55-.47-.44-.54.16-1.07.06-1.62.04.33-.23.73-.21,1.09-.26.95-.13,1.13-.31,1.29-1.24.14-.77.25-1.62.56-2.25.31-.65.29-1.24.41-1.86.03-.13.09-.22.23-.26-.18.81.12,1.68-.46,2.46-.28.38-.2,1-.36,1.5-.35,1.09-.33,2.27-.77,3.32-.32.78-.61,1.6-1.2,2.25-.26.29-.28.67-.39,1-.19.58-.53,1.05-1,1.31-.57.32-.88,1.08-1.67,1Z"/><path class="cls-2" d="m172.71,143.24c.4.14.31.76.72.81.55.07.69.49.92.86.06.1.17.2.08.32-.07.1-.18.02-.27.01-.75-.04-.88.12-.69.87.06.23.08.48.18.7.21.47.39,1,1.08.94.14-.01.32.04.3.22-.03.23-.21.13-.33.08-.2-.09-.34.05-.51.1-.73-.96-1.12-2.02-1.03-3.23.03-.34-.07-.63-.28-.89-.18-.23-.29-.48-.17-.78Z"/><path class="cls-2" d="m174.2,148.32c.21.28.44.49.84.4.14-.03.28.01.3.2-.85.12-1.07,0-1.14-.6Z"/><path class="cls-2" d="m268.11,150.65c.02-.32.16-.5.51-.45-.11.21-.25.4-.51.45Z"/><path class="cls-2" d="m266.9,150.77c.16-.3.33-.27.49,0-.16,0-.33,0-.49,0Z"/><path class="cls-2" d="m175.66,148.98c.21-.09.32.01.39.2-.17,0-.32-.03-.39-.2Z"/><path class="cls-2" d="m183.72,137.64c.04-.45.37-.67.67-.89.4-.3.73-.66.85-1.12.14-.52.42-.27.51-.1.21.41.65.45.93.73.13.12.29.15.45.07.1-.05.11-.17.09-.27-.04-.21-.18-.3-.38-.32-.08,0-.16,0-.24,0-.22,0-.41-.04-.46-.29-.05-.24-.06-.48.17-.66.21-.16.4-.34.63-.46.17-.08.32-.35.53-.21.23.16.15.47.06.67-.32.74.1,1.38.27,2.04.07.25.39.41.71.33.16-.04.33-.14.39.1.05.21-.04.4-.26.4-.78.02-1.57.08-2.33-.03-.34-.04-.52-.48-.37-.9.04-.11.26-.22.04-.34-.14-.08-.25.03-.36.14-.3.3-.62.57-.94.85-.27.24-.58.35-.95.25Z"/><path class="cls-2" d="m183.09,136.94c.01.75-.05.84-.81.71-.42-.07-.73.28-1.15.16-.47-.13-.96-.17-1.46-.2-.37-.02-.59.22-.91.2-.17,0-.39.08-.5-.12-.11-.21.07-.37.21-.44.62-.32,1.05-.76,1.25-1.45.09-.32.43-.11.54.02.51.61,1.26.75,1.92,1.05.25.11.44.1.51-.2.04-.16.04-.39.23-.37.26.03.11.29.15.45.02.06,0,.12,0,.18Z"/><path class="cls-2" d="m230.51,141.32c-.41.11-.75.17-1.01-.32-.12-.22-.6-.26-.81-.23-.58.1-.58-.4-.81-.64-.12-.12-.13-.42.04-.56.19-.16.37,0,.52.14.54.48,1.29.62,1.83,1.12.19.17.21.31.22.5h0Z"/><path class="cls-2" d="m226.14,139c.03-.13-.07-.33.12-.42.18-.09.28.08.41.17.23.15.5.26.72.42.34.26.27.55-.14.7-.48.17-1.12-.32-1.11-.87Z"/><path class="cls-2" d="m181.98,134.81c-.15.3-.27.66-.42.99-.11.24-.43,0-.65-.05-.21-.05-.28-.23-.21-.42.18-.47.55-.71,1.03-.8.16-.03.27.06.26.28Z"/><path class="cls-2" d="m175.2,135.51c.01-.29.6-.86.84-.86.04,0,.08,0,.12.02.25.15.21.47.1.57-.24.22.07.9-.61.74-.28-.07-.5-.16-.45-.47Z"/><path class="cls-2" d="m227.59,137.9c0,.21-.03.45-.23.36-.34-.16-.91-.16-.92-.64-.01-.45.53-.32.78-.35.45-.05.19.47.38.63Z"/><path class="cls-2" d="m251.23,143.47c-.02.13-.1.25-.23.22-.67-.14-1.33-.3-1.99-.45-.11-.03-.18-.1-.14-.22.03-.09.11-.11.19-.1.67.09,1.34.17,1.99.35.11.03.19.07.19.2Z"/><path class="cls-2" d="m235.12,135.8c0,.3.06.56-.3.55-.33-.01-.58-.19-.53-.52.04-.3.13-.76.48-.74.38.02.33.48.35.71Z"/><path class="cls-2" d="m192.54,137.31c.02.4-.16.57-.56.46-.08-.02-.16-.03-.23-.07-.17-.09-.45.26-.51-.05-.04-.22.24-.38.46-.49.11-.06.24-.06.33-.13.42-.33.52-.13.5.29Z"/><path class="cls-2" d="m255.1,143.92c-.88.11-1.59.05-2.3.04-.15,0-.2-.12-.19-.25,0-.08.04-.17.14-.15.71.19,1.48-.1,2.34.36Z"/><path class="cls-2" d="m239.79,138.68c-.23-.02-.46-.09-.67-.21-.12-.07-.28-.13-.19-.31.06-.13.21-.14.31-.1.26.09.51.21.75.34.09.05.12.17.07.26-.06.11-.17.08-.27.02Z"/><path class="cls-2" d="m229.04,138.88c0,.21-.1.27-.23.23-.3-.09-.58-.25-.78-.49-.08-.1.13-.23.28-.21.34.03.56.24.74.46Z"/><path class="cls-2" d="m207.42,133.81c-.16.18-.35.1-.52.11-.2,0-.35-.08-.39-.29-.02-.15,0-.3.15-.36.21-.09.25.12.36.23.12.12.26.21.4.32Z"/><path class="cls-2" d="m178.34,135.52c-.18-.03-.46.1-.46-.23,0-.22.2-.28.39-.28.22,0,.5.03.52.29.02.32-.3.15-.46.21Z"/><path class="cls-2" d="m230.51,141.33c.22-.14.49-.32.68-.03.2.32-.11.49-.34.69-.12-.23-.22-.45-.33-.67,0,0,0,0,0,0Z"/><path class="cls-2" d="m208.31,133.87c0,.2.05.45-.21.49-.2.04-.29-.16-.23-.32.07-.19-.01-.51.24-.55.28-.05.16.24.21.37Z"/><path class="cls-2" d="m208.97,134.63c-.16,0-.28-.04-.28-.23,0-.22.13-.39.34-.42.18-.03.22.13.23.28.01.21-.07.34-.3.37Z"/><path class="cls-2" d="m182.57,134c.24.32.5.52.33.86-.03.05-.18.11-.19.09-.2-.25-.31-.53-.14-.96Z"/><path class="cls-2" d="m177.63,136.8c-.01.23,0,.46-.26.5-.16.03-.22-.08-.16-.22.09-.19-.02-.5.25-.55.22-.04.12.19.16.27Z"/><path class="cls-2" d="m219.75,140.6c.18.01.31.12.33.33.01.14-.04.25-.19.24-.25-.02-.32-.24-.37-.42-.03-.12.1-.15.23-.15Z"/><path class="cls-2" d="m230.96,139.87c.26,0,.29.16.28.33,0,.12-.01.26-.19.22-.16-.04-.27-.17-.28-.34-.01-.16.1-.19.19-.2Z"/><path class="cls-2" d="m252.14,143.47c-.18.19-.37.17-.61.07.2-.26.41-.11.61-.07Z"/><path class="cls-4" d="m210.35,120.61c0-.29.24-.28.37-.13.56.64,1.41.88,2.1,1.26.59.33,1.12.78,1.7,1.12.58.33,1.21.68,1.78,1.08.68.48,1.29,1.09,2.09,1.41.19.08.34.27.52.41.22.17.42.42.22.65-.22.28-.62.12-.74-.09-.46-.86-1.41-.96-2.1-1.43-.68-.46-1.31-.98-1.98-1.45-.25-.17-.48-.35-.78-.42-.1-.02-.25-.02-.28-.08-.47-.95-1.62-1.02-2.27-1.75-.17-.2-.78.06-.63-.59Z"/><path class="cls-4" d="m182,129.42c-.23-.12-.33-.46-.68-.28-.19.09-.28-.11-.28-.28,0-.84-.01-1.69,0-2.54,0-.26.1-.46.42-.24.03.02.08.07.1.06.94-.42.76.38.86.81.18.85.06,1.67-.42,2.47Z"/><path class="cls-4" d="m176.77,127.23c-.08.23-.14.48-.44.52-.32.04-.42.17-.31.49.04.12.04.29-.01.41-.06.15-.02.42-.28.4-.23-.02-.14-.25-.18-.39-.05-.18-.09-.37-.31-.4-.26-.04-.28.16-.29.35,0,.14-.08.22-.23.23-.18,0-.25-.11-.25-.27,0-.17-.02-.37-.15-.45-.55-.31-.17-.67-.09-1.02.03-.15.14-.19.27-.18.17.02.17.13.13.27-.07.2,0,.35.22.31.19-.03.47.02.49-.3,0-.13,0-.26.15-.27.16,0,.19.12.16.25-.05.27.12.21.24.14.18-.1.33-.24.5-.33.24-.13.32.03.36.24Z"/><path class="cls-4" d="m173.31,126.48c.25.58.32,1.18.54,1.74.06.15.03.37-.03.53-.09.22-.12.59-.46.55-.36-.04-.16-.39-.22-.59-.02-.05-.04-.11-.08-.2-.25.11-.33.41-.61.47-.17.03-.13.16-.05.28.09.13.23.3,0,.39-.24.09-.24-.17-.28-.3-.18-.55-.21-1.1-.05-1.66.07-.24.23-.2.37-.08.14.11.26.25.39.38.09.09.2.16.32.09.11-.06.02-.18.03-.27.03-.44.09-.88.13-1.32Z"/><path class="cls-4" d="m199.92,127.35c.04,1.02.11,2.04.11,3.06,0,.42-.87.78-1.22.55-.11-.08-.09-.22-.08-.33.01-.11.08-.21.19-.18.26.07.52.16.68-.15.17-.32.19-.73.03-.99-.43-.72-.17-1.33.27-1.96Z"/><path class="cls-4" d="m179.16,129.15c0-.83-.27-1.6-.25-2.5.3.16.63.17.46.65-.1.27-.08.51.32.38.2-.07.37-.04.44.16.07.19-.05.3-.2.38-.38.2-.54.57-.77.92Z"/><path class="cls-4" d="m190.28,130.07c-.27-.74-.15-1.49-.27-2.23-.02-.12.06-.24.19-.28.14-.04.26.06.26.18,0,.78.16,1.57-.17,2.32Z"/><path class="cls-4" d="m179.98,128.65c.21.1.2.29.19.47-.02.17-.1.33-.3.3-.24-.04-.1-.21-.07-.33.05-.15-.09-.38.18-.44Z"/><path class="cls-4" d="m183.04,132.43c.06.28.07.54-.02.82-.37-.39-.36-.48.02-.82Z"/><path class="cls-4" d="m208.67,129.75c.16.2.27.4.25.65,0,.1-.03.22-.16.2-.11-.01-.21-.11-.16-.21.09-.21.01-.42.07-.64Z"/><path class="cls-4" d="m197.63,130.58c0,.17-.02.3-.18.3-.12,0-.16-.1-.17-.21,0-.13,0-.27.15-.29.16-.03.16.13.19.2Z"/><path class="cls-4" d="m182.93,125.91c-.1-.25-.12-.44.08-.78.07.35.14.54-.08.78Z"/><path class="cls-4" d="m181.98,125.55c-.04-.08-.08-.13-.07-.17,0-.04.06-.07.1-.11.03.04.08.09.08.13,0,.04-.05.08-.1.15Z"/><path class="cls-2" d="m270.17,134.26c.02-.15.02-.33.23-.28.21.06.14.26.14.41,0,.14-.04.34-.2.31-.25-.04-.11-.3-.16-.45Z"/><text class="cls-7" transform="translate(14.22 68.9)"><tspan class="cls-9" x="0" y="0">A</tspan><tspan x="18.52" y="0">ms</tspan><tspan class="cls-1" x="55.91" y="0">t</tspan><tspan x="65.79" y="0">e</tspan><tspan class="cls-11" x="81.02" y="0">r</tspan><tspan x="90.66" y="0">dam </tspan><tspan class="cls-6" x="154.26" y="0">c</tspan><tspan x="167.7" y="0">e</tspan><tspan class="cls-10" x="182.93" y="0">n</tspan><tspan x="199.68" y="0">t</tspan><tspan class="cls-8" x="209.74" y="0">r</tspan><tspan x="219.53" y="0">aal</tspan></text></g></svg>