<?xml version="1.0" encoding="UTF-8"?><svg id="Layer_2" xmlns="http://www.w3.org/2000/svg" width="300" height="200" viewBox="0 0 300 200"><defs><style>.cls-1{letter-spacing:0em;}.cls-2{fill:#868b94;}.cls-2,.cls-3,.cls-4{stroke-width:0px;}.cls-3{fill:#cbccce;}.cls-5{letter-spacing:0em;}.cls-6{font-family:MyriadPro-Regular, 'Myriad Pro';font-size:30.4px;}.cls-7{letter-spacing:0em;}.cls-8{letter-spacing:0em;}.cls-4{fill:#3c3d42;}.cls-9{letter-spacing:0em;}.cls-10{letter-spacing:0em;}</style></defs><g id="Layer_2-2"><rect class="cls-3" width="300" height="200"/><path class="cls-2" d="m172.51,142.19c-.11-.03-.19-.11-.18-.21.06-.79-.09-1.61-.3-2.32-.4-1.35.16-2.82-.65-4.08-.11-.17-.1-.43-.11-.65-.07-1.77-.28-3.53-.18-5.31,0-.09-.04-.15-.12-.18v-.24c.45.03.33-.32.33-.54.02-1.45.02-2.89.02-4.34,0-.37.02-.72.15-1.06.31-.04.53.29.86.2,1.2-.34,2.45-.26,3.68-.48,1.01-.18,2.08-.19,3.13-.2.71,0,1.43.03,2.12.02,1.3-.01,2.61-.12,3.91-.17.85-.03,1.7-.07,2.57-.01.88.06,1.65.51,2.6.4.77-.09,1.63-.06,2.45.19.67.21,1.42.11,2.11.27.51.12,1.08.02,1.51.24.72.36,1.55.32,2.23.74.08.05.21.05.3.02.7-.22,1.38.12,1.91.38,1.31.63,2.78.82,4.04,1.58.45.28.98.47,1.47.67,1.11.45,2.18.92,3.16,1.6.08.06.18.12.27.11.48-.06.92.21,1.2.44.84.71,1.89,1.01,2.79,1.6,1,.65,2.02,1.3,3.08,1.88,1.29.7,2.49,1.54,3.74,2.3.66.4,1.28.96,1.97,1.25,1.06.44,1.71,1.45,2.84,1.75.3.08.32.49.17.74-.13.22-.45.18-.58-.01-.31-.49-.79-.6-1.3-.73-.34-.09-.71-.21-.79-.65-.02-.13-.15-.2-.29-.13-.29.14-.47-.07-.71-.16-.51-.19-.89-.64-1.43-.73-.36-.06-.6-.15-.71-.53-.07-.24-.27-.42-.56-.23-.28.18-.4.03-.48-.22-.12-.39-.55-.74-.75-.66-.73.28-.78-.16-.87-.64-.02-.11-.07-.2-.17-.23-.13-.03-.15.09-.19.18-.16.32-.39.29-.65.12-.33-.22-.44-.06-.43.26.02.3-.1.55-.23.8-.11.21-.27.34-.48.23-.24-.13-.08-.34.02-.46.21-.27.06-.33-.1-.57-.28-.4-.83-.38-1.01-.78-.18-.41-.55-.76-.5-1.27.01-.12-.03-.26-.19-.24-.16.02-.18.17-.15.28.12.4-.07.79-.03,1.19.02.14.07.37-.15.4-.24.03-.14-.25-.25-.35-.02-.02-.07-.02-.1-.03-.17.07-.14.35-.38.36-.13-.22-.1-.42.06-.61.07-.08.14-.15.21-.22.85-.77-.52-.79-.47-1.32.01-.12-.25-.45-.56-.22-.12.09-.25.13-.39.07-.28-.13-.51-.09-.66.21-.04.09-.12.19-.23.13-.05-.03-.1-.14-.09-.2.1-.54-.39-.93-.38-1.44,0-.11-.06-.21-.18-.2-.16,0-.18.14-.17.27.02.14.07.27.1.41.02.15-.03.29-.13.39-.19.17-.22-.08-.31-.14-.25-.17-.37-.09-.39.2-.01.22-.06.43-.33.4-.27-.03-.24-.27-.26-.47-.05-.5-.12-1-.18-1.49-.25.26-.16.54-.19.8-.02.15.07.37-.13.42-.26.06-.21-.17-.23-.32-.02-.11-.05-.21-.17-.21-.16,0-.18.13-.19.26,0,.12.01.24,0,.36-.02.14.09.37-.17.37-.17,0-.35-.21-.29-.33.26-.51-.28-.96-.08-1.45.06-.15.04-.29-.16-.31-.17-.02-.27.07-.27.24,0,.14,0,.28-.01.42,0,.24.01.57-.26.61-.32.05-.31-.29-.36-.52,0-.04,0-.09-.03-.11-.13-.13.05-.49-.26-.45-.21.03-.14.3-.16.47-.02.16.09.44-.14.46-.29.02-.22-.27-.23-.46-.04-.48.08-.98-.1-1.51-.28.62-.31.64-.49.39-.06-.09-.04-.27-.22-.2-.13.05-.15.18-.15.31,0,.18,0,.36,0,.55,0,.15.05.38-.19.37-.22-.01-.15-.24-.17-.39-.04-.36.08-.74-.12-1.12-.23.23-.02.66-.46.76-.01-.19-.02-.34-.03-.5,0-.17-.03-.35-.24-.35-.21,0-.22.19-.24.35-.03.24.07.51-.11.78-.07-.09-.11-.13-.13-.17-.15-.51.03-1.26-.91-1.19-.13.01-.19-.18-.2-.33-.01-.14.06-.32-.21-.41-.05,1.39-.1,2.74-.14,4.09,0,.17.09.33.26.36.15.03.17-.13.21-.24.14-.36.36-.33.6-.1.12.11.25.21.34.34.32.45.97.07,1.3.52.45-.48.5-.09.58.26.04.15.17.14.29.15.16.02.39.04.33.24-.06.21-.26.09-.41.04-1.47-.49-2.95-.95-4.47-1.24-.53-.1-1.04-.28-1.61-.32-.86-.06-.85-.13-.85-1.1,0-.82,0-1.64,0-2.46,0-.14.06-.32-.15-.43-.12.2-.08.41-.08.6,0,.87,0,1.74,0,2.61,0,.25-.02.57-.3.57-.33,0-.16-.34-.19-.53-.05-.3.1-.65-.14-.95-.3.4.22,1.06-.4,1.24-.45.14-.96.06-1.43-.08-.14-.04-.28-.03-.36-.18-.04-.07-.1-.15-.19-.1-.53.27-1.08.03-1.61.05-.54.01-1.06-.1-1.61-.05-.69.06-1.46-.01-2.09-.18-.89-.24-1.77-.05-2.66-.26-.57-.14-1.34-.02-2.02.04-.21.02-.52.24-.58-.16-.05-.34-.02-.76.31-.92.61-.29.48-.82.48-1.28,0-.25-.06-.51-.08-.77-.02-.24.12-.7-.13-.68-.42.02-.08.41-.11.63,0,.04,0,.08,0,.12-.01.15-.04.31-.22.3-.17,0-.14-.17-.15-.28-.02-.21,0-.44-.32-.6-.04.48-.17.94-.1,1.37.1.67.02,1.33.06,1.99.01.17-.01.37-.23.36-.38-.01-.78.14-1.13-.07-.2-.13-.34-.11-.47.04-.46.5-1.08.27-1.61.32-.58.06-1.17,0-1.76.02-1.01.06-2.02.17-3.02.11-.92-.06-1.78.19-2.68.23-.17,0-.5.09-.49.36,0,.28.28.35.53.39,1.09.16,2.19.2,3.3.12,1.56-.11,3.13-.14,4.69-.28,2.18-.2,4.37-.1,6.55-.08,1.75.02,3.5.23,5.25.33,1.55.08,3.08.31,4.62.51,1.1.15,2.19.36,3.27.56,1.13.22,2.26.52,3.38.85,1.68.48,3.33,1.06,4.96,1.68,1.35.51,2.7,1.02,4.04,1.56.61.25,1.26.49,1.76.89.61.49,1.35.79,2.02,1.02,1.01.35,1.85,1.02,2.87,1.31.15.04.54.14.38.42-.18.29-.49.19-.73-.02-.15-.13-.27-.33-.5-.31-.43.04-.67-.26-.99-.43-.39-.21-.92-.16-1.19-.64,0-.01-.08,0-.11.02-.41.3-.74.03-1.03-.18-.45-.34-1.2-.11-1.46-.78,0-.02-.14-.03-.16,0-.26.28-.46-.01-.7-.05-.76-.12-1.3-.91-2.17-.72-.13.03-.28-.14-.33-.31-.13-.42-.31-.35-.52-.05-.21.3-.36.26-.48-.09-.12-.34-.28-.34-.49-.04-.27.36-.45.25-.55-.14-.06-.22-.12-.43-.2-.7-.1.11-.15.14-.17.19-.21.4-.38.67-.67.03-.09-.2-.32-.47-.66-.42-.5.07-1.01.18-1.41-.3-.08-.1-.19-.09-.33-.04-.63.22-1.17.01-1.42-.55-.09-.21-.15-.35-.37-.15-.09.08-.16.11-.26.05-.8-.44-1.76-.31-2.59-.8,0,.32.41.3.26.58-.11.2-.27.21-.47.13-.12-.05-.18.03-.25.11-.28.32-.4.13-.47-.16-.09-.39-.28-.56-.7-.4-.14.05-.32.04-.48.03-.66-.03-.7,0-.77.69-.02.15-.03.32-.2.33-.21.01-.15-.19-.17-.32-.06-.38.3-1.05-.59-.91-.04,0-.1-.12-.15-.18-.1-.11-.19-.1-.31,0-.51.39-.88.3-1.13-.25-.04-.1-.06-.2-.19-.19-.14.01-.14.11-.11.22.07.25-.08.33-.29.35-.18.01-.33-.06-.36-.25-.04-.26-.11-.5-.44-.45-.26.04-.51.14-.55.47-.02.15-.06.29-.24.3-.18,0-.24-.14-.24-.29,0-.54-.46-.49-.74-.47-.59.03-1.18.18-1.78.12-.21-.02-.26.14-.3.31-.03.14.08.33-.12.42-.19-.07-.06-.58-.41-.34-.26.18-.28.05-.36-.13-.08-.17-.26-.22-.42-.17-.35.1-.66.12-.93-.19-.06-.07-.26-.1-.34-.05-.48.31-.84-.02-1.18-.24-.22-.14-.38-.14-.54.01-.27.25-.46.73-.94.25-.07-.07-.19.03-.24.12-.34.55-.64.48-.91-.06-.08-.16-.17-.35-.4-.3-.21.05-.37.21-.36.43.01.48-.25.35-.5.24-.21-.1-.41-.36-.65-.14-.47.42-.79.15-1.11-.2-.09-.1-.19-.27-.34-.17-.15.1-.11.3-.05.44.04.11.14.19.22.28.09.11.11.21,0,.32-.1.09-.22.12-.33.03-.45-.35-.85-.74-1.39-.98-.24-.11-.64-.35-.9-.29-.06.01-.12,0-.18.01-.57.15-1.07.48-1.64.65-.2.06-.25.12-.4-.05-.45-.48-.8-.46-1.21.09-.17.23-.28.32-.5.07-.16-.19-.4-.29-.56-.04-.24.37-.46.78-.31,1.24.09.3.25.62.62.26.29-.28.57-.15.83-.01.19.1.22.39-.03.38-.72-.02-.65.64-.95.98-.17.19-.19.44.05.64.23.2.47.19.72.04.44-.26.7-.71,1.05-1.07.13-.13.02-.65.35-.38.22.18.5,0,.66.27.22.36.59.52,1.01.53.32,0,.55.06.56.45,0,.34-.04.6-.44.66-.37.06-.74.17-1.13.1-.28-.05-.53-.06-.48-.44.01-.09,0-.22-.12-.24-.15-.03-.23.09-.24.21-.03.37-.24.44-.57.47-.28.03-.55.13-.84.11-.12,0-.26,0-.3.14-.03.11.05.18.13.25.24.22.48.43.69.67.23.25.5.35.82.28,1.12-.24,2.25-.14,3.38-.21,3.1-.19,6.2-.07,9.3-.05,2.16.01,4.3.29,6.45.36,2.8.1,5.53.64,8.26,1.15.02,0,.03.06.06.15-.27.09-.55.08-.82.06-.68-.07-1.35-.19-2.02-.25-1.23-.1-2.47-.17-3.71-.25-.75-.05-1.51-.08-2.26-.12-.53-.03-1.1-.15-1.59-.14-.99.02-2-.21-2.96-.02-.67.13-1.5-.59-2.02.35,0,.01-.09,0-.11-.02-.59-.64-1.37-.29-2.07-.4-.43-.06-.8.41-1.22.23-.62-.26-1.18.06-1.78.05-.09,0-.21.08-.28,0-.41-.5-1,.12-1.42-.23-1.11.42-2.27.02-3.38.17-.6.08-1.28-.18-1.78.35-.34.36-.61.4-.9-.07-.15-.24-.35-.45-.57.06-.22.51-.19,1.01-.22,1.53Zm8.62-13.04c.25-.02.17-.38.42-.37.18.12.08.46.34.47.6-.78.41-1.64.36-2.49-.01-.21-.03-.43-.3-.43-.27,0-.29.23-.3.44,0,.12.06.3-.17.31-.12-.14-.07-.31-.08-.47-.01-.16,0-.36-.22-.36-.2,0-.13.22-.17.34-.17.55-.07,1.12-.09,1.68,0,.31-.08.65.21.89Zm-7.25-1.28c.19.26.58.38.49.79-.03.14.03.28.22.29.18,0,.24-.1.26-.26.03-.35.2-.43.46-.21.13.1.14.28.15.45,0,.12.03.25.19.25.13,0,.15-.11.18-.21.04-.13.13-.29.09-.4-.16-.44-.06-.66.43-.75.22-.04.38-.35.26-.59-.17-.35-.35-.04-.53.03-.16.06-.34.24-.48.01-.24-.4-.32-.26-.42.08-.07.22-.28.29-.49.27-.28-.02-.13-.22-.12-.36,0-.12-.04-.2-.16-.21-.07,0-.22.04-.22.04.05.32-.14.55-.33.79Zm-.9.7c.03.19.04.26.05.34.03.18-.09.45.18.52.3.07.33-.22.45-.4.11-.18.14-.39.09-.58-.15-.61-.34-1.21-.47-1.84-.19.26-.05.56-.14.8-.1.27.07.68-.11.76-.33.15-.46-.3-.69-.46-.11-.08-.29-.32-.36-.04-.15.65-.22,1.31.09,1.95.06.13.13.22.27.15.13-.07.11-.22.02-.31-.2-.23-.11-.32.14-.42.17-.07.29-.25.5-.45Zm26.99-1.1c-.08,0-.17-.01-.25-.02-.32.62-.53,1.19-.16,1.93.35.7.04,1.11-.67,1.16-.11,0-.2.04-.22.16-.02.12-.06.31.05.33.26.06.55.12.8.06.25-.06.43-.36.44-.6.03-1.01.01-2.01.01-3.02Zm-9.82,2.74c.21-.13.24-.3.24-.48,0-.56,0-1.12,0-1.68,0-.19-.02-.41-.27-.37-.22.03-.24.27-.2.44.07.29,0,.6.04.87.05.39-.02.83.19,1.22Zm3.48.23c.14-.33.2-.53.3-.72.06-.12.08-.22-.03-.31-.08-.07-.18-.09-.28-.05-.12.05-.2.15-.18.28.04.23.1.45.18.8Zm-10.73,3.04c.09-.4.16-.68-.03-1-.27.32-.26.59.03,1Zm25.7-3.62c-.06.22.02.43-.07.64-.04.1.05.2.16.21.13.01.15-.1.16-.2.02-.25-.09-.45-.25-.65Zm-11.23,1.14c.16-.02.19-.13.18-.26,0-.12-.03-.26-.19-.25-.11.01-.15.13-.15.23,0,.13,0,.25.16.27Z"/><path class="cls-2" d="m172.26,106.4c-.31-.14-.14-.42-.16-.63-.07-.71.45-1.27.56-1.95.04-.22.38-.23.63-.27,5.43-.74,10.89-.52,16.34-.46,1.19.01,2.4.24,3.57.56.15.04.31.11.47.1,1.77-.1,3.42.46,5.1.91,1.79.48,3.52,1.16,5.2,1.89,1.65.71,3.27,1.52,4.88,2.33,1.64.83,3.1,1.94,4.74,2.75.29.14.54.21.86.08,1.57-.61,3.05-1.42,4.53-2.22,1.04-.56,2.01-1.25,3.15-1.61.51-.16.9-.53,1.34-.8,1.82-1.07,3.79-1.83,5.67-2.76,1.06-.52,2.2-.91,3.26-1.43,1.57-.77,3.28-1.17,4.89-1.85.82-.35,1.75-.42,2.62-.64,1.22-.31,2.5-.41,3.64-1,.31-.16.65-.22,1-.22,3.76.01,7.53.03,11.29.03.59,0,1.15.2,1.73.26,1.48.16,2.98.26,4.43.52,1.15.21,2.34.28,3.48.6.42.12.54.37.64.76.37,1.45.08,2.94.29,4.38.23,1.61,0,3.24.25,4.82.48,2.97.29,5.95.49,8.91.1,1.55.16,3.09.21,4.64,0,.17.08.35.15.52.29.79.35,1.6.33,2.44-.03,1.24.92,2.1,2.16,2.18,1.66.11,3.34-.2,5,.21.71.18.92.29,1,1.02.07.61.18,1.22.27,1.84-.35.18-.99-.47-1.12.38,0,0-.04.01-.06.02-.82.18-1.66-.14-2.52.18-.31.12-.69.1-.96.39-.09.09-.26.26-.32.03-.19-.71-.81-.45-1.18-.45-1.02,0-2.03.4-3.08.14-.08-.02-.23.03-.27.1-.21.32-.36.16-.57,0-.39-.29-.76-.41-1.18.06-.26.29-.71.39-1.13.39-.86,0-1.74-.45-2.57.14-.08.06-.27-.02-.41-.05-.36-.07-.74-.11-1.08,0-.35.11-.72.08-1.03.15-.49.12-.91.44-1.43.09-.01,0-.07.03-.1.06-.21.19-.37.1-.58-.04-.71-.47-1.17-.3-1.47.51-.02.06-.06.1-.15.07-.02-.04-.05-.09-.06-.14-.1-.78-.16-.81-.87-.57-.05.02-.13.04-.17.02-.53-.3-1.16-.11-1.7-.35-.53-.23-1.23.38-1.69-.31-.02-.02-.18.05-.28.08-.09.03-.25.11-.28.08-.52-.57-.49-.03-.69.28-.27.4,0,.61.17.85.25.33.36-.21.62-.14.06.31.07.56-.37.52-.24-.02-.49.02-.73-.02-.31-.05-.59-.15-.31-.55.2-.28.16-.63.19-.93.05-.61-.48-.46-.84-.51-.25-.04-.34.1-.31.32.04.29.06.62.2.87.27.48-.02.46-.34.46-.63,0-1.18-.29-1.87-.49.69-.13.09-.7.45-.96.23-.17.34-.5.08-.66-.24-.15-.47.09-.63.32-.15.22-.34.47-.19.72.36.59-.08.45-.38.47-.63.04-1.18-.3-1.72-.51-.53-.21-1.09-.27-1.61-.6-.78-.48-1.72-.68-2.53-1.17-.65-.39-1.45-.48-2.09-.93-.23-.16-.4-.46-.67-.5-.7-.09-1.09-.72-1.75-.92-.7-.21-1.19-.95-2.01-.98-.11,0-.23-.15-.33-.25-.69-.67-1.54-1.11-2.3-1.68-.93-.7-2.04-1.18-2.92-1.94-.58-.49-1.71-.54-1.58-1.78-.21.57-.5.37-.75.2-1.15-.75-2.2-1.63-3.42-2.28-.92-.49-1.74-1.17-2.56-1.82-1.12-.89-2.17-1.87-3.47-2.54-.71-.37-1.26-1.02-1.97-1.39-1.48-.77-2.72-1.91-4.27-2.59-.83-.36-1.6-.91-2.45-1.31-1.08-.51-2.17-1.01-3.24-1.53-1.37-.67-2.83-1.14-4.31-1.57-.39-.11-.83-.09-1.16-.28-.68-.4-1.45-.39-2.17-.61-1.13-.34-2.32-.51-3.5-.58-1.26-.08-2.49-.44-3.77-.42-.43,0-.89.02-1.3-.05-.99-.16-1.99-.06-2.98-.18-.32-.04-.72-.21-.94-.08-.61.35-1.24.13-1.85.18-1.2.1-2.4.07-3.6.25-.6.09-1.22,0-1.82.21-.24.09-.57-.1-.93-.03-.74.14-1.5.49-2.29.12-.2-.1-.39-.02-.52.16Z"/><path class="cls-4" d="m172.51,142.19c.03-.51,0-1.02.22-1.53.22-.52.42-.3.57-.06.3.47.56.43.9.07.5-.53,1.19-.27,1.78-.35,1.12-.15,2.27.25,3.38-.17.43.35,1.01-.27,1.42.23.07.09.19,0,.28,0,.59.01,1.16-.31,1.78-.05.42.18.8-.29,1.22-.23.69.1,1.48-.25,2.07.4.02.02.1.03.11.02.52-.94,1.35-.22,2.02-.35.97-.19,1.97.04,2.96.02.49-.01,1.05.11,1.59.14.75.05,1.51.08,2.26.12,1.24.08,2.47.15,3.71.25.68.06,1.35.18,2.02.25.27.03.55.04.82-.06-.04-.09-.05-.15-.06-.15-2.74-.51-5.46-1.05-8.26-1.15-2.15-.08-4.29-.35-6.45-.36-3.1-.02-6.2-.14-9.3.05-1.12.07-2.26-.03-3.38.21-.32.07-.59-.03-.82-.28-.21-.24-.46-.46-.69-.67-.08-.07-.16-.14-.13-.25.04-.15.18-.15.3-.14.29.02.56-.08.84-.11.33-.03.54-.11.57-.47,0-.12.09-.24.24-.21.13.03.13.15.12.24-.05.38.2.4.48.44.39.06.75-.04,1.13-.1.4-.06.45-.33.44-.66,0-.4-.24-.45-.56-.45-.42,0-.79-.17-1.01-.53-.16-.27-.43-.09-.66-.27-.32-.27-.22.25-.35.38-.35.36-.6.8-1.05,1.07-.25.15-.49.16-.72-.04-.24-.2-.22-.46-.05-.64.3-.33.24-1,.95-.98.25,0,.22-.28.03-.38-.26-.14-.54-.27-.83.01-.38.36-.53.04-.62-.26-.14-.47.08-.87.31-1.24.16-.25.4-.15.56.04.22.25.33.16.5-.07.41-.55.77-.58,1.21-.09.16.17.2.11.4.05.57-.17,1.07-.5,1.64-.65.06-.02.12,0,.18-.01.26-.06.66.18.9.29.53.25.94.64,1.39.98.11.08.23.06.33-.03.11-.1.09-.21,0-.32-.08-.09-.18-.18-.22-.28-.06-.15-.1-.34.05-.44.15-.1.25.07.34.17.32.35.63.62,1.11.2.24-.22.44.04.65.14.25.11.51.24.5-.24,0-.22.15-.38.36-.43.23-.06.32.13.4.3.27.54.57.61.91.06.06-.09.18-.19.24-.12.47.47.66,0,.94-.25.16-.15.32-.15.54-.01.35.22.7.55,1.18.24.08-.05.28-.01.34.05.27.3.58.29.93.19.16-.05.34,0,.42.17.08.18.1.31.36.13.35-.23.22.27.41.34.19-.09.09-.28.12-.42.03-.17.09-.33.3-.31.6.06,1.19-.09,1.78-.12.28-.02.74-.07.74.47,0,.15.06.29.24.29.17,0,.22-.16.24-.3.04-.33.29-.43.55-.47.33-.05.39.19.44.45.03.19.18.26.36.25.21-.02.35-.1.29-.35-.03-.11-.03-.21.11-.22.13,0,.15.09.19.19.25.55.62.63,1.13.25.12-.09.21-.1.31,0,.05.06.11.18.15.18.89-.14.52.52.59.91.02.13-.04.33.17.32.17,0,.18-.18.2-.33.08-.7.11-.73.77-.69.16,0,.34.02.48-.03.41-.15.61.02.7.4.07.3.18.49.47.16.07-.08.13-.15.25-.11.19.08.36.07.47-.13.15-.28-.25-.25-.26-.58.84.48,1.79.35,2.59.8.11.06.18.03.26-.05.22-.2.28-.06.37.15.25.56.79.77,1.42.55.14-.05.24-.06.33.04.39.47.9.36,1.41.3.34-.05.57.22.66.42.29.64.46.37.67-.03.03-.05.08-.09.17-.19.08.26.14.48.2.7.1.39.29.5.55.14.22-.3.38-.3.49.04.12.35.27.39.48.09.21-.3.39-.37.52.05.05.17.2.34.33.31.87-.19,1.41.6,2.17.72.23.04.44.33.7.05.02-.03.15-.02.16,0,.26.68,1.01.45,1.46.78.29.21.62.48,1.03.18.03-.02.1-.03.11-.02.27.47.79.43,1.19.64.32.17.56.47.99.43.23-.02.35.18.5.31.24.21.56.31.73.02.17-.28-.23-.38-.38-.42-1.02-.29-1.86-.96-2.87-1.31-.67-.23-1.4-.53-2.02-1.02-.5-.4-1.15-.64-1.76-.89-1.34-.54-2.69-1.05-4.04-1.56-1.63-.62-3.28-1.19-4.96-1.68-1.12-.32-2.25-.63-3.38-.85-1.08-.21-2.17-.42-3.27-.56-1.54-.2-3.07-.43-4.62-.51-1.75-.09-3.5-.31-5.25-.33-2.18-.02-4.36-.12-6.55.08-1.56.14-3.13.17-4.69.28-1.11.08-2.2.04-3.3-.12-.26-.04-.52-.11-.53-.39,0-.27.32-.35.49-.36.9-.04,1.76-.29,2.68-.23,1,.07,2.01-.05,3.02-.11.59-.03,1.18.03,1.76-.02.54-.05,1.15.17,1.61-.32.14-.15.27-.16.47-.04.35.22.75.06,1.13.07.21,0,.24-.19.23-.36-.04-.66.04-1.32-.06-1.99-.06-.43.06-.89.1-1.37.32.16.3.39.32.6.01.11-.02.28.15.28.18,0,.21-.15.22-.3,0-.04,0-.08,0-.12.03-.22-.31-.61.11-.63.25-.01.11.44.13.68.02.26.08.53.08.77,0,.46.13.99-.48,1.28-.33.16-.36.58-.31.92.06.4.37.17.58.16.68-.06,1.45-.18,2.02-.04.89.21,1.77.02,2.66.26.63.17,1.4.24,2.09.18.55-.05,1.07.06,1.61.05.54-.01,1.08.23,1.61-.05.09-.05.16.04.19.1.08.14.22.14.36.18.48.14.98.21,1.43.08.62-.18.1-.84.4-1.24.24.3.09.64.14.95.03.19-.14.53.19.53.28,0,.3-.33.3-.57,0-.87,0-1.74,0-2.61,0-.19-.04-.39.08-.6.21.12.15.29.15.43,0,.82,0,1.64,0,2.46,0,.96,0,1.04.85,1.1.56.04,1.07.22,1.61.32,1.52.29,3,.75,4.47,1.24.15.05.35.17.41-.04.06-.21-.17-.23-.33-.24-.12-.01-.26,0-.29-.15-.08-.35-.14-.74-.58-.26-.32-.44-.97-.07-1.3-.52-.09-.13-.22-.23-.34-.34-.24-.23-.46-.26-.6.1-.04.11-.06.27-.21.24-.17-.03-.27-.19-.26-.36.04-1.35.09-2.7.14-4.09.27.09.2.27.21.41.02.15.07.35.2.33.94-.07.76.68.91,1.19.01.05.06.09.13.17.17-.28.08-.54.11-.78.02-.17.03-.35.24-.35.21,0,.23.19.24.35,0,.16.02.32.03.5.44-.1.23-.52.46-.76.2.38.08.76.12,1.12.02.15-.05.38.17.39.24.01.18-.22.19-.37,0-.18,0-.36,0-.55,0-.13.03-.26.15-.31.18-.07.15.11.22.2.18.25.21.23.49-.39.18.53.07,1.03.1,1.51.01.19-.05.48.23.46.23-.02.12-.29.14-.46.02-.18-.05-.44.16-.47.31-.04.13.31.26.45.02.02.02.08.03.11.05.23.04.57.36.52.27-.04.25-.37.26-.61,0-.14,0-.28.01-.42,0-.17.1-.26.27-.24.19.02.22.16.16.31-.21.49.34.94.08,1.45-.06.12.12.33.29.33.26,0,.14-.23.17-.37.02-.12,0-.24,0-.36,0-.12.02-.25.19-.26.12,0,.15.1.17.21.03.14-.03.38.23.32.21-.05.11-.27.13-.42.03-.26-.06-.55.19-.8.06.5.13,1,.18,1.49.02.2,0,.44.26.47.27.03.32-.18.33-.4.02-.28.14-.36.39-.2.1.06.13.31.31.14.1-.09.16-.24.13-.39-.02-.14-.08-.27-.1-.41-.02-.12,0-.26.17-.27.12,0,.18.09.18.2,0,.52.48.9.38,1.44-.01.06.04.17.09.2.12.06.19-.04.23-.13.15-.29.38-.34.66-.21.15.07.27.03.39-.07.31-.24.57.1.56.22-.06.53,1.32.55.47,1.32-.07.07-.15.14-.21.22-.16.19-.19.38-.06.61.24-.01.2-.29.38-.36.03.01.08.01.1.03.11.1,0,.38.25.35.22-.03.17-.25.15-.4-.04-.4.15-.79.03-1.19-.03-.11-.01-.26.15-.28.17-.02.21.12.19.24-.05.51.32.86.5,1.27.17.4.73.37,1.01.78.17.24.31.3.1.57-.09.12-.26.34-.02.46.21.11.38-.03.48-.23.13-.25.25-.5.23-.8-.02-.32.1-.48.43-.26.26.17.49.2.65-.12.04-.09.07-.21.19-.18.1.02.16.12.17.23.08.48.13.92.87.64.2-.08.64.27.75.66.07.25.19.4.48.22.29-.19.49-.01.56.23.11.38.35.47.71.53.54.09.92.54,1.43.73.24.09.42.3.71.16.13-.06.26,0,.29.13.08.45.45.56.79.65.5.13.98.25,1.3.73.12.19.45.23.58.01.14-.25.13-.66-.17-.74-1.12-.3-1.78-1.31-2.84-1.75-.68-.28-1.3-.84-1.97-1.25-1.25-.76-2.45-1.6-3.74-2.3-1.06-.57-2.07-1.22-3.08-1.88-.9-.59-1.95-.89-2.79-1.6-.28-.24-.72-.5-1.2-.44-.08.01-.19-.06-.27-.11-.98-.69-2.06-1.16-3.16-1.6-.49-.2-1.01-.39-1.47-.67-1.25-.77-2.72-.95-4.04-1.58-.53-.26-1.21-.59-1.91-.38-.09.03-.22.02-.3-.02-.68-.42-1.51-.38-2.23-.74-.44-.22-1-.12-1.51-.24-.69-.16-1.44-.06-2.11-.27-.82-.25-1.68-.29-2.45-.19-.95.12-1.72-.34-2.6-.4-.86-.06-1.72-.02-2.57.01-1.3.05-2.61.16-3.91.17-.7,0-1.41-.03-2.12-.02-1.05.01-2.13.03-3.13.2-1.22.21-2.48.14-3.68.48-.34.09-.55-.23-.86-.2,0-.2,0-.4,0-.59,1.19-.35,2.45-.25,3.67-.44,2.08-.32,4.21-.31,6.31-.43.99-.05,1.98-.1,2.98-.1,1.07,0,2.14-.09,3.21.09.95.16,1.91.28,2.88.35,1.9.14,3.78.37,5.65.72,1.71.33,3.4.78,5.06,1.3,1.09.34,2.15.75,3.2,1.18,1.36.55,2.69,1.18,4.03,1.77.46.2.95.37,1.36.64.19.12.34.29.57.38.46.19,1,.3,1.38.54,1.07.7,2.28,1.19,3.25,2.05.24.22.56.75,1.01-.03.02.89.43,1.27,1.13,1.41.13.03.24.14.37.2.45.2.69.05.7-.45.01-.7-.06-1.4.24-2.07.07-.15.08-.35.29-.29.19.05.21.23.14.4-.1.27-.15.58,0,.82.31.52.16.95-.14,1.4-.37.54-.22.91.38,1.12.21.07.49-.03.62.18.57.89,1.59,1.11,2.39,1.67.41.28.48.03.45-.32-.07-.97.09-1.93.12-2.89,0-.11-.04-.27.12-.31.14-.04.22.08.29.18.17.24.18.49.14.8-.06.44.2.64.68.71.53.08.32-.27.36-.47.04-.23.08-.31.35-.24.5.14.77.73,1.38.67.08,0,.21.18.28.3.1.16.27.22.4.33.54.46,1.34.51,1.75,1.16.09.15.29.2.44.29.48.31,1.21.28,1.39,1,.02.06.13.16.17.15.59-.2.67,1.22,1.44.46,0,0,.04.01.05.03.27.47.83.49,1.23.67.7.3,1.19.91,1.95,1.15.38.12.96.15,1.19.6.2.41.64.56.93.56.4,0,.66.18.98.32.65.28,1.25.68,2,.76.32.03.7.23.92.48.21.24.23.38.69.41.94.05,1.97.2,2.73.93.08.08.2.24.3.15.53-.47,1-.1,1.53,0,.49.1,1.01-.03,1.51.16.11.04.24-.04.28-.17.03-.09-.04-.18-.12-.16-.64.14-1.07-.38-1.63-.51-.72-.16-1.45-.32-2.13-.6-1.25-.51-2.52-.96-3.74-1.54-1.44-.68-2.88-1.39-4.33-2.06-1.18-.55-2.29-1.26-3.41-1.92-1.14-.68-2.26-1.38-3.38-2.09-.35-.23-.64-.56-1-.77-.95-.56-1.89-1.11-2.81-1.72-.94-.63-1.82-1.33-2.76-1.96-1.06-.71-1.99-1.63-3.11-2.26-.22-.12-.22-.33-.17-.53.06-.22.22-.14.33-.06.56.38,1.18.64,1.69,1.11.3.28.54.79.98.77.37-.02.52.15.69.36.13.16.21.35.42.43,1,.39,1.79,1.12,2.63,1.74.74.54,1.59.9,2.26,1.56.24.24.57.52.91.66.67.28,1.26.67,1.79,1.15.15.14.31.25.54.23.24-.03.44.08.58.27.25.32.63.43.94.65.18.12.5.18.6-.02.11-.23-.17-.43-.36-.47-.65-.13-.62-.56-.53-1.04.03-.15.08-.27.24-.31.15-.03.21.08.28.18.07.12.12.29.3.24.2-.06.14-.27.15-.42,0-.57,0-1.13,0-1.7,0-.14-.06-.37.2-.35.19.02.15.21.15.35,0,.7.01,1.4.11,2.11.05.38.16.53.55.54.7.01.7.03.51.72-.04.14-.02.24.1.31.13.07.38.08.37-.03-.03-.49.56-.86.26-1.39-.06-.11-.08-.24.06-.3.13-.05.24.02.3.14.04.09.05.2.05.29,0,.66-.25,1.31-.01,1.97.05.13-.07.27-.22.31-.18.05-.31,0-.37-.2-.05-.18-.16-.28-.36-.19-.11.05-.24.1-.23.25.01.19.16.26.32.31.47.14.79.54,1.27.69.17.05.26.31.52.18.27-.14.18-.38.19-.58.03-.66.09-1.33.16-1.98.05-.44.33-.85-.02-1.28-.03-.04,0-.16.05-.22.06-.07.14-.03.21.02.25.19.48.42.84.42.14,0,.2.16.2.33,0,.82,0,1.64.02,2.46,0,.13-.06.29.14.4.28-.25.27-.56.17-.87-.07-.23-.11-.43.07-.62.28-.29.3-.6.1-.94-.12-.2-.08-.28.15-.32.66-.11,1.06.2,1.06.87,0,.28.04.57-.1.83-.44.83-.13,1.74-.34,2.6-.05.19.09.31.25.36.18.05.2-.11.18-.23-.17-1.19.49-2.29.37-3.48-.01-.14-.11-.42.2-.39.25.02.24.2.22.45-.05.82-.26,1.64-.16,2.46.05.4.21.78-.11,1.14-.08.09-.06.24.06.32.08.05.19.11.27.09.16-.03.13-.19.11-.3-.08-.65.1-1.28.13-1.92.03-.52.13-1.03.21-1.54.03-.17.1-.32.32-.27.22.05.08.21.11.33.13.56-.06,1.11-.04,1.67,0,.19.01.36.16.5.13.12.27.19.43.08.15-.11.12-.25.03-.37-.34-.43-.23-.88-.17-1.37.07-.62.46-.57.8-.42.28.12.61.11.85.27.62.42,1.38.12,1.99.41.63.3,1.33.34,1.97.45,1.01.16,1.96.58,2.99.62.6.02,1.2.21,1.8.2.57,0,1.08.75,1.68.11.02-.02.11.02.16.05.26.16.52.09.81.06.72-.09,1.46-.19,2.19-.13,1.19.09,2.37.2,3.56.19.97-.01,1.93-.21,2.89-.2.98,0,1.93-.18,2.9-.14.76.03,1.47-.28,2.21-.34,1.74-.14,3.47-.44,5.19-.7.44-.07.57.15.42.45-.22.43-.17.86-.19,1.3,0,.16.07.38-.08.46-.42.23-.32.63-.4.98-.13.59-.36,1.17-.45,1.77-.14.86-.33,1.09-1.2,1.2-.43.06-.87.12-1.3.18.53.17,1.04.18,1.56.1.22-.03.46-.18.61.05.12.18.05.41-.04.63-.37.9-.8,1.77-1.32,2.59-.06.1-.12.21-.15.32-.21.7-.49,1.32-1.03,1.87-.55.57-1.29.88-1.78,1.5-.36.01-.71.03-1.07.04-.35-.05-.49.14-.51.45-.22.15-.48.11-.72.11-.17-.26-.33-.29-.49,0-1.92.27-3.86.44-5.8.42-3.44-.03-6.88.23-10.31-.18-3.48-.42-7.01-.47-10.46-1.21-1.27-.27-2.58-.19-3.87-.2-1.74-.02-3.4-.42-5.06-.84-1.28-.32-2.57-.63-3.88-.6-1.39.03-2.68-.43-4.03-.55-1.47-.13-2.92-.35-4.4-.36-2.59-.02-5.18,0-7.75.27-.8.08-1.61.2-2.39.43-1.62.48-3.28.68-4.95.78-1.86.11-3.67.56-5.51.74-2.79.29-5.59.51-8.4.46-2.57-.04-5.14.01-7.71-.01-2.08-.02-4.14-.3-6.2-.6-.09-.27-.26-.43-.56-.46-.32-.03-.64-.07-.95-.15-.18-.05-.47-.12-.38-.37.09-.26.32-.13.5-.03.34.21.38-.02.38-.27,0-.33-.22-.41-.49-.38-.58.07-.89-.28-1.12-.73-.05-.1-.07-.23-.21-.27,0-.06-.02-.13-.03-.19.01-.1.05-.2.03-.29-.18-.89-.16-.93.76-.91.36,0,.24-.14.15-.32-.23-.45-.5-.83-1.05-.96-.36-.08-.23-.65-.62-.75,0-.23-.02-.47-.03-.7.13-.12.06-.19-.06-.24,0-.07,0-.15.01-.22Zm57.95-.75c.11.22.22.44.33.67.23-.2.54-.37.34-.69-.19-.29-.46-.11-.68.03,0-.14-.04-.25-.14-.37-.57-.69-1.5-.82-2.15-1.4-.18-.16-.36,0-.38.28-.02.43.38.85.84.91.29.04.71.07.81.25.27.49.61.44,1.02.33Zm-42.83-3.64c.3,0,.56,0,.83,0,.25-.01.38-.16.33-.4-.04-.24-.22-.19-.37-.12-.22.09-.4-.03-.56-.14-.27-.18-.71-1.71-.55-2,.17-.3.29-.69.05-.87-.23-.17-.52.17-.75.36-.09.07-.2.13-.3.2-.13.1-.28.19-.29.37-.03.38.01.7.52.67.24-.01.5-.02.58.3.02.1.02.22-.08.27-.24.14-.4-.04-.59-.16-.31-.18-.61-.34-.83-.66-.12-.17-.36-.34-.48.11-.12.46-.45.84-.85,1.13-.23.16-.44.35-.59.6-.15.24-.12.39.2.35.22-.03.44-.08.61-.24.31-.28.64-.55.95-.84.12-.11.21-.3.39-.2.25.13,0,.26-.04.38-.11.4.2.95.55.9.45-.07.88.13,1.28,0Zm-4.65-.75c0-.06.01-.12,0-.18-.03-.15.08-.39-.11-.43-.25-.05-.23.21-.28.37-.07.25-.23.31-.46.2-.66-.31-1.41-.44-1.93-1.04-.13-.15-.45-.44-.6,0-.21.6-.54,1.06-1.14,1.32-.17.08-.38.26-.31.47.09.28.37.16.58.15.29-.01.51-.2.85-.19.48.01.95.06,1.4.2.44.14.78-.23,1.21-.15.75.12.81.04.8-.73Zm43.37,1.64c-.15,0-.23.04-.23.12-.01.29-.17.69.12.84.33.17.62.63,1.11.31.18-.12.26-.3.16-.46-.28-.45-.84-.49-1.16-.81Zm25.94,4.91c-.47-.07-.78-.09-1.09-.15-.7-.15-1.39-.33-2.11-.38-.1,0-.21-.04-.25.09-.04.12.02.2.13.22,1.04.19,2.04.69,3.31.23Zm-70.68-8.96c-.3.11-.58.19-.78.45-.18.23-.42.47-.14.71.2.17.69.39.77.1.1-.4.53-.72.35-1.19-.02-.05-.14-.05-.2-.07Zm-5.83,1.5c.36-.21.29-.67.41-1.03.05-.16-.01-.32-.23-.33-.26-.02-.85.58-.87.85-.02.45.31.44.69.51Zm51.76,1.88c-.2-.15.08-.68-.39-.62-.26.03-.8-.11-.77.36.02.48.59.48.93.63.21.09.22-.16.23-.37Zm7.54-2.09c0-.22.02-.67-.35-.7-.35-.03-.44.44-.48.73-.05.33.2.51.53.52.35.02.3-.24.3-.56Zm-42.63,1.52c0-.39-.06-.61-.45-.33-.11.08-.26.1-.38.16-.22.11-.5.28-.47.49.05.32.33-.03.5.06.07.04.15.05.23.07.45.13.59-.1.57-.45Zm62.22,6.54c-.62-.34-1.26-.2-1.9-.13.62.26,1.26.34,1.9.13Zm-15.43-5.81c-.17,0-.29-.02-.36.12-.04.09-.01.17.05.21.3.22.65.3,1.01.35.08.01.13-.11.09-.18-.18-.32-.55-.34-.79-.5Zm-10.89.37c-.19,0-.42.07-.38.17.14.32.48.41.78.53.13.05.27-.04.22-.18-.1-.32-.41-.39-.63-.52Zm-21.02-4.57c-.07-.22-.36-.17-.43-.38-.04-.13-.14-.26-.31-.2-.12.05-.16.17-.16.29,0,.18.08.32.27.34.21.02.43.09.63-.07Zm-29.12,1.68c.16-.06.47.11.49-.19.01-.27-.27-.31-.49-.32-.21,0-.44.04-.42.31.01.27.26.17.43.2Zm30.03-1.63c-.04-.14.08-.44-.19-.4-.28.04-.18.39-.26.59-.05.13.05.3.22.28.27-.04.22-.27.23-.47Zm.96.37c-.02-.11-.04-.28-.21-.27-.23,0-.35.18-.37.39-.02.17.08.26.25.25.22,0,.32-.12.33-.37Zm-26.69-.26c-.24.38-.08.66.05.93.04.08.15.05.2-.02.27-.37-.07-.57-.25-.91Zm-4.99,2.83c-.02-.12.04-.34-.17-.29-.27.06-.16.37-.25.56-.07.14.01.24.17.21.26-.05.24-.27.25-.47Zm42.51,4.1c-.03-.21-.15-.33-.36-.33-.13,0-.26.03-.19.2.07.16.13.36.35.37.16,0,.2-.1.2-.24Zm11.17-.78c0-.19-.08-.3-.29-.28-.15.01-.22.11-.18.24.05.16.15.3.32.31.16,0,.14-.16.14-.27Z"/><path class="cls-2" d="m269.69,150.28c.49-.62,1.23-.93,1.78-1.5.53-.55.81-1.18,1.03-1.87.03-.11.09-.22.15-.32.52-.82.96-1.69,1.32-2.59.09-.22.16-.45.04-.63-.15-.22-.4-.08-.61-.05-.51.08-1.03.07-1.56-.1.43-.06.87-.12,1.3-.18.88-.11,1.07-.34,1.2-1.2.1-.6.32-1.17.45-1.77.08-.35-.02-.75.4-.98.15-.08.07-.3.08-.46.02-.44-.03-.87.19-1.3.15-.3.03-.52-.42-.45-1.73.26-3.45.56-5.19.7-.74.06-1.45.37-2.21.34-.97-.04-1.93.15-2.9.14-.95,0-1.92.19-2.89.2-1.19.02-2.38-.09-3.56-.19-.72-.06-1.46.04-2.19.13-.29.04-.55.1-.81-.06-.05-.03-.15-.07-.16-.05-.6.64-1.11-.12-1.68-.11-.6,0-1.19-.18-1.8-.2-1.03-.04-1.98-.46-2.99-.62-.64-.1-1.34-.15-1.97-.45-.61-.29-1.37.01-1.99-.41-.24-.16-.57-.15-.85-.27-.34-.15-.73-.2-.8.42-.06.49-.17.95.17,1.37.09.12.13.26-.03.37-.16.11-.3.05-.43-.08-.15-.14-.16-.32-.16-.5-.02-.56.17-1.11.04-1.67-.03-.12.12-.28-.11-.33-.22-.05-.29.1-.32.27-.08.51-.19,1.03-.21,1.54-.03.64-.21,1.27-.13,1.92.01.11.04.27-.11.3-.08.02-.19-.04-.27-.09-.11-.08-.14-.23-.06-.32.32-.36.16-.74.11-1.14-.1-.82.11-1.64.16-2.46.01-.24.03-.42-.22-.45-.3-.03-.21.25-.2.39.12,1.19-.54,2.29-.37,3.48.02.11,0,.28-.18.23-.16-.05-.3-.16-.25-.36.2-.85-.11-1.77.34-2.6.14-.26.1-.55.1-.83,0-.66-.39-.98-1.06-.87-.23.04-.27.12-.15.32.2.33.18.65-.1.94-.18.19-.14.39-.07.62.09.31.11.62-.17.87-.2-.11-.14-.27-.14-.4-.01-.82-.02-1.64-.02-2.46,0-.16-.05-.33-.2-.33-.36,0-.59-.23-.84-.42-.07-.05-.15-.09-.21-.02-.04.06-.08.18-.05.22.35.44.07.84.02,1.28-.07.65-.12,1.32-.16,1.98-.01.21.08.45-.19.58-.25.13-.35-.13-.52-.18-.47-.15-.8-.55-1.27-.69-.17-.05-.31-.11-.32-.31,0-.15.12-.2.23-.25.2-.09.31.02.36.19.06.2.19.25.37.2.15-.05.27-.18.22-.31-.24-.66,0-1.31.01-1.97,0-.1-.01-.21-.05-.29-.05-.12-.17-.19-.3-.14-.15.06-.13.19-.06.3.3.53-.29.9-.26,1.39,0,.12-.24.1-.37.03-.12-.06-.14-.16-.1-.31.19-.69.19-.71-.51-.72-.39,0-.5-.16-.55-.54-.1-.7-.11-1.4-.11-2.11,0-.14.04-.33-.15-.35-.26-.02-.2.21-.2.35,0,.57,0,1.13,0,1.7,0,.15.06.35-.15.42-.18.06-.23-.12-.3-.24-.07-.1-.13-.22-.28-.18-.16.03-.22.16-.24.31-.09.48-.13.91.53,1.04.18.04.47.24.36.47-.1.21-.42.14-.6.02-.31-.22-.7-.33-.94-.65-.14-.19-.34-.29-.58-.27-.23.02-.39-.1-.54-.23-.53-.48-1.12-.86-1.79-1.15-.34-.15-.67-.42-.91-.66-.67-.66-1.52-1.03-2.26-1.56-.84-.61-1.63-1.35-2.63-1.74-.2-.08-.29-.27-.42-.43-.17-.21-.32-.38-.69-.36-.45.02-.68-.49-.98-.77-.51-.47-1.14-.74-1.69-1.11-.12-.08-.28-.16-.33.06-.05.2-.05.41.17.53,1.12.63,2.05,1.55,3.11,2.26.94.63,1.82,1.33,2.76,1.96.91.62,1.86,1.16,2.81,1.72.36.21.65.55,1,.77,1.12.71,2.24,1.42,3.38,2.09,1.12.67,2.23,1.38,3.41,1.92,1.45.67,2.89,1.37,4.33,2.06,1.23.58,2.49,1.04,3.74,1.54.68.28,1.41.44,2.13.6.56.13.99.65,1.63.51.08-.02.15.07.12.16-.04.14-.18.21-.28.17-.49-.19-1.02-.05-1.51-.16-.52-.11-1-.48-1.53,0-.09.08-.21-.07-.3-.15-.76-.74-1.79-.88-2.73-.93-.46-.03-.48-.17-.69-.41-.22-.24-.59-.45-.92-.48-.75-.07-1.34-.48-2-.76-.32-.14-.58-.31-.98-.32-.29,0-.72-.15-.93-.56-.22-.45-.81-.48-1.19-.6-.76-.24-1.25-.85-1.95-1.15-.41-.18-.96-.2-1.23-.67,0-.01-.05-.03-.05-.03-.77.76-.84-.65-1.44-.46-.04.01-.15-.09-.17-.15-.18-.73-.91-.69-1.39-1-.15-.09-.35-.14-.44-.29-.41-.65-1.21-.7-1.75-1.16-.13-.11-.3-.17-.4-.33-.07-.12-.2-.31-.28-.3-.61.06-.88-.53-1.38-.67-.26-.08-.31,0-.35.24-.03.2.18.55-.36.47-.48-.07-.74-.27-.68-.71.04-.3.04-.55-.14-.8-.07-.1-.15-.21-.29-.18-.15.04-.11.19-.12.31-.03.96-.19,1.92-.12,2.89.03.35-.04.6-.45.32-.8-.56-1.82-.78-2.39-1.67-.13-.2-.41-.1-.62-.18-.6-.21-.75-.58-.38-1.12.3-.44.45-.88.14-1.4-.14-.24-.09-.55,0-.82.06-.17.05-.35-.14-.4-.21-.06-.23.14-.29.29-.3.67-.23,1.37-.24,2.07-.01.5-.25.65-.7.45-.13-.06-.24-.17-.37-.2-.7-.14-1.11-.52-1.13-1.41-.45.77-.77.24-1.01.03-.97-.87-2.18-1.35-3.25-2.05-.38-.25-.92-.36-1.38-.54-.24-.1-.38-.26-.57-.38-.41-.27-.9-.43-1.36-.64-1.34-.59-2.68-1.22-4.03-1.77-1.04-.43-2.11-.84-3.2-1.18-1.67-.52-3.35-.97-5.06-1.3-1.87-.36-3.75-.59-5.65-.72-.96-.07-1.92-.19-2.88-.35-1.07-.18-2.14-.1-3.21-.09-.99,0-1.98.05-2.98.1-2.11.12-4.24.11-6.31.43-1.22.19-2.47.08-3.67.44-.16-.29-.15-.61-.19-.94-.19-1.68.29-3.31.34-4.97.02-.54-.1-1.08.1-1.61.45-.11.91-.16,1.38-.17.66,0,1.35.02,1.99-.14,1.34-.33,2.71-.29,4.06-.43,1.28-.14,2.57.28,3.84-.12.63-.2,1.26-.08,1.89-.11,1.29-.06,2.61-.08,3.86.17,1.99.39,4.01.42,6,.84.7.15,1.46.08,2.19.31,1.2.38,2.44.6,3.63,1.06,1.01.39,2.04.74,3.03,1.2,1.96.91,3.93,1.81,5.76,2.99.22.14.47.18.65-.05.18-.23,0-.37-.16-.55-.26-.33-.71-.28-.96-.53-.42-.43-1.21-.29-1.46-.98-.03-.08-.3-.07-.45-.09-.12-.02-.26,0-.35-.05-.92-.6-1.87-1.12-2.97-1.3-.07-.01-.14-.08-.19-.13-.56-.63-1.38-.69-2.11-.91-.46-.14-.85-.69-1.42-.32-.2-.39-.64-.33-.94-.5-.98-.57-2.12-.51-3.16-.83-.97-.29-2.03-.54-3.07-.67-1.19-.15-2.39-.09-3.58-.35-1.16-.26-2.42.2-3.56-.38-.04-.02-.13.01-.16.05-.23.24-.7.08-.81.54-.04.17-.24.11-.29-.08-.11-.44-.57-.49-.8-.45-.62.12-1.21.24-1.84.06-.43-.12-.86.15-1.28.18-.69.04-1.42-.29-2,.35-.04.05-.19.01-.29,0-1.44-.22-2.83-.04-4.22.36-.51.15-1.1.1-1.64,0-.31-.06-.47-.05-.48.3,0,.17.06.37-.12.5-.19-.27-.07-.58-.09-.87-.1-1.78.31-3.54.27-5.33,0-.42.24-.79.32-1.19.25.31.52.56.94.25.06-.04.16-.05.24-.04,1,.11,1.95-.17,2.93-.29.73-.09,1.47-.22,2.2-.25.5-.02,1.03,0,1.54,0,1.51,0,3.02-.13,4.53-.18.82-.03,1.64-.05,2.46,0,1.1.07,2.2.25,3.29.34,1.96.17,3.9.46,5.83.82,1.07.2,2.11.54,3.17.77.71.15,1.4.37,2.02.69,1.07.55,2.25.75,3.32,1.32,1.28.68,2.64,1.19,3.88,1.96.42.26.85.54,1.31.72.86.34,1.6.9,2.4,1.34.55.3,1.05.67,1.56,1.03.48.33,1.18.47,1.48.85.62.79,1.51,1.13,2.26,1.69.85.64,1.73,1.25,2.6,1.87.29.21.76.3.53.84-.01.03.04.11.09.14.44.22.88.42,1.3.72,1.01.72,2.06,1.38,3.13,2.01.54.31.92.83,1.52,1.04.23.08.55.11.66.27.57.84,1.54,1.1,2.31,1.62.56.38,1.22.72,1.74,1.11.89.67,1.87,1.19,2.81,1.74,1.06.62,2.25,1.09,3.26,1.77,1.57,1.04,3.36,1.56,4.99,2.43,1.72.92,3.68,1.34,5.58,1.85,1.57.42,3.17.73,4.78.95,1.09.15,2.19.31,3.29.36,1.37.06,2.71.31,4.08.35,1.62.05,3.22-.28,4.83-.27.7,0,1.41-.06,2.11-.15,1.89-.25,3.81-.34,5.69-.7.91-.17,1.84-.16,2.74-.4.27,1.07.06,2.18-.23,3.14-.36,1.22-.59,2.47-.99,3.68-.2.59-.05,1.25-.38,1.81-.43.74-.64,1.59-1.23,2.24-.27.3-.29.7-.42,1.05-.27.73-.78,1.19-1.41,1.57-.19.11-.34.28-.5.43-.21.2-.43.36-.74.26Zm-59.2-29.76c-.17,0-.22.07-.23.25-.03.48.43.36.59.53.69.71,1.82.84,2.33,1.77.03.06.18.06.28.08.3.07.54.23.78.42.58.46,1.18.9,1.78,1.34.76.56,1.8.68,2.36,1.57.12.19.49.32.69.06.19-.25-.04-.45-.21-.66-.27-.34-.73-.35-1-.61-.76-.72-1.65-1.23-2.56-1.74-.86-.48-1.7-1.05-2.5-1.61-.66-.46-1.52-.6-2.03-1.27-.05-.07-.18-.09-.27-.14Z"/><path class="cls-4" d="m275.57,136.09c-.9.24-1.83.23-2.74.4-1.88.35-3.8.45-5.69.7-.7.09-1.41.15-2.11.15-1.62-.02-3.21.32-4.83.27-1.37-.05-2.72-.29-4.08-.35-1.1-.05-2.2-.21-3.29-.36-1.61-.21-3.21-.52-4.78-.95-1.9-.51-3.86-.93-5.58-1.85-1.63-.87-3.42-1.38-4.99-2.43-1.01-.67-2.2-1.14-3.26-1.77-.94-.55-1.92-1.07-2.81-1.74-.52-.39-1.17-.72-1.74-1.11-.77-.53-1.74-.78-2.31-1.62-.11-.16-.43-.19-.66-.27-.6-.21-.99-.73-1.52-1.04-1.07-.63-2.13-1.29-3.13-2.01-.41-.3-.86-.49-1.3-.72-.04-.02-.1-.11-.09-.14.23-.54-.24-.63-.53-.84-.87-.62-1.75-1.23-2.6-1.87-.75-.56-1.63-.9-2.26-1.69-.3-.38-1-.52-1.48-.85-.51-.35-1.02-.73-1.56-1.03-.8-.44-1.54-1-2.4-1.34-.46-.18-.88-.46-1.31-.72-1.24-.76-2.6-1.28-3.88-1.96-1.07-.57-2.26-.77-3.32-1.32-.62-.32-1.32-.54-2.02-.69-1.06-.23-2.1-.57-3.17-.77-1.93-.36-3.87-.65-5.83-.82-1.09-.1-2.19-.27-3.29-.34-.82-.05-1.64-.03-2.46,0-1.51.05-3.02.18-4.53.18-.51,0-1.03-.02-1.54,0-.73.03-1.47.16-2.2.25-.97.12-1.93.4-2.93.29-.08,0-.18,0-.24.04-.42.31-.69.06-.94-.25,0-.37-.14-.76.09-1.11.13-.19.32-.26.52-.16.78.37,1.55.01,2.29-.12.37-.07.7.12.93.03.61-.22,1.22-.12,1.82-.21,1.19-.17,2.4-.14,3.6-.25.61-.05,1.24.17,1.85-.18.23-.13.62.05.94.08.99.12,1.99.01,2.98.18.41.07.87.06,1.3.05,1.27-.01,2.5.35,3.77.42,1.18.07,2.37.24,3.5.58.72.22,1.49.21,2.17.61.33.19.77.17,1.16.28,1.47.43,2.94.9,4.31,1.57,1.07.52,2.16,1.02,3.24,1.53.84.4,1.61.95,2.45,1.31,1.55.68,2.79,1.81,4.27,2.59.71.37,1.26,1.02,1.97,1.39,1.29.67,2.35,1.65,3.47,2.54.82.65,1.63,1.32,2.56,1.82,1.22.65,2.28,1.53,3.42,2.28.26.17.54.37.75-.2-.13,1.24,1,1.29,1.58,1.78.88.75,1.99,1.24,2.92,1.94.76.57,1.62,1.02,2.3,1.68.1.1.22.24.33.25.83.04,1.31.77,2.01.98.66.2,1.05.83,1.75.92.27.03.44.33.67.5.64.45,1.44.54,2.09.93.81.49,1.75.69,2.53,1.17.52.32,1.09.39,1.61.6.55.22,1.09.55,1.72.51.3-.02.74.12.38-.47-.15-.25.04-.5.19-.72.16-.23.39-.47.63-.32.26.16.15.5-.08.66-.37.26.24.83-.45.96.69.2,1.24.5,1.87.49.32,0,.61.02.34-.46-.14-.25-.16-.57-.2-.87-.03-.21.06-.35.31-.32.36.06.9-.1.84.51-.03.3,0,.65-.19.93-.28.4,0,.5.31.55.24.04.49,0,.73.02.45.03.44-.21.37-.52-.26-.07-.36.47-.62.14-.18-.23-.44-.45-.17-.85.2-.3.17-.85.69-.28.03.03.18-.05.28-.08.1-.03.26-.11.28-.08.47.69,1.16.08,1.69.31.55.23,1.17.04,1.7.35.04.02.12,0,.17-.02.71-.25.76-.21.87.57,0,.05.04.1.06.14.09.04.13-.01.15-.07.29-.81.75-.98,1.47-.51.21.14.37.23.58.04.03-.03.09-.07.1-.06.51.35.94.03,1.43-.09.31-.08.68-.04,1.03-.15.34-.11.72-.07,1.08,0,.14.03.32.11.41.05.84-.59,1.71-.15,2.57-.14.42,0,.87-.1,1.13-.39.42-.47.79-.35,1.18-.06.22.16.37.32.57,0,.04-.07.19-.12.27-.1,1.05.26,2.06-.13,3.08-.14.38,0,.99-.26,1.18.45.06.23.23.06.32-.03.27-.29.65-.27.96-.39.86-.32,1.69,0,2.52-.18.02,0,.05-.01.06-.02.13-.85.77-.19,1.12-.38-.38.85-.24,1.81-.59,2.67-.14.33-.07.75-.1,1.12Zm-5.41-1.62c.04.13-.06.37.17.37.18,0,.2-.21.2-.37,0-.15.04-.37-.18-.36-.22,0-.17.22-.18.37Z"/><path class="cls-4" d="m171.67,114.91c.18-.13.12-.33.12-.5.01-.35.18-.37.48-.3.54.11,1.12.15,1.64,0,1.39-.4,2.78-.58,4.22-.36.1.01.24.05.29,0,.58-.64,1.31-.32,2-.35.42-.02.85-.3,1.28-.18.64.18,1.22.06,1.84-.06.22-.04.69.02.8.45.05.19.25.24.29.08.11-.46.58-.31.81-.54.04-.04.13-.07.16-.05,1.14.58,2.4.12,3.56.38,1.19.26,2.39.19,3.58.35,1.04.14,2.1.38,3.07.67,1.04.32,2.18.26,3.16.83.3.17.74.11.94.5.57-.37.97.18,1.42.32.73.22,1.55.28,2.11.91.05.06.12.12.19.13,1.1.18,2.05.71,2.97,1.3.09.06.23.03.35.05.16.03.43.02.45.09.25.69,1.03.55,1.46.98.25.25.7.2.96.53.15.19.34.32.16.55-.18.23-.43.19-.65.05-1.83-1.17-3.8-2.08-5.76-2.99-.99-.46-2.02-.81-3.03-1.2-1.19-.46-2.43-.68-3.63-1.06-.73-.23-1.5-.16-2.19-.31-1.98-.42-4.01-.45-6-.84-1.25-.25-2.57-.22-3.86-.17-.63.03-1.26-.09-1.89.11-1.26.4-2.56-.02-3.84.12-1.35.15-2.72.1-4.06.43-.64.16-1.32.13-1.99.14-.47,0-.92.06-1.38.17,0-.08-.02-.16-.03-.24Z"/><path class="cls-2" d="m173.34,146.78c.14.04.16.17.21.27.24.45.54.8,1.12.73.26-.03.49.05.49.38,0,.25-.04.48-.38.27-.18-.11-.41-.23-.5.03-.09.25.21.32.38.37.31.08.63.13.95.15.31.03.47.19.56.46-.55-.17-1.07-.41-1.67-.39-.17,0-.39-.12-.4-.31-.05-.65-.52-1.11-.75-1.68-.04-.09-.1-.18-.01-.28Z"/><path class="cls-2" d="m172.59,143.36c.39.1.26.66.62.75.55.13.82.51,1.05.96.09.18.21.33-.15.32-.92-.02-.94.02-.76.91.02.09-.02.19-.03.29-.27-.36-.3-.77-.28-1.2.02-.51.03-.99-.35-1.41-.14-.16-.21-.39-.1-.62Z"/><path class="cls-2" d="m268.11,150.77c.02-.32.16-.5.51-.45-.11.21-.25.4-.51.45Z"/><path class="cls-2" d="m266.89,150.89c.16-.3.33-.27.49,0-.16,0-.33,0-.49,0Z"/><path class="cls-2" d="m172.49,142.41c.13.05.19.12.06.24-.07-.07-.24-.11-.06-.24Z"/><path class="cls-4" d="m181.13,129.15c-.28-.24-.21-.58-.21-.89.01-.56-.08-1.13.09-1.68.04-.12-.03-.33.17-.34.22,0,.21.2.22.36.01.16-.04.32.08.47.23,0,.16-.19.17-.31.01-.21.03-.44.3-.44.27,0,.29.22.3.43.05.85.24,1.72-.36,2.49-.25-.02-.16-.35-.34-.47-.25,0-.17.35-.42.37Z"/><path class="cls-4" d="m173.87,127.88c.19-.24.37-.47.33-.79,0,0,.14-.05.22-.04.11.01.17.09.16.21-.01.14-.16.34.12.36.21.02.42-.05.49-.27.1-.34.18-.48.42-.08.14.23.32.05.48-.01.18-.07.37-.38.53-.03.12.25-.04.55-.26.59-.49.1-.59.31-.43.75.04.11-.05.27-.09.4-.03.1-.05.2-.18.21-.17,0-.19-.12-.19-.25,0-.17-.02-.34-.15-.45-.27-.22-.44-.15-.46.21-.01.16-.07.27-.26.26-.19,0-.25-.15-.22-.29.09-.41-.3-.52-.49-.79Z"/><path class="cls-4" d="m172.97,128.58c-.22.2-.34.38-.5.45-.24.11-.34.19-.14.42.09.1.11.24-.02.31-.13.08-.21-.02-.27-.15-.31-.64-.24-1.3-.09-1.95.06-.28.24-.03.36.04.24.16.37.61.69.46.18-.08.02-.5.11-.76.09-.25-.05-.54.14-.8.13.63.32,1.23.47,1.84.05.19.02.4-.09.58-.11.18-.15.47-.45.4-.27-.07-.15-.33-.18-.52-.01-.08-.02-.16-.05-.34Z"/><path class="cls-4" d="m199.96,127.48c0,1.01.02,2.02-.01,3.02,0,.24-.19.54-.44.6-.25.06-.54,0-.8-.06-.1-.02-.07-.21-.05-.33.02-.12.1-.15.22-.16.71-.05,1.02-.47.67-1.16-.37-.74-.15-1.32.16-1.93.08,0,.17.01.25.02Z"/><path class="cls-4" d="m190.14,130.22c-.21-.39-.14-.83-.19-1.22-.03-.27.03-.57-.04-.87-.04-.18-.02-.41.2-.44.25-.04.27.19.27.37,0,.56,0,1.12,0,1.68,0,.18-.03.35-.24.48Z"/><path class="cls-4" d="m193.63,130.45c-.08-.35-.15-.58-.18-.8-.02-.13.06-.23.18-.28.1-.04.2-.02.28.05.11.1.09.19.03.31-.1.19-.16.39-.3.72Z"/><path class="cls-4" d="m182.9,133.49c-.28-.4-.29-.68-.03-1,.19.31.12.59.03,1Z"/><path class="cls-4" d="m208.59,129.87c.16.2.27.4.25.65,0,.1-.03.22-.16.2-.11-.01-.21-.11-.16-.21.09-.21.01-.42.07-.64Z"/><path class="cls-4" d="m197.36,131.01c-.16-.03-.17-.15-.16-.27,0-.11.04-.22.15-.23.16-.01.18.12.19.25,0,.13-.02.25-.18.26Z"/><path class="cls-2" d="m187.63,137.8c-.4.12-.83-.07-1.28,0-.35.05-.66-.5-.55-.9.03-.13.3-.25.04-.38-.18-.09-.27.09-.39.2-.3.29-.63.56-.95.84-.17.16-.39.21-.61.24-.32.04-.35-.1-.2-.35.15-.25.36-.43.59-.6.4-.29.73-.67.85-1.13.12-.46.36-.28.48-.11.22.32.52.48.83.66.19.11.35.3.59.16.1-.06.1-.17.08-.27-.07-.32-.33-.32-.58-.3-.51.03-.56-.29-.52-.67.02-.18.16-.27.29-.37.1-.07.21-.12.3-.2.23-.18.52-.52.75-.36.25.18.12.57-.05.87-.16.29.28,1.82.55,2,.16.11.34.23.56.14.16-.06.33-.12.37.12.04.24-.09.39-.33.4-.26.01-.53,0-.83,0Z"/><path class="cls-2" d="m182.98,137.05c.01.77-.05.85-.8.73-.43-.07-.77.29-1.21.15-.45-.14-.92-.18-1.4-.2-.34-.01-.56.18-.85.19-.21.01-.49.13-.58-.15-.07-.21.14-.39.31-.47.6-.26.93-.71,1.14-1.32.15-.45.47-.16.6,0,.52.6,1.27.73,1.93,1.04.23.11.39.05.46-.2.05-.17.03-.42.28-.37.19.04.07.28.11.43.01.06,0,.12,0,.18Z"/><path class="cls-2" d="m230.46,141.44c-.41.11-.75.16-1.02-.33-.1-.18-.53-.21-.81-.25-.46-.06-.87-.48-.84-.91.02-.27.2-.44.38-.28.65.58,1.58.71,2.15,1.4.1.12.14.23.14.37h0Z"/><path class="cls-2" d="m226.34,138.69c.32.32.89.36,1.16.81.1.16.02.34-.16.46-.49.32-.79-.14-1.11-.31-.29-.15-.13-.55-.12-.84,0-.08.09-.13.23-.12Z"/><path class="cls-2" d="m252.28,143.59c-1.27.46-2.28-.04-3.31-.23-.11-.02-.18-.1-.13-.22.05-.12.15-.09.25-.09.72.05,1.41.24,2.11.38.3.06.61.09,1.09.15Z"/><path class="cls-2" d="m181.6,134.63c.06.02.18.02.2.07.19.47-.25.79-.35,1.19-.07.29-.57.07-.77-.1-.28-.24-.04-.48.14-.71.2-.26.48-.34.78-.45Z"/><path class="cls-2" d="m175.77,136.13c-.38-.07-.71-.06-.69-.51.01-.28.6-.87.87-.85.22.01.29.18.23.33-.12.35-.05.81-.41,1.03Z"/><path class="cls-2" d="m227.54,138.01c0,.21-.01.46-.23.37-.35-.15-.91-.15-.93-.63-.02-.46.52-.32.77-.36.47-.06.19.47.39.62Z"/><path class="cls-2" d="m235.07,135.92c0,.32.05.57-.3.56-.33-.02-.58-.2-.53-.52.04-.29.13-.76.48-.73.37.03.34.48.35.7Z"/><path class="cls-2" d="m192.45,137.43c.02.35-.11.58-.57.45-.08-.02-.16-.03-.23-.07-.17-.09-.45.26-.5-.06-.03-.21.25-.38.47-.49.12-.06.27-.09.38-.16.39-.28.44-.05.45.33Z"/><path class="cls-2" d="m254.67,143.97c-.65.21-1.28.13-1.9-.13.64-.07,1.28-.21,1.9.13Z"/><path class="cls-2" d="m239.24,138.17c.24.16.61.18.79.5.04.07-.01.19-.09.18-.36-.04-.71-.12-1.01-.35-.06-.05-.1-.13-.05-.21.07-.13.2-.11.36-.12Z"/><path class="cls-2" d="m228.35,138.53c.22.12.53.2.63.52.05.15-.09.23-.22.18-.3-.12-.64-.21-.78-.53-.04-.1.18-.18.38-.17Z"/><path class="cls-2" d="m207.33,133.96c-.21.15-.43.09-.63.07-.18-.02-.26-.16-.27-.34,0-.13.04-.25.16-.29.17-.07.27.07.31.2.07.21.36.16.43.38Z"/><path class="cls-2" d="m178.2,135.64c-.17-.02-.42.07-.43-.2-.01-.26.21-.32.42-.31.22.01.51.05.49.32-.01.29-.32.12-.49.19Z"/><path class="cls-2" d="m230.45,141.45c.22-.14.49-.32.68-.03.2.32-.11.49-.34.69-.12-.23-.23-.45-.33-.67,0,0,0,0,0,0Z"/><path class="cls-2" d="m208.23,134.01c0,.2.04.44-.23.47-.17.02-.27-.15-.22-.28.08-.2-.02-.55.26-.59.26-.04.14.26.19.4Z"/><path class="cls-2" d="m209.2,134.38c0,.25-.11.37-.33.37-.17,0-.27-.08-.25-.25.03-.21.15-.39.37-.39.17,0,.19.17.21.27Z"/><path class="cls-2" d="m182.5,134.12c.18.34.52.54.25.91-.05.07-.16.1-.2.02-.13-.27-.29-.55-.05-.93Z"/><path class="cls-2" d="m177.51,136.95c-.01.2,0,.42-.25.47-.15.03-.23-.07-.17-.21.09-.19-.02-.49.25-.56.21-.05.15.17.17.29Z"/><path class="cls-2" d="m220.02,141.05c0,.14-.04.25-.2.24-.23-.01-.29-.21-.35-.37-.07-.17.06-.21.19-.2.21,0,.33.12.36.33Z"/><path class="cls-2" d="m231.19,140.27c0,.11.02.27-.15.27-.17,0-.27-.15-.32-.31-.04-.14.03-.23.18-.24.2-.02.29.09.29.28Z"/><path class="cls-4" d="m210.48,120.52c.1.05.22.07.27.14.51.67,1.37.81,2.03,1.27.8.56,1.63,1.13,2.5,1.61.91.51,1.8,1.02,2.56,1.74.28.26.73.27,1,.61.17.21.4.42.21.66-.2.26-.58.13-.69-.06-.56-.89-1.6-1.01-2.36-1.57-.6-.44-1.2-.88-1.78-1.34-.24-.2-.48-.35-.78-.42-.1-.02-.24-.02-.28-.08-.51-.93-1.64-1.06-2.33-1.77-.16-.17-.62-.04-.59-.53.01-.19.06-.25.23-.25Z"/><path class="cls-2" d="m270.16,134.47c.01-.15-.04-.37.18-.37.22,0,.18.22.18.36,0,.16-.02.37-.2.37-.23,0-.13-.24-.17-.37Z"/><text class="cls-6" transform="translate(14.22 68.9)"><tspan class="cls-8" x="0" y="0">A</tspan><tspan x="18.52" y="0">ms</tspan><tspan class="cls-1" x="55.91" y="0">t</tspan><tspan x="65.79" y="0">e</tspan><tspan class="cls-10" x="81.02" y="0">r</tspan><tspan x="90.66" y="0">dam </tspan><tspan class="cls-5" x="154.26" y="0">c</tspan><tspan x="167.7" y="0">e</tspan><tspan class="cls-9" x="182.93" y="0">n</tspan><tspan x="199.68" y="0">t</tspan><tspan class="cls-7" x="209.74" y="0">r</tspan><tspan x="219.53" y="0">aal</tspan></text></g></svg>