<?xml version="1.0" encoding="UTF-8"?><svg id="Layer_2" xmlns="http://www.w3.org/2000/svg" width="300" height="200" viewBox="0 0 300 200"><defs><style>.cls-1{fill:#131212;}.cls-1,.cls-2,.cls-3{stroke-width:0px;}.cls-2{fill:#cbccce;}.cls-4{letter-spacing:0em;}.cls-5{font-family:MyriadPro-Regular, 'Myriad Pro';font-size:37.52px;}.cls-3{fill:#7a797b;}</style></defs><g id="Layer_2-2"><rect class="cls-2" width="300" height="200"/><path class="cls-3" d="m201.39,154.78c.29-.04.36.5.63.3.2-.15.08-.49.08-.75-.02-5.21-.04-10.41-.06-15.62,0-.24-.12-.52.11-.74.29.15.17.42.17.64.06,3.62.01,7.24.11,10.86.08,2.92.08,5.85,0,8.78-.06,2.04-.05,4.07.02,6.1.02.45.21.84.3,1.25.07.29.35.24.54.2.29-.07.12-.26.06-.4-.11-.24-.16-.48-.18-.75-.16-2.13-.07-4.27-.09-6.4-.03-4.36.02-8.72-.07-13.08-.05-2.27-.06-4.54-.09-6.81-.01-.93-.06-1.87.04-2.79.1-1.03.51-1.97,1.28-2.84-.68.12-.98.51-1.28.91-.15.2-.12.52-.43.6-.07-.69.46-1.43,1.25-1.72.75-.27,1.54-.22,2.31-.3,2.79-.28,5.59-.5,8.37-.85,2.06-.26,4.12-.48,6.18-.69.3-.03.58-.21.89-.13.49.13.92-.24,1.03-.94.33-2.11.66-4.23.97-6.34.38-2.55.69-5.1,1.12-7.64.38-2.22.52-4.48,1.15-6.66-.45.04-.55.42-.64.73-.16.54-.21,1.1-.34,1.65-.17.68-.04,1.42-.43,2.06-.19-.5,0-.99.1-1.47.2-1.1.23-2.23.85-3.24.21-.33.43-.5.79-.56,1.16-.21,2.34-.09,3.5-.1,1.82-.01,3.64.03,5.46.06.47,0,.93.1,1.36.32-.67.45-1.46.64-1.66,1.72-.38,2.06-.63,4.14-.96,6.21-.28,1.75-.49,3.51-.74,5.26-.31,2.1-.61,4.19-.96,6.28-.2,1.17-.09,2.44-.96,3.43.9.13,1.21-.06,1.41-1.02.19-.93.28-1.88.42-2.82.28-1.8.58-3.6.83-5.4.21-1.56.46-3.12.66-4.68.21-1.63.4-3.26.67-4.88.24-1.46.24-3.04,1.67-4.02.01,0,0-.04,0-.06.43-.25.92-.3,1.37-.23,1.15.17,2.35-.04,3.45.21.77.18,1.5.11,2.25.18.21.02.43.07.52.31-1.08.3-1.44,1.15-1.58,2.14-.37,2.59-.73,5.18-1.09,7.77-.43,3.1-.82,6.2-1.31,9.29-.2,1.3-.07,2.69-.94,3.84.94.04,1.21-.16,1.37-1.19.36-2.39.7-4.78,1.03-7.17.46-3.36.88-6.73,1.37-10.09.14-1,.16-2.02.51-2.99.21-.58.57-1.05.83-1.59.67-.13,1.29-.36,2.04-.12.65.2,1.41.06,2.13.07,1.19,0,2.39-.11,3.55.06.83.12,1.69-.01,2.48.32.18.08.36.01.55-.04.63-.18,1.27-.25,1.84.2-.96.24-1.21,1.01-1.38,1.84-.27,1.32-.34,2.66-.5,3.99-.3,2.45-.59,4.89-.88,7.34-.27,2.23-.52,4.47-.81,6.7-.16,1.24-.24,2.5-.91,3.63.87.03,1.18-.18,1.31-.95.12-.7.21-1.41.3-2.12.37-3,.74-6,1.1-9.01.28-2.34.53-4.68.83-7.01.19-1.49.17-3.04,1.12-4.34.42-.47.95-.4,1.46-.26.48.13.94.22,1.4.02.59-.26,1.08.19,1.65.16,1.17-.06,2.34.02,3.51,0,1.92-.02,3.82.3,5.75.26,1.7-.04,3.41.19,5.12.32.43.03.86-.2,1.28.01-.02.17-.14.19-.28.2-1.03.03-1.5.62-1.62,1.58-.11.85-.14,1.72-.26,2.57-.37,2.45-.57,4.92-.9,7.37-.28,2.08-.51,4.16-.75,6.24-.18,1.54-.4,3.08-.53,4.63-.11,1.26-.47,1.75-1.68,1.97-3.81.72-7.61,1.44-11.42,2.15-.44.08-.75.31-.96.69-.67,1.23-.9,2.59-.9,3.94,0,1.5-.07,3-.07,4.51,0,1.19,0,2.4,0,3.59-.01,1.93-.1,3.86-.07,5.79.06,4.51-.17,9.02-.12,13.53.02,1.37-.26,2.78.28,4.12-.82.08-1.62.05-2.43-.13-.94-.21-1.93-.07-2.89-.32-.41-.11-.84-.17-1.24-.33.16-.52-.1-1.02-.1-1.54.04-7.93.03-15.85.09-23.78.02-2.16-.02-4.33,0-6.49.01-.84.22-1.63.45-2.42.32-1.09.92-1.85,2.17-1.85.17,0,.34-.05.51-.09,1.21-.28,2.46-.32,3.64-.74-2.01.27-4.02.6-6.02.95-.37.07-.61.36-.85.66-.83,1.05-1.07,2.28-1.08,3.57-.07,6.61.07,13.23-.1,19.84-.09,3.42.01,6.84-.13,10.26-.02.56.12,1.11.43,1.6-.62.19-1.16-.1-1.73-.26.17-.55-.16-1.05-.14-1.6.09-3.72.05-7.44.14-11.17.08-3.23.03-6.46.04-9.69,0-2.41.02-4.81-.01-7.22-.02-1.49-.11-2.99.41-4.43.31-.83.63-1.66,1.66-1.79,1.39-.18,2.78-.39,4.16-.63,1.96-.34,3.93-.61,5.88-.97.4-.07.85,0,1.24-.28-.19-.14-.37-.08-.53-.05-1.79.29-3.58.59-5.37.87-1.88.3-3.75.67-5.64.88-.65.07-1.38.07-1.77.74-.5.85-.88,1.81-.92,2.77-.1,2.57-.07,5.14-.07,7.72,0,2.57,0,5.13,0,7.7,0,2.79,0,5.57-.03,8.36-.02,2.24-.05,4.48-.08,6.71,0,.72.05,1.43.53,2.02-1.48-.18-2.99-.21-4.43-.69.16-.15.19-.31.1-.52-.2-.51-.21-1.05-.19-1.6.04-.97.09-1.95.09-2.92,0-8.59.01-17.17,0-25.76,0-1.7.33-3.29,1.42-4.71-.74-.1-1.19.23-1.52.79-.66,1.12-.81,2.39-.82,3.64-.04,6.68-.02,13.35-.04,20.03-.01,2.64.03,5.28-.06,7.93-.03,1.02-.22,2.13.38,3.1-.6.12-1.18.06-1.71-.26.02-.11.22-.1.13-.3-.32-.67-.27-1.39-.26-2.11.02-2.58.02-5.16.02-7.74,0-7.14-.01-14.27.03-21.41,0-1.09.3-2.18.91-3.14.12-.2.49-.42.28-.63-.24-.23-.57.02-.81.21-.16.14-.32.3-.43.48-.52.92-.85,1.94-.87,2.96-.08,4.2-.05,8.41-.06,12.62,0,2.82,0,5.64,0,8.46,0,.48-.27.95-.03,1.44-.22.12-.49-.23-.6.08-.09.25.14.42.33.49.34.12.3.38.3.63,0,1.8,0,3.6-.02,5.4,0,.87.05,1.73.45,2.53-.58.16-1.11.02-1.63-.24.09-.7-.23-1.35-.21-2.05.04-2.23.03-4.46.03-6.7,0-7.37,0-14.74-.02-22.11,0-1.28.28-2.48.9-3.6.13-.23.32-.45.29-.78-.58.02-.99.2-1.3.76-.61,1.14-.81,2.38-.83,3.62-.06,4.26-.04,8.51-.05,12.77,0,2.23,0,4.46-.01,6.7,0,.16.08.4-.13.46-.66.19-.32.53-.14.82.33.52.28,1.17-.14,1.61-.09.09-.07.22.04.27.37.17.28.5.28.79,0,1.99-.02,3.99-.03,5.98,0,.56.12,1.07.59,1.43-.66.16-1.27.02-1.86-.27.3-.5-.13-.94-.11-1.43.07-2.77.09-5.55.1-8.32.01-6.96,0-13.92,0-20.88,0-.5,0-.99.1-1.49.23-1.1.59-2.14,1.39-3.1-.73,0-1.22.21-1.52.75-.42.74-.68,1.54-.77,2.39-.15,1.35-.14,2.71-.13,4.07.01,5.77,0,11.54,0,17.31,0,.67-.08,1.34-.04,2.01.07,1.13.05,2.25.02,3.38-.01.38-.29.92-.2,1.14.32.8.06,1.58.1,2.36.04.69.14,1.33.69,1.81-.99-.25-2.02-.1-3.03-.32-1.04-.23-2.13-.25-3.19-.38-.85-.11-1.7-.24-2.54-.38-.12-.02-.23-.1-.34-.15.15-.12.55-.13.25-.47-.28-.31-.24-.68-.24-1.04.01-1.17.08-2.34.04-3.5-.06-2.23.05-4.45,0-6.68-.01-.51.19-1.04.17-1.52-.04-.76-.13-1.52-.11-2.3.04-1.92-.06-3.83-.07-5.75-.02-3.19-.04-6.38-.02-9.56,0-1.16.34-2.26,1.04-3.22.12-.16.46-.31.29-.5-.18-.21-.48-.05-.71.1-.2.13-.39.28-.52.49-.5.8-.86,1.71-.87,2.6-.07,5-.06,10-.06,15,0,4.27-.01,8.54.01,12.81,0,1.2-.13,2.43.55,3.53-.58.18-1.09-.1-1.62-.26.04-.57-.31-1.07-.31-1.64,0-2.44-.02-4.88-.03-7.32,0-2.69-.01-5.38-.02-8.07,0-.93.02-1.86.02-2.8,0-.95,0-1.91,0-2.86,0-.93.08-1.88-.04-2.79-.11-.85.51-1.67.03-2.5,0-.02,0-.04,0-.06,0-.89-.05-1.78,0-2.67.05-1.16.31-2.27.99-3.25.13-.19.61-.27.38-.55-.18-.23-.58-.04-.83.12-.16.1-.29.26-.4.42-.94,1.33-1.04,2.88-1.04,4.41-.01,4,.06,8.01.08,12.01.02,5.22,0,10.45.03,15.67,0,.65-.03,1.36.55,1.86-.62.17-1.18-.08-1.75-.25.02-.13.08-.27.04-.38-.34-1.06-.2-2.15-.22-3.22-.05-2.93-.02-5.85-.04-8.78-.03-5.83-.07-11.66-.1-17.49,0-1.7.3-3.29,1.61-4.58-.93-.07-1.4.43-1.76,1.14-.52,1.01-.67,2.09-.67,3.19-.01,3.84-.02,7.67.04,11.51.05,3.03,0,6.07,0,9.1,0,2.4.02,4.81.06,7.21.01.81.07,1.6.57,2.29-.56.13-1.1.07-1.6-.24-.1-.7-.34-1.36-.34-2.08.01-1.78,0-3.56-.02-5.33-.05-7.65-.1-15.3-.13-22.95,0-1.24.36-2.39,1.03-3.44.1-.15.39-.29.22-.47-.17-.18-.46-.1-.65.06-.18.15-.35.32-.49.52-.75,1.06-.94,2.29-.94,3.52-.01,4.69,0,9.38.09,14.07.07,3.32.02,6.64.04,9.96,0,1.65-.07,3.3.09,4.94.05.51.21.96.75,1.18-.13.1-.3.11-.43.07-.97-.31-2.02-.14-2.99-.45-.43-.14-.9.12-1.31-.15.48-.13.62-.39.38-.86-.15-.3-.1-.64-.1-.96-.05-7.08.05-14.17-.1-21.25-.05-2.23-.02-4.46-.04-6.69,0-.85.09-1.68.38-2.48.26-.71.59-1.38,1.28-1.95-1-.03-1.47.44-1.79,1.14-.5,1.06-.7,2.18-.7,3.34.01,9.15.03,18.3.03,27.45,0,.8.1,1.54.54,2.22-2.37-.24-4.74-.41-7.09-.86-.78-.15-1.59-.18-2.38-.24-1.08-.08-2.14-.3-3.22-.37-.92-.06-1.83-.29-2.74-.46-.28-.05-.55-.13-.83-.12-1.1.04-2.16-.33-3.24-.38-1.15-.05-2.25-.42-3.4-.41-.52,0-1.01-.2-1.52-.29-1.48-.29-3-.23-4.48-.51-1.84-.35-3.69-.69-5.58-.69-.74,0-1.48-.23-2.22-.33-1.33-.18-2.67-.28-3.98-.51-1.4-.24-2.82-.35-4.21-.64-.92-.19-1.89-.21-2.83-.31-1.14-.12-2.26-.34-3.4-.47-.86-.1-1.71-.19-2.57-.32-.85-.13-1.7-.33-2.57-.32-.17,0-.43,0-.48-.25-.05-.31.23-.17.36-.22.27-.1.09-.27.03-.36-.21-.31-.2-.65-.21-1-.11-3.38-.09-6.77-.14-10.15-.04-3.05-.1-6.11-.26-9.16-.11-2.08-.07-4.16-.1-6.24-.02-1.12.35-2.11.99-3.02.31-.43.71-.58,1.33-.61-.82.63-1.26,1.4-1.54,2.27-.1.32-.14.63-.13.96.12,4.31.22,8.63.39,12.94.15,3.61.11,7.23.19,10.84.02.91.06,1.82.11,2.73.03.56.31.94.87,1.06.22.05.38.02.34-.29-.3-2.35-.18-4.72-.23-7.08-.08-3.86-.13-7.72-.26-11.57-.11-3.04-.22-6.07-.05-9.1.08-1.3.71-2.4,1.93-2.58.13.19-.1.21-.16.27-1.4,1.34-1.36,3.05-1.27,4.78.09,1.95.18,3.9.21,5.85.06,3.6.18,7.2.22,10.8.03,2.36.05,4.73.11,7.09.01.51.16,1.02.26,1.53.08.4.39.51.74.46.44-.07.11-.38.11-.56-.02-1.52-.07-3.03-.09-4.55-.03-2.36.03-4.73-.06-7.09-.11-2.64-.04-5.28-.14-7.92-.09-2.32-.23-4.63-.19-6.95.02-1.15.36-2.21,1.18-3.07.19-.2.39-.39.72-.4-.02.41-.37.55-.52.84-.5.97-.7,1.97-.67,3.07.18,5.74.32,11.49.37,17.24.02,1.99.17,3.99.17,5.98,0,.84,0,1.69.05,2.53.06.97.49,1.34,1.39,1.2-.45-.67-.36-1.41-.36-2.14-.01-2.54.03-5.08-.06-7.62-.1-2.75-.04-5.51-.12-8.26-.08-2.86-.25-5.72-.21-8.58.01-1.2.15-2.37.87-3.4.31-.44.68-.74,1.23-.84-.55.63-1.11,1.23-1.35,2.08-.29,1.03-.27,2.06-.19,3.09.08,1.02.04,2.04.09,3.05.19,3.32.23,6.64.25,9.96.53.96-.03,1.94.07,2.92.11,1.05.04,2.12.05,3.19,0,1.04,0,2.08.03,3.12.02.89-.01,1.78.1,2.66.05.44.29.72.61.95.19.14.48.22.68.09.22-.14-.06-.33-.07-.51-.02-.21-.05-.43-.05-.65-.04-2.58-.07-5.16-.11-7.74-.05-3.58-.05-7.16-.19-10.73-.07-1.84-.05-3.68-.16-5.52-.1-1.54-.16-3.13.65-4.57.3-.53.59-1.1,1.46-1.21-1.58,1.57-1.57,3.43-1.43,5.31.06.8.05,1.6.07,2.4.1,5.05.16,10.1.3,15.16.06,2.28.06,4.55.11,6.83.02,1,.31,1.33,1.32,1.48-.34-3.06-.12-6.13-.21-9.19-.14-4.99-.22-9.97-.27-14.96-.01-1.45-.25-2.9.15-4.33.26-.92.42-1.93,1.41-2.44.07-.04.15-.07.23-.1.03,0,.08.02.17.06-1.94,1.7-1.33,3.96-1.36,6.08,0,.39.05.78.06,1.17.07,4.51.09,9.02.22,13.53.08,2.84.06,5.68.11,8.52,0,.34.06.69.12,1.03.07.5.41.75.88.82.31.05.53.1.35-.41-.19-.54-.19-1.15-.2-1.73-.03-2.68.01-5.37-.07-8.05-.1-3.23,0-6.46-.13-9.69-.1-2.67-.11-5.33-.07-8,.02-1.08.39-2.08,1.22-2.85.11-.1.19-.25.42-.17.05.25-.13.42-.26.6-.49.73-.78,1.54-.76,2.42.05,3.69.09,7.37.2,11.06.03,1.15.06,2.3.08,3.45.06,3.58.1,7.16.15,10.74.01.65.08,1.3.1,1.95.01.36.23.61.44.85.22.25.59.2.85.08.24-.12-.05-.32-.07-.5-.02-.17-.06-.34-.06-.51-.05-3.64-.05-7.29-.16-10.93-.1-3.36,0-6.72-.13-10.08-.07-1.89-.13-3.77-.06-5.66.05-1.16.3-2.31,1.23-3.16.17-.15.3-.38.67-.3-.22.37-.54.62-.73.97-.66,1.24-.67,2.57-.62,3.92.07,1.69.16,3.38.19,5.07.08,4.75.1,9.5.2,14.25.04,1.95.04,3.9.08,5.85.02.92.38,1.38,1.02,1.37.26,0,.4-.02.29-.36-.19-.56-.15-1.15-.16-1.74-.04-4.99-.05-9.98-.16-14.97-.06-2.56-.04-5.12-.12-7.67-.05-1.47-.25-2.94.16-4.39.22-.81.56-1.54,1.23-2.08.12-.1.27-.21.4-.09.17.16-.04.26-.12.37-.76.98-1.12,2.08-1.1,3.32.09,4.21.19,8.41.26,12.62.04,2.49.03,4.99.05,7.49.02,2.1.05,4.21.09,6.31.02.89.36,1.4.98,1.47.2.02.51.07.39-.3-.32-.95-.19-1.94-.2-2.91-.03-2.52.04-5.04-.04-7.55-.12-3.45,0-6.9-.14-10.34-.09-2.41-.13-4.81-.06-7.22.03-.98.44-1.89,1.09-2.65.17-.19.36-.36.77-.33-1.59,1.72-1.36,3.73-1.27,5.75.1,2.11.03,4.23.1,6.35.18,5.75.21,11.49.27,17.24,0,.61-.04,1.25.27,1.84.24.46.62.42,1,.39.31-.03.24-.28.15-.44-.22-.38-.19-.79-.19-1.21-.01-2.04-.01-4.08-.03-6.12-.04-4.1-.03-8.2-.15-12.3-.07-2.58-.07-5.16-.11-7.74-.02-.94.23-1.8.66-2.61.11-.21.29-.37.45-.55.08-.09.19-.21.32-.07.08.09.05.21-.02.3-1.09,1.55-.84,3.29-.74,5.02.09,1.56.07,3.12.12,4.68.16,5.68.19,11.37.19,17.05,0,.27-.19.62.22.79.11.05.02.13,0,.2-.4.91-.32,1.82.04,2.73.13.34.37.44.68.49.36.05.5-.08.36-.44-.19-.48-.15-.98-.15-1.48,0-3.75.04-7.51-.04-11.26-.07-3.16-.02-6.32-.13-9.48-.06-1.84-.09-3.68-.07-5.53,0-.81.22-1.58.6-2.3.24-.46.58-.83,1.18-.97-.08.41-.37.63-.52.92-.59,1.12-.68,2.32-.61,3.54.08,1.4.1,2.8.12,4.2.06,4.34.17,8.67.22,13.01.04,2.86.01,5.73.02,8.59,0,.91.25,1.25.93,1.41.28.07.47.1.29-.27-.14-.29-.13-.59-.13-.89-.01-4.82.03-9.64-.06-14.45-.05-2.62,0-5.25-.12-7.87-.07-1.37-.08-2.73-.09-4.09,0-1.24.26-2.41.94-3.46.31-.48.76-.78,1.51-.77-1.55,1.38-1.7,3.09-1.61,4.89.04.89.03,1.78.04,2.67.05,2.69.09,5.38.16,8.07.11,4.49.16,8.98.15,13.47,0,.63.07,1.25.09,1.88.01.45.21.79.56,1.05.23.17.51.2.73.07.23-.13,0-.35-.02-.53-.02-.28-.09-.56-.09-.84-.05-4.08-.1-8.15-.15-12.23-.04-2.97-.04-5.94-.15-8.91-.07-1.93-.09-3.86-.08-5.79,0-.84.05-1.71.56-2.42.39-.54.78-1.13,1.59-1.21-.08.45-.45.62-.63.93-.49.86-.8,1.76-.79,2.77.07,4.77.09,9.55.22,14.32.11,3.95.05,7.9.12,11.84,0,.41.05.82.09,1.23.09.92.45,1.2,1.45,1.08-.24-.7-.29-1.42-.3-2.15-.01-3.84.03-7.68-.05-11.52-.08-3.49-.04-6.98-.13-10.47-.03-1.26-.1-2.51-.07-3.77.03-1.29.24-2.54,1.16-3.56.21-.23.4-.43.83-.47-.49.71-.89,1.35-1.11,2.1-.16.57-.23,1.14-.22,1.73.12,6.25.3,12.49.3,18.74,0,2.69.06,5.37.09,8.06,0,.37.04.74.18,1.08.14.36.42.54.8.57.24.01.38-.09.32-.35-.23-1.03-.11-2.07-.12-3.11-.03-3.21.03-6.42-.04-9.63-.07-3.29-.03-6.59-.13-9.88-.05-1.69-.04-3.38-.07-5.07-.03-1.25.33-2.4,1-3.43.28-.44.71-.72,1.31-.78-.08.41-.45.49-.62.75-.56.86-.86,1.8-.85,2.82.06,5.55.14,11.11.2,16.66.04,3.56.07,7.11.12,10.67,0,.63-.06,1.34.74,1.64.19.07.39.14.56.03.21-.14.08-.35.04-.53-.04-.21-.08-.43-.09-.64-.05-4.86-.05-9.72-.16-14.57-.07-3.47-.04-6.94-.14-10.41-.04-1.44-.12-2.85.29-4.25.25-.87.72-1.52,1.76-1.9-.27.5-.6.75-.8,1.1-.57,1.03-.66,2.16-.62,3.28.09,2.13.02,4.25.11,6.38.18,4.4.05,8.81.15,13.21.04,1.67.02,3.34.05,5.01,0,.24-.11.54.25.66.13.04.16.18.07.26-.53.48-.26,1.1-.27,1.65-.02.63.61,1.11,1.24,1.06.15-.01.27-.04.18-.23-.36-.76-.21-1.56-.2-2.36,0-1.52-.06-3.03-.07-4.55-.02-4.45.02-8.9-.06-13.34-.05-2.78-.1-5.55-.07-8.33.01-1.03.3-2.01.92-2.86.26-.36.56-.7,1.19-.75-.72.87-1.2,1.74-1.38,2.75-.06.35-.08.69-.07,1.03.11,6.36.14,12.71.21,19.07.03,2.69.05,5.38.07,8.07,0,.45.12.85.28,1.25.16.42.5.56.94.51.22-.02.32-.08.26-.32-.38-1.5-.18-3.02-.19-4.53-.04-5.12.02-10.24-.06-15.36-.05-3.12-.14-6.24-.04-9.37.03-1.05.61-1.95,1.35-2.7.18-.19.42-.3.71-.2-.59.83-1.03,1.69-1.31,2.7-.3,1.07-.06,2.07-.04,3.1.17,8.44.15,16.88.14,25.32,0,.99.22,1.41.81,1.58.34.1.52.06.5-.38-.27-5.51.13-11.01-.04-16.52-.12-4.08-.12-8.15-.08-12.23,0-1.23.43-2.33,1.39-3.16.16-.14.35-.26.58-.28.16.23-.07.36-.16.49-.72,1.05-1.09,2.19-1.08,3.48.09,8.61.21,17.23.17,25.84,0,.65.05,1.3.09,1.95.03.4.15.77.53.99.23.13.53.25.74.11.19-.12,0-.39-.03-.59-.11-.5-.07-.99-.07-1.49,0-5.58.04-11.15-.03-16.73-.04-3.12-.03-6.25-.09-9.37-.02-.97.15-1.91.47-2.8.23-.65.51-1.39,1.39-1.51h-.01c-.22.66-.72,1.2-.86,1.92-.15.77-.29,1.53-.25,2.32.16,3.32.05,6.64.14,9.95.15,5.57.07,11.15.09,16.72,0,.35.04.69.1,1.03.05.25.19.43.33.62.25.32.62.28.9.18.32-.11,0-.39-.01-.6-.01-.32-.07-.65-.07-.97,0-5.97,0-11.93-.02-17.9-.01-2.9-.07-5.8-.11-8.7-.02-1.18.16-2.32.62-3.41.18-.43.52-.68.83-.98.09-.09.24-.14.35-.01.08.1,0,.21-.06.29-1.05,1.29-.99,2.82-.95,4.34.21,8.02.11,16.05.14,24.07,0,.91-.02,1.82-.02,2.73,0,.39.07.78.36,1.08.13.14.31.29.51.19.16-.08.21-.27.21-.45,0-.2,0-.39,0-.59,0-2.6.02-5.21.03-7.81,0-.45.13-.93-.43-1.22-.18-.09-.26-.34-.27-.57h0Zm28.66,3.91c-.29,0-.28-.21-.28-.41,0-1.32-.04-2.64-.07-3.96-.05-1.96.02-3.93.07-5.89.01-.42-.13-.8-.12-1.21.03-2.05.02-4.1.02-6.14,0-1.04-.1-2.09.02-3.12.16-1.32.54-2.6,1.68-3.53-.77-.12-1.31.15-1.68.77-.53.89-.81,1.86-.83,2.9-.04,1.45-.07,2.89-.05,4.34.07,5.48.04,10.97.02,16.45,0,2.95-.07,5.89-.11,8.84,0,.49.08.94.48,1.28.15.13.31.16.48.08.17-.08.16-.25.13-.4-.05-.32-.15-.64-.15-.96-.03-1.51.09-3.02.02-4.53-.03-.64.07-1.28.02-1.94-.06-.86-.15-1.76.32-2.58.03-.03.05-.06.07-.09,0,0,0-.03-.01-.05l-.05.14Zm42.6-48.67c-.92.02-1.28.25-1.49.98-.22.77-.32,1.56-.42,2.36-.24,1.93-.41,3.86-.7,5.79-.24,1.56-.33,3.14-.51,4.71-.24,2.08-.54,4.16-.73,6.25-.09.99-.28,1.97-.46,2.94-.1.53-.39.86-.99.95-1.26.2-2.51.49-3.76.71-2.79.5-5.58.99-8.37,1.48-.49.09-.89.3-1.2.7-.58.76-.74,1.64-.8,2.57-.04.62.01,1.31-.53,1.8-.11.1-.1.25,0,.36.46.53.35,1.18.39,1.79.12,1.86-.11,3.71-.03,5.58.1,2.37,0,4.75,0,7.13,0,4.95,0,9.89,0,14.84,0,.35.1.68.17,1.02.08.41.44.31.68.32.25.01.2-.26.15-.41-.32-1.15-.07-2.33-.09-3.48-.04-2,.06-4.01.08-6.01.02-3.09.03-6.19.03-9.28,0-3.99.01-7.98-.02-11.97-.01-1.42.21-2.76.86-4.02.2-.39.48-.65.92-.74,1.03-.22,2.09-.33,3.11-.56,3.23-.7,6.54-1,9.74-1.85.41-.11.62-.29.72-.7.21-.83.24-1.67.34-2.51.19-1.61.42-3.22.56-4.83.15-1.72.41-3.43.55-5.16.18-2.22.51-4.42.76-6.63.16-1.39.24-2.8,1.05-4.11Zm-6.63-.2c-.78-.05-1.13.21-1.46,1.02-.4,1.01-.32,2.09-.48,3.13-.48,3.01-.63,6.06-1.19,9.06-.22,1.2-.03,2.48-.7,3.59-.04.07-.07.16,0,.24.31.29.15.65.12.98-.14,1.33-.33,2.66-.46,3.99-.12,1.21-.41,1.55-1.61,1.74-.85.13-1.7.3-2.55.45-3.19.57-6.4,1.03-9.61,1.52-.95.14-1.63.54-2.03,1.51-.52,1.27-.53,2.58-.54,3.89-.05,6.98.02,13.95-.09,20.93-.04,2.66-.02,5.33-.05,7.99,0,.41.1.78.27,1.13.14.3.47.27.74.28.22,0,.22-.19.17-.33-.35-1-.14-2.02-.13-3.03.01-5.16.02-10.32.03-15.48,0-3.45-.01-6.89.02-10.34.01-1.72-.13-3.46.63-5.11.31-.68.71-1.21,1.44-1.34,1.79-.31,3.59-.57,5.38-.81,2.49-.34,4.97-.8,7.45-1.21.78-.13,1.22-.49,1.3-1.3.07-.71.21-1.41.3-2.12.31-2.66.59-5.33.9-7.99.3-2.56.6-5.11.96-7.66.22-1.61.14-3.3,1.18-4.72Zm-.89,25.46c-.31-.21-.61-.13-.92-.08-.62.1-1.23.22-1.85.33-1.51.27-3.03.51-4.53.82-.51.1-1.07.25-1.33.8-.23.49-.45.98-.57,1.51-.37,1.64-.38,3.31-.38,4.98-.03,7.32.03,14.65-.14,21.97-.04,1.91,0,3.82-.01,5.72,0,.31.05.6.14.89.13.4.5.28.77.33.22.03.22-.17.17-.32-.42-1.29-.16-2.63-.14-3.92.04-2.9-.01-5.8.09-8.71.06-1.68,0-3.37.03-5.06.07-4.48.1-8.97.11-13.45,0-1.08.17-2.11.53-3.12.32-.89.82-1.54,1.88-1.6.53-.03,1.06-.19,1.59-.28,1.52-.27,3.03-.54,4.55-.81Zm-31.45-.68c-.66-.1-1.13.07-1.46.56-.49.73-.79,1.53-.91,2.4-.16,1.22-.27,2.44-.21,3.67.06,1.19-.08,2.38-.01,3.55.1,1.77.02,3.53.05,5.29.02,1.34-.07,2.69-.02,4.03.06,1.75-.02,3.49.02,5.24.03,1.12-.03,2.24-.03,3.36,0,1.83.07,3.66,0,5.49-.03.71.3,1.25.8,1.3.38.04.65-.07.43-.5-.21-.41-.19-.84-.19-1.27,0-3.92.01-7.85.01-11.77,0-5.23.01-10.45-.05-15.68-.02-2.04-.02-4.04,1.57-5.67Zm-.16,18.89s.01,0,.02,0c0,4.88,0,9.76,0,14.64,0,.44.08.86.2,1.28.09.33.37.43.67.35.42-.11.11-.38.09-.57-.03-.28-.13-.55-.13-.83-.01-1.53-.06-3.07.02-4.59.1-2,.1-4,.09-6,0-2.49,0-4.99,0-7.48-.02-3.79-.08-7.59-.09-11.38,0-1.19.36-2.3.97-3.33.12-.21.44-.47.23-.65-.25-.21-.58.02-.81.22-.16.14-.28.33-.39.51-.68,1.08-.85,2.29-.85,3.53-.01,4.77,0,9.54,0,14.32Zm-13.57-19.93c-.62-.06-1.03.14-1.42.57-.83.93-1,2.04-1.01,3.2,0,2.64,0,5.28,0,7.91,0,3.91,0,7.81,0,11.72,0,2.93,0,5.85.02,8.78,0,.54.06,1.08.28,1.58.14.32.43.46.75.34.32-.13.1-.4.07-.62-.08-.43-.15-.85-.15-1.29,0-2.64-.03-5.29-.04-7.93,0-2.23-.08-4.46-.05-6.68.03-1.81,0-3.62-.01-5.42,0-2.55-.02-5.1-.06-7.65-.02-1.68.29-3.26,1.61-4.53Zm-9.16-.48c-.33-.14-.56-.07-.75.08-.95.73-1.36,1.83-1.52,2.9-.12.77-.01,1.62-.01,2.44.03,8.8-.04,17.59.13,26.39.01.51.09.99.37,1.42.15.23.39.33.62.25.25-.09.1-.34.06-.51-.1-.4-.19-.8-.19-1.22-.05-6.39.05-12.79-.11-19.18-.07-2.95-.03-5.9-.02-8.85,0-.5,0-1,.21-1.46.35-.77.54-1.63,1.22-2.26Zm4.82.11c-.99,0-1.6.44-1.97,1.28-.45,1.01-.65,2.07-.65,3.16,0,2.9.05,5.81.06,8.71,0,1-.05,2-.02,2.99.1,3.01,0,6.03.06,9.04.05,2.47-.05,4.94.09,7.41.02.42.1.82.34,1.17.15.23.42.28.64.18.28-.13.07-.33-.02-.48-.13-.24-.12-.5-.12-.76-.03-2.16-.08-4.32-.09-6.48-.03-7.52-.06-15.04-.04-22.56,0-1.38.46-2.68,1.73-3.65Zm-2.5-.03c-.14-.13-.24-.11-.35-.08-.85.2-1.72,1.27-1.84,2.37-.09.92-.21,1.85-.2,2.78.05,5.17.09,10.34.11,15.51.02,3.73.02,7.45.03,11.18,0,.59.07,1.16.37,1.69.16.28.4.31.67.26.17-.03.19-.17.14-.3-.49-1.5-.28-3.06-.3-4.58-.08-7.41-.04-14.83-.16-22.24-.02-1.1-.06-2.21.06-3.31.13-1.26.61-2.36,1.46-3.28Zm-4.25-.37c-.93-.12-1.5.31-1.85,1.06-.47,1.02-.69,2.09-.69,3.21,0,4.7-.02,9.4.06,14.09.04,2.44.02,4.89.08,7.33.05,2.22-.04,4.45.11,6.67.03.47.15.89.57,1.15.13.08.29.11.43,0,.13-.11.06-.24,0-.35-.13-.23-.19-.47-.21-.74-.1-1.06-.1-2.12-.1-3.18-.02-4.57,0-9.15-.06-13.72-.05-3.69-.08-7.37-.04-11.06.02-1.67.26-3.28,1.71-4.46Zm-2.28-.13c-.92,0-1.36.49-1.71,1.09-.67,1.17-.83,2.5-.79,3.77.07,2.28.07,4.57.13,6.85.1,4.28.1,8.57.14,12.86.02,2.28.03,4.55.05,6.83,0,.58.07,1.16.32,1.71.15.32.41.43.69.32.34-.14.02-.37-.03-.54-.15-.51-.2-1.02-.2-1.54-.03-2.88-.08-5.75-.1-8.63-.05-6.18-.1-12.35-.13-18.53,0-1.56.35-3.01,1.65-4.19Zm56.41,1.13c1.27.26,1.91-.11,2.07-1.21.26-1.77.44-3.56.63-5.34.19-1.8.4-3.6.56-5.41.25-2.75.61-5.49.91-8.24.12-1.07.28-2.14.64-3.16.06-.17.36-.32.2-.49-.2-.21-.44.05-.65.13-.28.11-.39.39-.5.65-.3.7-.43,1.44-.51,2.2-.23,2.04-.47,4.08-.71,6.11-.24,2.04-.5,4.08-.74,6.11-.27,2.32-.52,4.64-.82,6.95-.09.69-.17,1.47-1.08,1.7Zm-16.31-.59s0,.08.01.12c.38-.04.76-.06,1.14-.11.98-.13,1.96-.35,2.94-.39.63-.03.9-.34,1.06-.84.1-.33.17-.67.21-1.02.34-2.83.67-5.67,1.01-8.51.32-2.71.61-5.42,1-8.11.24-1.63.11-3.35,1.15-4.82-.75-.19-1.07.24-1.29.76-.26.6-.37,1.24-.45,1.89-.28,2.34-.57,4.68-.88,7.01-.21,1.61-.48,3.2-.65,4.81-.26,2.51-.59,5-1.22,7.45-.26,1.02-.5,1.22-1.54,1.36-.83.11-1.65.26-2.47.39Zm1.94-23.94c-.76-.05-1.12.21-1.4.99-.4,1.09-.5,2.24-.63,3.37-.24,2.13-.61,4.24-.86,6.36-.26,2.19-.54,4.37-.91,6.54-.32,1.91-.27,3.89-1.09,5.7.83.14,1.15-.03,1.37-.76.09-.31.16-.63.2-.95.32-2.46.63-4.93.94-7.39.42-3.3.84-6.61,1.27-9.91.18-1.36.21-2.77,1.1-3.95Zm12.97.42c-.6-.07-.96.14-1.21.62-.29.57-.42,1.18-.5,1.8-.28,2.27-.59,4.54-.86,6.81-.47,4.07-1.02,8.14-1.56,12.2-.11.79-.13,1.68-1.09,2.15,1.37-.02,1.82-.4,1.94-1.54.12-1.09.26-2.19.39-3.28.27-2.3.49-4.6.82-6.89.43-2.99.76-6,1.12-9,.12-.99.36-1.95.95-2.89Zm-2.52,23.67c1.03.08,1.26-.19,1.43-1.44.36-2.72.66-5.45.99-8.17.4-3.33.8-6.65,1.23-9.98.15-1.15.19-2.33.69-3.42.09-.19.5-.34.25-.56-.22-.2-.52.04-.77.16-.24.12-.33.33-.41.56-.64,1.75-.67,3.6-.9,5.41-.23,1.88-.47,3.77-.67,5.66-.32,3.05-.73,6.1-1.11,9.14-.11.89-.15,1.81-.75,2.64Zm-13.49-.85c1.33,0,1.64-.19,1.77-1.07.21-1.39.38-2.78.56-4.17.32-2.51.65-5.01.96-7.52.25-1.99.44-4,.71-5.99.21-1.54.13-3.17,1.23-4.48-.94.04-1.46.48-1.64,1.39-.12.59-.2,1.19-.27,1.79-.33,2.7-.63,5.41-.97,8.11-.41,3.24-.83,6.47-1.28,9.71-.11.79-.04,1.69-1.08,2.24Zm24.82,1.68c.9-.08,1.05-.18,1.17-.96.16-1,.28-2.01.39-3.02.28-2.47.49-4.95.83-7.41.39-2.87.63-5.76,1.02-8.62.16-1.17.15-2.38.7-3.47.08-.16.38-.37.09-.54-.22-.12-.48-.03-.68.21-.36.43-.59.92-.66,1.45-.21,1.61-.38,3.22-.55,4.83-.16,1.5-.25,3.01-.46,4.51-.35,2.5-.5,5.03-.93,7.52-.32,1.82-.33,3.69-.91,5.52Zm-28.96-2.1c.94.12,1.32-.11,1.45-.9.2-1.3.37-2.61.55-3.92.33-2.38.66-4.75.98-7.13.29-2.17.56-4.33.88-6.5.2-1.32.19-2.69.88-3.9.09-.15.33-.35.16-.5-.18-.17-.45-.05-.65.11-.56.43-.74,1.05-.83,1.71-.23,1.63-.38,3.27-.7,4.87-.13.66.25,1.52-.57,2-.02.01,0,.18.05.22.32.32.16.69.11,1.04-.41,3.04-.78,6.09-1.26,9.11-.2,1.26.05,2.67-1.06,3.78Zm-2.99-23.22c-1.09-.04-1.5.58-1.64,1.43-.16.94-.3,1.88-.45,2.82-.41,2.47-.72,4.95-1.07,7.43-.38,2.7-.8,5.39-1.15,8.09-.1.74-.06,1.56-.51,2.26-.11.18-.59.43-.22.66.25.15.68-.05.91-.33.12-.15.21-.34.24-.52.24-1.47.47-2.94.69-4.41.37-2.5.72-5.01,1.07-7.51.29-2.05.56-4.11.88-6.16.2-1.29.21-2.65,1.25-3.74Zm3.9.15c-.95.12-1.46.67-1.63,1.7-.16.98-.29,1.97-.43,2.95-.34,2.37-.68,4.75-1.02,7.12-.23,1.67-.38,3.35-.7,5-.35,1.81-.25,3.7-1.01,5.44-.07.16-.27.37-.03.51.21.12.46.08.67-.08.41-.31.44-.78.5-1.22.29-2.16.57-4.33.89-6.49.48-3.23.87-6.46,1.38-9.69.28-1.75.16-3.62,1.36-5.24Zm-1.99,0c-.51-.11-.8.06-1.04.37-.41.53-.6,1.15-.7,1.79-.24,1.69-.46,3.38-.7,5.07-.61,4.3-1.2,8.61-1.84,12.9-.13.89-.21,1.83-1.02,2.69.54-.21,1.1-.04,1.27-.4.27-.59.37-1.27.47-1.92.38-2.61.72-5.22,1.08-7.83.42-3,.82-6,1.28-8.99.19-1.25.27-2.55,1.19-3.69Zm19.04.65c-.57-.18-.9.16-1.11.57-.19.36-.3.77-.39,1.17-.35,1.52-.28,3.1-.58,4.62-.25,1.26,0,2.62-.73,3.79-.04.06-.03.17,0,.25.24.99,0,1.96-.11,2.94-.2,1.8-.44,3.6-.68,5.4-.19,1.45-.14,2.94-.72,4.33-.14.33.06.33.28.27.27-.07.46-.25.53-.52.11-.4.22-.79.28-1.2.26-1.97.48-3.95.74-5.92.23-1.82.49-3.64.72-5.47.23-1.87.4-3.74.69-5.6.24-1.57.22-3.21,1.09-4.64Zm-25.03-1.11c-1.16.17-1.55,1.01-1.77,1.97-.08.35-.06.73-.11,1.1-.48,3.2-.97,6.4-1.44,9.6-.39,2.65-.76,5.31-1.17,7.95-.08.55-.11,1.12-.43,1.61-.08.12-.28.2-.17.36.11.17.32.09.48.06.26-.06.38-.27.48-.49.36-.76.45-1.59.54-2.39.3-2.43.71-4.84,1.05-7.26.35-2.51.69-5.02,1.1-7.51.28-1.66.19-3.44,1.42-4.83.03-.04.02-.12.02-.15Zm-6.77,22.54c.16-.03.32-.08.44-.22.26-.31.38-.67.44-1.07.48-3.19.96-6.38,1.44-9.56.43-2.84.83-5.69,1.29-8.53.16-.97.24-1.99.97-2.77.11-.12.41-.22.22-.44-.12-.13-.34-.05-.53.06-.81.47-1.09,1.24-1.21,2.09-.34,2.39-.8,4.77-1.1,7.17-.34,2.7-.77,5.39-1.24,8.07-.29,1.65-.21,3.37-1.01,4.92-.12.23.07.3.3.28Zm25.4-21.68c-.83-.04-1.11.22-1.38,1.03-.36,1.08-.4,2.23-.67,3.34-.41,1.66-.44,3.42-.64,5.14-.24,2.04-.47,4.07-.74,6.11-.2,1.55-.38,3.11-.63,4.66-.13.83-.2,1.67-.47,2.47-.04.12-.23.28,0,.37.16.06.36.04.45-.16.17-.41.42-.81.48-1.24.39-2.83.73-5.66,1.09-8.49.13-.99.07-2.05.44-2.94.4-.95.44-1.9.53-2.86.18-1.72.46-3.43.67-5.14.1-.83.49-1.55.86-2.3Zm-29.85,21.35c.91.05,1.25-.33,1.39-1.29.28-1.95.58-3.89.87-5.83.5-3.38.97-6.76,1.52-10.13.26-1.61.22-3.3,1.22-4.73.09-.13.14-.32-.02-.4-.18-.08-.43-.03-.53.13-.33.52-.76.99-.87,1.64-.28,1.75-.6,3.5-.86,5.25-.37,2.5-.69,5.01-1.07,7.51-.24,1.6-.49,3.19-.8,4.78-.19,1.01.09,2.15-.85,3.07Zm1.93.15c.94.13,1.26-.18,1.42-1.25.53-3.61,1.06-7.22,1.59-10.83.34-2.3.67-4.6,1.04-6.89.17-1.04.25-2.12.97-2.99.11-.13.42-.26.21-.45-.19-.18-.51-.13-.7.1-.41.5-.82.99-.93,1.68-.51,3.24-1,6.49-1.45,9.74-.41,2.93-.89,5.85-1.34,8.77-.12.76-.12,1.56-.82,2.13Zm45.17-20.86c-.11-.05-.15-.08-.19-.07-.7.02-1.12.56-1.26,1.61-.18,1.43-.37,2.87-.52,4.31-.24,2.3-.44,4.6-.68,6.9-.28,2.66-.55,5.33-.89,7.98-.12.93.02,1.93-.57,2.76-.04.06-.04.18,0,.24.07.11.19.08.29.04.23-.09.36-.24.47-.49.31-.72.3-1.48.4-2.23.3-2.45.55-4.9.83-7.35.37-3.24.74-6.49,1.14-9.73.16-1.35.26-2.72,1-3.97Zm-12.5,45.86c-.02-.18-.03-.37-.24-.4-.19-.03-.29.15-.31.27-.03.23.21.31.36.37.19.08.17-.12.19-.24Zm-17.82-3.89c.34-.24.52-.44.47-.75-.02-.12-.16-.16-.26-.12-.37.18-.18.51-.21.87Zm14.94,2.09c-.08.31-.17.61.2.92.15-.37-.04-.64-.2-.92Z"/><path class="cls-1" d="m258.19,172.84c-.54-1.34-.27-2.75-.28-4.12-.06-4.51.17-9.02.12-13.53-.02-1.93.06-3.86.07-5.79,0-1.19,0-2.4,0-3.59,0-1.5.07-3,.07-4.51,0-1.35.23-2.71.9-3.94.21-.38.52-.61.96-.69,3.81-.71,7.61-1.43,11.42-2.15,1.22-.23,1.58-.71,1.68-1.97.13-1.55.34-3.09.53-4.63.25-2.08.47-4.16.75-6.24.33-2.45.53-4.92.9-7.37.13-.85.16-1.71.26-2.57.12-.96.59-1.56,1.62-1.58.14,0,.26-.02.28-.2.25-.02.5-.09.73.04.1.32.14.67.42.91,0,1.78,0,3.56,0,5.34-.29.44-.28.94-.28,1.43,0,6,0,11.99,0,17.99,0,.21-.07.43.08.63-.01,2.68-.03,5.36-.04,8.03-.37.36-.29.83-.29,1.27-.01,4.2-.02,8.41,0,12.61,0,.72-.24,1.29-.71,1.81-1,1.09-2.37,1.69-3.52,2.58-1.15.88-2.51,1.49-3.62,2.45-.62.54-1.3.78-2.12.72-.8-.05-1.6-.02-2.4-.02-1.36-.01-1.16-.1-1.14,1.13.01,1.17-.41,2.07-1.37,2.72-1.22.82-2.44,1.65-3.65,2.49-.34.24-.83.3-1.02.75-.11,0-.23,0-.34,0Zm1.92-32.27c-.03-.27.03-.65-.37-.61-.35.04-.49.37-.5.72-.01.3.17.52.44.54.45.02.38-.37.43-.65Zm1.81,26.9c-.02-.23.1-.56-.27-.54-.34.01-.42.33-.46.6-.04.28.1.58.37.57.35-.01.3-.39.36-.63Zm12.63-8.02c0-.22-.02-.46-.3-.49-.31-.03-.33.22-.31.44.02.23.05.53.34.54.29,0,.26-.28.28-.5Zm3.05-46.05c-.02-.24-.02-.53-.34-.52-.27,0-.27.3-.31.49-.05.23.09.45.32.48.29.03.29-.25.33-.45Zm.24,28.76c-.02-.18,0-.49-.22-.45-.27.05-.33.39-.4.64-.05.17.14.37.29.35.26-.04.35-.28.33-.54Z"/><path class="cls-1" d="m250.65,172.03c-.31-.49-.45-1.04-.43-1.6.14-3.42.04-6.84.13-10.26.18-6.61.03-13.23.1-19.84.01-1.29.25-2.52,1.08-3.57.24-.3.48-.6.85-.66,2-.36,4-.68,6.02-.95-1.18.42-2.43.47-3.64.74-.17.04-.34.09-.51.09-1.25,0-1.85.77-2.17,1.85-.23.79-.44,1.58-.45,2.42-.03,2.16.01,4.33,0,6.49-.06,7.93-.05,15.85-.09,23.78,0,.52.26,1.01.1,1.54-.33,0-.66-.01-.98-.02Z"/><path class="cls-1" d="m248.41,171.73c-.48-.59-.54-1.3-.53-2.02.03-2.24.07-4.48.08-6.71.02-2.79.02-5.57.03-8.36,0-2.57,0-5.13,0-7.7,0-2.57-.03-5.15.07-7.72.04-.96.42-1.92.92-2.77.39-.67,1.12-.67,1.77-.74,1.89-.21,3.76-.58,5.64-.88,1.79-.29,3.58-.59,5.37-.87.16-.03.33-.09.53.05-.38.28-.84.21-1.24.28-1.95.36-3.93.63-5.88.97-1.38.24-2.77.45-4.16.63-1.03.14-1.35.96-1.66,1.79-.53,1.44-.43,2.93-.41,4.43.03,2.41.02,4.81.01,7.22,0,3.23.04,6.46-.04,9.69-.09,3.72-.05,7.45-.14,11.17-.01.55.31,1.05.14,1.6-.17-.01-.34-.03-.51-.04Z"/><path class="cls-1" d="m238.67,170.45c-.47-.37-.59-.88-.59-1.43,0-1.99.02-3.99.03-5.98,0-.29.09-.62-.28-.79-.11-.05-.13-.18-.04-.27.43-.44.48-1.09.14-1.61-.19-.29-.52-.63.14-.82.21-.06.13-.3.13-.46,0-2.23.01-4.46.01-6.7,0-4.26-.01-8.51.05-12.77.02-1.24.21-2.48.83-3.62.3-.57.71-.74,1.3-.76.02.33-.16.55-.29.78-.62,1.12-.9,2.32-.9,3.6,0,7.37.01,14.74.02,22.11,0,2.23,0,4.46-.03,6.7-.01.7.31,1.35.21,2.05-.24,0-.48-.02-.72-.03Z"/><path class="cls-1" d="m241.02,170.72c-.4-.8-.46-1.66-.45-2.53.01-1.8.01-3.6.02-5.4,0-.25.04-.51-.3-.63-.19-.07-.42-.24-.33-.49.11-.31.38.04.6-.08-.24-.49.03-.96.03-1.44,0-2.82,0-5.64,0-8.46,0-4.21-.02-8.41.06-12.62.02-1.01.34-2.04.87-2.96.1-.18.26-.35.43-.48.23-.19.56-.44.81-.21.22.21-.15.44-.28.63-.61.96-.9,2.05-.91,3.14-.05,7.14-.03,14.27-.03,21.41,0,2.58,0,5.16-.02,7.74,0,.72-.05,1.44.26,2.11.09.2-.11.19-.13.3-.21,0-.41-.02-.62-.02Z"/><path class="cls-1" d="m243.35,171c-.6-.97-.41-2.07-.38-3.1.09-2.64.05-5.29.06-7.93.03-6.68,0-13.35.04-20.03,0-1.25.16-2.51.82-3.64.33-.56.78-.89,1.52-.79-1.09,1.42-1.42,3.01-1.42,4.71,0,8.59,0,17.17,0,25.76,0,.97-.05,1.95-.09,2.92-.03.55-.01,1.09.19,1.6.08.21.05.37-.1.52-.21-.01-.42-.02-.63-.03Z"/><path class="cls-1" d="m236.43,170.17c-.55-.48-.65-1.12-.69-1.81-.05-.78.22-1.55-.1-2.36-.09-.22.19-.75.2-1.14.03-1.13.05-2.25-.02-3.38-.04-.67.04-1.34.04-2.01,0-5.77.02-11.54,0-17.31,0-1.36-.02-2.72.13-4.07.09-.85.34-1.65.77-2.39.31-.54.79-.76,1.52-.75-.8.95-1.16,2-1.39,3.1-.11.5-.1.99-.1,1.49,0,6.96,0,13.92,0,20.88,0,2.77-.03,5.55-.1,8.32-.01.49.41.93.11,1.43l-.38-.02Z"/><path class="cls-1" d="m215.85,167.53c-.44-.68-.54-1.42-.54-2.22,0-9.15-.02-18.3-.03-27.45,0-1.16.2-2.28.7-3.34.33-.7.79-1.17,1.79-1.14-.69.57-1.02,1.24-1.28,1.95-.29.8-.39,1.63-.38,2.48.02,2.23,0,4.46.04,6.69.15,7.08.06,14.17.1,21.25,0,.32-.05.67.1.96.24.47.1.73-.38.86-.04-.02-.08-.04-.12-.04Z"/><path class="cls-1" d="m224.86,168.65c-.58-.5-.55-1.21-.55-1.86-.03-5.22-.01-10.45-.03-15.67-.02-4-.09-8.01-.08-12.01,0-1.53.1-3.08,1.04-4.41.11-.16.24-.32.4-.42.26-.16.65-.35.83-.12.22.28-.25.35-.38.55-.68.97-.94,2.09-.99,3.25-.04.89,0,1.78,0,2.67,0,.02,0,.05,0,.06.49.83-.14,1.65-.03,2.5.12.92.04,1.86.04,2.79,0,.95,0,1.91,0,2.86,0,.93-.02,1.86-.02,2.8,0,2.69,0,5.38.02,8.07,0,2.44.03,4.88.03,7.32,0,.57.35,1.07.31,1.64-.2,0-.39,0-.59,0Z"/><path class="cls-1" d="m220.7,168.1c-.53-.21-.7-.67-.75-1.18-.16-1.64-.08-3.29-.09-4.94-.02-3.32.03-6.64-.04-9.96-.1-4.69-.11-9.38-.09-14.07,0-1.23.2-2.47.94-3.52.14-.19.31-.36.49-.52.19-.17.48-.24.65-.06.17.18-.12.32-.22.47-.67,1.05-1.04,2.21-1.03,3.44.03,7.65.09,15.3.13,22.95.01,1.78.03,3.56.02,5.33,0,.72.24,1.38.34,2.08-.12,0-.24-.02-.35-.03Z"/><path class="cls-1" d="m227.08,168.91c-.68-1.1-.54-2.34-.55-3.53-.02-4.27-.02-8.54-.01-12.81,0-5-.01-10,.06-15,.01-.9.37-1.81.87-2.6.13-.21.31-.35.52-.49.23-.15.53-.3.71-.1.17.19-.18.34-.29.5-.7.96-1.03,2.06-1.04,3.22-.03,3.19,0,6.38.02,9.56.01,1.92.11,3.84.07,5.75-.02.78.08,1.53.11,2.3.02.48-.18,1.02-.17,1.52.05,2.23-.06,4.45,0,6.68.03,1.16-.03,2.34-.04,3.5,0,.36-.04.72.24,1.04.3.33-.11.34-.25.47-.08,0-.16-.01-.24-.02Z"/><path class="cls-1" d="m222.65,168.37c-.5-.68-.56-1.48-.57-2.29-.04-2.4-.06-4.81-.06-7.21,0-3.03.05-6.07,0-9.1-.07-3.84-.06-7.67-.04-11.51,0-1.1.15-2.18.67-3.19.36-.71.83-1.21,1.76-1.14-1.3,1.29-1.62,2.88-1.61,4.58.03,5.83.07,11.66.1,17.49.02,2.93-.01,5.85.04,8.78.02,1.07-.12,2.16.22,3.22.04.11-.03.25-.04.38-.15,0-.31-.02-.46-.02Z"/><path class="cls-1" d="m202.52,134.25c.31-.08.29-.4.43-.6.3-.4.6-.8,1.28-.91-.77.86-1.18,1.81-1.28,2.84-.09.92-.05,1.86-.04,2.79.03,2.27.05,4.54.09,6.81.09,4.36.04,8.72.07,13.08.01,2.13-.08,4.27.09,6.4.02.27.08.51.18.75.07.15.23.34-.06.4-.2.04-.48.09-.54-.2-.1-.42-.29-.81-.3-1.25-.07-2.03-.08-4.06-.02-6.1.08-2.92.09-5.85,0-8.78-.1-3.62-.06-7.24-.11-10.86,0-.22.12-.49-.17-.64,0-.56,0-1.13,0-1.69.35-.56.36-1.19.34-1.82.02-.07.03-.15.05-.22Z"/><path class="cls-1" d="m236.8,108.44s0,.06,0,.06c-1.42.98-1.43,2.56-1.67,4.02-.26,1.62-.46,3.25-.67,4.88-.2,1.56-.45,3.12-.66,4.68-.25,1.8-.55,3.6-.83,5.4-.14.94-.23,1.89-.42,2.82-.2.96-.51,1.15-1.41,1.02.87-1,.77-2.26.96-3.43.35-2.09.65-4.18.96-6.28.26-1.75.46-3.51.74-5.26.33-2.07.59-4.14.96-6.21.2-1.08.99-1.27,1.66-1.72.12,0,.25.01.37.02Z"/><path class="cls-1" d="m244.56,108.92c-.25.54-.62,1.02-.83,1.59-.35.97-.36,1.99-.51,2.99-.48,3.36-.91,6.73-1.37,10.09-.33,2.39-.66,4.79-1.03,7.17-.16,1.03-.43,1.23-1.37,1.19.88-1.15.74-2.55.94-3.84.49-3.09.88-6.2,1.31-9.29.36-2.59.72-5.18,1.09-7.77.14-.99.5-1.84,1.58-2.14.06,0,.12,0,.17.01Z"/><path class="cls-1" d="m257.33,109.46c-.95,1.3-.93,2.85-1.12,4.34-.3,2.33-.55,4.67-.83,7.01-.36,3-.73,6.01-1.1,9.01-.09.71-.17,1.42-.3,2.12-.14.77-.44.98-1.31.95.67-1.13.75-2.39.91-3.63.29-2.23.55-4.46.81-6.7.29-2.45.58-4.89.88-7.34.16-1.33.24-2.67.5-3.99.17-.83.41-1.6,1.38-1.84.06.02.11.04.17.06Z"/><path class="cls-3" d="m211.26,107.66c-.94,1.22-1.04,2.66-1.26,4.05-.46,2.93-.89,5.86-1.33,8.79-.38,2.48-.75,4.96-1.14,7.44-.09.55-.13,1.13-.63,1.52-.18.15-.39.28-.58.14-.24-.18.05-.33.12-.48.38-.82.43-1.72.57-2.59.3-1.81.56-3.63.84-5.45.33-2.2.67-4.4.99-6.61.26-1.73.49-3.47.91-5.17.21-.86.7-1.69,1.51-1.66Z"/><path class="cls-3" d="m220.63,108.09c-1,1.76-.95,3.72-1.25,5.58-.63,4.02-1.2,8.05-1.8,12.07-.18,1.22-.35,2.44-.57,3.65-.08.44-.27.89-.84.94-.17.02-.44-.02-.29-.26.72-1.11.6-2.42.85-3.63.24-1.14.25-2.33.46-3.47.41-2.16.65-4.35,1-6.52.31-1.96.6-3.93.87-5.9.1-.72.36-1.37.68-2.01.18-.35.54-.36.88-.45Z"/><path class="cls-3" d="m218.61,108.08c-1.01,1.79-1,3.75-1.29,5.64-.61,3.97-1.16,7.95-1.74,11.93-.16,1.09-.34,2.18-.52,3.27-.08.5-.27.96-.76,1.2-.09.04-.21.04-.31.02-.1-.03-.08-.14-.04-.22.53-.9.54-1.93.71-2.91.39-2.26.69-4.53,1.02-6.8.37-2.52.69-5.05,1.09-7.57.22-1.38.27-2.8,1.02-4.06.18-.3.31-.56.82-.5Z"/><path class="cls-3" d="m224.4,108.37c-.04.12-.06.27-.13.36-.49.65-.57,1.43-.78,2.17-.32,1.09-.27,2.21-.45,3.31-.35,2.18-.56,4.39-.98,6.55-.35,1.82-.41,3.67-.76,5.48-.21,1.13-.36,2.27-.61,3.39-.05.23-.14.46-.27.66-.15.24-.45.38-.67.25-.3-.18.04-.35.12-.52.36-.78.39-1.64.52-2.47.36-2.29.67-4.58.99-6.87.46-3.26.92-6.51,1.38-9.77.13-.89.41-1.72.92-2.47.15-.22.35-.32.61-.27.1.02.14.09.11.19Z"/><path class="cls-3" d="m208.11,129.77c.87-1.56.82-3.19,1.09-4.76.45-2.62.83-5.26,1.23-7.89.35-2.29.65-4.58,1.02-6.87.14-.87.35-1.75,1.09-2.36.1-.09.23-.16.35-.08.15.1.03.24-.02.34-1.03,2.08-1.05,4.37-1.44,6.59-.26,1.49-.47,2.99-.69,4.49-.33,2.26-.66,4.52-.99,6.78-.13.85-.25,1.71-.45,2.55-.13.56-.35,1.12-1.19,1.2Z"/><path class="cls-3" d="m214.8,107.9c-1.12,2.45-1.11,5.12-1.55,7.7-.39,2.3-.73,4.62-1.08,6.93-.29,1.88-.58,3.76-.86,5.64-.08.52-.17,1.03-.48,1.46-.14.19-.35.37-.61.19-.23-.17-.03-.36.05-.52.53-1.12.54-2.35.73-3.54.6-3.8,1.14-7.61,1.72-11.42.29-1.9.43-3.83,1.14-5.64.17-.44.41-.81.96-.8h0Z"/><path class="cls-3" d="m197.42,128.91c-.22-.03-.44-.06-.28-.26.7-.87.65-1.95.82-2.96.47-2.86.88-5.73,1.3-8.59.29-1.97.52-3.94.86-5.9.19-1.09.2-2.25.83-3.23.08-.13.15-.28.27-.36.19-.12.42-.37.63-.15.15.16-.09.34-.2.49-.42.59-.52,1.29-.62,1.96-.64,3.96-1.23,7.93-1.84,11.9-.3,1.97-.61,3.93-.94,5.89-.09.53-.23,1.07-.83,1.21Z"/><path class="cls-3" d="m216.79,107.93c-.79,1.54-1.05,3.09-1.23,4.68-.25,2.23-.65,4.45-.99,6.68-.36,2.39-.7,4.79-1.11,7.18-.16.94-.21,1.89-.49,2.81-.11.36-.31.62-.66.74-.15.05-.46.02-.3-.2.68-.94.6-2.06.78-3.11.44-2.55.81-5.12,1.2-7.69.41-2.76.81-5.51,1.2-8.27.11-.77.33-1.51.66-2.22.17-.37.43-.56.94-.6Z"/><path class="cls-3" d="m209.35,107.66c-1.05,1.15-1.1,2.53-1.3,3.89-.76,4.94-1.56,9.87-2.34,14.81-.09.6-.17,1.2-.27,1.8-.06.39-.17.77-.45,1.06-.16.17-.43.33-.64.14-.21-.19.09-.34.18-.47.43-.6.4-1.31.52-1.98.25-1.4.41-2.82.68-4.22.27-1.4.4-2.82.62-4.23.43-2.86.87-5.72,1.33-8.57.08-.51.25-1.01.46-1.48.2-.45.52-.84,1.21-.73Z"/><path class="cls-3" d="m189.97,128.27c.77-1.17.74-2.55.99-3.84.24-1.19.37-2.39.56-3.58.42-2.67.87-5.33,1.27-8,.22-1.47.43-2.94.78-4.39.16-.66.72-1.23,1.31-1.27-1.1,1.43-1.01,3.15-1.29,4.77-.68,3.94-1.28,7.89-1.91,11.84-.16.98-.31,1.96-.47,2.95-.07.45-.13.91-.46,1.26-.2.22-.41.47-.79.26Z"/><path class="cls-3" d="m218.13,130.45c-.28-.02-.4-.08-.28-.29.82-1.38.66-2.97.94-4.46.41-2.16.64-4.36.95-6.54.38-2.67.76-5.35,1.16-8.02.13-.9.27-1.8.87-2.54.11-.13.17-.35.38-.26.2.09.13.31.06.46-.92,1.79-.72,3.8-1.1,5.7-.32,1.63-.46,3.3-.7,4.94-.38,2.61-.76,5.22-1.16,7.83-.12.79-.25,1.57-.41,2.35-.09.42-.36.72-.7.84Z"/><path class="cls-3" d="m199.19,129.02c-.18,0-.31-.06-.2-.27.85-1.62.78-3.44,1.07-5.18.62-3.64,1.13-7.3,1.7-10.96.2-1.3.46-2.59.68-3.89.09-.56.43-.92.86-1.23.11-.08.26-.12.35,0,.09.1-.02.19-.09.27-.52.57-.67,1.29-.78,2.01-.41,2.69-.82,5.39-1.22,8.08-.33,2.22-.66,4.45-.99,6.67-.17,1.13-.34,2.27-.53,3.4-.11.62-.52,1.12-.86,1.11Z"/><path class="cls-3" d="m193.41,128.6c.93-.92.85-2.04,1.03-3.06.4-2.26.72-4.53,1.06-6.79.41-2.76.8-5.51,1.23-8.27.1-.64.16-1.29.39-1.9.16-.44.31-.89,1-1.05-.59,1-.54,2.03-.7,3.01-.39,2.48-.75,4.96-1.14,7.43-.43,2.69-.88,5.38-1.31,8.07-.1.63-.18,1.26-.41,1.87-.2.51-.49.71-1.15.69Z"/><path class="cls-3" d="m184.55,128.06c.9-1.32.89-2.81,1.15-4.22.56-3.09,1.05-6.19,1.56-9.28.29-1.79.53-3.6.88-5.38.16-.79.28-1.68,1.1-2.17.12-.07.27-.19.4-.03.07.09,0,.21-.07.29-.86.93-.86,2.14-1.05,3.27-.39,2.3-.73,4.61-1.11,6.92-.5,3.03-.98,6.06-1.53,9.08-.24,1.35-.36,1.44-1.33,1.51Z"/><path class="cls-3" d="m206.98,107.63c.19,0,.34.04.22.22-1.03,1.65-.93,3.57-1.24,5.38-.74,4.37-1.38,8.75-2.05,13.13-.11.75-.16,1.5-.42,2.23-.07.21-.18.39-.35.54-.14.12-.32.22-.47.12-.24-.16.02-.29.08-.43.47-1.11.51-2.32.7-3.49.43-2.56.81-5.13,1.2-7.69.39-2.54.74-5.09,1.16-7.62.12-.75.26-1.54.83-2.13.1-.11.23-.19.32-.26Z"/><path class="cls-3" d="m191.91,128.49c-.08,0-.2-.08-.09-.24.67-.95.65-2.09.83-3.16.41-2.36.75-4.73,1.12-7.1.45-2.84.89-5.68,1.36-8.51.12-.71.23-1.47.85-1.98.12-.1.24-.32.42-.17.15.12,0,.28-.09.4-.6.83-.62,1.83-.78,2.78-.4,2.45-.77,4.91-1.15,7.36-.48,3.05-.98,6.1-1.46,9.15-.07.45-.16.9-.5,1.24-.12.12-.25.25-.52.23Z"/><path class="cls-3" d="m188.03,128.19c.79-.93.78-2.06.97-3.1.43-2.34.85-4.69,1.16-7.04.37-2.85.96-5.67,1.36-8.51.12-.87.3-1.77,1.12-2.33.1-.07.18-.2.34-.13.12.18-.06.27-.14.38-.77,1.03-.74,2.29-.94,3.47-.63,3.73-1.22,7.47-1.82,11.2-.27,1.66-.52,3.33-.82,4.99-.15.82-.51,1.12-1.23,1.09Z"/><path class="cls-3" d="m258.54,172.83c.19-.45.67-.51,1.02-.75,1.21-.84,2.43-1.67,3.65-2.49.97-.65,1.39-1.55,1.37-2.72-.02-1.23-.22-1.14,1.14-1.13.8,0,1.61-.03,2.4.02.82.05,1.5-.19,2.12-.72,1.11-.96,2.47-1.56,3.62-2.45,1.15-.89,2.52-1.48,3.52-2.58.48-.52.72-1.1.71-1.81-.01-4.2,0-8.41,0-12.61,0-.44-.07-.91.29-1.27.17.5-.14.96-.13,1.46.03,4.08-.03,8.15.03,12.23.02,1.52-.66,2.46-1.86,3.23-2.06,1.34-4.14,2.63-6.08,4.14-.44.34-.92.53-1.49.53-1.11-.01-2.21.04-3.32-.02-.69-.04-.86.21-.82.85.05.67,0,1.33-.26,1.97-.15.36-.35.64-.64.86-1.51,1.16-3.18,2.06-4.74,3.15-.16.11-.35.18-.55.11Z"/><path class="cls-3" d="m200.27,107.26c-1.25,1.53-1.15,3.33-1.44,5-.43,2.45-.75,4.92-1.13,7.38-.41,2.63-.84,5.25-1.26,7.88-.07.47-.23.88-.64,1.16-.11.08-.24.12-.36.02-.08-.07-.04-.16,0-.23.64-.94.65-2.06.8-3.11.31-2.12.68-4.22.91-6.36.2-1.92.62-3.83.91-5.75.23-1.54.36-3.09.76-4.6.17-.64.73-1.23,1.44-1.39Z"/><path class="cls-3" d="m191.54,106.93c-1.21,1.21-1.19,2.77-1.46,4.21-.5,2.72-.88,5.46-1.32,8.19-.39,2.41-.78,4.83-1.18,7.24-.08.46-.17.93-.49,1.31-.2.24-.47.34-.67.16-.2-.18.1-.32.21-.45.27-.31.35-.71.42-1.08.55-3.3,1.07-6.61,1.61-9.91.43-2.67.87-5.33,1.32-7.99.16-.96.72-1.58,1.56-1.68Z"/><path class="cls-3" d="m183.21,127.91c-.21-.04-.25-.14-.17-.28.86-1.54.75-3.31,1.13-4.97.39-1.68.6-3.4.88-5.11.38-2.3.74-4.61,1.13-6.91.15-.85.28-1.71.53-2.54.12-.39.38-.68.62-.98.12-.15.31-.21.45-.08.13.11-.03.23-.1.32-.49.67-.62,1.46-.75,2.25-.49,2.94-.99,5.89-1.48,8.83-.42,2.52-.81,5.04-1.25,7.56-.1.6-.15,1.26-.69,1.7-.1.08-.2.15-.29.22Z"/><path class="cls-3" d="m184.5,106.75c.05.09.07.12.07.12-1.14,1.45-1.04,3.25-1.37,4.91-.47,2.35-.81,4.73-1.21,7.1-.42,2.49-.86,4.99-1.28,7.48-.07.4-.25.73-.47,1.05-.08.11-.21.19-.34.13-.16-.07-.09-.21-.04-.33.62-1.59.81-3.27,1.05-4.94.17-1.24.42-2.47.63-3.7.33-1.91.65-3.83.96-5.74.26-1.62.38-3.27.96-4.82.2-.53.49-1.02,1.06-1.25Z"/><path class="cls-3" d="m205.41,107.69c-.17.33-.41.61-.52.97-.48,1.61-.57,3.27-.83,4.91-.58,3.63-1.16,7.26-1.72,10.89-.18,1.2-.29,2.41-.56,3.59-.09.38-.21.75-.53,1.01-.12.09-.23.23-.4.1-.17-.13-.09-.27,0-.4.72-1.01.67-2.23.84-3.36.38-2.52.75-5.05,1.12-7.58.36-2.46.78-4.91,1.06-7.39.09-.78.36-1.51.59-2.26.1-.31.38-.46.61-.64.13-.1.29-.1.32.13Z"/><path class="cls-3" d="m180.91,127.77c1.06-.76.96-1.91,1.16-2.92.4-2.01.69-4.05,1.02-6.07.3-1.81.57-3.63.89-5.43.31-1.7.63-3.39,1.02-5.07.14-.6.44-1.22,1.14-1.45.04.08.08.14.07.15-1.06,1.13-1,2.62-1.24,4-.65,3.7-1.27,7.41-1.9,11.12-.24,1.43-.49,2.86-.71,4.29-.16.99-.55,1.42-1.46,1.39Z"/><path class="cls-1" d="m224.38,113.41c.39-.63.27-1.37.43-2.06.13-.54.18-1.11.34-1.65.09-.31.19-.69.64-.73-.63,2.18-.78,4.44-1.15,6.66-.43,2.54-.74,5.09-1.12,7.64-.31,2.12-.63,4.23-.97,6.34-.11.7-.54,1.07-1.03.94.11-.17.22-.33.33-.5.38-.3.37-.7.27-1.11.02-.07.03-.14.05-.2.18-.11.21-.24.05-.39.02-.16.04-.33.06-.49.26-.2.22-.43.09-.68.01-.08.02-.15.03-.23.29-.41.32-.86.2-1.33.01-.08.02-.16.03-.24.27-.19.26-.42.1-.67.01-.08.02-.16.03-.24.28-.21.23-.46.12-.73.01-.07.02-.14.03-.2.22-.15.24-.32.07-.52.01-.12.03-.25.04-.37.31-.2.21-.46.1-.73.02-.11.04-.22.06-.34.24-.16.22-.36.09-.58.02-.11.03-.22.05-.33.19-.11.19-.24.05-.39.01-.12.03-.25.04-.37.28-.19.27-.42.1-.67.02-.12.03-.24.05-.36.24-.17.23-.38.1-.61.01-.07.02-.14.04-.2.19-.11.2-.24.05-.39.02-.21.05-.41.07-.62.18-.11.27-.24.07-.42.02-.12.03-.24.05-.36.27-.48.38-.98.22-1.52,0-.07.02-.14.03-.21.29-.18.24-.4.1-.64.02-.16.04-.33.06-.49Z"/><path class="cls-3" d="m278.44,136.29c-.15-.19-.08-.42-.08-.63,0-6,0-11.99,0-17.99,0-.5-.02-.99.28-1.43.22.58-.12,1.13-.11,1.71.03,5.86.01,11.73,0,17.59,0,.25.09.52-.09.75Z"/><path class="cls-3" d="m202.47,134.47c.03.63.01,1.26-.34,1.82-.12-.65-.11-1.27.34-1.82Z"/><path class="cls-3" d="m224.19,114.75c.16.54.05,1.04-.22,1.52-.11-.53-.02-1.03.22-1.52Z"/><path class="cls-3" d="m222.62,125.61c.11.47.09.92-.2,1.33-.1-.47-.03-.92.2-1.33Z"/><path class="cls-3" d="m278.64,110.9c-.28-.24-.32-.59-.42-.91.47.15.47.51.42.91Z"/><path class="cls-3" d="m222.13,128.94c.1.42.11.81-.27,1.11.02-.39.03-.78.27-1.11Z"/><path class="cls-3" d="m223.54,119.23c.17.26.17.49-.1.67-.07-.24-.11-.48.1-.67Z"/><path class="cls-3" d="m224.32,113.9c.14.24.19.47-.1.64-.1-.23-.11-.46.1-.64Z"/><path class="cls-3" d="m222.76,124.7c.16.25.17.49-.1.67-.07-.24-.1-.48.1-.67Z"/><path class="cls-3" d="m222.91,123.73c.11.27.16.53-.12.73-.08-.26-.11-.52.12-.73Z"/><path class="cls-3" d="m222.38,127.18c.12.25.17.49-.09.68-.11-.25-.13-.48.09-.68Z"/><path class="cls-3" d="m223.15,121.91c.11.26.2.52-.1.73-.08-.26-.11-.51.1-.73Z"/><path class="cls-3" d="m223.69,118.27c.12.23.14.44-.1.61-.09-.22-.11-.44.1-.61Z"/><path class="cls-3" d="m223.01,123.01c.17.2.15.37-.07.52-.14-.19-.12-.37.07-.52Z"/><path class="cls-3" d="m223.29,121c.14.22.15.42-.09.58-.12-.22-.11-.41.09-.58Z"/><path class="cls-3" d="m223.92,116.63c.19.18.1.31-.07.42-.1-.16-.12-.31.07-.42Z"/><path class="cls-3" d="m223.78,117.67c.15.15.14.28-.05.39-.14-.15-.1-.28.05-.39Z"/><path class="cls-3" d="m223.39,120.28c.14.15.14.28-.05.39-.15-.15-.11-.28.05-.39Z"/><path class="cls-3" d="m222.23,128.35c.16.15.13.28-.05.39-.15-.15-.1-.28.05-.39Z"/><path class="cls-3" d="m201.4,154.77c-.12-.05-.26-.08-.2-.26,0-.02.03-.05.04-.04.19.04.09.21.15.32,0,0,0,0,0,0Z"/><path class="cls-3" d="m199.84,132.52c-.05-.2.05-.27.22-.26.06,0,.12.05.08.12-.07.12-.18.15-.32.12,0,0,.01.01.01.01Z"/><path class="cls-3" d="m172.07,130.27s-.05-.06-.07-.09c.05-.02.09-.05.14-.07.01.04.04.08.03.11-.01.03-.07.04-.1.05Z"/><path class="cls-3" d="m214.81,107.91s.08-.07.13-.11c.01.03.03.06.04.08-.06,0-.12,0-.17.01,0,0,0,.01,0,.01Z"/><polygon class="cls-3" points="179.6 130.89 179.56 130.9 179.57 130.87 179.6 130.89"/><polygon class="cls-3" points="222.42 108.2 222.44 108.25 222.4 108.24 222.42 108.2"/><path class="cls-1" d="m272.65,110.02c-.81,1.31-.89,2.71-1.05,4.11-.26,2.21-.58,4.42-.76,6.63-.14,1.73-.4,3.44-.55,5.16-.14,1.61-.38,3.22-.56,4.83-.1.84-.13,1.68-.34,2.51-.1.41-.31.59-.72.7-3.2.86-6.51,1.15-9.74,1.85-1.03.22-2.08.33-3.11.56-.44.1-.72.35-.92.74-.65,1.27-.87,2.61-.86,4.02.03,3.99.02,7.98.02,11.97,0,3.09-.01,6.19-.03,9.28-.02,2-.12,4.01-.08,6.01.02,1.16-.23,2.33.09,3.48.04.15.09.42-.15.41-.24-.01-.6.09-.68-.32-.07-.34-.17-.67-.17-1.02,0-4.95,0-9.89,0-14.84,0-2.38.1-4.76,0-7.13-.08-1.87.15-3.72.03-5.58-.04-.61.07-1.26-.39-1.79-.09-.11-.1-.26,0-.36.54-.49.49-1.17.53-1.8.06-.93.22-1.81.8-2.57.3-.4.71-.61,1.2-.7,2.79-.49,5.58-.98,8.37-1.48,1.26-.23,2.5-.51,3.76-.71.6-.1.89-.43.99-.95.18-.98.37-1.96.46-2.94.19-2.09.49-4.16.73-6.25.18-1.57.27-3.15.51-4.71.29-1.92.46-3.86.7-5.79.1-.8.2-1.59.42-2.36.21-.74.57-.96,1.49-.98Z"/><path class="cls-1" d="m266.02,109.83c-1.04,1.42-.96,3.12-1.18,4.72-.36,2.55-.66,5.11-.96,7.66-.31,2.66-.6,5.33-.9,7.99-.08.71-.23,1.41-.3,2.12-.08.81-.52,1.17-1.3,1.3-2.48.41-4.96.87-7.45,1.21-1.8.24-3.6.51-5.38.81-.73.13-1.13.66-1.44,1.34-.76,1.65-.62,3.39-.63,5.11-.03,3.45-.01,6.89-.02,10.34,0,5.16-.01,10.32-.03,15.48,0,1.01-.22,2.03.13,3.03.05.15.05.34-.17.33-.27,0-.6.02-.74-.28-.16-.35-.27-.72-.27-1.13.02-2.66,0-5.33.05-7.99.11-6.98.04-13.95.09-20.93,0-1.31.02-2.62.54-3.89.4-.97,1.08-1.37,2.03-1.51,3.21-.49,6.42-.95,9.61-1.52.85-.15,1.7-.32,2.55-.45,1.2-.19,1.49-.53,1.61-1.74.14-1.33.32-2.66.46-3.99.03-.33.19-.69-.12-.98-.08-.07-.05-.16,0-.24.66-1.11.47-2.39.7-3.59.55-3,.71-6.05,1.19-9.06.16-1.04.08-2.12.48-3.13.32-.81.67-1.07,1.46-1.02Z"/><path class="cls-1" d="m265.13,135.29c-1.52.27-3.03.54-4.55.81-.53.1-1.06.26-1.59.28-1.06.06-1.56.71-1.88,1.6-.36,1.01-.53,2.04-.53,3.12-.01,4.48-.04,8.97-.11,13.45-.03,1.69.03,3.38-.03,5.06-.1,2.9-.05,5.81-.09,8.71-.02,1.3-.28,2.63.14,3.92.05.15.05.36-.17.32-.27-.04-.64.07-.77-.33-.09-.29-.15-.58-.14-.89,0-1.91-.03-3.82.01-5.72.17-7.32.11-14.65.14-21.97,0-1.67.01-3.33.38-4.98.12-.54.34-1.02.57-1.51.26-.56.82-.7,1.33-.8,1.5-.31,3.02-.55,4.53-.82.62-.11,1.23-.23,1.85-.33.3-.05.61-.12.92.08Z"/><path class="cls-1" d="m233.69,134.61c-1.59,1.64-1.59,3.63-1.57,5.67.06,5.23.04,10.45.05,15.68,0,3.92,0,7.85-.01,11.77,0,.43-.02.86.19,1.27.21.43-.06.54-.43.5-.5-.05-.83-.59-.8-1.3.08-1.83,0-3.66,0-5.49,0-1.12.06-2.24.03-3.36-.04-1.75.04-3.49-.02-5.24-.04-1.34.05-2.68.02-4.03-.03-1.76.05-3.53-.05-5.29-.07-1.17.07-2.36.01-3.55-.06-1.23.04-2.45.21-3.67.12-.88.42-1.68.91-2.4.33-.49.81-.66,1.46-.56Z"/><path class="cls-1" d="m233.53,153.49c0-4.77,0-9.54,0-14.32,0-1.23.17-2.45.85-3.53.11-.18.23-.37.39-.51.23-.21.56-.44.81-.22.22.19-.1.45-.23.65-.61,1.03-.97,2.14-.97,3.33.01,3.79.07,7.59.09,11.38.02,2.49,0,4.99,0,7.48,0,2,0,4-.09,6-.08,1.53-.03,3.06-.02,4.59,0,.28.1.55.13.83.02.2.33.47-.09.57-.31.08-.58-.03-.67-.35-.12-.41-.2-.84-.2-1.28,0-4.88,0-9.76,0-14.64,0,0-.01,0-.02,0Z"/><path class="cls-1" d="m230.04,158.68c-.47.81-.39,1.71-.32,2.58.05.66-.05,1.29-.02,1.94.07,1.51-.06,3.02-.02,4.53,0,.32.1.64.15.96.02.15.03.31-.13.4-.17.09-.33.05-.48-.08-.4-.34-.49-.79-.48-1.28.04-2.95.1-5.89.11-8.84.02-5.48.05-10.97-.02-16.45-.02-1.45.02-2.89.05-4.34.03-1.04.31-2,.83-2.9.37-.63.91-.9,1.68-.77-1.15.93-1.53,2.21-1.68,3.53-.12,1.03-.02,2.08-.02,3.12,0,2.05.01,4.1-.02,6.14,0,.42.13.8.12,1.21-.05,1.96-.12,3.93-.07,5.89.03,1.32.06,2.64.07,3.96,0,.2-.01.41.28.41h0Z"/><path class="cls-1" d="m219.96,133.57c-1.32,1.26-1.63,2.85-1.61,4.53.03,2.55.05,5.1.06,7.65,0,1.8.04,3.61.01,5.42-.03,2.22.04,4.45.05,6.68,0,2.64.03,5.29.04,7.93,0,.44.07.86.15,1.29.04.21.26.49-.07.62-.32.12-.61-.02-.75-.34-.22-.5-.28-1.04-.28-1.58-.01-2.93-.02-5.85-.02-8.78,0-3.91,0-7.81,0-11.72,0-2.64-.02-5.28,0-7.91,0-1.16.17-2.28,1.01-3.2.38-.43.8-.63,1.42-.57Z"/><path class="cls-1" d="m210.8,133.09c-.67.63-.87,1.48-1.22,2.26-.21.46-.21.97-.21,1.46,0,2.95-.05,5.9.02,8.85.16,6.39.07,12.79.11,19.18,0,.42.09.81.19,1.22.04.17.19.42-.06.51-.23.08-.47-.02-.62-.25-.28-.43-.36-.91-.37-1.42-.17-8.8-.11-17.59-.13-26.39,0-.82-.11-1.67.01-2.44.16-1.07.56-2.17,1.52-2.9.19-.15.42-.21.75-.08Z"/><path class="cls-1" d="m215.62,133.19c-1.27.96-1.72,2.26-1.73,3.65-.02,7.52.01,15.04.04,22.56,0,2.16.06,4.32.09,6.48,0,.26-.01.52.12.76.09.15.3.35.02.48-.22.1-.49.05-.64-.18-.23-.35-.31-.74-.34-1.17-.14-2.47-.05-4.94-.09-7.41-.06-3.01.04-6.02-.06-9.04-.03-.99.03-1.99.02-2.99-.01-2.9-.06-5.81-.06-8.71,0-1.08.2-2.15.65-3.16.37-.84.98-1.29,1.97-1.28Z"/><path class="cls-1" d="m213.12,133.17c-.85.92-1.33,2.02-1.46,3.28-.12,1.1-.08,2.21-.06,3.31.12,7.41.08,14.83.16,22.24.02,1.52-.19,3.08.3,4.58.04.13.02.27-.14.3-.27.05-.51.02-.67-.26-.3-.53-.37-1.1-.37-1.69,0-3.73,0-7.45-.03-11.18-.03-5.17-.06-10.34-.11-15.51,0-.94.11-1.86.2-2.78.11-1.1.99-2.18,1.84-2.37.11-.02.21-.05.35.08Z"/><path class="cls-1" d="m208.87,132.8c-1.45,1.17-1.69,2.79-1.71,4.46-.03,3.68,0,7.37.04,11.06.06,4.57.04,9.15.06,13.72,0,1.06,0,2.12.1,3.18.03.27.09.51.21.74.06.11.13.24,0,.35-.13.11-.3.08-.43,0-.42-.26-.54-.68-.57-1.15-.14-2.22-.05-4.44-.11-6.67-.06-2.44-.04-4.89-.08-7.33-.08-4.7-.05-9.39-.06-14.09,0-1.12.22-2.2.69-3.21.35-.76.92-1.18,1.85-1.06Z"/><path class="cls-1" d="m206.59,132.66c-1.3,1.18-1.66,2.63-1.65,4.19.03,6.18.08,12.35.13,18.53.02,2.88.07,5.75.1,8.63,0,.52.05,1.03.2,1.54.05.16.37.4.03.54-.27.11-.54,0-.69-.32-.25-.55-.32-1.13-.32-1.71-.03-2.28-.03-4.55-.05-6.83-.04-4.29-.03-8.57-.14-12.86-.06-2.28-.06-4.57-.13-6.85-.04-1.26.12-2.6.79-3.77.34-.6.79-1.09,1.71-1.09Z"/><path class="cls-1" d="m263.01,133.79c.92-.23.99-1.01,1.08-1.7.3-2.31.55-4.64.82-6.95.24-2.04.5-4.08.74-6.11.24-2.04.48-4.07.71-6.11.09-.75.22-1.49.51-2.2.11-.26.22-.54.5-.65.21-.08.44-.34.65-.13.16.17-.14.32-.2.49-.36,1.03-.52,2.09-.64,3.16-.3,2.75-.66,5.49-.91,8.24-.16,1.8-.37,3.61-.56,5.41-.19,1.78-.37,3.57-.63,5.34-.16,1.1-.81,1.47-2.07,1.21Z"/><path class="cls-1" d="m246.7,133.2c.82-.13,1.65-.28,2.47-.39,1.04-.14,1.28-.34,1.54-1.36.62-2.45.95-4.94,1.22-7.45.17-1.61.44-3.21.65-4.81.3-2.34.6-4.67.88-7.01.08-.65.19-1.29.45-1.89.22-.51.55-.95,1.29-.76-1.03,1.47-.91,3.19-1.15,4.82-.39,2.7-.67,5.41-1,8.11-.34,2.83-.67,5.67-1.01,8.51-.04.34-.1.69-.21,1.02-.16.5-.43.81-1.06.84-.98.05-1.96.26-2.94.39-.38.05-.76.08-1.14.11,0-.04,0-.08-.01-.12Z"/><path class="cls-1" d="m248.64,109.26c-.9,1.18-.93,2.59-1.1,3.95-.43,3.3-.85,6.61-1.27,9.91-.31,2.46-.62,4.93-.94,7.39-.04.32-.11.64-.2.95-.22.73-.54.91-1.37.76.82-1.81.77-3.79,1.09-5.7.37-2.17.65-4.36.91-6.54.25-2.13.61-4.24.86-6.36.13-1.13.22-2.28.63-3.37.29-.78.64-1.04,1.4-.99Z"/><path class="cls-1" d="m261.6,109.68c-.59.94-.83,1.89-.95,2.89-.36,3-.69,6.01-1.12,9-.33,2.29-.55,4.59-.82,6.89-.13,1.09-.27,2.18-.39,3.28-.12,1.14-.57,1.53-1.94,1.54.97-.48.98-1.36,1.09-2.15.55-4.06,1.09-8.13,1.56-12.2.26-2.27.58-4.54.86-6.81.08-.62.2-1.23.5-1.8.25-.48.62-.69,1.21-.62Z"/><path class="cls-1" d="m259.09,133.35c.6-.82.64-1.74.75-2.64.38-3.05.79-6.09,1.11-9.14.2-1.89.44-3.78.67-5.66.22-1.81.26-3.67.9-5.41.08-.23.17-.44.41-.56.25-.12.56-.36.77-.16.24.22-.16.37-.25.56-.51,1.09-.55,2.27-.69,3.42-.43,3.32-.83,6.65-1.23,9.98-.33,2.72-.63,5.45-.99,8.17-.16,1.25-.4,1.53-1.43,1.44Z"/><path class="cls-1" d="m245.6,132.49c1.04-.55.97-1.46,1.08-2.24.45-3.23.87-6.47,1.28-9.71.34-2.7.64-5.4.97-8.11.07-.6.16-1.2.27-1.79.18-.91.7-1.35,1.64-1.39-1.11,1.32-1.02,2.94-1.23,4.48-.27,1.99-.47,3.99-.71,5.99-.31,2.51-.64,5.01-.96,7.52-.18,1.39-.35,2.79-.56,4.17-.13.88-.44,1.07-1.77,1.07Z"/><path class="cls-1" d="m270.42,134.17c.59-1.83.59-3.7.91-5.52.44-2.49.58-5.02.93-7.52.21-1.49.3-3.01.46-4.51.17-1.61.34-3.22.55-4.83.07-.53.3-1.03.66-1.45.2-.24.46-.33.68-.21.3.16,0,.38-.09.54-.55,1.1-.54,2.3-.7,3.47-.39,2.87-.62,5.76-1.02,8.62-.34,2.46-.55,4.94-.83,7.41-.11,1.01-.24,2.02-.39,3.02-.12.78-.27.88-1.17.96Z"/><path class="cls-1" d="m241.46,132.08c1.11-1.11.86-2.51,1.06-3.78.48-3.03.85-6.07,1.26-9.11.05-.35.21-.72-.11-1.04-.05-.05-.07-.21-.05-.22.82-.48.44-1.34.57-2,.32-1.61.47-3.25.7-4.87.09-.65.27-1.27.83-1.71.2-.15.47-.27.65-.11.17.15-.08.35-.16.5-.69,1.21-.69,2.58-.88,3.9-.32,2.16-.59,4.33-.88,6.5-.32,2.38-.65,4.75-.98,7.13-.18,1.31-.35,2.61-.55,3.92-.12.79-.5,1.03-1.45.9Z"/><path class="cls-1" d="m238.47,108.86c-1.05,1.09-1.05,2.45-1.25,3.74-.32,2.05-.59,4.11-.88,6.16-.35,2.5-.71,5.01-1.07,7.51-.21,1.47-.45,2.94-.69,4.41-.03.18-.13.38-.24.52-.23.29-.66.49-.91.33-.37-.23.11-.48.22-.66.45-.7.41-1.51.51-2.26.35-2.7.77-5.39,1.15-8.09.35-2.48.66-4.96,1.07-7.43.16-.94.3-1.88.45-2.82.14-.85.55-1.48,1.64-1.43Z"/><path class="cls-1" d="m242.37,109.01c-1.2,1.63-1.09,3.49-1.36,5.24-.51,3.22-.9,6.46-1.38,9.69-.32,2.16-.6,4.33-.89,6.49-.06.44-.09.91-.5,1.22-.21.16-.47.2-.67.08-.24-.14-.04-.36.03-.51.76-1.73.66-3.63,1.01-5.44.32-1.65.47-3.33.7-5,.33-2.37.68-4.75,1.02-7.12.14-.98.27-1.97.43-2.95.17-1.03.68-1.58,1.63-1.7Z"/><path class="cls-1" d="m240.38,109c-.93,1.13-1,2.44-1.19,3.69-.46,2.99-.86,5.99-1.28,8.99-.36,2.61-.71,5.22-1.08,7.83-.09.65-.2,1.33-.47,1.92-.16.36-.73.19-1.27.4.8-.86.88-1.8,1.02-2.69.64-4.3,1.23-8.6,1.84-12.9.24-1.69.46-3.38.7-5.07.09-.65.29-1.27.7-1.79.24-.31.54-.48,1.04-.37Z"/><path class="cls-1" d="m259.42,109.65c-.87,1.43-.84,3.07-1.09,4.64-.29,1.86-.45,3.73-.69,5.6-.23,1.82-.49,3.64-.72,5.47-.25,1.97-.48,3.95-.74,5.92-.05.41-.17.8-.28,1.2-.07.27-.26.45-.53.52-.22.06-.42.06-.28-.27.58-1.39.53-2.88.72-4.33.24-1.8.48-3.6.68-5.4.11-.97.35-1.95.11-2.94-.02-.08-.03-.19,0-.25.72-1.17.48-2.53.73-3.79.3-1.52.23-3.1.58-4.62.09-.4.21-.8.39-1.17.21-.41.54-.75,1.11-.57Z"/><path class="cls-1" d="m234.39,108.54s0,.12-.02.15c-1.22,1.39-1.14,3.17-1.42,4.83-.41,2.5-.75,5.01-1.1,7.51-.34,2.42-.75,4.83-1.05,7.26-.1.8-.19,1.64-.54,2.39-.1.22-.22.43-.48.49-.17.04-.37.11-.48-.06-.11-.16.09-.24.17-.36.31-.48.34-1.06.43-1.61.41-2.65.78-5.3,1.17-7.95.48-3.2.96-6.4,1.44-9.6.05-.36.03-.74.11-1.1.23-.96.62-1.8,1.77-1.97Z"/><path class="cls-1" d="m227.62,131.08c-.22.01-.42-.05-.3-.28.8-1.55.72-3.28,1.01-4.92.47-2.68.9-5.37,1.24-8.07.3-2.4.76-4.78,1.1-7.17.12-.85.39-1.62,1.21-2.09.19-.11.41-.2.53-.06.2.22-.11.32-.22.44-.73.79-.81,1.81-.97,2.77-.46,2.84-.87,5.68-1.29,8.53-.48,3.19-.96,6.38-1.44,9.56-.06.4-.18.76-.44,1.07-.12.14-.28.2-.44.22Z"/><path class="cls-1" d="m253.03,109.4c-.37.75-.76,1.47-.86,2.3-.21,1.72-.49,3.42-.67,5.14-.1.96-.14,1.91-.53,2.86-.37.89-.31,1.95-.44,2.94-.36,2.83-.7,5.66-1.09,8.49-.06.43-.31.83-.48,1.24-.08.2-.29.22-.45.16-.23-.09-.05-.25,0-.37.26-.81.33-1.64.47-2.47.25-1.55.43-3.11.63-4.66.26-2.03.5-4.07.74-6.11.2-1.72.23-3.47.64-5.14.27-1.11.31-2.25.67-3.34.27-.81.56-1.07,1.38-1.03Z"/><path class="cls-1" d="m223.18,130.75c.94-.91.66-2.05.85-3.07.3-1.59.56-3.18.8-4.78.37-2.5.69-5.01,1.07-7.51.26-1.75.58-3.5.86-5.25.1-.65.54-1.12.87-1.64.1-.16.35-.22.53-.13.17.08.11.27.02.4-1,1.42-.97,3.12-1.22,4.73-.54,3.37-1.01,6.75-1.52,10.13-.29,1.94-.59,3.89-.87,5.83-.14.96-.48,1.34-1.39,1.29Z"/><path class="cls-1" d="m225.11,130.9c.7-.57.7-1.37.82-2.13.45-2.92.94-5.84,1.34-8.77.45-3.25.94-6.5,1.45-9.74.11-.68.51-1.18.93-1.68.19-.23.5-.27.7-.1.21.19-.1.32-.21.45-.71.87-.8,1.95-.97,2.99-.37,2.29-.7,4.59-1.04,6.89-.54,3.61-1.07,7.22-1.59,10.83-.16,1.07-.48,1.39-1.42,1.25Z"/><path class="cls-1" d="m270.28,110.03c-.75,1.25-.84,2.62-1,3.97-.39,3.24-.76,6.49-1.14,9.73-.28,2.45-.53,4.9-.83,7.35-.09.74-.08,1.51-.4,2.23-.11.24-.23.4-.47.49-.1.04-.23.07-.29-.04-.04-.06-.03-.18,0-.24.59-.84.46-1.84.57-2.76.34-2.65.61-5.32.89-7.98.24-2.3.44-4.6.68-6.9.15-1.44.34-2.87.52-4.31.14-1.06.56-1.59,1.26-1.61.04,0,.08.03.19.07Z"/><path class="cls-1" d="m257.78,155.89c-.02.12,0,.31-.19.24-.16-.06-.39-.15-.36-.37.02-.12.12-.3.31-.27.21.04.22.23.24.4Z"/><path class="cls-1" d="m239.96,151.99c.03-.36-.16-.68.21-.87.1-.05.24,0,.26.12.05.31-.13.52-.47.75Z"/><path class="cls-1" d="m254.89,154.08c.15.28.34.55.2.92-.37-.31-.28-.61-.2-.92Z"/><path class="cls-1" d="m230.05,158.69l.05-.14s.02.04.01.05c-.02.03-.05.06-.07.09,0,0,0,0,0,0Z"/><path class="cls-3" d="m260.12,140.57c-.06.28.01.67-.43.65-.28-.01-.46-.23-.44-.54.01-.34.16-.68.5-.72.41-.05.34.34.37.61Z"/><path class="cls-3" d="m261.92,167.47c-.06.24-.01.62-.36.63-.27,0-.41-.3-.37-.57.04-.27.12-.59.46-.6.37-.01.25.31.27.54Z"/><path class="cls-3" d="m274.55,159.44c-.02.21.01.5-.28.49-.29,0-.31-.31-.34-.54-.02-.22,0-.47.31-.44.28.02.29.27.3.49Z"/><path class="cls-3" d="m277.6,113.39c-.04.2-.04.48-.33.45-.23-.03-.37-.24-.32-.48.04-.19.04-.49.31-.49.31,0,.31.29.34.52Z"/><path class="cls-3" d="m277.84,142.15c.02.26-.07.5-.33.54-.15.02-.33-.18-.29-.35.07-.24.13-.59.4-.64.22-.04.2.26.22.45Z"/><text class="cls-5" transform="translate(34.29 48.98)"><tspan class="cls-4" x="0" y="0">D</tspan><tspan x="25.14" y="0">e dam</tspan></text></g></svg>