<?xml version="1.0" encoding="UTF-8"?><svg id="Layer_2" xmlns="http://www.w3.org/2000/svg" width="300" height="200" viewBox="0 0 300 200"><defs><style>.cls-1{fill:#7c7c7c;}.cls-1,.cls-2,.cls-3,.cls-4,.cls-5,.cls-6,.cls-7,.cls-8,.cls-9,.cls-10,.cls-11,.cls-12,.cls-13,.cls-14,.cls-15,.cls-16,.cls-17,.cls-18,.cls-19,.cls-20,.cls-21,.cls-22,.cls-23,.cls-24,.cls-25,.cls-26,.cls-27,.cls-28,.cls-29,.cls-30,.cls-31,.cls-32,.cls-33,.cls-34,.cls-35,.cls-36,.cls-37,.cls-38,.cls-39,.cls-40,.cls-41,.cls-42,.cls-43,.cls-44,.cls-45,.cls-46,.cls-47,.cls-48,.cls-49,.cls-50,.cls-51,.cls-52,.cls-53,.cls-54,.cls-55,.cls-56,.cls-57,.cls-58,.cls-59,.cls-60,.cls-61,.cls-62,.cls-63,.cls-64,.cls-65,.cls-66,.cls-67,.cls-68,.cls-69,.cls-70,.cls-71,.cls-72,.cls-73,.cls-74,.cls-75,.cls-76,.cls-77,.cls-78,.cls-79,.cls-80,.cls-81,.cls-82,.cls-83,.cls-84,.cls-85,.cls-86,.cls-87,.cls-88,.cls-89,.cls-90,.cls-91,.cls-92,.cls-93,.cls-94,.cls-95,.cls-96,.cls-97,.cls-98,.cls-99,.cls-100,.cls-101,.cls-102,.cls-103,.cls-104,.cls-105,.cls-106,.cls-107,.cls-108,.cls-109,.cls-110,.cls-111,.cls-112,.cls-113,.cls-114,.cls-115,.cls-116,.cls-117,.cls-118,.cls-119,.cls-120,.cls-121,.cls-122,.cls-123,.cls-124,.cls-125,.cls-126,.cls-127,.cls-128,.cls-129,.cls-130,.cls-131,.cls-132,.cls-133,.cls-134,.cls-135,.cls-136,.cls-137,.cls-138,.cls-139,.cls-140,.cls-141,.cls-142,.cls-143,.cls-144,.cls-145,.cls-146{stroke-width:0px;}.cls-2{fill:#999;}.cls-3{fill:#a3a3a3;}.cls-4{fill:#e4e4e4;}.cls-5{fill:#707070;}.cls-6{fill:#2e2e2e;}.cls-7{fill:#3f3f3f;}.cls-8{fill:#4d4d4d;}.cls-9{fill:#1b1b1b;}.cls-10{fill:#666;}.cls-11{fill:#919191;}.cls-12{fill:#7d7d7d;}.cls-13{fill:#2f2f2f;}.cls-14{fill:#0e0e0e;}.cls-15{fill:#6a6a6a;}.cls-16{fill:#626262;}.cls-17{fill:#f3f3f3;}.cls-18{fill:#262626;}.cls-19{fill:#747474;}.cls-20{fill:#c8c8c8;}.cls-21{fill:#848484;}.cls-22{fill:#535353;}.cls-23{fill:#949494;}.cls-24{fill:#898989;}.cls-25{fill:#252525;}.cls-26{fill:#5e5e5e;}.cls-27{fill:#121212;}.cls-28{fill:#030303;}.cls-29{fill:#171717;}.cls-30{fill:#e1e1e1;}.cls-31{fill:#bababa;}.cls-32{fill:#ececec;}.cls-33{fill:#797979;}.cls-34{fill:#8e8e8e;}.cls-35{fill:#8c8c8c;}.cls-36{fill:#505050;}.cls-37{fill:#e6e6e6;}.cls-38{fill:#585858;}.cls-39{fill:#e0e0e0;}.cls-40{fill:#323232;}.cls-41{fill:#1a1a1a;}.cls-42{fill:#9c9c9c;}.cls-43{fill:#c2c2c2;}.cls-44{fill:#9e9e9e;}.cls-147{letter-spacing:0em;}.cls-45{fill:#cbccce;}.cls-46{fill:#393939;}.cls-47{fill:#dfdfdf;}.cls-48{fill:#141414;}.cls-49{fill:#909090;}.cls-50{fill:#686868;}.cls-51{fill:#343434;}.cls-52{fill:#9b9b9b;}.cls-53{fill:#646464;}.cls-54{fill:#777;}.cls-55{fill:#e9e9e9;}.cls-56{fill:#5a5a5a;}.cls-57{fill:#161616;}.cls-58{fill:#b3b3b3;}.cls-148{letter-spacing:0em;}.cls-59{fill:#232323;}.cls-60{fill:#b9b9b9;}.cls-61{fill:#2b2b2b;}.cls-62{fill:#333;}.cls-63{fill:#bfbfbf;}.cls-64{fill:#737373;}.cls-65{fill:#3b3b3b;}.cls-66{fill:#e7e7e7;}.cls-67{fill:#545454;}.cls-68{fill:#7a7a7a;}.cls-69{fill:#7e7e7e;}.cls-70{fill:#0d0d0d;}.cls-71{fill:#494949;}.cls-149{font-family:MyriadPro-Regular, 'Myriad Pro';font-size:30.62px;}.cls-72{fill:#a1a1a1;}.cls-73{fill:#373737;}.cls-74{fill:#8d8d8d;}.cls-75{fill:#787878;}.cls-76{fill:#202020;}.cls-77{fill:#ededed;}.cls-78{fill:#969696;}.cls-79{fill:#a0a0a0;}.cls-150{letter-spacing:.02em;}.cls-80{fill:#9d9d9d;}.cls-81{fill:#515151;}.cls-82{fill:#888;}.cls-83{fill:#5f5f5f;}.cls-84{fill:#d5d5d5;}.cls-85{fill:#4b4b4b;}.cls-86{fill:#3d3d3d;}.cls-87{fill:#4c4c4c;}.cls-88{fill:#e2e2e2;}.cls-89{fill:#d3d3d3;}.cls-90{fill:#2c2c2c;}.cls-91{fill:#272727;}.cls-92{fill:#5c5c5c;}.cls-93{fill:#575757;}.cls-94{fill:#cbcbcb;}.cls-95{fill:#4e4e4e;}.cls-96{fill:#1f1f1f;}.cls-97{fill:#464646;}.cls-98{fill:#d9d9d9;}.cls-99{fill:#434343;}.cls-100{fill:#4f4f4f;}.cls-101{fill:#a6a6a6;}.cls-102{fill:#353535;}.cls-103{fill:#acacac;}.cls-104{fill:#696969;}.cls-105{fill:#101010;}.cls-106{fill:#9a9a9a;}.cls-107{fill:#616161;}.cls-108{fill:#0b0b0b;}.cls-109{fill:#404040;}.cls-110{fill:#838383;}.cls-111{fill:#5d5d5d;}.cls-112{fill:#ebebeb;}.cls-113{fill:#2a2a2a;}.cls-114{fill:#3c3c3c;}.cls-115{fill:#313131;}.cls-116{fill:#d7d7d7;}.cls-117{fill:#d0d0d0;}.cls-118{fill:#444;}.cls-119{fill:#979797;}.cls-120{fill:#d6d6d6;}.cls-121{fill:#3e3e3e;}.cls-122{fill:#6f6f6f;}.cls-123{fill:#e8e8e8;}.cls-124{fill:#6d6d6d;}.cls-125{fill:#1c1c1c;}.cls-126{fill:#1e1e1e;}.cls-127{fill:#1d1d1d;}.cls-128{fill:#181818;}.cls-129{fill:#292929;}.cls-130{fill:#191919;}.cls-131{fill:#0a0a0a;}.cls-132{fill:#afafaf;}.cls-133{fill:#525252;}.cls-134{fill:#eaeaea;}.cls-135{fill:#767676;}.cls-136{fill:#383838;}.cls-137{fill:#555;}.cls-138{fill:#959595;}.cls-139{fill:#242424;}.cls-140{fill:#4a4a4a;}.cls-151{letter-spacing:0em;}.cls-141{fill:#303030;}.cls-142{fill:#757575;}.cls-143{fill:#a4a4a4;}.cls-144{fill:#131313;}.cls-145{fill:#111;}.cls-146{fill:#adadad;}</style></defs><g id="Layer_2-2"><rect class="cls-45" width="300" height="200"/><path class="cls-134" d="m113.12,106.07c-.63,2.94.01,5.99-.77,8.91v-10.45c.13,0,.25,0,.38-.01.01.55.06,1.08.39,1.55Z"/><path class="cls-146" d="m230.33,92.86c1.03.06,2.06.07,3.07-.24.36-.11.81-.22,1.14-.1,3.65,1.33,7.31.1,10.96.04.58.4,1.25.33,1.89.37-.4.76-1.32,1.26-1.16,2.29-1.24-.5-2.43-1.32-3.88-.76-1.52-.59-3.04-1.1-4.61-.18-.57.34-1.23.75-.65,1.48,1.67,2.09.81,2.4-1.31,1.98-.52-.1-.84.24-.98.72-.07.25-.02.6.31.54,1.08-.21.77.99,1.35,1.26.06.26.54.82-.24.59-.56-.17-1.04-.65-1.71-.54-.11-.03-.23-.05-.34-.07-1.01-.2-1.92-1.35-3.06-.33-1.84-.21-3.87.52-5.43-1.13-.25-.26-.8-.38-1.08-.11-1.69,1.67-3.71.91-5.63.82.11-.15.21-.32.34-.46.36-.42,1.35-.21,1.27-.96-.09-.88-1.03-.84-1.68-1-1.43-.34-3.06-.3-4.28-.99-2.07-1.15-3.95-2.5-6.51-1.7-.41.13-.62-.36-.81-.69,6.87,0,13.74,0,20.61-.01.89,0,1.86.17,2.42-.83Z"/><path class="cls-3" d="m164.11,92.58c2.45,0,4.88-.19,7.33.23,2.16.36,4.33-.59,6.54-.31.82.1,1.69-.11,2.44.42-1.43.53-.87,1.04.02,1.54,1.21,1.36,2.86.77,4.32.91,2.26.22,4.13,1.14,5.8,2.58-.52,0-1.04,0-1.56,0-1.68-.61-3.3-.65-4.94.37.6.51,1.45.64,1.44,1.54-.96.48-1.91.04-2.84-.07-1.41-.16-2.8-.52-4.19.09-1.68-.09-3.35-.53-5.03.02-1.18,1.04-2.36.23-3.54,0-.25.12-.49.24-.74.36-.26-.25-.52-.5-.78-.75.07-.57,1.06-.8.69-1.45-.37-.65-1.15-.47-1.78-.47-.96,0-2.45.49-2.79.06-1.26-1.6-2.67-.7-4.02-.62-1.73.1-3.37-.3-5.05-.56.68-.62,1.47-.43,2.19-.43,3.22-.02,6.44-.13,9.61-.75.7-.14,1.29-.2,1.14-1.14-.13-.82-.65-.99-1.39-1.01-.97-.02-1.9.46-2.88.18,0-.24,0-.48,0-.72Z"/><path class="cls-59" d="m249.3,168.49c-.57-.9-.44-1.96-.63-2.94-.27-1.39-.31-2.65-2.09-3.41-1.44-.62-1.6-2.6-1.84-4.18.5.64.99,1.28,1.49,1.92.08.38.1.77.24,1.12.21.55.52,1.06,1.23,1.05.28,0,.48-.2.49-.49.02-.66-.02-1.32-.8-1.57-.24-.08-.51-.09-.76-.12.49-2.11,0-4.19-.27-6.26-.17-1.27.34-2.76-.91-3.79.64-1.95.29-3.93.18-5.9-.1-1.78-.6-3.54-.18-5.33.64-1.36.43-2.77.2-4.16-.51-2.98-.82-5.97-.99-8.99.26,0,.51-.01.77-.02.11.48.36.88.76,1.18-.15,2.41.77,4.68.94,7.05.02.23.42.44.64.66-.88,2.72-.56,5.31.8,7.8-.01.1-.01.2,0,.31.25,1.94-.31,3.92.29,5.84.15,1.94.31,3.87.46,5.81.27,1.79.54,3.58.81,5.37,0,1.06-.2,2.15.34,3.15.93,1.71.32,3.56.51,5.33-.68-.18-1.36-.32-1.7.55Z"/><path class="cls-101" d="m207.31,93.7c.19.33.4.82.81.69,2.56-.8,4.44.55,6.51,1.7,1.23.68,2.85.64,4.28.99.65.16,1.59.12,1.68,1,.08.74-.91.54-1.27.96-.12.14-.23.31-.34.46-.56.39-.76.95-.79,1.6-.25-.02-.51-.04-.76-.06-.96-1.15-5.19-1.33-7.11-.16,1.54.07,2.88.13,4.7.22-.96.35-1.43.52-1.9.7-2.2,0-4.39,0-6.59,0-1.26-.58-2.59-.26-3.89-.36.49-.69,1.23-.77,1.99-.78,1.21.16,2.42.53,4,.07-1.26-.6-2.24-.78-3.26-.82-.36-.06-.89.09-.99-.37-.1-.47.4-.63.77-.68.63-.09,1.29-.07,1.93-.13.62-.06,1.46.1,1.63-.68.16-.73-.39-1.3-.95-1.78-.92-.79-2.15-.35-3.14-.74-4.42-1.74-9.11-1.33-13.68-1.82,0-.12,0-.24,0-.36.57-.35,1.2-.42,1.85-.42,4.31.02,8.62.03,12.93.04.22.86.76,1.08,1.56.74Z"/><path class="cls-70" d="m196.72,115.79c-.82,0-1.64,0-2.46.01-1.78.02-3.63-.51-5.24.7-.23.02-.46.05-.69.07-4.81-.24-9.67.34-14.43-.85,1.85-.71,3.65-1.58,5.69-.47.45.24,1.14.13,1.71.06.95-.11,1.18-.66.71-1.49-.51-.65-.58-1.65-1.55-1.94-.26-.51-.53-1.02-.79-1.53-.24-.27-.48-.54-.72-.8.09-.41.18-.82.27-1.23.13-.33.27-.67.4-1,.14-.15.29-.3.43-.45.38.4.75.8,1.13,1.2.48,1.01,1.23,1.69,2.36,1.9.48.18.95.36,1.43.54,3.06,1.19,6.3,1.58,9.5,2.14,2.95,1.76-1.14,1.34-.7,2.44,1.19.23,2.63-.5,3.9.59-.45.05-.7.08-.95.11Z"/><path class="cls-29" d="m118.88,106.51c-.19-.12-.39-.23-.58-.35-2.06-1.11-.9-3.04-1.18-4.6,1.43.98,1.87.66,2.25-1.65.57-.39.86-.98,1.15-1.57.34-.04.61.06.79.37,1.18,4.4,7.34,7.52,11.7,5.91.44.79,1.21.65,1.92.7-.23.74-3.25-.21-1.18,1.93-1.05-.09-2.1-.17-3.3-.27,1.16,1.66-.4,2.35-.98,3.36-2.55-.84-3.89-2.72-4.51-5.21-.16-.63-.31-1.59-1.09-1-1.29.98-2.92,1.28-4.13,2.33l-.86.05Z"/><path class="cls-93" d="m160.59,114.25c-.23-.09-.57-.11-.66-.27-.75-1.25-1.53-1.3-2.48-.19-.24.28-.58.72-1.12.45,0-.14.01-.28.02-.42.39-.4.78-.79,1.16-1.19.52-.27,1.56.53,1.58-.76-.53-1.54-.32-2.97.65-4.29.28-.11.57-.23.85-.34.67.49,1.34.37,2.15.28,1.98-.22,2.72-1.7,3.71-2.99-.08-1.86-1.77-.49-2.42-1.2-.12-.36-.23-.72-.35-1.08.02-.15.03-.3.05-.45.39,0,.77.01,1.16.02,1.2,1.25,1.31-.35,1.9-.72.3.98,1.23,1.13,2,1.49,0,.13,0,.26,0,.4-.57.36-1.51.74-1.04,1.47.36.55,1.26.09,1.86-.25.15-.08.22-.29.33-.44.49-.18,1.11-.42,1.4.09.54.95-1.15.65-.97,1.49.12.25.24.5.36.75-.76,1.03.48.79.75,1.17-.2.37-.56.7-.33,1.19-.18.88-.93,1.14-1.62,1.47-.68-.55-1.97.74-2.34-.76-.59-1.13-1.69-1.16-2.65-.93-.94.22-1.33,1.11-1.22,2.11-1.26.55-1.28,1.07.04,1.56-.52.26-1.03.53-1.55.79-.93.11-1.2.73-1.24,1.55Z"/><path class="cls-17" d="m251.66,145.52c.13.3.25.6.38.9-.64,1.56-.48,3.05.38,4.48.03.82.06,1.65.42,2.42-.84,1.84-.22,3.59.37,5.34.51,2.45.68,4.94.8,7.43-.17.84.02,2.05-1.53,1.46.05-.38.15-.75.14-1.13-.18-5.98-1.28-11.87-1.93-17.8-.81-7.4-1.63-14.79-2.57-22.17-.37-2.91-.15-5.91-1.17-8.74-.13-.52-.25-1.04-.38-1.57.14-.13.29-.27.43-.4.94,1.11.75,2.58,1.22,3.83.42,1.41-.19,3.08,1.1,4.27.14.47.28.95.42,1.42-.1,2.9-.61,5.82.4,8.68-.04,1.33-.08,2.66.74,3.82.03.93-.02,1.87.42,2.74-.82,1.74-.2,3.37.37,5.01Z"/><path class="cls-29" d="m245.45,138.59c-.42,1.79.08,3.56.18,5.33.11,1.97.47,3.95-.18,5.9-.24-.13-.49-.26-.73-.39-.18-1.18.34-2.51-.79-3.48-.68-3.35-.5-6.76-.88-10.14-.73-6.62-1.05-13.28-1.54-19.92.14-.43.28-.86.43-1.3.57.79.26,1.79.73,2.64.02-.37.04-.73.06-1.1.12,0,.25,0,.37.01-.02,5.3,1.02,10.5,1.4,15.77.16,2.23.3,4.5.95,6.68Z"/><path class="cls-101" d="m164.11,92.58c0,.24,0,.48,0,.72-1.94.09-3.91-.23-5.82.41,0-.15-.02-.29-.02-.44h-6.5c0,.11,0,.21,0,.32,1.26.17,2.52.33,3.79.5-.26.38-.51.76-.77,1.14-2.44-.14-4.83-.9-7.33-.59-.9.11-1.33,1.66-2.54.71-1.09-.86-2.53-1.24-3.39-2.42-5.32.13-10.65-.35-15.95.38-1.19.17-2.65-.25-3.32,1.19-.93,1.98-1.27,2.11-2.86.81,1.59-1.97,3.81-2.71,6.19-2.72,12.84-.06,25.68-.02,38.52-.01Z"/><path class="cls-27" d="m241.95,114.6c-.14.43-.28.86-.43,1.3-.66-1.53.29-3.31-.74-4.79-.32-.82-.98-1.1-1.81-1.19-1.21-.14-1.83-.98-1.96-2.06-.21-1.77-.39-3.58.68-5.21,1.16-.36,1.67-1.25,1.96-2.33l-.04-.05c.13,0,.25,0,.38.01.28.5.55.99.83,1.49-.01,1.5-.18,3.01.1,4.52.71-.12.7-.7,1.03-.97.04.62-.17,1.63.38,1.74,1.89.39,2.25,2.04,3.12,3.28.14.13.28.27.42.4-.01.12-.03.24-.05.36-.25,0-.51,0-.76.01-.13,0-.26,0-.39,0-.13-.49-.3-.98-.39-1.48-.13-.72-.44-1.23-1.26-1.11-.79.11-1.56.82-1.33,1.37.67,1.59-.31,3.18.25,4.71Z"/><path class="cls-109" d="m138.78,137.77c.2-1.77.29-3.56.61-5.31.66-3.53.44-7.12.9-10.66.15,2.34.82,4.65.26,7.02-.1.4.24.53.62.49,0,.79,0,1.58.01,2.37-.42,4.36-.84,8.71-1.25,13.07-.53,1.26-.25,2.6-.37,3.9-.52-.7-.09-1.84-1.1-2.3.37-2.85.9-5.7.33-8.58Z"/><path class="cls-143" d="m119.4,95.31c1.59,1.3,1.93,1.17,2.86-.81.68-1.44,2.13-1.02,3.32-1.19.93,1.33,2.33.54,3.5.78-.68,1.11-1.92.83-2.92,1.16-.36.12-.88.12-.85.59.03.61.64.49,1.05.58q.63,1.55-.39,1.55c-.88-.75-1.82-.93-3.27-.41,1.35.62,2.32.32,3.27.41-.52.26-1.04.52-1.56.77-1.03,0-2.07,0-3.1-.01-.17-.31-.45-.41-.79-.37-1.18-.27-2.36-.55-3.54-.82.61-.95,1.33-1.77,2.42-2.21Z"/><path class="cls-93" d="m273.86,101.04c-.66,1.5-2.05,2.36-3.11,3.5-.23.02-.46.03-.69.05-.76-.38-1.44-.74-1.87.48-.33.92-1.27,1.35-2.1,1.8v-.07c0-.22,0-.45.02-.67,1.77-2.4,1.58-3.75-.81-5.85.79-.13,1.59-.25,2.38-.38,1.94-.65,3.72.9,5.66.41.11-.03.35.47.52.73Z"/><path class="cls-29" d="m147.02,123.89c-.15,1.16-.3,2.32-.44,3.48l-.76,1.15s0,0,0,0c-.26-4.13.93-8.2.46-12.34-.03.24-.05.48-.08.73-.26-.13-.51-.26-.77-.39.1-1.26-.27-2.25-1.58-2.7-.25-.26-.5-.51-.76-.77.87-.98,1.87-1.88,3.24-1.83,1.22.05.35,1.67,1.28,2.08.06.02.1.08.15.12.33,1.12,1.25,1.1,2.18,1.17,1.52.11,3.11-.36,4.55.47,0,0-.03,0-.03,0-2.23.03-4.5-.53-6.69.36-.16,2.12-.31,4.25-.47,6.37-.46.65-.4,1.37-.28,2.1Z"/><path class="cls-144" d="m129.47,110.34c.58-1.02,2.14-1.7.98-3.36,1.2.1,2.25.18,3.3.27,1.93.35,2.69,2.29,4.27,3.11.27.57.98.86,1.05,1.79-2.4.42-4.63-1.27-6.99-.59l-.14.02-.13-.06c-.53-.88-1.63-.64-2.34-1.16Z"/><path class="cls-42" d="m252.06,92.57c4.86,0,9.74-.67,14.54.58.77.2,1.75.12,1.86,1.29-.16.02-.31.03-.47.05-.77-.13-1.54-.27-2.31-.4-1.84.11-3.92-.62-5.46.34-1.9,1.18-3.58.89-5.44.43-.52-.73-1.35-.61-2.07-.83-.82-.25.06-.45.14-.68h2.22c-.01-.16-.02-.32-.03-.47h-3c0-.1,0-.2.02-.29Z"/><path class="cls-49" d="m273.86,101.04c-.18-.25-.42-.75-.52-.73-1.94.49-3.73-1.06-5.66-.41-1.24-.76-2.55-.89-3.93-.42-.65-1.62.35-2.16,1.64-2.18,1.64-.02,2.97-.57,4.12-1.67.29.36.59.72.88,1.08.42,1.49,1.77.94,2.74,1.22,1.09.84,1.73,1.78.73,3.11Z"/><path class="cls-123" d="m134.53,141.7c.47-3.8,1.4-7.54,1.19-11.42-.09-1.66.12-3.28.54-4.94.74-2.96.02-4.51-2.84-4.2-.75.08-1.53-.14-2.63-.73,1.9.17,3.38.23,4.84.46,1.21.2,2.34,2.62,1.76,4.01-1.14,2.73-.75,5.47-.7,8.31.06,3.77-.23,7.64-1.75,11.23-.43-.87-.41-1.8-.41-2.73Z"/><path class="cls-136" d="m143.1,113.06c.25.26.5.51.76.77-.12.38-.25.77-.37,1.15-1.2.61-.51,1.53-.4,2.36-1.34,2.28-.71,4.85-1.12,7.27-.01.28-.03.56-.04.84-.15,1.28-.3,2.56-.46,3.83-.1.01-.21.02-.31.04-.37.04-.71-.09-.62-.49.56-2.37-.11-4.68-.26-7.02-.18-2.92,1.19-5.75.44-8.7,0,0,.07-.18.07-.18.34.78.68,1.56,1.13,2.56.48-.98.83-1.71,1.18-2.43h0Z"/><path class="cls-139" d="m129.47,110.34c.71.52,1.8.29,2.34,1.16-2.31-.27-4.4-1.29-6.61-1.91-.87-.7-2.02-.19-3.14-.73,1.57-1.82.15-1.94-1.19-2.14-.38-.06-.75-.18-1.12-.27,1.21-1.05,2.84-1.35,4.13-2.33.78-.6.94.37,1.09,1,.62,2.49,1.96,4.37,4.51,5.21Z"/><path class="cls-128" d="m232.22,109.6c-1.29.11-1.68,1.52-2.78,1.89-1.87-.46-3.51,0-4.99,1.17-.52.13-1.04.26-1.56.38.18-.47.25-.82-.45-.97-1.49-.33-2.87-1.12-4.48-1.03-.37.02-.86-.11-.83-.59.04-.53.55-.42.92-.41,2.49.11,4.98.26,7.47.31.78.02,2.05.96,2.24-.25.11-.74-1.39-.43-2.17-.55.27-.12.53-.24.8-.36,1.43-.21,2.85.45,4.28-.01h.19s.19,0,.19,0c.37.08.74.16,1.11.24,0,.07.02.13.06.19Z"/><path class="cls-57" d="m196.72,115.79c.25-.03.51-.06.95-.11-1.27-1.09-2.71-.37-3.9-.59-.44-1.1,3.65-.68.7-2.44,1.16-.35,2.61.78,3.54-.69.44-.59.41-1.6,1.47-1.63-.04,1.37,1.09,1.77,1.99,2.35-.15.57-.32,1.16-.92,1.4-1.9.74-.79,1.2.14,1.69.09.76-.48.75-.97.83-1.04-.12-2.06-.31-3-.79Z"/><path class="cls-70" d="m245.45,110.34c-.87-1.24-1.22-2.89-3.12-3.28-.55-.11-.34-1.12-.38-1.74.33-.62.09-1.47.77-1.95.51-.1,1.01-.21,1.52-.31-.1.24-.2.48-.31.71-.97,2.55-.54,3.33,1.91,3.45,1.58.15,3.15.16,4.66-.43.49.67,1.23.94,1.94,1.27.03,1.14-.07,2.18-1.66,1.94-.71-.13-1.41-.27-2.12-.4-.16,0-.31-.01-.47-.02.43-1.07,0-1.51-1.09-1.55-1.74-.05-1.65,1.15-1.65,2.31Z"/><path class="cls-127" d="m145.86,134.91c-.56,6.13-1.11,12.27-1.67,18.4-.55.37-.67.94-.71,1.54-.46-2.1.18-4.13.38-6.18.06-1.6-.02-3.2.22-4.81.76-5.08,1.13-10.2,1.35-15.33.13,0,.26,0,.39,0,0,0,0,0,0,0,.02,2.13.03,4.26.05,6.38Z"/><path class="cls-113" d="m222.88,113.05c.52-.13,1.04-.26,1.56-.38.5.09,1.03.14.95.85-.09.84.54.62.98.69-.81.58-1.76.69-2.71.79-2.69-.85-5.46-.19-8.18-.4-.59-.12-1.12-.36-1.55-.78.23-2.61,1.77-.69,2.73-.79,2.07,0,4.15,0,6.22,0Z"/><path class="cls-60" d="m207.31,93.7c-.8.33-1.34.12-1.56-.74,2.74-.22,5.51.2,8.22-.4.63.42,1.35.39,2.05.38,4.76,0,9.52-.02,14.28-.03,0,0,.03-.05.03-.05-.56,1-1.53.82-2.42.83-6.87.01-13.74.01-20.61.01Z"/><path class="cls-119" d="m269.51,95.64c-1.15,1.1-2.48,1.65-4.12,1.67-1.3.02-2.3.56-1.64,2.18-1.03,0-2.08.09-3.09-.06-.8-.12-2.05-.06-2.2-1-.16-.99,1.13-.76,1.75-1.12.28-.16.54-.35.8-.53.26-.13.52-.26.78-.39,1.34.4,2.67-.17,4.01,0,1.44.18,2.18-.46,2.2-1.91.16-.02.31-.03.47-.05,1.57-.64.96.58,1.04,1.21Z"/><path class="cls-114" d="m135.63,166.49c-.33-2.91-.76-5.78.76-8.58,1.04-1.91.44-4.18.84-6.25.12-.62-.03-1.29.45-1.82.24.1.48.21.72.31-.11.8-.3,1.6-.3,2.39,0,.83.42.97,1.05.4.02.53,0,1.06-.29,1.54-1.4.23-.98,1.43-1.14,2.25-.2,1.04.03,2.16-.45,3.17-.72.53-.78,1.3-.76,2.08.05,1.49-.12,2.95-.38,4.41-.16.03-.33.06-.49.09Z"/><path class="cls-123" d="m241.14,169.06c-1.08-.98-1.22-2-1.13-3.02.53-5.99-.59-11.91-.96-17.85-.2-3.29-.61-6.57-.31-9.89.79,10.14,1.58,20.28,2.4,30.77Z"/><path class="cls-130" d="m244.72,149.43c.24.13.49.26.73.39,1.25,1.03.74,2.53.91,3.79.27,2.06.76,4.15.27,6.26-.13,0-.27,0-.4.01-.5-.64-.99-1.28-1.49-1.92-.03-1.1-.07-2.19-.1-3.29.09-1.75.37-3.49.09-5.24Z"/><path class="cls-9" d="m201.48,112.67c-.9-.58-2.03-.97-1.99-2.35.66-.33,1.02.33,1.55.45.87,1.95,2.36,1.73,3.96,1.14.25,0,.51,0,.76,0-.1.37-.17.98.25.94,2.05-.23,3.61,1.39,5.58,1.36.03.23.06.45.09.68l-.09.1c-.91-.07-1.76-.34-2.61-.69-1.77-.73-3.3-.96-4.78.89-1.01,1.27-2.63,2.09-4.49,1.39.49-.08,1.06-.07.97-.83.19,0,.39,0,.58-.01,1.54-.09,2.88-.92,2.79-2.36-.09-1.39-1.7-.46-2.59-.72Z"/><path class="cls-139" d="m160.59,114.25c.03-.81.31-1.44,1.24-1.55.5.44,1.12-.02,1.66.21-.8,1.67-.71,1.87,1.05,2.56,1,.39,2.03.24,3.06.24.8,0,1.6,0,2.4,0,1.31,0,2.61,0,3.92,0,4.75,1.19,9.62.61,14.43.85-4.24.44-8.5.72-12.71-.17-2.38-.5-4.77-.37-7.15-.24-2.86.15-5.48-.36-7.89-1.91Z"/><path class="cls-6" d="m237.69,102.64c-1.07,1.63-.89,3.44-.68,5.21.13,1.08.75,1.92,1.96,2.06.83.09,1.49.37,1.81,1.19-1.29-.53-2.4-.52-3.7.33-1.73,1.13-2.68.64-4.87-1.84-.03-.06-.05-.12-.05-.19.15.03.3.05.45.08.81.09,1.12.76,1.56,1.3.51.6,1.17.8,1.88.37.73-.44.88-1.1.41-1.8-.76-1.14-.76-2.4-.74-3.68,0-.92-.02-1.85.39-2.71.53-.11,1.05-.23,1.58-.34Z"/><path class="cls-130" d="m252.48,167.55c1.55.59,1.37-.62,1.53-1.46,1.59,1.25.19,2.43-.26,3.46-.35.82-1.04,1.89-2.34,1.53-1.28-.36-1.99-1.25-2.12-2.58.34-.87,1.01-.73,1.7-.55.23-.12.46-.24.7-.36.26-.01.52-.02.78-.04Z"/><path class="cls-145" d="m135.63,166.49c.16-.03.33-.06.49-.09.11.04.23.07.35.09.88.57,1.76.04,2.64.01.29-.02.58-.04.87-.06.29.44.57.88.86,1.31-.1,1.03-.92,1.53-1.66,1.94-1.45.81-2.72.11-3.09-1.57-.12-.55-.3-1.1-.45-1.65Z"/><path class="cls-112" d="m227.57,119.26c-2.47,3.23-5.78,4.68-9.82,4.64-2.91-.03-5.82,0-8.73-.02-.86,0-1.77.03-2.38-.9,3.54,1.01,7.12.52,10.67.49,3.7-.03,6.75-1.83,9.46-4.22.26,0,.53.01.79.02Z"/><path class="cls-115" d="m140.84,167.76c-.29-.44-.57-.88-.86-1.31.31-2.05.62-4.1.93-6.15.15.4.29.8.43,1.18,1.14-.63.88-1.74.95-2.74.27-.13.54-.26.8-.39.14.29.29.57.43.86l-2.69,8.55Z"/><path class="cls-39" d="m158.67,123.51c1.91.71,3.9.89,5.92.76,5.64-.35,11.17,1.25,16.82.82,1.2-.09,2.48-.62,3.68.16-4.49-.03-8.98.64-13.45-.24-3.79-.75-7.62-.16-11.42-.36-.52-.38-1.03-.76-1.55-1.14Z"/><path class="cls-18" d="m154.49,115.07c-1.45-.83-3.03-.36-4.55-.47-.92-.06-1.85-.04-2.18-1.17.7-1.1,1.91-.94,2.94-1.09,1.02-.15,2.05-.17,2.9-.84.26.13.52.26.78.39-.6.42-1.28.6-1.98.75-.56.12-1.33.17-1.2.95.13.74.91.62,1.46.59,1.1-.07,2.19-.24,3.28-.37.13,0,.26,0,.39,0,0,.14-.01.28-.02.42-.52.47-1.09.84-1.83.83Z"/><path class="cls-146" d="m190.97,93.33c0,.12,0,.24,0,.36-1.72.01-3.44-.02-5.16.05-1.8.06-3.65-.11-5.35.73-.89-.5-1.45-1.01-.02-1.54,2.77,0,5.53,0,8.3-.02.78,0,1.55-.02,2.24.43Z"/><path class="cls-37" d="m131.82,176.15c-.68-.7-.79-1.58-.79-2.5,0-2.18,0-4.36.02-6.54,0-.37,0-.9.47-.93.62-.03.7.59.61.99-.72,2.98-.06,6-.32,8.99h0Z"/><path class="cls-15" d="m138.39,150.15c-.24-.1-.48-.21-.72-.31-.2-4.07.65-8.05,1.11-12.07.57,2.89.04,5.73-.33,8.58-.02,1.27-.04,2.53-.06,3.8Z"/><path class="cls-87" d="m116.98,97.52c1.18.27,2.36.55,3.54.82-.29.59-.59,1.18-1.15,1.57-1.01.19-.87-1.11-1.59-1.35-.8.94-.69,1.98-.66,3,.28,1.56-.88,3.49,1.18,4.6-.9.87-1.64,1.06-1.61-.55.05-2.7-.11-5.4.3-8.09Z"/><path class="cls-91" d="m226.37,114.21c-.44-.07-1.08.15-.98-.69.08-.71-.46-.77-.95-.85,1.48-1.17,3.13-1.63,4.99-1.17-.83,1.12-1.38,2.54-3.06,2.71Z"/><path class="cls-118" d="m266.1,106.14c0,.22-.02.45-.03.67-1.37,1.23-3.64,1.37-4.28,3.49-.64.15-1.29.31-1.93.46-.18-.83.56-.86,1-1.16.53-.35,1.01-.72.13-1.23.37-.53,1.56-.48,1.14-1.58,1.3-.31,2.73.1,3.96-.65Z"/><path class="cls-127" d="m250.78,110c1.6.24,1.69-.79,1.66-1.94.41.1.81.2,1.22.3,1.17.8,2.24,1.85,3.86,1.57-1.06,1.38-2.58.52-3.87.78-.96-.24-1.91-.48-2.87-.72Z"/><path class="cls-120" d="m132.77,163.3c-.49-3.83,1.19-7.49.94-11.31.36,3.82-.09,7.58-.94,11.31Z"/><path class="cls-86" d="m119.74,106.46c.37.09.74.21,1.12.27,1.34.2,2.77.32,1.19,2.14,1.12.54,2.27.03,3.14.73-2.75.28-5.16-.13-6.32-3.08l.86-.05Z"/><path class="cls-127" d="m215.48,114.6c2.72.2,5.49-.46,8.18.4-4.02.53-8.05.61-12.07-.01,0,0,.09-.1.09-.1,1.28.07,2.57.33,3.8-.28Z"/><path class="cls-112" d="m129.45,120.16c-2.73.69-4.94-1.01-7.42-1.44-.27-.05-.49-.29-.34-.56.1-.18.38-.34.59-.37.31-.03.68-.02.94.13,1.94,1.11,4.08,1.69,6.24,2.24Z"/><path class="cls-73" d="m253.65,110.71c1.29-.26,2.81.59,3.87-.78,1.16-.52,2.32-1.04,3.48-1.56.88.51.39.88-.13,1.23-.44.3-1.18.33-1,1.16-2.08.5-4.15.59-6.22-.04Z"/><path class="cls-134" d="m236.46,119.64c.57.01.72.34.72.65.04,2.26.55,4.45.83,6.68.05.41.16,1.05-.46,1.09-.59.04-.59-.58-.63-1.01-.19-2.46.27-4.95-.47-7.4Z"/><path class="cls-32" d="m198.46,124.96c-3.51,1.28-6.89-1.16-10.38-.24,1.36-.77,1.53-.84,5.13-.5,1.75.16,3.41,1.06,5.25.75Z"/><path class="cls-47" d="m131.81,176.16c.6.99,1.09,2.09,2.61,1.84,2.1-.35,3.07-1.68,3.28-3.73.55,2.53-.28,3.91-2.33,4.18-2.77.35-3.4-.05-3.55-2.29,0,0,0,0,0,0Z"/><path class="cls-82" d="m230.3,92.91c-4.76.01-9.52.02-14.28.03-.71,0-1.42.04-2.05-.38,4.97-.02,9.93-.04,14.9-.05.51,0,1.04-.04,1.43.41Z"/><path class="cls-55" d="m134.53,141.7c0,.93-.02,1.86.41,2.73.11,1.34.23,2.67.3,4.01.02.38-.15.82-.61.83-.4,0-.47-.4-.46-.72.11-2.29-.42-4.61.36-6.86Z"/><path class="cls-77" d="m158.67,123.51c.52.38,1.04.76,1.55,1.14-.65,0-1.35,0-1.81-.46-1.56-1.58-3.38-2.26-5.59-1.85,0,0,0,0,0,0,1.36-1.96,2.77-.99,4.24-.14.62.36,1.14.78,1.6,1.3Z"/><path class="cls-61" d="m132.08,111.55c2.36-.68,4.6,1.01,6.99.59-.07-.93-.78-1.22-1.05-1.79.14-.14.28-.28.42-.41,1.19.68,1.76,1.85,2.36,2.99l-.07.18c-2.45-.42-4.9-.83-7.35-1.26-.44-.08-.87-.2-1.3-.3Z"/><path class="cls-32" d="m261.98,116.66c1.43-1.36,2.65-2.51,3.77-3.57.1,1.11-1.74,3.08-3.77,3.57Z"/><path class="cls-15" d="m261.79,110.29c.64-2.12,2.91-2.25,4.28-3.49,0,0,0,.07,0,.07,0,.27.02.55.03.82-1.33,1.04-2.44,2.45-4.32,2.6Z"/><path class="cls-123" d="m245.04,174.59c.1,3.74.67,4.27,4.33,4.09.23-.01.52-.1.64.23-3.63,1.05-4.88.3-5.4-3.21-.06-.38-.21-.74-.32-1.11.25,0,.5,0,.75-.01Z"/><path class="cls-88" d="m227.57,119.26c-.26,0-.53-.01-.79-.02,1.19-2.08,1.25-2.12,2.6-.38.73.95,1.73,1.16,2.81,1.31-1.1.36-2.06.23-2.88-.54-.51-.48-1.05-.73-1.74-.38Z"/><path class="cls-112" d="m270.05,104.59c.23-.02.46-.03.69-.05-.1,1.48.97,2.96-.15,4.79-.2-1.63-.02-3.23-1.83-3.65.43-.36.86-.72,1.29-1.08Z"/><path class="cls-59" d="m244.72,149.43c.28,1.75,0,3.5-.09,5.24-.23-2.91-.47-5.81-.7-8.72,1.13.96.61,2.3.79,3.48Z"/><path class="cls-98" d="m250.14,133.95c-1.01-2.85-.49-5.77-.4-8.68.7,1.66.31,3.4.39,5.1.06,1.2-.15,2.43.36,3.58-.12,0-.24,0-.35,0Z"/><path class="cls-4" d="m147.02,123.89c-.12-.73-.18-1.45.28-2.1.49,1.71,1.31,2.13,2.96,1.39.83-.37,1.62-.81,2.55-.85,0,0,0,0,0,0-.79,1.55-2.29,1.43-3.68,1.54-.7.06-1.41.01-2.12.02Z"/><path class="cls-134" d="m249.35,118.85c2.48.75,5.01.27,7.53.13,0,.22.01.44.02.66-2.51,0-5.02,0-7.54,0,0-.26,0-.52-.01-.78Z"/><path class="cls-99" d="m248.63,109.86c.67,2.19.12,4.44.32,6.65.07.77.06,1.54.09,2.31-.04.12-.09.25-.13.37-.54-.98-.41-2.09-.65-3.13.55-2.04.06-4.15.37-6.2Z"/><path class="cls-55" d="m200.52,124.03c1.08-2.77,1.98-3.06,4.7-1.56-2.11-1.03-3.54-.16-4.7,1.56Z"/><path class="cls-20" d="m248.91,119.2c.04-.12.09-.25.13-.37.1,0,.2.01.31.03,0,.26,0,.52.01.78-.01,1.4-.02,2.81-.03,4.21-1.29-1.19-.68-2.86-1.1-4.27.19.1.39.21.58.31.03-.23.07-.46.1-.7Z"/><path class="cls-33" d="m270.05,104.59c-.43.36-.86.72-1.29,1.08-1,.52-1.51,1.69-2.66,2.02,0-.27-.02-.55-.03-.82.83-.46,1.77-.88,2.1-1.8.44-1.23,1.11-.86,1.87-.48Z"/><path class="cls-90" d="m145.86,134.91c-.02-2.13-.03-4.26-.05-6.38.25-.38.51-.77.76-1.15-.24,2.51-.48,5.02-.72,7.54Z"/><path class="cls-117" d="m251.66,145.52c-.57-1.64-1.19-3.27-.37-5.01.62,1.63.31,3.34.37,5.01Z"/><path class="cls-47" d="m113.12,106.07c-.33-.47-.38-1-.39-1.55.27-.94.82-1.52,2.14-1.58-.86,1.07-1.5,2-1.75,3.13Z"/><path class="cls-63" d="m253.21,158.66c-.59-1.75-1.2-3.49-.37-5.34.42,1.76.4,3.55.37,5.34Z"/><path class="cls-121" d="m143.52,159.21c-.14-.29-.29-.57-.43-.86.52-1.12.36-2.32.39-3.5.05-.6.16-1.17.71-1.54-.49,1.94-.02,3.98-.67,5.9Z"/><path class="cls-28" d="m248.63,109.86c-.31,2.06.17,4.16-.37,6.21-.04-.47-.08-.95-.12-1.42,0-1.43.01-2.86.02-4.29.01-.26.02-.52.04-.78.16,0,.31.01.47.02,0,.09-.02.18-.03.27Z"/><path class="cls-74" d="m252.06,92.57c0,.1-.01.2-.02.3-1.28.03-2.57.06-3.85.09-.27,0-.54,0-.8,0-.65-.04-1.32.03-1.89-.37,2.19,0,4.38,0,6.57,0Z"/><path class="cls-119" d="m273.12,97.94c-.97-.28-2.31.27-2.74-1.22,1.06.09,2.28-.2,2.74,1.22Z"/><path class="cls-18" d="m147.78,115.43c2.19-.89,4.45-.33,6.69-.36-2.2.68-4.47.03-6.69.36Z"/><path class="cls-132" d="m252.42,150.9c-.86-1.43-1.03-2.92-.38-4.48.13,1.49.26,2.99.38,4.48Z"/><path class="cls-117" d="m250.14,133.95c.12,0,.24,0,.35,0,.58,1.22.38,2.53.39,3.81-.82-1.16-.78-2.49-.74-3.82Z"/><path class="cls-32" d="m259.86,118.11c-.14.52-.53.68-1.01.66-.26,0-.57-.12-.49-.42.13-.49.6-.62,1.04-.68.29-.04.47.13.46.44Z"/><path class="cls-126" d="m189.02,116.5c1.62-1.21,3.47-.68,5.24-.7-1.75.23-3.49.47-5.24.7Z"/><path class="cls-116" d="m245.04,174.59c-.25,0-.5,0-.75.01-.14-.79-.56-1.56-.15-2.57.84.74.52,1.79.9,2.56Z"/><path class="cls-101" d="m236.46,100.27c-.58-.27-.27-1.47-1.35-1.26-.33.06-.38-.28-.31-.54.13-.48.46-.83.98-.72,2.12.42,2.98.11,1.31-1.98-.58-.73.08-1.14.65-1.48,1.57-.92,3.09-.41,4.61.18,0,.51,0,1.02,0,1.53.01.99-.69.69-1.23.68q-1.23-.03-2.52.87c1.78-.53,3.36,1.09,4.53-.76.78.39,1.57.77,2.35,1.16.13.28.26.57.39.85-.98-.17-1.49.59-2.13,1.09-1.4-.23-2.79-.3-4.11.38,0,0,.04.05.04.05-1.06-.11-2.11-.95-3.19-.04Z"/><path class="cls-42" d="m242.34,96.01c0-.51,0-1.02,0-1.53,1.45-.56,2.63.26,3.88.76.25.02.55.15.76.06,2.34-1.01,4.69-.41,7.03-.05.44.73,1.33.72,1.95,1.16-3.29-.03-6.61-.29-9.71,1.21,0,.11.01.21.03.31-.27,0-.55.02-.82.02-.78-.39-1.57-.77-2.35-1.16-.13-.39-.39-.65-.78-.78Z"/><path class="cls-107" d="m231.12,99.92c1.14-1.02,2.05.13,3.06.33-.13.04-.25.08-.38.13-1.45.09-2.77.43-3.52,1.83-.65.38-1.3.76-1.95,1.13-1.03.01-2.06.03-3.1.04h-2.46c.77-.81,2.5-.14,2.2-.84-.7-1.65.57-.96,1.01-1.1.64-.2,1.38-.08,2.16-.79h-2.53c1.75-.95,3.77.13,5.52-.74Z"/><path class="cls-143" d="m231.12,99.92c-1.76.87-3.78-.21-5.52.74-1.36,0-2.67.34-3.99.53-1.08.16-2.23-.79-3.41-.09.03-.65.23-1.21.79-1.6,1.93.09,3.94.85,5.63-.82.27-.27.83-.16,1.08.11,1.56,1.65,3.59.93,5.43,1.13Z"/><path class="cls-101" d="m254.01,95.24c-2.35-.36-4.69-.96-7.03.05-.21.09-.5-.03-.76-.06-.16-1.04.76-1.53,1.16-2.29.27,0,.54,0,.8,0-.07.65.36.48.73.46,1.31-.04,2.62-.05,3.94-.08-.09.23-.96.44-.14.68.73.22,1.56.1,2.07.83-.26.13-.52.26-.77.39Z"/><path class="cls-104" d="m236.46,100.27c1.07-.91,2.13-.07,3.19.04-.29,1.08-.81,1.97-1.96,2.33-.53.11-1.05.23-1.58.34-.82-.72-1.13-1.73-1.59-2.66.67-.11,1.14.37,1.71.54.78.24.29-.32.24-.59Z"/><path class="cls-96" d="m234.52,100.32c.46.93.77,1.94,1.59,2.66-.41.86-.39,1.79-.39,2.71-1.37-1.51-1.14-3.59-1.92-5.31.13-.04.25-.08.38-.13.11.02.23.04.34.07Z"/><path class="cls-138" d="m141.53,92.93c.87,1.18,2.31,1.56,3.39,2.42,1.2.96,1.64-.59,2.54-.71,2.5-.31,4.88.45,7.33.59,1.34-.13,2.74-.09,3.51-1.52,1.9-.64,3.87-.32,5.82-.41.98.28,1.91-.2,2.88-.18.74.02,1.26.19,1.39,1.01.15.94-.44,1.01-1.14,1.14-3.18.62-6.39.74-9.61.75-.73,0-1.51-.18-2.19.43,1.68.26,3.32.66,5.05.56,1.35-.08,2.76-.99,4.02.62.34.44,1.83-.05,2.79-.06.63,0,1.41-.18,1.78.47.37.66-.62.88-.69,1.45-.5.58-.91,1.24-1.61,1.61-.58.37-.69,1.97-1.9.72,0-.66.02-1.34-.37-1.92-.5-1.69-1.9-1.47-3.17-1.42-.71.03-1.39.25-2.08-.1-.37-.19-.75-.73-1.19-.32-.51.47.14.92.21,1.4-.52.01-1.05.03-1.57.04-.3-.74-1.01-.89-1.66-1.13-1.18-.43-1.34.12-1.07,1.09,0,0,0,.07,0,.07-.39-.02-.78-.04-1.17-.06-.84-1.29-5.68-1.7-6.59-.54-.09.12-.02.37-.02.56-.52-.25-1.03-.5-1.55-.76-.26,0-.52-.01-.78-.02-.26-.38-.52-.77-.78-1.15.25-.94.36-1.69-1.04-1.86-.89-.1-2.34-.52-2.45-1.03-.23-1.06,1.38-1,1.93-1.75Z"/><path class="cls-80" d="m180.45,94.46c1.7-.84,3.54-.66,5.35-.73,1.72-.06,3.44-.03,5.16-.05,4.57.49,9.26.08,13.68,1.82.98.39,2.21-.05,3.14.74.55.47,1.11,1.05.95,1.78-.18.78-1.02.62-1.63.68-.64.06-1.29.04-1.93.13-.37.05-.87.21-.77.68.1.46.63.31.99.37-.25.25-.5.5-.74.75-.76.01-1.5.09-1.99.78-2.43-2.06-5.23-2.18-8.17-1.54-.13,0-.26,0-.39,0-.76-1.37-1.9-2.07-3.51-1.94-1.68-1.44-3.54-2.36-5.8-2.58-1.45-.14-3.11.45-4.32-.91Z"/><path class="cls-124" d="m194.08,99.88c.13,0,.26,0,.39,0,1.13.02,2.28-.1,3.38.28.25.08.75.05.56.5-.09.21-.53.26-.81.39-.86.51-1.86.13-2.76.4-.53.01-1.06.02-1.58.04-.64.09-1.27.18-1.91.27.37-.83.26-1.4-.74-.83-1.05.59-2.16.79-3.17.39-2.51-.99-5.27-.38-7.74-1.41-.41-.02-.81-.03-1.22-.05,1.38-.61,2.78-.25,4.19-.09.94.11,1.89.55,2.85.07,1.04-.38,2.06.12,3.1.04,1.83.9,3.65-.34,5.47-.02Z"/><path class="cls-53" d="m178.48,99.87c.41.02.81.03,1.22.05.2,1.17.98,1.53,2.08,1.52,1.09-.01,2.18,0,3.26.06.39.02,1.04.05.45.74-1.98,0-3.96,0-5.94-.01-.8,0-1.63-.04-1.4,1.17-.92-.02-1.84-.04-2.76-.05-.13-.25-.26-.5-.39-.75.42-.19.84-.38,1.45-.65-1.31-.31-2-1.22-2.97-1.68-.02-.12-.03-.24-.03-.36,1.67-.54,3.35-.1,5.03-.02Z"/><path class="cls-80" d="m188.61,99.9c-1.03.08-2.06-.43-3.1-.04.02-.9-.84-1.03-1.44-1.54,1.64-1.01,3.27-.98,4.94-.37.12.84,1.65.66,1.34,1.59-.21.65-1.15.26-1.75.36Z"/><path class="cls-2" d="m173.48,100.25c.97.47,1.66,1.38,2.97,1.68-.61.28-1.03.46-1.45.65-.65.03-1.3.05-1.95.08-1.16-.03-2.32-.06-3.48-.09.31-.85-1.47-1.35-.4-2.33.25-.12.49-.24.74-.36,1.08,1.95,2.37,2.08,3.57.36Z"/><path class="cls-23" d="m188.61,99.9c.61-.1,1.54.29,1.75-.36.31-.93-1.22-.75-1.34-1.59.52,0,1.04,0,1.56,0,1.6-.13,2.74.57,3.51,1.94-1.82-.33-3.64.92-5.47.02Z"/><path class="cls-110" d="m169.17,100.25c-1.07.98.71,1.48.4,2.33-.26,0-.52,0-.79.01-.77-.35-1.7-.51-2-1.49.7-.37,1.11-1.03,1.61-1.61.26.25.52.5.78.75Z"/><path class="cls-89" d="m173.48,100.25c-1.2,1.72-2.49,1.59-3.57-.36,1.18.23,2.36,1.04,3.54,0,0,.12.01.24.03.36Z"/><path class="cls-84" d="m252.48,167.55c-.26.01-.52.02-.78.04.87-2.4-.04-4.72-.33-7.07.06-1.16-.04-2.3-.43-3.41-.1-1.32.16-2.7-.77-3.85-.03-1.28-.05-2.55-.08-3.83-.45-.91-.17-1.9-.3-2.84-.2-1.43.33-3.1-1.2-4.16-.02-.1-.02-.2,0-.31.98-2.78-.12-5.46-.36-8.19-.27-3.36-.43-6.74-1.22-10.04.02-.38.04-.76.06-1.14-.04-1.68-.07-3.36-.11-5.05,1.01,2.83.79,5.83,1.17,8.74.94,7.38,1.76,14.78,2.57,22.17.65,5.93,1.75,11.81,1.93,17.8.01.37-.09.75-.14,1.13Z"/><path class="cls-90" d="m245.45,138.59c-.65-2.18-.79-4.45-.95-6.68-.38-5.27-1.42-10.47-1.4-15.77.13,0,.26,0,.39,0h.01c.19,3.12.66,6.21,1.16,9.3.17,3.01.48,6.01.99,8.99.24,1.39.44,2.8-.2,4.16Z"/><path class="cls-128" d="m244.67,125.45c-.49-3.09-.97-6.18-1.16-9.31.49-.54.7-1.17.76-1.89.08-1.05-.18-2.15.41-3.14.13,0,.26,0,.39,0-.87,4.8-.1,9.55.38,14.32-.26,0-.51.01-.77.02Z"/><path class="cls-62" d="m245.44,125.43c-.48-4.76-1.25-9.52-.38-14.32.25,0,.51,0,.76-.01,0,.14,0,.28,0,.43-.44,1.91-.74,3.82-.35,5.78-.17,1.72.38,3.38.42,5.08.1,1.41.21,2.81.31,4.22-.41-.29-.65-.69-.76-1.18Z"/><path class="cls-46" d="m248.23,133.94c.24,2.72,1.34,5.41.36,8.19-1.37-2.49-1.69-5.08-.8-7.8,0-.13-.02-.26-.03-.39h.47Z"/><path class="cls-75" d="m247.75,133.93c0,.13.02.26.03.39-.22-.22-.62-.43-.64-.66-.17-2.37-1.1-4.64-.94-7.05-.1-1.41-.21-2.81-.31-4.22.39.12.79.25,1.18.37-.02.38-.04.76-.06,1.14-.43,3.39.42,6.69.75,10.03Z"/><path class="cls-22" d="m248.59,142.43c1.53,1.06,1,2.73,1.2,4.16.13.94-.15,1.92.3,2.84-.59-.19-.8-.78-1.21-1.16-.6-1.92-.04-3.9-.29-5.84Z"/><path class="cls-133" d="m251.37,160.52c.29,2.35,1.21,4.67.33,7.07-.23.12-.46.24-.7.36-.18-1.78.43-3.63-.5-5.33.96-.42.75-1.33.87-2.09Z"/><path class="cls-85" d="m251.37,160.52c-.12.77.09,1.67-.87,2.09-.54-1.01-.35-2.09-.34-3.15.13-.13.25-.25.38-.38.4-.6.31-1.31.41-1.97.38,1.11.49,2.25.43,3.41Z"/><path class="cls-50" d="m248.88,148.27c.41.38.62.97,1.21,1.16.03,1.28.05,2.55.08,3.83-.12.26-.24.53-.36.79-.16.01-.32.02-.47.04-.15-1.94-.31-3.87-.46-5.81Z"/><path class="cls-27" d="m246.23,159.89c.13,0,.27,0,.4-.01.25.04.52.05.76.12.78.25.82.91.8,1.57,0,.28-.21.48-.49.49-.71.01-1.01-.5-1.23-1.05-.14-.35-.16-.75-.24-1.12Z"/><path class="cls-142" d="m249.34,154.08c.16-.01.32-.02.47-.04.77,1.6.64,3.33.72,5.04-.13.13-.25.25-.38.38-.27-1.79-.54-3.58-.81-5.37Z"/><path class="cls-22" d="m218.2,101.1c1.18-.69,2.33.25,3.41.09,1.33-.19,2.63-.53,3.99-.53.76,0,1.52,0,2.53,0-.78.7-1.52.58-2.16.79-.45.14-1.72-.55-1.01,1.1.3.7-1.43.03-2.2.84.94,0,1.7,0,2.46,0-1.62.96-3.4-.3-5.05.34-.14,0-.28.02-.42.03-.04-.05-.07-.11-.12-.14-.05-.03-.16-.05-.16-.04-.71,2.01-2.22,1.7-3.88,1.56-1.23-.11-2.45-1.07-3.26-.86-1.29.33-2.92.51-3.85,1.82-.25.61-.49,1.21-.74,1.82-1.6-.29-3.04-.91-4.48-1.7-.87-.48-2.42-1.58-2.95.63.06.54.32.95.78,1.24-.49.86.25,1.51.4,2.26-.15.15-.3.29-.45.44-.52-.12-.89-.78-1.55-.45-1.06.04-1.03,1.05-1.47,1.63-.79-1.17-1.58-2.34-2.38-3.52.94-.59.56-1.01-.21-1.31-.97-.37-1.96-.68-2.93-1.02-.6-.44-1.2-.9-1.55-1.59,1.82.57,3.57.65,5.08-.79,1.73-.91,3.83-.73,5.47-1.9,1.68-.02,3.36-.04,5.04-.05,2.2,0,4.39,0,6.59,0,1.51.13,2.93-.18,4.32-.75.25.02.51.04.76.06Z"/><path class="cls-21" d="m206.54,101.78c-1.68.02-3.36.04-5.04.05-1.46.51-2.57-.68-3.9-.79.28-.13.72-.18.81-.39.19-.44-.31-.41-.56-.5-1.1-.37-2.25-.25-3.38-.28,2.94-.64,5.74-.52,8.17,1.54,1.3.1,2.64-.22,3.89.36Z"/><path class="cls-135" d="m217.44,101.03c-1.38.57-2.81.88-4.32.75.47-.17.94-.35,1.9-.7-1.82-.08-3.16-.15-4.7-.22,1.93-1.17,6.15-.99,7.11.16Z"/><path class="cls-54" d="m204.64,100.64c.25-.25.5-.5.74-.75,1.02.03,2,.22,3.26.82-1.58.46-2.79.09-4-.07Z"/><path class="cls-133" d="m195.64,108.44c.79,1.17,1.58,2.34,2.38,3.52-.93,1.47-2.38.34-3.54.69-3.2-.56-6.44-.94-9.5-2.14-.47-.18-.95-.36-1.43-.54-.09-.94-.8-1.51-2.36-1.9-.38-.4-.75-.8-1.13-1.2.03-.15.06-.31.08-.46,2.48,1.11,5.06,1.3,7.71.83,1.82,1.08,3.74,1.39,5.8.8.66.13,1.33.27,1.99.4Z"/><path class="cls-96" d="m169.99,115.71c-.8,0-1.6,0-2.4,0,1.18-2.1,3.78-2.84,4.95-4.95q-2.68,1.68-3.58,1.22c1.59-1.45,3.5-2.63,4.86-4.42.05-.07-.04-.24-.06-.37.44-.53,1.03-.84,1.64-1.11l1.13.82c-1.21.66-1.6,1.96-2.31,3-.33.48-.29.97.11,1.4.38.4.87.6,1.4.43.55-.17,1.06-.44,1.59-.67.96.61,1.55,2.62,3.14.82.96.29,1.03,1.29,1.55,1.94-.67.46-1.14.1-1.72-.3-1.02-.71-2.47-.93-3.19-.09-.66.76-1.11.47-1.75.51-1.92.14-3.95.05-5.36,1.76Z"/><path class="cls-57" d="m169.99,115.71c1.41-1.71,3.44-1.62,5.36-1.76.64-.05,1.09.25,1.75-.51.72-.84,2.17-.61,3.19.09.57.4,1.04.76,1.72.3.47.83.24,1.37-.71,1.49-.57.07-1.26.18-1.71-.06-2.04-1.1-3.84-.23-5.69.47-1.31,0-2.61,0-3.92,0Z"/><path class="cls-38" d="m177.31,111.07c-.53.23-1.05.5-1.59.67-.53.16-1.02-.03-1.4-.43-.4-.43-.44-.92-.11-1.4.71-1.04,1.1-2.33,2.31-3,.85.56,2.42-.23,2.69,1.42-.09.41-.18.82-.27,1.23-.28.26-.55.52-.83.78-.27.24-.54.48-.81.73Z"/><path class="cls-139" d="m180.14,106.41c-.03.15-.06.31-.08.46-.14.15-.29.3-.43.45-.84-2.14-2.76-2.15-4.6-2.33-.39-.01-.78-.02-1.18-.03,0-.14,0-.29-.01-.43.18-.85.79-1.12,1.57-1.18.92.02,1.84.04,2.76.05.09,0,.17,0,.26-.02.06.97.65,1.67,1.21,2.38.17.22.34.44.51.66Z"/><path class="cls-44" d="m175.02,104.99c1.84.18,3.77.19,4.6,2.33-.13.33-.27.67-.4,1-.27-1.65-1.84-.86-2.69-1.42-.38-.27-.75-.55-1.13-.82-.13-.14-.25-.28-.38-.41,0-.23,0-.45,0-.68Z"/><path class="cls-40" d="m177.31,111.07c.27-.24.54-.48.81-.73.31.44.38,1.22,1.1,1.13.58-.07.38-.7.45-1.11.26.51.53,1.02.79,1.53-1.59,1.8-2.18-.21-3.14-.82Z"/><path class="cls-107" d="m181.18,108.07c1.57.39,2.27.96,2.36,1.9-1.13-.21-1.89-.88-2.36-1.9Z"/><path class="cls-118" d="m179.67,110.36c-.07.41.12,1.05-.45,1.11-.72.09-.79-.69-1.1-1.13.28-.26.55-.52.83-.78.24.27.48.54.72.8Z"/><path class="cls-100" d="m121.31,98.71c1.03,0,2.07,0,3.1.01.76.01,1.51.02,2.27.03.47.69,1.19.68,1.9.68,4.58.01,9.15.02,13.73.03.12.04.24.07.37.09.55.51,1.24.65,1.96.71,1.49-.32,2.98-.68,4.77-.01-.9.35-1.47.58-2.05.8-.77.14-1.54.28-2.31.42-2.07-.24-4,.28-5.86,1.14-.76.52-.18.71.24.87.93.37,1.91.26,2.88.29-.25.5-.51,1-.76,1.5-.66,0-1.32,0-1.97,0,.15-.11.37-.19.43-.34.19-.46-.22-.32-.38-.28-.78.2-1.55.44-2.32.67-1.38-.56-2.71-1.41-4.3-.69-4.36,1.61-10.52-1.51-11.7-5.91Z"/><path class="cls-70" d="m133.01,104.62c1.59-.72,2.92.13,4.3.69-.04,1.55.95,2.27,2.25,2.73.92,1.12,2.57.51,3.55,1.48,3.3.78,6.58,1.83,10.05,1.18.42.12.55.4.44.81-.86.67-1.88.69-2.9.84-1.03.15-2.24,0-2.94,1.09-.05-.04-.09-.1-.15-.12-.93-.41-.05-2.03-1.28-2.08-1.37-.05-2.37.85-3.24,1.83,0,0,0,0,0,0-.99-.18-1.67-.77-2.25-1.56-.62-.85-1.24-1.76-2.43-1.93-1.18-1.4-1.92-3.17-3.49-4.25-.71-.04-1.49.09-1.92-.7Z"/><path class="cls-102" d="m134.93,105.32c1.57,1.08,2.3,2.85,3.49,4.25,0,.12.01.25.02.37-.14.14-.28.28-.42.41-1.58-.82-2.34-2.77-4.27-3.11-2.07-2.14.96-1.18,1.18-1.93Z"/><path class="cls-13" d="m117.12,101.56c-.03-1.02-.14-2.06.66-3,.72.24.58,1.53,1.59,1.35-.38,2.31-.82,2.64-2.25,1.65Z"/><path class="cls-144" d="m173.76,107.19c.02.12.11.3.06.37-1.37,1.78-3.27,2.96-4.86,4.42q.9.46,3.58-1.22c-1.17,2.11-3.77,2.85-4.95,4.95-1.02,0-2.06.14-3.06-.24-1.76-.68-1.86-.89-1.05-2.56-.54-.22-1.16.23-1.66-.21.52-.26,1.03-.53,1.55-.79,2.18-.3,4.27-.83,6.17-1.98.69-.33,1.44-.59,1.62-1.47.87-.42,1.73-.84,2.6-1.26Z"/><path class="cls-65" d="m163.73,101.81c-.02.15-.03.3-.05.45-.85.24-1.16,1.13-1.88,1.53-.8-1.95-2.19-1.18-3.51-.75-.52.25-1.03.51-1.55.76-.52-.13-1.04-.26-1.55-.39-.14,0-.27-.02-.41-.03,0-.25,0-.5,0-.75.37-.24.73-.49,1.1-.73.63.43.96,0,1.29-.43,1.59-.05,3.28.19,4.23-1.57.5.15,1.01.29,1.51.44.13.57.41,1.06.83,1.47Z"/><path class="cls-16" d="m166.45,104.53c-.99,1.29-1.73,2.77-3.71,2.99-.82.09-1.48.22-2.15-.28-.93-.96.27-1.55.41-2.33.95.24.17.9.34,1.51,1.59-1.07,3.3-1.63,5.11-1.89Z"/><path class="cls-109" d="m166.45,104.53c-1.81.26-3.53.82-5.11,1.89-.17-.61.61-1.27-.34-1.51,0,0,0,0,0,0,.11-2.07-1.31-1.96-2.71-1.88,1.32-.44,2.71-1.21,3.51.75,1.06,1.4,1.48-.34,2.23-.45.65.71,2.34-.65,2.42,1.2Z"/><path class="cls-26" d="m169.54,109.93c-1.9,1.15-4,1.69-6.17,1.98-1.32-.49-1.3-1.01-.04-1.56,1.38-.11,2.7-.37,3.86-1.18.38,1.49,1.66.21,2.34.76Z"/><path class="cls-125" d="m159.73,107.58c-.97,1.32-1.18,2.75-.65,4.29-1.1.4-1.27-.29-1.42-1.13-.17-.96-.13-2.02-.97-2.75.13-.25.27-.5.4-.76.52-.27,1.04-.54,1.56-.8.46.29.85.65,1.08,1.15Z"/><path class="cls-129" d="m156.7,107.99c.84.74.8,1.79.97,2.75.15.83.32,1.53,1.42,1.13-.02,1.29-1.06.49-1.58.76-.61-.44-.67-1.84-1.95-1.11l-.03-.05c-1.08-.97.76-1.46.38-2.32.11-.49.37-.88.79-1.17Z"/><path class="cls-96" d="m167.2,109.17c-1.16.8-2.49,1.07-3.86,1.18-.11-1,.27-1.89,1.22-2.11.95-.23,2.06-.2,2.65.93Z"/><path class="cls-53" d="m168.78,102.59c.26,0,.52,0,.79-.01,1.16.03,2.32.06,3.48.09-.58.62-.48,1.24,0,1.86-.89.27-1.78.54-2.68.82-.19-.84,1.51-.54.97-1.49-.29-.51-.91-.27-1.4-.09-.15-.61-.73-.58-1.16-.78,0-.13,0-.26,0-.4Z"/><path class="cls-23" d="m175.02,104.99c0,.23,0,.45,0,.68-1.33.19-2.46.83-3.53,1.6-.26-.38-1.51-.14-.75-1.17,1.03-.38,2.07-.76,3.1-1.14.39.01.78.02,1.18.03Z"/><path class="cls-5" d="m171.48,107.26c1.07-.76,2.2-1.41,3.53-1.6.13.14.25.28.38.41-.61.27-1.2.58-1.64,1.11-.87.42-1.73.84-2.6,1.26-.23-.49.13-.82.33-1.19Z"/><path class="cls-71" d="m155.55,111.52c1.28-.73,1.34.67,1.95,1.11-.39.4-.78.79-1.16,1.19-.13,0-.26,0-.39,0,.12-.81-1.3-1.36-.39-2.3Z"/><path class="cls-16" d="m168.79,102.99c.43.2,1.01.16,1.16.78-.11.15-.19.36-.33.44-.6.34-1.51.8-1.86.25-.47-.73.47-1.11,1.04-1.47Z"/><path class="cls-7" d="m173.84,104.95c-1.03.38-2.07.76-3.1,1.14-.12-.25-.24-.5-.36-.75.89-.27,1.78-.54,2.68-.82.26,0,.51,0,.77,0,0,.14,0,.29.01.43Z"/><path class="cls-109" d="m159.73,107.58c-.23-.51-.62-.86-1.08-1.15.13-.25.26-.49.39-.74.61-.35,1.22-.71,1.94-.78,0,0,0,0,0,0-.14.78-1.34,1.37-.41,2.33-.28.11-.57.23-.85.34Z"/><path class="cls-96" d="m164.02,103.33c-.75.12-1.17,1.85-2.23.45.72-.4,1.03-1.29,1.88-1.53.12.36.23.72.35,1.08Z"/><path class="cls-82" d="m163.73,101.81c-.41-.41-.69-.9-.83-1.47.02-.16.03-.31.05-.47.52-.12,1.01,1.59,1.56.03.4.59.37,1.26.37,1.92-.39,0-.77-.01-1.16-.02Z"/><path class="cls-46" d="m245.81,111.52c0-.14,0-.28,0-.43.02-.12.03-.24.05-.36.76-.13,1.53-.25,2.29-.38,0,1.43-.01,2.86-.02,4.29-.38.37-.75.73-1.13,1.1-.14.13-.29.27-.43.4-.25.27-.5.54-.75.8,0-1.81,0-3.62,0-5.43Z"/><path class="cls-83" d="m245.82,116.95c.25-.27.5-.54.75-.8.13.52.25,1.04.38,1.57.04,1.68.07,3.36.11,5.05-.39-.12-.79-.25-1.18-.37-.04-1.7-.6-3.36-.42-5.08.12-.12.24-.23.36-.35Z"/><path class="cls-124" d="m247.01,115.75c.38-.37.75-.73,1.13-1.1.04.47.08.95.12,1.42.25,1.04.11,2.15.65,3.13-.03.23-.07.46-.1.7-.19-.1-.39-.21-.58-.31-.47-1.26-.28-2.72-1.22-3.83Z"/><path class="cls-145" d="m244.67,111.11c-.58.99-.32,2.09-.41,3.14-.06.71-.27,1.35-.76,1.89,0,0-.01,0-.01,0-.08-1.43.22-2.91-.26-4.27-.17.02-.34.03-.51.05v4.21c-.02.37-.04.73-.06,1.1-.47-.85-.16-1.85-.73-2.64-.56-1.53.42-3.12-.25-4.71-.23-.55.54-1.26,1.33-1.37.82-.12,1.13.39,1.26,1.11.09.5.26.98.39,1.48Z"/><path class="cls-139" d="m242.73,116.14v-4.21c.17-.02.34-.03.51-.05.47,1.37.18,2.85.26,4.27-.13,0-.26,0-.39,0-.12,0-.25,0-.37-.01Z"/><path class="cls-138" d="m142.31,99.46c-4.58,0-9.15-.02-13.73-.03-.71,0-1.44.01-1.9-.68,2.87-.28,5.79.41,8.63-.42-1.34-1.44-2.51-3.28-4.97-2.01-.25.13-.56.02-.6-.27-.03-.21.09-.52.25-.65.44-.35,1.24-.63.86-1.28-.39-.65-1.17.1-1.78-.06-1.17-.24-2.57.55-3.5-.78,5.3-.73,10.63-.25,15.95-.38-.55.75-2.16.69-1.93,1.75.11.51,1.57.92,2.45,1.03,1.4.17,1.29.91,1.04,1.86-2.16.31-4.25,1.06-6.49.97.84.19,1.68.13,2.5.21,1.1.1,2.36-.46,3.22.72Z"/><path class="cls-119" d="m155.56,94.09c-1.26-.17-2.52-.33-3.79-.5,0-.11,0-.21,0-.32,2.17,0,4.33,0,6.5,0-.84.48-1.72.85-2.71.82Z"/><path class="cls-58" d="m155.56,94.09c1,.03,1.87-.34,2.71-.82,0,.15.02.29.02.44-.77,1.42-2.17,1.39-3.51,1.52.26-.38.51-.76.77-1.14Z"/><path class="cls-41" d="m248.16,110.36c-.76.13-1.53.25-2.29.38-.14-.13-.28-.27-.42-.4,0-1.16-.08-2.36,1.65-2.31,1.1.03,1.52.48,1.09,1.55-.01.26-.02.52-.04.78Z"/><path class="cls-78" d="m239.61,100.27c1.32-.68,2.71-.61,4.11-.38.13.02.26.04.39.04-.73.44-1.74.73-1.01,1.93.39.24.79.49,1.18.73-1.04.09-1.83-.37-2.45-1.16-.47-.61-.96-1.18-1.84-1.14-.13,0-.25-.01-.38-.01Z"/><path class="cls-18" d="m242.73,103.37c-.69.48-.44,1.33-.77,1.95-.33.27-.32.85-1.03.97-.28-1.51-.11-3.02-.1-4.52.41.79.79,1.64,1.9,1.6Z"/><path class="cls-107" d="m242.73,103.37c-1.12.04-1.49-.8-1.9-1.6-.28-.5-.55-.99-.83-1.49.87-.04,1.36.53,1.84,1.14.61.79,1.4,1.25,2.45,1.16-.01.16-.02.32-.03.48-.51.1-1.01.21-1.52.31Z"/><path class="cls-92" d="m138.84,154.49c.3-.47.31-1,.29-1.54.14-1.43.28-2.86.42-4.3.12-1.3-.16-2.64.37-3.9.03.57-.06,1.18.11,1.71.27.83.45,0,.68-.11,0,.9,0,1.79.01,2.69-.04.1-.05.21-.02.31-.49,2.19-.62,4.42-.69,6.65l-.07,1.11c-.34,2.24-.95,4.47-.43,6.76-.14.09-.28.17-.42.26-.62-.73-.88-1.66-.62-2.5.73-2.37.27-4.77.37-7.15Z"/><path class="cls-1" d="m140.71,146.36c-.22.11-.41.94-.68.11-.17-.53-.08-1.14-.11-1.71.42-4.36.84-8.71,1.25-13.07.66,1.05.07,2.36.7,3.41.13.4.26.8.39,1.2-.43.69-.3,1.46-.37,2.21-.23,2.33-.54,4.66-.81,6.98l-.37.87Z"/><path class="cls-102" d="m139.55,148.65c-.14,1.43-.28,2.86-.42,4.3-.62.57-1.06.43-1.05-.4,0-.8.2-1.6.3-2.39.02-1.27.04-2.53.06-3.8,1.01.46.59,1.6,1.1,2.3Z"/><path class="cls-107" d="m141.87,135.1c-.63-1.06-.04-2.36-.7-3.41,0-.79,0-1.58-.01-2.37.1-.01.21-.03.31-.04.28.19.7-.65.91.11-.17,1.9-.34,3.8-.51,5.7Z"/><path class="cls-78" d="m129.08,94.08c.6.16,1.39-.6,1.78.06.39.64-.42.92-.86,1.28-.16.13-.28.44-.25.65.04.29.35.4.6.27,2.46-1.28,3.63.57,4.97,2.01-.84,0-1.68-.02-2.52,0-1.32.03-2.71.09-3.47-1.21-.8-1.36-1.8-1.22-2.96-.73-.41-.09-1.02.03-1.05-.58-.02-.47.5-.47.85-.59.99-.33,2.24-.05,2.92-1.16Z"/><path class="cls-106" d="m126.36,96.4c1.17-.49,2.17-.63,2.96.73.76,1.29,2.15,1.24,3.47,1.21.84-.02,1.68,0,2.52,0-2.84.84-5.76.14-8.63.42-.76-.01-1.51-.02-2.27-.03.52-.26,1.04-.52,1.56-.77h0q1.01,0,.39-1.55Z"/><path class="cls-106" d="m125.97,97.95c-.94-.09-1.92.2-3.27-.41,1.45-.52,2.39-.34,3.27.41,0,0,0,0,0,0Z"/><path class="cls-72" d="m246.25,97.61c3.1-1.5,6.42-1.24,9.71-1.21,1.69.13,3.37.26,5.06.39-.27.18-.53.36-.8.53-.62.36-1.91.13-1.75,1.12.15.93,1.39.88,2.2,1,1.01.15,2.06.05,3.09.06,1.37-.48,2.68-.34,3.93.42-.79.13-1.59.25-2.38.38-.77.01-1.53.02-2.3.03-2.6-.02-5.2-.05-7.81-.07-.51.03-1.03.06-1.54.09-1.04.07-2.07-.45-3.12-.05-.16.1-.32.2-.48.31-.77-.22-1.53-.44-2.3-.66,1.22-1.57.03-1.8-1.15-2.03-.12-.1-.23-.2-.35-.3Zm9.15.22c-.58.04-1.15.07-1.73.13-.43.04-.98-.06-1.15.48-.08.26-.03.67.14.89.41.54.94.25,1.38,0,.69-.39,1.36-.72,2.16-.29.4.22.83.41,1.22-.03.22-.26.31-.57.13-.88-.28-.48-.74-.43-1.19-.38-.32.03-.64.06-.96.09Z"/><path class="cls-131" d="m262.99,100.32c.77-.01,1.53-.02,2.3-.03,2.39,2.1,2.58,3.45.81,5.85-1.23.75-2.66.34-3.96.65-1.16.16-2.31.32-3.47.48-.97-.92,0-1.38.53-1.76.8-.58,1.59-1.16,1.73-2.15.2-1.38.99-2.28,2.06-3.04Z"/><path class="cls-127" d="m145.44,116.53c.26.13.51.26.77.39-.39,3.74-.77,7.49-1.16,11.23-.45,1.92-.15,3.93-.76,5.82-.15-.93.32-2.03-.73-2.72l-.04-1.49c.93-1.36.56-2.85.42-4.32.8-.49.7-1.3.71-2.05.02-2.55.02-5.09.03-7.64.27.24.31.71.77.77Z"/><path class="cls-90" d="m145.05,128.15c.39-3.74.77-7.49,1.16-11.23.03-.24.05-.48.08-.73.47,4.14-.72,8.21-.46,12.34-.13,0-.26,0-.39,0-.13-.13-.26-.26-.39-.39Z"/><path class="cls-18" d="m145.44,116.53c-.46-.06-.5-.53-.77-.77-.11-.01-.22-.03-.33-.04l-.86-.74c.12-.38.25-.77.37-1.15,1.31.45,1.68,1.44,1.58,2.7Z"/><path class="cls-11" d="m261.02,96.79c-1.69-.13-3.37-.26-5.06-.39-.62-.44-1.5-.43-1.95-1.16.26-.13.52-.26.77-.39,1.85.46,3.54.76,5.44-.43,1.54-.96,3.62-.23,5.46-.34-.48,1.01-1.53.95-2.39,1.28-.57.22-1.52-.04-1.5,1.04-.26.13-.52.26-.78.39Z"/><path class="cls-24" d="m261.8,96.4c-.01-1.07.94-.82,1.5-1.04.86-.33,1.9-.27,2.39-1.28.77.13,1.54.27,2.31.4-.01,1.46-.76,2.09-2.2,1.91-1.34-.16-2.67.41-4.01,0Z"/><path class="cls-31" d="m252.86,93.33c-1.31.02-2.62.04-3.94.08-.37.01-.8.18-.73-.46,1.29-.03,2.57-.06,3.85-.09,1,0,2,0,3,0,.01.16.02.32.03.47-.74,0-1.48,0-2.22,0Z"/><path class="cls-122" d="m141.97,124.61c.41-2.42-.22-4.99,1.12-7.27.02.77-.05,1.55.32,2.27-.01.88-.02,1.77-.04,2.65-.55,1.28-.19,2.65-.4,3.97-.67-.33.44-1.75-1-1.61Z"/><path class="cls-29" d="m138.44,109.94c0-.12-.01-.25-.02-.37,1.19.17,1.81,1.08,2.43,1.93.58.8,1.26,1.38,2.25,1.56-.35.72-.7,1.45-1.18,2.43-.44-1.01-.78-1.79-1.13-2.56-.6-1.14-1.18-2.3-2.36-2.99Z"/><path class="cls-140" d="m143.41,119.61c-.37-.72-.3-1.5-.32-2.27-.11-.83-.81-1.75.4-2.36.29.24.57.49.85.74-.02.98-.04,1.95-.06,2.93-.54.09-.82.43-.87.96Z"/><path class="cls-92" d="m141.97,124.61c1.44-.14.33,1.28,1,1.61.02.63.03,1.26.05,1.9-.64-.06-.92-.37-.8-1.02.11-.58.08-1.15-.29-1.65.01-.28.03-.56.04-.84Z"/><path class="cls-69" d="m141.93,125.45c.37.5.4,1.07.29,1.65-.13.65.16.97.8,1.02-.11.4-.21.79-.32,1.19l-.02-.02c-.1.04-.2.07-.29.11-.21-.76-.63.08-.91-.11.15-1.28.3-2.56.46-3.83Z"/><path class="cls-27" d="m222.88,113.05c-2.07,0-4.15,0-6.22,0-.43-.61-1.13-.81-1.73-1.18-1.17-.71-2.67-.58-3.73-1.52.81-.04,1.27-.52,1.58-1.21,2.5.13,4.98.17,7.38-.73l1.45.05c.38.6.97.74,1.62.75.74.42,1.55.33,2.35.35.78.13,2.28-.18,2.17.55-.19,1.21-1.46.27-2.24.25-2.49-.05-4.98-.21-7.47-.31-.37-.02-.88-.12-.92.41-.04.48.46.61.83.59,1.6-.09,2.98.7,4.48,1.03.69.15.63.5.45.97Z"/><path class="cls-137" d="m225.58,109.56c-.8-.02-1.61.07-2.35-.35.55-.21,1.03-.47.8-1.2.39-.88-.31-1.08-.87-1.35-.62-.3-1.25-.6-1.88-.89,0,0,.09-.13.09-.13.24-.1.49-.21.73-.31,2.35.49,4.35,2.53,7.02,1.54.12,0,.24,0,.36.01.39.25.78.49,1.16.74,0,.13,0,.27,0,.4-1.37.57-3.12-.17-4.27,1.18-.27.12-.53.24-.8.36Z"/><path class="cls-108" d="m232.61,109.5c-.15-.03-.3-.05-.45-.08-.37-.08-.74-.16-1.11-.24l.45-3.48c1.05-.41,2.17-.79,2.79.53.56,1.19.2,2.22-1.05,2.84-.23.11-.42.28-.63.42Z"/><path class="cls-51" d="m231.5,105.7l-.45,3.48h-.19s-.19,0-.19,0c0-.39,0-.78,0-1.17,0-.13,0-.27,0-.4.68-2.03.6-2.82-.39-3.51-.78.15-1.4,1.06-2.32.47.13-.41.26-.82.39-1.22.65-.38,1.3-.76,1.95-1.13,1.62.47,2.12,1.4,1.26,2.93-.08.15-.02.37-.03.56Z"/><path class="cls-97" d="m230.65,108.01c0,.39,0,.78,0,1.17-1.42.46-2.85-.2-4.28.01,1.15-1.36,2.89-.62,4.27-1.18Z"/><path class="cls-14" d="m201.48,112.67c.89.26,2.5-.67,2.59.72.09,1.43-1.25,2.27-2.79,2.36-.19.01-.39,0-.58.01-.93-.49-2.04-.95-.14-1.69.6-.24.78-.83.92-1.4Z"/><path class="cls-67" d="m262.99,100.32c-1.06.76-1.86,1.66-2.06,3.04-.15.99-.93,1.57-1.73,2.15-.52.38-1.5.84-.53,1.76-1.42.36-2.51,2.31-4.32.87-.11-.08-.46.14-.69.22-.41-.1-.81-.2-1.22-.3-.71-.33-1.45-.6-1.94-1.27,0-.65,0-1.3,0-1.95,0-1.52.01-3.04.02-4.56,1.05-.4,2.08.12,3.12.05-.28.69-.79,1.65.12,1.95,1.06.35.89-.92,1.21-1.51.09-.16.14-.35.21-.53,2.6.02,5.2.05,7.81.07Z"/><path class="cls-56" d="m247.74,99.94c.77.22,1.53.44,2.3.66-.37.44-.79.85-1.1,1.32-.92,1.38-1.33,2.77.08,4.11-.83,0-1.66.02-2.49.02-.58-.74-1.16-1.49-1.74-2.23-.28-.02-.57-.03-.85-.05.1-.24.2-.48.31-.71.01-.16.02-.32.03-.48-.39-.24-.79-.49-1.18-.73.72-.15,1.28-.55,1.67-1.15.6-.93-.25-.67-.66-.77-.13,0-.26-.01-.39-.04.64-.49,1.15-1.25,2.13-1.09.34.86,1.05,1.12,1.9,1.14Z"/><path class="cls-83" d="m246.53,106.06c.83,0,1.66-.02,2.49-.02.49-.39.99-.79,1.48-1.18,0,.65,0,1.3,0,1.95-1.51.6-3.08.58-4.66.43.08-.28.97-.26.31-.82.12-.12.25-.23.37-.35Z"/><path class="cls-64" d="m246.16,106.41c.66.56-.23.54-.31.82-2.45-.13-2.88-.9-1.91-3.45.28.02.57.03.85.05-.49,1.36-.66,2.54,1.37,2.58Z"/><path class="cls-141" d="m145.05,128.15c.13.13.26.26.39.39-.22,5.13-.59,10.25-1.35,15.33-.24,1.6-.16,3.2-.22,4.81-.26,0-.51,0-.77,0,.25-3.24.5-6.48.75-9.72.15-1.66.3-3.32.44-4.97.61-1.89.31-3.91.75-5.82Z"/><path class="cls-46" d="m143.09,148.66c.26,0,.51,0,.77,0-.2,2.06-.84,4.09-.38,6.18-.03,1.18.13,2.38-.39,3.5-.27.13-.54.26-.8.39-.14-3.39.45-6.72.8-10.08Z"/><path class="cls-76" d="m211.2,110.34c1.06.93,2.56.8,3.73,1.52.6.37,1.3.57,1.73,1.18-.96.09-2.51-1.82-2.73.79-1.43-.77-2.85-1.55-4.28-2.32-.26-.26-.52-.52-.78-.77.59-.4,1.27-.38,1.95-.39.13,0,.26,0,.38,0Z"/><path class="cls-29" d="m209.64,111.5c1.43.77,2.85,1.55,4.28,2.32.44.42.96.66,1.55.78-1.23.61-2.52.35-3.8.28-.03-.23-.06-.45-.09-.68.15-.67-.3-.92-.8-1.1-.76-.28-1.1-.83-1.14-1.6Z"/><path class="cls-65" d="m138.84,154.49c-.1,2.38.36,4.78-.37,7.15-.26.84,0,1.77.62,2.5,0,.79.01,1.58.02,2.36-.88.02-1.77.56-2.64-.01.56-2.16.82-4.36.79-6.59.48-1.01.26-2.13.45-3.17.15-.81-.26-2.02,1.14-2.25Z"/><path class="cls-8" d="m137.25,159.9c.03,2.23-.23,4.43-.79,6.59-.12-.03-.23-.06-.35-.09.26-1.46.43-2.93.38-4.41-.03-.78.03-1.56.76-2.08Z"/><path class="cls-14" d="m209.64,111.5c.04.78.38,1.33,1.14,1.6.5.18.96.43.8,1.1-1.97.03-3.53-1.59-5.58-1.36-.42.05-.35-.56-.25-.94.97-1.45-.66-1.63-1.16-2.36-1.03-1.53-2.35-2.6-4.29-2.71.53-2.21,2.08-1.11,2.95-.63,1.44.79,2.88,1.41,4.48,1.7,1.63.52,3.3.88,5.02.89,0,.11.01.23.02.34-.31.68-.78,1.16-1.58,1.21-.13,0-.26,0-.38,0-.46-.85-1.25-.79-2.04-.73-.33.03-.71.13-.73.5-.03.53.46.52.82.62.26.26.52.52.78.77Z"/><path class="cls-36" d="m201.03,110.77c.15-.15.3-.29.45-.44,1.58.11,1-1.1,1.15-1.86l1.53,1.53c-.12.81-.21,1.61.84,1.91-1.6.59-3.1.81-3.96-1.14Z"/><path class="cls-69" d="m204.99,111.91c-1.05-.3-.96-1.1-.84-1.91.15-.15.3-.3.44-.45.5.73,2.13.91,1.16,2.36-.25,0-.51,0-.76,0Z"/><path class="cls-130" d="m231.5,105.7c0-.19-.05-.41.03-.56.86-1.53.36-2.47-1.26-2.93.76-1.41,2.07-1.75,3.52-1.83.78,1.72.55,3.8,1.92,5.31-.02,1.28-.02,2.54.74,3.68.47.69.32,1.36-.41,1.8-.71.43-1.37.23-1.88-.37-.45-.53-.76-1.2-1.56-1.3.21-.14.41-.31.63-.42,1.25-.62,1.61-1.65,1.05-2.84-.62-1.33-1.74-.94-2.79-.53Z"/><path class="cls-66" d="m139.11,166.51c0-.79-.01-1.58-.02-2.36.14-.09.28-.17.42-.26.05-2.26,1.35-4.44.43-6.76.02-.37.05-.74.07-1.11,1.01-2.14,1.51-4.33.69-6.65-.02-.11-.01-.21.02-.31.26,0,.53,0,.79,0,.14,0,.28,0,.42.01.09,3.79-1,7.47-1.02,11.25-.31,2.05-.62,4.1-.93,6.15-.29.02-.58.04-.87.06Z"/><path class="cls-130" d="m140.91,160.3c.02-3.78,1.11-7.46,1.02-11.25.4-1.68.47-3.39.46-5.12-.01-1.94.23-3.85.78-5.72.23.24.45.49.68.73-.25,3.24-.5,6.48-.75,9.72-.35,3.35-.95,6.68-.8,10.08-.07,1,.19,2.11-.95,2.74-.14-.38-.28-.78-.43-1.18Z"/><path class="cls-51" d="m155.55,111.52c-.9.94.51,1.49.39,2.3-1.09.13-2.18.3-3.28.37-.55.04-1.34.15-1.46-.59-.13-.78.64-.83,1.2-.95.7-.15,1.39-.33,1.98-.75.38-.14.76-.28,1.14-.42l.03.05Z"/><path class="cls-41" d="m155.52,111.48c-.38.14-.76.28-1.14.42-.26-.13-.52-.26-.78-.39.12-.41-.02-.68-.44-.81.91-.51,1.83-1.03,2.74-1.54.38.86-1.47,1.35-.38,2.32Z"/><path class="cls-56" d="m253.66,108.36c.24-.08.59-.3.69-.22,1.81,1.44,2.9-.51,4.32-.87,1.16-.16,2.31-.32,3.47-.48.43,1.1-.77,1.05-1.14,1.58-1.16.52-2.32,1.04-3.48,1.56-1.62.28-2.69-.77-3.86-1.57Z"/><path class="cls-146" d="m242.34,96.01c.38.14.65.4.78.78-1.18,1.85-2.76.22-4.53.76q1.29-.9,2.52-.87c.54.01,1.25.32,1.23-.68Z"/><path class="cls-78" d="m247.74,99.94c-.85-.02-1.55-.28-1.9-1.14-.13-.28-.26-.57-.39-.85.27,0,.55-.02.82-.02.11,0,.21,0,.32-.02,1.18.23,2.36.46,1.15,2.03Z"/><path class="cls-39" d="m246.6,97.91c-.11.01-.21.02-.32.02-.02-.1-.03-.21-.03-.31.12.1.23.2.35.3Z"/><path class="cls-62" d="m228.32,103.34c-.13.41-.26.82-.39,1.22-1.28.35-2.59.37-3.89.39-.5-.04-.99-.07-1.49-.11-.79-.38-1.58-.75-2.37-1.13,1.65-.64,3.42.62,5.05-.34,1.03-.01,2.06-.03,3.1-.04Z"/><path class="cls-22" d="m154.78,102.62c0,.25,0,.5,0,.75,0,0,.01,0,.01,0-1.03-.1-1.75.39-2.34,1.16-.4-.26-.8-.53-1.2-.79-.48-.38-1-.31-1.45-.03-2.55,1.58-5.43,1.42-8.25,1.63v-.07c.27-.5.52-1,.77-1.5.49.03.97-.01,1.36.44.71.82.88-.32,1.27-.5.6-.28-.18-.47-.29-.74.81-.01,1.64.08,2.4-.34,1.61-.24,1.33-.84.31-1.59.58-.23,1.15-.45,2.05-.8-1.79-.67-3.28-.3-4.77.01,0-.51.02-1.03.02-1.54.52.25,1.03.5,1.55.76,1.55.03,3.09.06,4.64.09.37.75-1.38.96-.55,1.62.63.51,1.25-.29,1.77-.72.57-.48,1.24-.58,1.95-.61.38.06.71.02.46.67-.26.67-.36,1.48.31,2.09Z"/><path class="cls-1" d="m154.78,102.62c-.67-.61-.57-1.42-.31-2.09.25-.64-.08-.6-.46-.67,0-.11-.01-.22-.01-.33,0,0,0-.07,0-.07.91.01,1.82.02,2.73.03.52-.01,1.05-.03,1.57-.04,1.55.22,3.17-.3,4.67.41-.02.16-.03.31-.05.47-.5-.15-1.01-.29-1.51-.44-1.14-.1-2.22.09-3.18.74-1.12-.21-2.31-.55-2.34,1.26-.37.24-.73.49-1.1.73Z"/><path class="cls-79" d="m162.96,99.87c-1.51-.72-3.12-.19-4.67-.41-.07-.47-.72-.92-.21-1.4.44-.41.82.14,1.19.32.69.35,1.38.13,2.08.1,1.26-.06,2.67-.27,3.17,1.42-.55,1.56-1.04-.15-1.56-.03Z"/><path class="cls-44" d="m150.85,99.57c-1.55-.03-3.09-.06-4.64-.09,0-.19-.08-.44.02-.56.91-1.15,5.75-.74,6.59.54-.66.03-1.31.07-1.97.1Z"/><path class="cls-106" d="m142.31,99.46c-.85-1.19-2.12-.62-3.22-.72-.82-.08-1.65-.01-2.5-.21,2.24.09,4.33-.66,6.49-.97.26.38.52.77.78,1.15-.56.05-1,.28-1.2.84-.13-.02-.25-.05-.37-.09Z"/><path class="cls-15" d="m150.85,99.57c.66-.03,1.31-.07,1.97-.1.39.02.78.04,1.17.06,0,.11,0,.22.02.33-.7.03-1.37.14-1.94.61-.52.43-1.14,1.22-1.77.72-.82-.67.92-.87.55-1.62Z"/><path class="cls-42" d="m156.71,99.5c-.91-.01-1.82-.02-2.73-.03-.27-.97-.1-1.52,1.07-1.09.65.24,1.36.39,1.66,1.13Z"/><path class="cls-143" d="m142.68,99.55c.2-.56.64-.79,1.2-.84.26,0,.52.01.78.02,0,.51-.02,1.03-.02,1.54-.71-.07-1.4-.2-1.96-.71Z"/><path class="cls-111" d="m185.49,102.23c.59-.69-.06-.72-.45-.74-1.09-.06-2.18-.07-3.26-.06-1.09.01-1.88-.35-2.08-1.52,2.47,1.03,5.24.42,7.74,1.41,1,.4,2.12.2,3.17-.39,1-.57,1.11,0,.74.83-1.26.06-.91.88-.77,1.61q-2.03-.89-1.94,1.54c-.51-.11-1.02-.22-1.53-.33,0-.14-.02-.27-.03-.41.64-.56.71-1.1-.19-1.38-.49-.15-.98-.23-1.39-.57Z"/><path class="cls-54" d="m197.6,101.05c1.33.11,2.44,1.3,3.9.79-1.64,1.17-3.74.99-5.47,1.9-1.7.04-3.41.08-5.11.11,0-.08.02-.16.06-.23.74-.39,1.55-.14,2.33-.24.74-.05,1.54.19,2.22-.36-.23-.53-.46-1.05-.69-1.56.9-.27,1.9.12,2.76-.4Z"/><path class="cls-43" d="m193.3,103.37c-.77.11-1.58-.15-2.33.24-.14-.08-.27-.16-.41-.24-.14-.73-.48-1.55.77-1.61.64-.09,1.27-.18,1.91-.28.02.63.03,1.26.05,1.89Z"/><path class="cls-138" d="m193.3,103.37c-.02-.63-.03-1.26-.05-1.89.53-.01,1.06-.02,1.58-.04.23.51.45,1.03.69,1.56-.68.55-1.48.32-2.22.36Z"/><path class="cls-114" d="m185.49,102.23c.4.34.9.41,1.39.57.9.28.83.82.19,1.38-2.04-.69-4.13-.59-6.23-.38-.77-.37-1.47-1.07-2.42-.42-.09.01-.17.02-.26.02-.23-1.22.6-1.17,1.4-1.17,1.98,0,3.96,0,5.94.01Z"/><path class="cls-93" d="m173.83,104.52c-.26,0-.51,0-.77,0-.48-.62-.59-1.24,0-1.86.65-.03,1.3-.05,1.95-.08.13.25.26.5.39.75-.77.06-1.39.33-1.57,1.18Z"/><path class="cls-67" d="m247.75,133.93c-.33-3.34-1.18-6.64-.75-10.03.79,3.3.95,6.68,1.22,10.04-.16,0-.32,0-.47-.01Z"/><path class="cls-51" d="m250.53,159.08c-.08-1.7.05-3.43-.72-5.04.12-.26.24-.53.36-.79.93,1.15.67,2.54.77,3.85-.1.66,0,1.37-.41,1.97Z"/><path class="cls-56" d="m245.82,116.95c-.12.12-.24.23-.36.35-.38-1.96-.08-3.87.35-5.78,0,1.81,0,3.62,0,5.43Z"/><path class="cls-137" d="m208.48,106.08c.93-1.31,2.56-1.49,3.85-1.82.81-.21,2.03.76,3.26.86,1.66.14,3.17.45,3.88-1.56,0,0,.12.01.16.04.05.03.08.09.12.14.12.97,1.21,1.13,1.61,1.88,0,0-.09.13-.09.13-.37,0-.74-.02-1.11-.02-1.17.12-2.34.24-3.5.35-2.09,0-4.17,0-6.26,0-.5,0-.99,0-1.49,0-.15,0-.3,0-.45-.01Z"/><path class="cls-16" d="m208.48,106.08c.15,0,.3,0,.45.01.36.93,1.22,1.03,2.03,1.09,1.25.1,2.52.08,3.77.12.61.35,1.28.31,1.95.35-1.31.38-2.61.76-3.92,1.14-1.72-.01-3.39-.37-5.02-.89.25-.61.49-1.21.74-1.82Z"/><path class="cls-115" d="m195.64,108.44c-.66-.13-1.33-.27-1.99-.4-.8-.25-1.59-.5-2.39-.75.25-.12,1-.05.25-.56-.7-.48-1.71-.51-2.11-1.43,1.1,0,1.89,1.2,3.09.81.98.34,1.97.65,2.93,1.02.77.29,1.15.72.21,1.31Z"/><path class="cls-113" d="m192.49,106.11c-1.21.4-1.99-.81-3.09-.81-.26-.13-.52-.26-.78-.38q-.08-2.44,1.94-1.54c.14.08.27.16.41.24-.05.07-.07.15-.06.23.01.22.02.45.03.67.35.69.95,1.14,1.55,1.59Z"/><path class="cls-71" d="m190.94,104.52c-.01-.22-.02-.45-.03-.67,1.7-.04,3.41-.08,5.11-.11-1.51,1.44-3.26,1.35-5.08.78Z"/><path class="cls-35" d="m204.6,109.55c-.15.15-.3.3-.44.45-.51-.51-1.02-1.02-1.53-1.53-.51-.13-1.03-.26-1.54-.4-.46-.29-.72-.7-.78-1.24,1.94.11,3.26,1.19,4.29,2.71Z"/><path class="cls-99" d="m201.08,108.07c.51.13,1.03.26,1.54.4-.15.76.44,1.97-1.15,1.86-.14-.75-.88-1.4-.4-2.26Z"/><path class="cls-19" d="m221.37,105.63c-.39-.75-1.48-.9-1.61-1.88.14,0,.28-.02.42-.03.79.38,1.58.75,2.37,1.13-.15.16-.3.31-.45.47-.24.1-.49.21-.73.31Z"/><path class="cls-52" d="m180.14,106.41c-.17-.22-.34-.44-.51-.66.15-.45.47-.59.92-.5,2.09,1.17,4.42.26,6.59.75.12.13.24.26.35.39.12.28.24.56.36.84-2.65.47-5.23.28-7.71-.83Z"/><path class="cls-78" d="m187.85,107.24c-.12-.28-.24-.56-.36-.84,1.26.3,2.51.6,3.77.9.8.25,1.59.5,2.39.75-2.05.59-3.98.29-5.8-.8Z"/><path class="cls-12" d="m180.54,105.25c-.45-.09-.77.06-.92.5-.56-.71-1.16-1.41-1.21-2.38.95-.65,1.65.05,2.42.42.59,1.13,1.84.46,2.77.96-1.06.37-2.15-.09-3.06.5Z"/><path class="cls-59" d="m147.05,102.64c-.76.42-1.59.32-2.4.34-1.77-.85-3.67.17-5.46-.37,1.86-.85,3.79-1.37,5.86-1.14.04,1.45,1.25.93,2,1.17Z"/><path class="cls-107" d="m139.19,102.61c1.79.54,3.69-.48,5.46.37.11.26.9.46.29.74-.39.18-.55,1.31-1.27.5-.4-.45-.87-.41-1.36-.44-.97-.03-1.95.08-2.88-.29-.42-.17-1-.35-.24-.87Z"/><path class="cls-107" d="m139.56,108.04c-1.3-.46-2.29-1.18-2.25-2.73.77-.23,1.54-.47,2.32-.67.16-.04.57-.18.38.28-.06.15-.28.23-.43.34-1.29.68-.45,1.33.02,1.99-.01.26-.02.53-.03.79Z"/><path class="cls-14" d="m139.6,107.25c-.47-.66-1.31-1.31-.02-1.99.66,0,1.32,0,1.97,0,0,0-.01.07-.01.07.77.24,1.55.49,2.32.73-1.48.15-3.03.08-4.29,1.09l.02.08Z"/><path class="cls-27" d="m147.05,102.64c-.75-.25-1.96.28-2-1.17.77-.14,1.54-.28,2.31-.42,1.03.74,1.31,1.35-.31,1.59Z"/><path class="cls-22" d="m155.91,109.16c-.91.51-1.83,1.03-2.74,1.54-3.47.65-6.75-.4-10.05-1.18,1.38-.57,2.77-.34,4.17-.08.95.17,1.84.21,2.05-1.06.38,0,.76.01,1.14.02-.07.62-.08,1.2.81,1.1.32-.03.73-.14.71-.49-.03-.76-.74-.48-1.17-.64,1.05-.24,2.11-.48,3.16-.73.75-.14,1.49-.29,2.24-.43.28,0,.57.02.85.03-.13.25-.27.5-.4.76-.42.29-.68.68-.79,1.17Z"/><path class="cls-10" d="m149.34,108.37c-.21,1.27-1.11,1.23-2.05,1.06-1.4-.25-2.79-.49-4.17.08-.99-.96-2.63-.35-3.55-1.48.01-.26.02-.53.03-.79,0,0-.02-.08-.02-.08,1.55.18,3.06,0,4.57-.43.98-.28,2.3-.61,2.83.41.59,1.14,1.52.96,2.37,1.23Z"/><path class="cls-34" d="m160.99,104.92c-.73.06-1.33.42-1.94.78-.39-.26-.77-.53-1.16-.79-.43-.33-.97-.53-1.16-1.11.52-.25,1.03-.51,1.55-.76,1.4-.08,2.82-.19,2.71,1.88Z"/><path class="cls-16" d="m154.77,103.37c.14,0,.27.02.41.03.04.99.7,1.34,1.54,1.53-.15.38-.42.64-.81.79-.9,0-1.79-.02-2.69-.02.1-1.05,1.58-1.18,1.57-2.32h-.01Z"/><path class="cls-26" d="m158.21,100.64c.96-.65,2.04-.84,3.18-.74-.95,1.76-2.64,1.52-4.23,1.57.35-.28.7-.55,1.05-.83Z"/><path class="cls-103" d="m158.21,100.64c-.35.28-.7.55-1.05.83-.33.43-.66.86-1.29.43.03-1.81,1.22-1.47,2.34-1.26Z"/><path class="cls-68" d="m156.72,104.93c-.84-.18-1.51-.54-1.54-1.53.52.13,1.04.26,1.56.39.19.58.73.78,1.16,1.11-.39,0-.78.02-1.17.02Z"/><path class="cls-81" d="m156.72,104.93c.39,0,.78-.02,1.17-.02.39.26.77.53,1.16.79-.13.25-.26.49-.39.74-.52.27-1.04.53-1.56.8-.28,0-.57-.02-.85-.02.04-.53,0-1.05-.34-1.5.39-.14.66-.4.81-.79Z"/><path class="cls-145" d="m244.11,99.93c.41.1,1.26-.16.66.77-.39.6-.95,1.01-1.67,1.15-.72-1.19.28-1.49,1.01-1.93Z"/><path class="cls-84" d="m140.7,149.36c.83,2.33.33,4.52-.69,6.65.07-2.23.2-4.46.69-6.65Z"/><path class="cls-94" d="m139.94,157.12c.92,2.32-.38,4.5-.43,6.76-.52-2.3.09-4.52.43-6.76Z"/><path class="cls-84" d="m141.51,149.04c-.26,0-.53,0-.79,0,0-.9,0-1.79-.01-2.69.12-.29.25-.58.37-.87.59,1.13.43,2.35.43,3.55Z"/><path class="cls-123" d="m141.51,149.04c0-1.2.15-2.42-.43-3.55.28-2.33.58-4.65.81-6.98.08-.75-.05-1.52.37-2.21.23-2.33,1.21-4.62.41-7.01,0,0,.02.02.02.02.43-.11.7.03.81.46l.04,1.49c.14,2.34-.73,4.61-.39,6.96-.56,1.87-.79,3.78-.78,5.72,0,1.73-.06,3.43-.46,5.12-.14,0-.28,0-.42-.01Z"/><path class="cls-117" d="m142.68,129.28c.8,2.39-.19,4.68-.41,7.01-.13-.4-.26-.8-.39-1.2.17-1.9.34-3.8.51-5.7.1-.04.2-.08.29-.11Z"/><path class="cls-70" d="m250.5,104.85c-.49.39-.99.79-1.48,1.18-1.41-1.35-.99-2.74-.08-4.11.32-.47.73-.88,1.1-1.32.16-.1.32-.2.48-.31,0,1.52-.01,3.04-.02,4.56Z"/><path class="cls-78" d="m255.4,97.83c.32-.03.64-.05.96-.09.46-.05.92-.1,1.19.38.18.31.09.62-.13.88-.39.44-.81.25-1.22.03-.8-.43-1.47-.1-2.16.29-.44.24-.97.54-1.38,0-.16-.21-.22-.62-.14-.89.17-.54.71-.44,1.15-.48.57-.05,1.15-.08,1.73-.13Z"/><path class="cls-25" d="m255.18,100.25c-.07.18-.12.36-.21.53-.32.59-.15,1.86-1.21,1.51-.91-.3-.4-1.26-.12-1.95.51-.03,1.03-.06,1.54-.09Z"/><path class="cls-30" d="m143.51,129.77c-.11-.43-.39-.58-.81-.46.11-.4.21-.79.32-1.19-.02-.63-.03-1.26-.05-1.9.21-1.32-.15-2.69.4-3.97.28.67.56,1.34.83,2.01-.09.39-.18.79-.27,1.18.14,1.47.51,2.96-.42,4.32Z"/><path class="cls-28" d="m143.17,138.21c-.34-2.35.53-4.63.39-6.96,1.05.69.58,1.79.73,2.72-.15,1.66-.3,3.32-.44,4.97-.23-.24-.45-.49-.68-.73Z"/><path class="cls-136" d="m143.94,125.45c.09-.39.18-.79.27-1.18.03-1.87.05-3.74.08-5.62.02-.98.04-1.95.06-2.93.11.02.22.03.33.04,0,2.55,0,5.09-.03,7.64,0,.75.09,1.56-.71,2.05Z"/><path class="cls-98" d="m144.28,118.65c-.03,1.87-.05,3.74-.08,5.62-.28-.67-.56-1.34-.83-2.01.01-.88.02-1.77.04-2.65.06-.53.33-.87.87-.96Z"/><path class="cls-95" d="m212.76,108.8c1.31-.38,2.61-.76,3.92-1.14,1.17.22,2.38.22,3.48.76-2.39.9-4.88.86-7.38.73,0-.11-.02-.23-.02-.34Z"/><path class="cls-64" d="m220.15,108.41c-1.1-.54-2.31-.54-3.48-.76-.66-.04-1.34,0-1.95-.35,1.59-.19,3.17-.38,4.76-.57.98.83,2.28.81,3.39,1.28-.42.15-.85.29-1.27.44l-1.45-.05Z"/><path class="cls-50" d="m221.61,108.45c.42-.15.85-.29,1.27-.44.38,0,.77,0,1.15,0,.23.73-.25.98-.8,1.2-.65,0-1.24-.15-1.62-.75Z"/><path class="cls-107" d="m224.04,104.96c1.31-.02,2.62-.04,3.89-.39.93.6,1.55-.32,2.32-.47.09,1.02-1.89,1.47-.78,2.77-.12,0-.24,0-.36-.01-1.76-.45-3.58-.75-5.08-1.9Z"/><path class="cls-48" d="m224.03,108.01c-.38,0-.77,0-1.15,0-1.12-.47-2.42-.45-3.39-1.28.23-.33.46-.67.69-1,.37,0,.74.02,1.11.02.63.3,1.25.59,1.88.89.57.27,1.26.47.87,1.35Z"/><path class="cls-15" d="m229.48,106.87c-1.11-1.3.87-1.75.78-2.77.98.69,1.07,1.48.39,3.51-.39-.25-.78-.5-1.16-.74Z"/><path class="cls-21" d="m224.04,104.96c1.5,1.15,3.32,1.44,5.08,1.9-2.67.99-4.67-1.05-7.02-1.54.15-.16.3-.31.45-.47.5.04.99.07,1.49.11Z"/><path class="cls-41" d="m246.16,106.41c-2.03-.04-1.86-1.23-1.37-2.58.58.74,1.16,1.49,1.74,2.23-.12.12-.25.23-.37.35Z"/><path class="cls-27" d="m208.87,110.73c-.36-.1-.86-.09-.82-.62.02-.37.4-.47.73-.5.79-.06,1.58-.13,2.04.73-.67,0-1.35-.01-1.95.39Z"/><path class="cls-126" d="m143.86,106.07c-.77-.24-1.55-.49-2.32-.73,2.82-.2,5.7-.05,8.25-1.63.45-.28.98-.35,1.45.03-.36.37-.7.75-1.08,1.1-1.27,1.17-.64,1.57.69,1.69-.51.23-1.01.47-1.52.7-1.09-1.38-2.42-1.87-4.13-1.21-.39.15-.89.04-1.33.04Z"/><path class="cls-137" d="m150.85,106.54c-1.33-.12-1.95-.52-.69-1.7.38-.35.72-.73,1.08-1.1.4.26.8.53,1.2.79-.33.34-.58.71-.36,1.21-.2.59-.7.71-1.23.8Z"/><path class="cls-109" d="m152.08,105.74c-.22-.5.02-.87.36-1.21.59-.77,1.32-1.26,2.34-1.16.02,1.13-1.47,1.26-1.57,2.32-.38.02-.76.04-1.14.05Z"/><path class="cls-10" d="m180.54,105.25c.91-.59,2-.13,3.06-.5-.94-.5-2.18.17-2.77-.96,2.1-.21,4.19-.31,6.23.38,0,.14.02.27.03.41-.26.48-.1.95.04,1.42-2.17-.49-4.5.42-6.59-.75Z"/><path class="cls-91" d="m187.13,106.01c-.14-.47-.3-.94-.04-1.42.51.11,1.02.22,1.53.33.26.13.52.26.78.38.4.92,1.41.96,2.11,1.43.75.51,0,.44-.25.56-1.26-.3-2.52-.6-3.77-.9-.12-.13-.24-.26-.35-.39Z"/><path class="cls-51" d="m220.17,105.74c-.23.33-.46.67-.69,1-1.59.19-3.17.38-4.76.57-1.26-.03-2.52-.02-3.77-.12-.8-.06-1.66-.16-2.03-1.09.5,0,.99,0,1.49,0,2.09.59,4.17.6,6.26,0,1.17-.12,2.34-.24,3.5-.35Z"/><path class="cls-22" d="m216.67,106.09c-2.09.59-4.17.59-6.26,0,2.09,0,4.17,0,6.26,0Z"/><path class="cls-90" d="m143.86,106.07c.45,0,.94.11,1.33-.04,1.72-.66,3.04-.16,4.13,1.21,1.54.33,3.1.43,4.67.4-1.05.24-2.11.48-3.16.73-.12,0-.24.01-.36.03-.38,0-.76-.01-1.14-.02-.85-.27-1.78-.09-2.37-1.23-.53-1.02-1.85-.69-2.83-.41-1.51.43-3.01.61-4.57.43,1.26-1.01,2.8-.95,4.29-1.09Z"/><path class="cls-105" d="m154,107.64c-1.57.03-3.13-.07-4.67-.4.51-.23,1.01-.47,1.52-.7.53-.08,1.03-.21,1.23-.8.38-.02.76-.03,1.14-.05.9,0,1.79.02,2.69.02.33.45.38.96.34,1.5-.75.14-1.49.29-2.24.43Z"/><path class="cls-122" d="m150.48,108.39c.12-.01.24-.02.36-.03.43.15,1.13-.12,1.17.63.02.36-.39.46-.71.49-.89.09-.88-.49-.81-1.1Z"/><text class="cls-149" transform="translate(26.93 47.02)"><tspan class="cls-148" x="0" y="0">T</tspan><tspan x="15" y="0">he Up</tspan><tspan class="cls-150" x="91.05" y="0">c</tspan><tspan class="cls-151" x="105.32" y="0">y</tspan><tspan class="cls-147" x="119.43" y="0">cle</tspan></text></g></svg>